<svg width="210.526315789474" height="85.6907894736842" xmlns:dc="http://purl.org/dc/elements/1.1/" xmlns:cc="http://creativecommons.org/ns#" xmlns:rdf="http://www.w3.org/1999/02/22-rdf-syntax-ns#" xmlns:svg="http://www.w3.org/2000/svg" xmlns="http://www.w3.org/2000/svg" xmlns:sodipodi="http://sodipodi.sourceforge.net/DTD/sodipodi-0.dtd" xmlns:inkscape="http://www.inkscape.org/namespaces/inkscape"><style>path{fill-opacity:1;display:inline;fill:#ffc8c8;stroke-width:1;stroke-miterlimit:4;stroke:#000000;stroke-opacity:1;stroke-dasharray:none;}</style>

<path id="Newbury" d=" M 92.4342105263158,66.2007894736845 L 91.9407894736842,65.3781578947366 L 91.7763157894737,65.1315789473684 L 91.6940789473684,64.9671052631579 L 91.5296052631579,64.9671052631579 L 91.2828947368421,64.7202631578945 L 91.2828947368421,63.6513157894737 L 91.1184210526316,63.4044736842103 L 90.7072368421053,62.8289473684211 L 90.296052631579,62.171052631579 L 90.296052631579,60.9376315789476 L 89.5559210526316,60.2797368421055 L 89.2269736842105,60.2797368421055 L 88.8157894736842,59.6218421052634 L 88.733552631579,59.4571052631576 L 88.8157894736842,59.2928947368424 L 88.5690789473684,59.046052631579 L 88.4046052631579,59.046052631579 L 88.1578947368421,59.2928947368424 L 87.9934210526316,59.2928947368424 L 87.5822368421053,58.8815789473684 L 87.5822368421053,58.6350000000003 L 87.7467105263158,58.3881578947368 L 87.7467105263158,58.2236842105263 L 87.5822368421053,58.0592105263158 L 87.3355263157895,58.2236842105263 L 86.7598684210526,58.2236842105263 L 86.5131578947368,58.4702631578945 L 85.9375,58.4702631578945 L 85.7730263157895,58.6350000000003 L 85.608552631579,58.8815789473684 L 85.1973684210526,59.2928947368424 L 85.0328947368421,59.2928947368424 L 84.8684210526316,59.046052631579 L 85.0328947368421,59.046052631579 L 85.1973684210526,58.7992105263155 L 85.2796052631579,58.6350000000003 L 85.0328947368421,58.3881578947368 L 84.375,58.3881578947368 L 84.2105263157895,58.2236842105263 L 83.7171052631579,57.6481578947371 L 83.5526315789474,57.6481578947371 L 83.0592105263158,56.990263157895 L 82.3190789473684,56.5789473684211 L 82.0723684210526,56.4965789473682 L 81.9078947368421,56.3323684210529 L 81.4144736842105,56.0855263157895 L 81.4144736842105,55.921052631579 L 81.6611842105263,55.6744736842108 L 81.6611842105263,55.0986842105263 L 81.9078947368421,55.0986842105263 L 82.0723684210526,54.8518421052629 L 82.2368421052632,54.3586842105266 L 82.0723684210526,54.0297368421055 L 81.9901315789474,54.2763157894737 L 81.7434210526316,54.1939473684208 L 81.4967105263158,53.9473684210526 L 81.4144736842105,53.6184210526316 L 81.6611842105263,53.2071052631576 L 81.6611842105263,52.8781578947366 L 81.9078947368421,52.5492105263155 L 82.0723684210526,52.3850000000003 L 82.7302631578947,52.3026315789474 L 82.8947368421053,52.1381578947368 L 83.5526315789474,52.1381578947368 L 84.375,51.4802631578947 L 84.5394736842105,51.5623684210524 L 85.0328947368421,51.1513157894737 L 85.6907894736842,50.740263157895 L 86.3486842105263,50.3289473684211 L 87.171052631579,49.8355263157895 L 88.1578947368421,49.259736842105 L 88.3223684210526,49.259736842105 L 89.2269736842105,48.4376315789476 L 89.6381578947368,47.6973684210526 L 89.6381578947368,47.5328947368421 L 90.296052631579,46.9571052631576 L 90.625,46.2171052631579 L 91.1184210526316,45.3947368421053 L 91.5296052631579,44.5723684210526 L 91.5296052631579,44.4078947368421 L 91.7763157894737,43.9965789473682 L 92.1875,43.5855263157895 L 92.3519736842105,43.5855263157895 L 92.5986842105263,43.3386842105261 L 93.0098684210526,42.7631578947368 L 93.421052631579,42.1052631578947 L 93.421052631579,41.6939473684208 L 94.0789473684211,41.0360526315787 L 94.0789473684211,40.7894736842105 L 93.6677631578947,40.7894736842105 L 93.421052631579,40.625 L 91.3651315789474,40.625 L 91.0361842105263,40.8718421052634 L 90.2138157894737,40.8718421052634 L 89.8026315789474,40.625 L 89.3914473684211,40.625 L 89.2269736842105,40.4605263157895 L 89.2269736842105,40.2139473684213 L 89.3914473684211,39.9671052631579 L 89.4736842105263,39.3913157894734 L 89.2269736842105,39.1447368421053 L 89.2269736842105,35.8552631578947 L 89.3914473684211,35.8552631578947 L 89.6381578947368,35.4439473684208 L 89.8026315789474,35.1973684210526 L 90.296052631579,35.1973684210526 L 90.4605263157895,34.9507894736845 L 90.4605263157895,34.7860526315787 L 90.296052631579,34.375 L 90.4605263157895,34.2928947368424 L 90.7072368421053,34.1281578947366 L 90.7072368421053,33.7171052631579 L 91.2828947368421,33.3060526315792 L 92.4342105263158,32.5657894736842 L 93.5032894736842,32.0723684210526 L 93.6677631578947,31.990263157895 L 93.2565789473684,31.0855263157895 L 93.0098684210526,30.1807894736839 L 92.8453947368421,29.1118421052632 L 92.5164473684211,27.9605263157895 L 92.1052631578947,26.9736842105263 L 91.5296052631579,26.1513157894737 L 90.625,25.4934210526316 L 89.6381578947368,25.5755263157892 L 89.3914473684211,25.740263157895 L 88.8980263157895,25.6578947368421 L 88.5690789473684,25.740263157895 L 87.8289473684211,25.8223684210526 L 87.4177631578947,25.411315789474 L 86.5953947368421,24.7534210526318 L 86.1019736842105,23.6018421052629 L 86.0197368421053,23.2728947368418 L 86.2664473684211,23.0263157894737 L 86.1019736842105,22.7797368421055 L 86.1019736842105,22.2039473684211 L 86.6776315789474,21.6281578947366 L 87.0888157894737,20.8060526315792 L 87.3355263157895,20.2302631578947 L 87.7467105263158,19.3255263157892 L 87.8289473684211,18.75 L 87.5822368421053,18.1744736842108 L 87.3355263157895,17.4342105263158 L 86.5131578947368,16.5297368421055 L 86.3486842105263,16.6939473684208 L 85.608552631579,17.1052631578947 L 84.375,17.5986842105263 L 83.8815789473684,18.009736842105 L 83.0592105263158,18.4210526315789 L 83.1414473684211,18.9965789473682 L 82.2368421052632,19.2434210526316 L 80.6743421052632,19.2434210526316 L 79.1940789473684,20.0657894736842 L 77.2203947368421,20.5592105263158 L 75.9868421052632,20.7236842105263 L 75.6578947368421,20.8881578947368 L 75,20.8881578947368 L 74.8355263157895,20.2302631578947 L 74.5888157894737,19.9013157894737 L 74.7532894736842,19.5723684210526 L 74.9177631578947,19.161315789474 L 75.2467105263158,18.5855263157895 L 75,18.1744736842108 L 74.5888157894737,18.2565789473684 L 74.3421052631579,18.4210526315789 L 73.9309210526316,18.5855263157895 L 72.6973684210526,18.6676315789471 L 72.2039473684211,18.4210526315789 L 71.7105263157895,18.8323684210529 L 70.9703947368421,18.9965789473682 L 70.2302631578947,19.2434210526316 L 69.9013157894737,18.9144736842105 L 68.75,18.4210526315789 L 67.8453947368421,18.2565789473684 L 65.7894736842105,18.4210526315789 L 65.625,18.5855263157895 L 65.2138157894737,18.4210526315789 L 64.6381578947368,18.3386842105261 L 63.8980263157895,17.5986842105263 L 62.9934210526316,16.3649999999997 L 62.5,16.2828947368421 L 61.2664473684211,15.9539473684211 L 60.8552631578947,15.5428947368424 L 60.1973684210526,15.2960526315789 L 59.8684210526316,14.8026315789474 L 59.9506578947368,14.0623684210524 L 59.1282894736842,13.9802631578947 L 58.8815789473684,13.8157894736842 L 58.2236842105263,13.8157894736842 L 58.0592105263158,13.9802631578947 L 57.4013157894737,13.4868421052632 L 56.4144736842105,12.8289473684211 L 54.5230263157895,12.7465789473682 L 53.5361842105263,12.1710526315789 L 52.6315789473684,12.0886842105261 L 52.5493421052632,11.6776315789474 L 52.3026315789474,11.0197368421053 L 52.2203947368421,10.9376315789476 L 51.3980263157895,12.0065789473684 L 51.3157894736842,13.1578947368421 L 50.9868421052632,13.9802631578947 L 50.9046052631579,14.3913157894734 L 50.4934210526316,15.3781578947366 L 50.4934210526316,15.8718421052634 L 50.6578947368421,16.0360526315787 L 50,16.6939473684208 L 49.1776315789474,16.7763157894737 L 48.7664473684211,16.4473684210526 L 48.5197368421053,15.9539473684211 L 48.0263157894737,15.7894736842105 L 46.7105263157895,15.8718421052634 L 46.2993421052632,15.2960526315789 L 45.2302631578947,14.2271052631582 L 44.983552631579,14.2271052631582 L 44.1611842105263,14.8850000000003 L 43.8322368421053,14.8850000000003 L 43.3388157894737,15.1315789473684 L 43.3388157894737,15.7894736842105 L 43.5032894736842,16.2007894736845 L 43.3388157894737,16.5297368421055 L 42.9276315789474,17.1876315789476 L 42.1875,17.7631578947368 L 41.6940789473684,18.0921052631579 L 41.3651315789474,18.009736842105 L 41.1184210526316,17.8455263157897 L 39.9671052631579,17.8455263157897 L 39.8026315789474,17.2697368421053 L 39.3914473684211,16.6118421052632 L 38.3223684210526,15.8718421052634 L 37.8289473684211,16.3649999999997 L 37.0888157894737,17.0228947368418 L 36.4309210526316,17.9276315789474 L 35.1973684210526,19.2434210526316 L 35.1973684210526,19.0789473684211 L 34.9506578947368,18.5034210526318 L 34.5394736842105,17.1876315789476 L 34.5394736842105,16.6939473684208 L 34.4572368421053,16.2828947368421 L 34.375,16.5297368421055 L 33.7171052631579,17.1876315789476 L 32.8125,17.7631578947368 L 31.9901315789474,18.1744736842108 L 30.9210526315789,18.8323684210529 L 30.4276315789474,19.0789473684211 L 29.9342105263158,19.2434210526316 L 28.4539473684211,19.2434210526316 L 28.2072368421053,19.0789473684211 L 27.6315789473684,18.8323684210529 L 27.6315789473684,18.4210526315789 L 27.3848684210526,18.8323684210529 L 27.3848684210526,19.4078947368421 L 27.6315789473684,20.0657894736842 L 27.8782894736842,20.4771052631582 L 27.8782894736842,20.8881578947368 L 27.3848684210526,21.1350000000003 L 26.5625,21.1350000000003 L 26.5625,21.2992105263155 L 26.3980263157895,21.3815789473684 L 26.3980263157895,20.8881578947368 L 25.7401315789474,20.7236842105263 L 25.3289473684211,20.4771052631582 L 25.3289473684211,20.2302631578947 L 25,20.0657894736842 L 24.3421052631579,19.9013157894737 L 23.8486842105263,19.9013157894737 L 23.2730263157895,19.0789473684211 L 23.4375,18.4210526315789 L 23.6842105263158,17.8455263157897 L 23.0263157894737,17.2697368421053 L 21.6282894736842,16.2828947368421 L 21.1348684210526,16.1184210526316 L 20.2302631578947,16.1184210526316 L 18.6677631578947,14.8026315789474 L 17.2697368421053,14.8850000000003 L 15.9539473684211,15.4605263157895 L 15.5427631578947,15.8718421052634 L 15.5427631578947,16.3649999999997 L 14.7203947368421,15.5428947368424 L 13.8980263157895,15.3781578947366 L 13.8157894736842,14.8850000000003 L 13.2401315789474,14.4736842105263 L 12.5822368421053,14.8026315789474 L 12.4177631578947,14.1447368421053 L 10.9375,14.1447368421053 L 9.70394736842105,15.5428947368424 L 9.21052631578947,16.4473684210526 L 8.55263157894737,16.0360526315787 L 8.38815789473684,15.9539473684211 L 8.47039473684211,17.2697368421053 L 6.33223684210526,18.9144736842105 L 6.25,19.490263157895 L 6.08552631578947,21.0526315789474 L 5.67434210526316,22.1218421052634 L 5.5921052631579,22.9439473684208 L 5.75657894736842,22.9439473684208 L 5.75657894736842,23.6018421052629 L 5.42763157894737,24.0131578947368 L 5.42763157894737,25.411315789474 L 5.26315789473684,25.6578947368421 L 5.26315789473684,27.1381578947368 L 5.5921052631579,27.6315789473684 L 5.50986842105263,29.1118421052632 L 6.49671052631579,30.1807894736839 L 6.33223684210526,30.509736842105 L 6.33223684210526,31.3323684210529 L 6.33223684210526,31.990263157895 L 6.90789473684211,32.4834210526313 L 6.90789473684211,33.1413157894734 L 8.55263157894737,34.2105263157895 L 8.88157894736842,35.6086842105266 L 9.21052631578947,37.0065789473684 L 10.2796052631579,37.0886842105261 L 10.3618421052632,38.8157894736842 L 11.3486842105263,39.8026315789474 L 12.3355263157895,40.4605263157895 L 12.4177631578947,41.4473684210526 L 12.9111842105263,41.9407894736842 L 13.7335526315789,42.5165789473687 L 14.8026315789474,42.6807894736839 L 15.4605263157895,43.0921052631579 L 16.1184210526316,43.3386842105261 L 16.2828947368421,43.8323684210529 L 16.8585526315789,44.2434210526316 L 16.9407894736842,46.0526315789474 L 17.0230263157895,47.9439473684208 L 16.5296052631579,48.9307894736839 L 16.1184210526316,49.671052631579 L 15.7894736842105,50.0823684210529 L 15.8717105263158,50.9044736842103 L 16.4473684210526,51.1513157894737 L 16.7763157894737,52.2202631578945 L 15.8717105263158,52.2202631578945 L 15.5427631578947,51.9736842105263 L 14.4736842105263,51.7271052631582 L 13.6513157894737,52.0560526315792 L 13.3223684210526,52.7139473684213 L 12.5,52.796052631579 L 12.0065789473684,53.0428947368424 L 11.8421052631579,53.3718421052634 L 11.5953947368421,53.0428947368424 L 10.8552631578947,53.125 L 10.7730263157895,53.6184210526316 L 10.2796052631579,53.6184210526316 L 9.86842105263158,53.2071052631576 L 9.29276315789474,53.2894736842105 L 8.63486842105263,54.1939473684208 L 8.63486842105263,55.0986842105263 L 9.53947368421053,55.509736842105 L 10.2796052631579,55.8386842105261 L 10.2796052631579,56.990263157895 L 10.9375,56.990263157895 L 11.7598684210526,56.4965789473682 L 11.7598684210526,57.6481578947371 L 11.7598684210526,59.375 L 11.3486842105263,59.7860526315787 L 11.3486842105263,60.6907894736842 L 12.1710526315789,61.0197368421053 L 12.7467105263158,61.1018421052629 L 13.0756578947368,62.171052631579 L 13.7335526315789,62.3355263157895 L 14.7203947368421,62.8289473684211 L 14.6381578947368,63.240263157895 L 14.8026315789474,63.8157894736842 L 15.7894736842105,64.3092105263158 L 16.6940789473684,65.0492105263155 L 16.6940789473684,65.7071052631576 L 17.1875,65.7894736842105 L 17.8453947368421,65.5428947368424 L 18.5855263157895,65.5428947368424 L 19.0789473684211,66.2007894736845 L 19.0789473684211,67.5986842105263 L 20.0657894736842,67.6807894736839 L 20.8059210526316,68.2565789473684 L 21.1348684210526,68.421052631579 L 21.875,68.5034210526319 L 22.4506578947368,68.2565789473684 L 22.5328947368421,68.5855263157895 L 22.3684210526316,68.9965789473682 L 21.7927631578947,69.9013157894737 L 21.7105263157895,71.2992105263155 L 21.6282894736842,72.4507894736845 L 24.0953947368421,73.9307894736839 L 24.2598684210526,75 L 23.6842105263158,76.3157894736842 L 22.3684210526316,78.7828947368421 L 21.9572368421053,80.1807894736839 L 22.0394736842105,80.4276315789474 L 23.1085526315789,80.3455263157897 L 23.5197368421053,79.9342105263158 L 24.5065789473684,79.7697368421053 L 26.1513157894737,79.5228947368418 L 28.2072368421053,79.1939473684208 L 29.8519736842105,79.1939473684208 L 31.25,79.1939473684208 L 32.9769736842105,78.5360526315787 L 34.375,78.0428947368424 L 34.375,77.7139473684213 L 33.7171052631579,76.6447368421053 L 33.2236842105263,75.9868421052632 L 32.3190789473684,75.0823684210529 L 31.8256578947368,74.8355263157895 L 31.9901315789474,74.0955263157897 L 31.9901315789474,73.0263157894737 L 31.9078947368421,72.6149999999997 L 33.3059210526316,72.4507894736845 L 34.4572368421053,72.4507894736845 L 34.7039473684211,72.2039473684211 L 35.0328947368421,71.1350000000003 L 35.8552631578947,70.3947368421053 L 36.3486842105263,69.3255263157892 L 36.7598684210526,68.009736842105 L 37.4177631578947,67.5165789473687 L 38.0756578947368,67.3518421052629 L 39.3914473684211,67.6807894736839 L 41.2006578947368,68.009736842105 L 42.5986842105263,68.3386842105261 L 43.2565789473684,68.6676315789471 L 44.4078947368421,68.75 L 45.8881578947368,68.75 L 46.2171052631579,68.5034210526319 L 46.9572368421053,68.75 L 47.9440789473684,68.8323684210529 L 49.3421052631579,68.9144736842105 L 50.0822368421053,68.5034210526319 L 51.6447368421053,68.421052631579 L 52.5493421052632,67.7631578947368 L 53.4539473684211,67.5986842105263 L 54.8519736842105,67.2697368421053 L 55.7565789473684,67.2697368421053 L 56.4967105263158,67.5986842105263 L 57.483552631579,67.7631578947368 L 58.5526315789474,67.9276315789474 L 59.375,67.8455263157897 L 60.2796052631579,68.421052631579 L 60.8552631578947,68.75 L 61.2664473684211,68.8323684210529 L 61.8421052631579,68.421052631579 L 62.2532894736842,68.5034210526319 L 62.5,68.8323684210529 L 63.2401315789474,68.8323684210529 L 63.6513157894737,68.0921052631579 L 64.3914473684211,67.9276315789474 L 64.8848684210526,68.0921052631579 L 65.0493421052632,68.6676315789471 L 65.5427631578947,67.9276315789474 L 65.7072368421053,67.5165789473687 L 66.6940789473684,67.4342105263158 L 67.6809210526316,67.5986842105263 L 67.9276315789474,68.3386842105261 L 68.75,69.0789473684211 L 70.4769736842105,68.8323684210529 L 71.1348684210526,68.5034210526319 L 71.7927631578947,68.0921052631579 L 72.3684210526316,68.1744736842108 L 72.6973684210526,68.8323684210529 L 73.108552631579,69.0789473684211 L 74.0953947368421,69.161315789474 L 74.5065789473684,68.8323684210529 L 75.3289473684211,68.8323684210529 L 75.8223684210526,69.0789473684211 L 76.8092105263158,69.5723684210526 L 78.125,69.8192105263161 L 79.0296052631579,70.2302631578947 L 79.6052631578947,70.7236842105263 L 80.5921052631579,71.4639473684213 L 81.0855263157895,71.2992105263155 L 81.9078947368421,70.8060526315792 L 82.9769736842105,70.6413157894734 L 84.7861842105263,70.6413157894734 L 86.1019736842105,70.8881578947368 L 86.6776315789474,71.546052631579 L 87.5822368421053,71.546052631579 L 89.1447368421053,71.2992105263155 L 89.9671052631579,71.2171052631579 L 90.296052631579,71.0526315789474 L 90.296052631579,70.3123684210524 L 90.7072368421053,70.4771052631582 L 91.4473684210526,70.6413157894734 L 91.7763157894737,70.6413157894734 L 91.9407894736842,69.8192105263161 L 91.6940789473684,68.8323684210529 L 91.6940789473684,67.5986842105263 L 91.858552631579,66.5297368421055 L 92.4342105263158,66.2007894736845 z"  />

<path id="Slough" d=" M 177.384868421053,27.6315789473684 L 177.631578947368,27.4671052631579 L 177.960526315789,27.4671052631579 L 178.207236842105,27.6315789473684 L 178.865131578947,27.6315789473684 L 178.865131578947,27.4671052631579 L 179.111842105263,27.0560526315792 L 179.276315789474,26.8092105263158 L 179.523026315789,26.5623684210524 L 179.769736842105,26.6447368421053 L 179.934210526316,26.3981578947371 L 180.756578947368,26.3981578947371 L 181.085526315789,26.6447368421053 L 181.743421052632,26.9736842105263 L 182.072368421053,27.2202631578945 L 182.401315789474,27.6315789473684 L 182.648026315789,27.6315789473684 L 182.894736842105,27.8781578947366 L 183.059210526316,27.8781578947366 L 183.552631578947,28.2894736842105 L 183.634868421053,28.4539473684211 L 183.799342105263,28.2894736842105 L 184.539473684211,28.2894736842105 L 184.539473684211,28.0428947368424 L 184.703947368421,27.8781578947366 L 184.703947368421,27.3850000000003 L 185.032894736842,27.1381578947368 L 185.197368421053,26.9736842105263 L 185.773026315789,27.6315789473684 L 186.019736842105,27.6315789473684 L 186.184210526316,27.8781578947366 L 186.430921052632,28.0428947368424 L 186.842105263158,28.4539473684211 L 186.842105263158,28.0428947368424 L 187.006578947368,27.8781578947366 L 187.5,27.8781578947366 L 188.240131578947,28.2894736842105 L 188.815789473684,28.4539473684211 L 189.144736842105,28.6184210526316 L 189.720394736842,28.9473684210526 L 190.296052631579,29.3586842105266 L 190.789473684211,29.6876315789476 L 191.282894736842,29.9342105263158 L 191.611842105263,29.9342105263158 L 191.611842105263,29.7697368421053 L 192.105263157895,29.0297368421055 L 192.105263157895,28.7007894736845 L 192.269736842105,28.4539473684211 L 192.434210526316,28.3718421052634 L 192.763157894737,28.4539473684211 L 193.256578947368,28.7007894736845 L 193.75,28.9473684210526 L 193.75,29.5228947368418 L 193.503289473684,29.6876315789476 L 193.585526315789,29.8518421052629 L 193.914473684211,30.0986842105263 L 194.407894736842,30.1807894736839 L 194.654605263158,30.3455263157897 L 194.819078947368,30.3455263157897 L 195.065789473684,30.0986842105263 L 195.394736842105,29.6876315789476 L 195.641447368421,29.5228947368418 L 196.217105263158,29.5228947368418 L 196.628289473684,29.3586842105266 L 197.450657894737,29.2763157894737 L 197.697368421053,29.1939473684208 L 197.779605263158,28.9473684210526 L 198.108552631579,28.2894736842105 L 198.355263157895,27.8781578947366 L 198.355263157895,26.9736842105263 L 198.190789473684,26.8092105263158 L 198.108552631579,26.3981578947371 L 198.355263157895,26.0692105263161 L 198.355263157895,25.740263157895 L 198.519736842105,25.3289473684211 L 198.519736842105,24.6710526315789 L 198.273026315789,24.5065789473684 L 195.970394736842,24.5065789473684 L 195.476973684211,24.6710526315789 L 192.434210526316,24.6710526315789 L 192.1875,24.5065789473684 L 191.365131578947,24.5065789473684 L 190.789473684211,24.259736842105 L 190.789473684211,24.0955263157897 L 191.036184210526,23.8486842105263 L 191.036184210526,23.4376315789476 L 191.200657894737,23.1907894736842 L 191.036184210526,22.7797368421055 L 190.789473684211,22.6149999999997 L 190.789473684211,22.2039473684211 L 191.200657894737,21.7928947368424 L 191.282894736842,21.6281578947366 L 191.447368421053,21.3815789473684 L 190.789473684211,21.1350000000003 L 190.213815789474,20.5592105263158 L 190.213815789474,19.9013157894737 L 189.638157894737,19.0789473684211 L 189.802631578947,18.8323684210529 L 190.625,18.8323684210529 L 191.036184210526,18.4210526315789 L 190.953947368421,17.9276315789474 L 190.460526315789,17.7631578947368 L 190.049342105263,17.5986842105263 L 189.309210526316,17.5986842105263 L 189.144736842105,18.2565789473684 L 188.980263157895,18.4210526315789 L 188.898026315789,18.8323684210529 L 188.733552631579,19.2434210526316 L 188.733552631579,19.490263157895 L 188.486842105263,19.9013157894737 L 188.486842105263,20.7236842105263 L 187.993421052632,20.7236842105263 L 186.924342105263,20.8060526315792 L 186.595394736842,20.5592105263158 L 186.019736842105,20.5592105263158 L 186.019736842105,20.3123684210524 L 185.773026315789,20.0657894736842 L 185.855263157895,19.490263157895 L 185.608552631579,19.490263157895 L 185.279605263158,19.2434210526316 L 184.786184210526,19.2434210526316 L 183.881578947368,18.8323684210529 L 183.799342105263,18.3386842105261 L 183.552631578947,18.2565789473684 L 183.223684210526,18.4210526315789 L 183.059210526316,18.4210526315789 L 182.565789473684,18.009736842105 L 182.072368421053,17.7631578947368 L 181.578947368421,17.3518421052629 L 181.414473684211,16.8586842105266 L 181.25,16.5297368421055 L 179.934210526316,16.5297368421055 L 179.6875,16.3649999999997 L 179.276315789474,16.3649999999997 L 178.865131578947,16.5297368421055 L 178.125,16.7763157894737 L 177.796052631579,16.9407894736842 L 177.138157894737,16.9407894736842 L 176.809210526316,17.1876315789476 L 176.315789473684,18.1744736842108 L 175.986842105263,18.5855263157895 L 175.493421052632,18.9144736842105 L 174.753289473684,19.2434210526316 L 174.013157894737,19.6544736842103 L 174.013157894737,20.8881578947368 L 174.259868421053,20.8881578947368 L 174.259868421053,21.4639473684213 L 174.095394736842,21.7928947368424 L 174.259868421053,22.2039473684211 L 174.671052631579,22.2039473684211 L 175.082236842105,22.5328947368421 L 175.328947368421,22.8618421052632 L 175.328947368421,25.1644736842105 L 175.082236842105,25.3289473684211 L 175.082236842105,25.740263157895 L 174.506578947368,25.740263157895 L 174.259868421053,26.0692105263161 L 174.259868421053,26.3981578947371 L 174.753289473684,26.3157894736842 L 175.328947368421,26.6447368421053 L 175.328947368421,27.2202631578945 L 175.164473684211,27.3850000000003 L 175.328947368421,27.6315789473684 L 176.398026315789,27.6315789473684 L 176.973684210526,26.9736842105263 L 177.467105263158,26.9736842105263 L 177.384868421053,27.6315789473684 z"  />

<path id="Bracknell" d=" M 148.930921052632,55.2631578947368 L 148.4375,55.2631578947368 L 148.026315789474,55.509736842105 L 147.697368421053,55.6744736842108 L 147.039473684211,55.6744736842108 L 146.875,55.921052631579 L 146.299342105263,55.921052631579 L 145.559210526316,56.3323684210529 L 143.503289473684,56.3323684210529 L 143.256578947368,56.4965789473682 L 143.256578947368,56.9078947368421 L 143.503289473684,57.2368421052632 L 143.667763157895,57.2368421052632 L 143.914473684211,57.4013157894737 L 143.914473684211,57.5657894736842 L 143.503289473684,57.5657894736842 L 143.256578947368,57.8123684210524 L 142.598684210526,57.8123684210524 L 142.680921052632,58.2236842105263 L 142.845394736842,58.7992105263155 L 143.092105263158,59.7039473684211 L 143.256578947368,60.0328947368421 L 143.256578947368,60.6907894736842 L 143.092105263158,60.6907894736842 L 142.598684210526,61.1018421052629 L 142.1875,61.3486842105263 L 140.953947368421,61.3486842105263 L 140.542763157895,60.9376315789476 L 140.378289473684,60.9376315789476 L 139.720394736842,60.3618421052632 L 139.144736842105,60.3618421052632 L 138.898026315789,60.1149999999997 L 137.828947368421,60.1149999999997 L 137.582236842105,60.2797368421055 L 137.664473684211,61.3486842105263 L 137.253289473684,61.3486842105263 L 137.006578947368,61.5955263157897 L 137.006578947368,61.759736842105 L 137.5,62.171052631579 L 137.171052631579,62.5 L 137.006578947368,62.8289473684211 L 136.348684210526,63.4868421052632 L 136.019736842105,63.240263157895 L 135.361842105263,62.8289473684211 L 134.621710526316,62.4176315789471 L 134.292763157895,62.4176315789471 L 134.046052631579,62.171052631579 L 133.881578947368,62.5823684210529 L 133.634868421053,62.5823684210529 L 133.799342105263,62.8289473684211 L 133.634868421053,62.9934210526316 L 133.634868421053,63.240263157895 L 133.470394736842,63.4044736842103 L 133.470394736842,63.8981578947371 L 133.223684210526,64.0623684210524 L 133.223684210526,64.5560526315792 L 132.976973684211,64.7202631578945 L 132.401315789474,64.3092105263158 L 131.25,64.3092105263158 L 131.085526315789,64.1447368421053 L 131.332236842105,63.8981578947371 L 131.332236842105,63.240263157895 L 131.085526315789,63.0755263157892 L 130.921052631579,63.240263157895 L 130.756578947368,63.240263157895 L 130.427631578947,63.4868421052632 L 130.263157894737,63.5692105263161 L 130.098684210526,63.8981578947371 L 129.851973684211,64.3092105263158 L 129.851973684211,64.4736842105263 L 129.440789473684,64.9671052631579 L 129.276315789474,65.5428947368424 L 128.782894736842,66.1184210526316 L 128.865131578947,66.7763157894737 L 128.289473684211,67.5165789473687 L 127.796052631579,68.6676315789471 L 128.042763157895,69.0789473684211 L 127.960526315789,69.6544736842103 L 128.618421052632,69.8192105263161 L 129.851973684211,69.9834210526313 L 130.180921052632,70.4771052631582 L 130.592105263158,70.7236842105263 L 131.167763157895,70.2302631578947 L 131.496710526316,70.4771052631582 L 131.743421052632,71.0526315789474 L 132.730263157895,71.0526315789474 L 133.470394736842,71.0526315789474 L 134.046052631579,71.4639473684213 L 134.703947368421,71.4639473684213 L 135.115131578947,72.0394736842105 L 135.526315789474,72.3684210526316 L 136.266447368421,72.3684210526316 L 136.759868421053,71.7105263157895 L 137.582236842105,71.7105263157895 L 139.144736842105,71.7928947368424 L 140.131578947368,71.7928947368424 L 140.542763157895,72.0394736842105 L 141.694078947368,72.1218421052634 L 142.927631578947,72.0394736842105 L 143.832236842105,72.1218421052634 L 143.996710526316,71.875 L 144.572368421053,72.1218421052634 L 144.901315789474,72.3684210526316 L 144.983552631579,72.9439473684208 L 145.888157894737,72.9439473684208 L 146.792763157895,73.7665789473687 L 146.875,74.259736842105 L 146.875,74.8355263157895 L 147.203947368421,75.3289473684211 L 148.108552631579,75.3289473684211 L 148.766447368421,75.411315789474 L 149.177631578947,75.1644736842105 L 149.835526315789,75.1644736842105 L 150.575657894737,75.411315789474 L 151.5625,75.740263157895 L 152.220394736842,75.9868421052632 L 152.796052631579,76.6447368421053 L 153.782894736842,77.4671052631579 L 153.947368421053,77.6315789473684 L 154.358552631579,77.2202631578945 L 155.674342105263,76.1513157894737 L 155.921052631579,76.1513157894737 L 156.332236842105,75.411315789474 L 156.578947368421,75.0823684210529 L 156.990131578947,75.0823684210529 L 157.154605263158,74.8355263157895 L 157.072368421053,74.259736842105 L 156.907894736842,74.1776315789474 L 157.565789473684,73.7665789473687 L 158.141447368421,73.0263157894737 L 158.223684210526,72.6149999999997 L 158.881578947368,72.0394736842105 L 158.963815789474,71.546052631579 L 159.868421052632,70.6413157894734 L 160.361842105263,69.8192105263161 L 160.773026315789,68.8323684210529 L 161.019736842105,68.0921052631579 L 161.430921052632,67.6807894736839 L 161.348684210526,67.3518421052629 L 161.348684210526,66.8586842105266 L 161.430921052632,66.2828947368421 L 161.677631578947,65.3781578947366 L 161.924342105263,64.6381578947368 L 162.171052631579,63.6513157894737 L 162.335526315789,62.7465789473682 L 162.5,62.171052631579 L 162.5,61.3486842105263 L 162.335526315789,61.2665789473687 L 162.088815789474,60.8552631578947 L 161.924342105263,60.3618421052632 L 161.513157894737,59.8684210526316 L 161.513157894737,59.7039473684211 L 161.677631578947,59.4571052631576 L 161.842105263158,59.4571052631576 L 162.171052631579,59.2928947368424 L 162.335526315789,58.7992105263155 L 162.5,58.4702631578945 L 162.5,58.0592105263158 L 162.746710526316,57.8123684210524 L 162.746710526316,57.5657894736842 L 163.157894736842,57.2368421052632 L 163.157894736842,56.7434210526316 L 162.911184210526,56.3323684210529 L 163.240131578947,56.4965789473682 L 163.569078947368,55.921052631579 L 163.569078947368,55.180789473684 L 163.980263157895,54.2763157894737 L 163.980263157895,53.6184210526316 L 163.815789473684,53.3718421052634 L 164.226973684211,52.9605263157895 L 163.980263157895,52.796052631579 L 163.651315789474,52.1381578947368 L 163.569078947368,51.5623684210524 L 162.5,51.5623684210524 L 162.088815789474,51.3157894736842 L 160.526315789474,51.3157894736842 L 160.032894736842,51.1513157894737 L 159.621710526316,51.0692105263161 L 159.621710526316,50.6578947368421 L 159.786184210526,50.4934210526316 L 159.868421052632,50.0823684210529 L 159.375,49.8355263157895 L 159.210526315789,49.9176315789471 L 159.375,49.671052631579 L 159.210526315789,49.4244736842108 L 158.717105263158,49.5065789473684 L 158.552631578947,49.671052631579 L 158.141447368421,49.671052631579 L 157.894736842105,49.4244736842108 L 157.565789473684,49.4244736842108 L 157.236842105263,49.671052631579 L 156.907894736842,49.4244736842108 L 156.661184210526,49.4244736842108 L 156.414473684211,49.5886842105261 L 156.25,49.671052631579 L 155.756578947368,49.8355263157895 L 155.427631578947,50 L 155.263157894737,50 L 154.605263157895,50.4934210526316 L 154.358552631579,50.4934210526316 L 154.194078947368,50.6578947368421 L 153.947368421053,50.740263157895 L 153.536184210526,50.9044736842103 L 153.125,51.0692105263161 L 153.289473684211,51.1513157894737 L 153.536184210526,51.3157894736842 L 153.782894736842,51.3157894736842 L 153.947368421053,51.4802631578947 L 153.947368421053,51.9736842105263 L 154.440789473684,52.3850000000003 L 154.358552631579,52.796052631579 L 154.194078947368,52.9605263157895 L 154.194078947368,53.2071052631576 L 153.782894736842,53.6184210526316 L 153.782894736842,54.2763157894737 L 153.536184210526,54.4407894736842 L 153.536184210526,54.6052631578947 L 153.125,54.6052631578947 L 152.878289473684,54.4407894736842 L 152.467105263158,54.4407894736842 L 152.220394736842,54.6876315789476 L 152.138157894737,54.6876315789476 L 151.398026315789,55.2631578947368 L 151.233552631579,55.3455263157897 L 150.986842105263,55.509736842105 L 150.575657894737,55.921052631579 L 150.164473684211,55.921052631579 L 150,56.0855263157895 L 148.930921052632,56.0855263157895 L 148.930921052632,55.2631578947368 z"/>

<path id="Wokingham" d=" M 94.0789473684211,40.9539473684211 L 94.0789473684211,41.0360526315787 L 93.421052631579,41.6939473684208 L 93.421052631579,42.1052631578947 L 93.0098684210526,42.7631578947368 L 92.5986842105263,43.3386842105261 L 92.3519736842105,43.5855263157895 L 92.1875,43.5855263157895 L 91.7763157894737,43.9965789473682 L 91.5296052631579,44.4078947368421 L 91.5296052631579,44.5723684210526 L 91.1184210526316,45.3947368421053 L 90.625,46.2171052631579 L 90.296052631579,46.9571052631576 L 89.6381578947368,47.5328947368421 L 89.6381578947368,47.6973684210526 L 89.2269736842105,48.4376315789476 L 88.3223684210526,49.259736842105 L 88.1578947368421,49.259736842105 L 87.171052631579,49.8355263157895 L 86.3486842105263,50.3289473684211 L 85.6907894736842,50.740263157895 L 85.0328947368421,51.1513157894737 L 84.5394736842105,51.5623684210524 L 84.375,51.4802631578947 L 83.5526315789474,52.1381578947368 L 82.8947368421053,52.1381578947368 L 82.7302631578947,52.3026315789474 L 82.0723684210526,52.3850000000003 L 81.9078947368421,52.5492105263155 L 81.6611842105263,52.8781578947366 L 81.6611842105263,53.2071052631576 L 81.4144736842105,53.6184210526316 L 81.4967105263158,53.9473684210526 L 81.7434210526316,54.1939473684208 L 81.9901315789474,54.2763157894737 L 82.0723684210526,54.0297368421055 L 82.2368421052632,54.3586842105266 L 82.0723684210526,54.8518421052629 L 81.9078947368421,55.0986842105263 L 81.6611842105263,55.0986842105263 L 81.6611842105263,55.6744736842108 L 81.4144736842105,55.921052631579 L 81.4144736842105,56.0855263157895 L 81.9078947368421,56.3323684210529 L 82.0723684210526,56.4965789473682 L 82.3190789473684,56.5789473684211 L 83.0592105263158,56.990263157895 L 83.5526315789474,57.6481578947371 L 83.7171052631579,57.6481578947371 L 84.2105263157895,58.2236842105263 L 84.375,58.3881578947368 L 85.0328947368421,58.3881578947368 L 85.2796052631579,58.6350000000003 L 85.1973684210526,58.7992105263155 L 85.0328947368421,59.046052631579 L 84.8684210526316,59.046052631579 L 85.0328947368421,59.2928947368424 L 85.1973684210526,59.2928947368424 L 85.608552631579,58.8815789473684 L 85.7730263157895,58.6350000000003 L 85.9375,58.4702631578945 L 86.5131578947368,58.4702631578945 L 86.7598684210526,58.2236842105263 L 87.3355263157895,58.2236842105263 L 87.5822368421053,58.0592105263158 L 87.7467105263158,58.2236842105263 L 87.7467105263158,58.3881578947368 L 87.5822368421053,58.6350000000003 L 87.5822368421053,58.8815789473684 L 87.9934210526316,59.2928947368424 L 88.1578947368421,59.2928947368424 L 88.4046052631579,59.046052631579 L 88.5690789473684,59.046052631579 L 88.8157894736842,59.2928947368424 L 88.733552631579,59.4571052631576 L 88.8157894736842,59.6218421052634 L 89.2269736842105,60.2797368421055 L 89.5559210526316,60.2797368421055 L 90.296052631579,60.9376315789476 L 90.296052631579,62.171052631579 L 90.7072368421053,62.8289473684211 L 91.1184210526316,63.4044736842103 L 91.2828947368421,63.6513157894737 L 91.2828947368421,64.7202631578945 L 91.5296052631579,64.9671052631579 L 91.6940789473684,64.9671052631579 L 91.7763157894737,65.1315789473684 L 91.9407894736842,65.3781578947366 L 92.4342105263158,66.2007894736845 L 93.2565789473684,65.7071052631576 L 94.7368421052632,64.8850000000003 L 95.2302631578947,64.1447368421053 L 96.1348684210526,64.0623684210524 L 96.4638157894737,63.8157894736842 L 97.0394736842105,63.5692105263161 L 97.9440789473684,64.3913157894734 L 99.1776315789474,65.0492105263155 L 98.5197368421053,65.8718421052634 L 98.4375,66.2828947368421 L 99.0953947368421,66.2007894736845 L 99.5888157894737,66.1184210526316 L 100.328947368421,66.6939473684208 L 101.233552631579,67.2697368421053 L 101.891447368421,68.2565789473684 L 102.796052631579,69.0789473684211 L 103.125,69.5723684210526 L 103.700657894737,69.9013157894737 L 104.029605263158,70.9702631578945 L 107.483552631579,70.8060526315792 L 110.526315789474,70.8060526315792 L 111.430921052632,70.7236842105263 L 112.5,70.3123684210524 L 112.993421052632,69.7368421052632 L 113.980263157895,69.8192105263161 L 114.391447368421,69.9013157894737 L 114.720394736842,69.4078947368421 L 115.213815789474,69.7368421052632 L 115.542763157895,69.9013157894737 L 115.625,70.3123684210524 L 116.282894736842,70.4771052631582 L 116.776315789474,70.1481578947371 L 117.516447368421,70.2302631578947 L 118.092105263158,70.3947368421053 L 120.230263157895,69.7368421052632 L 122.203947368421,69.3255263157892 L 123.684210526316,68.9965789473682 L 124.342105263158,69.4078947368421 L 124.588815789474,69.161315789474 L 124.588815789474,68.0921052631579 L 125,68.9144736842105 L 125.904605263158,68.9144736842105 L 126.5625,68.5855263157895 L 127.796052631579,68.6676315789471 L 128.289473684211,67.5165789473687 L 128.865131578947,66.7763157894737 L 128.782894736842,66.1184210526316 L 129.276315789474,65.5428947368424 L 129.440789473684,64.9671052631579 L 129.851973684211,64.4736842105263 L 129.851973684211,64.3092105263158 L 130.098684210526,63.8981578947371 L 130.263157894737,63.5692105263161 L 130.427631578947,63.4868421052632 L 130.756578947368,63.240263157895 L 130.921052631579,63.240263157895 L 131.085526315789,63.0755263157892 L 131.332236842105,63.240263157895 L 131.332236842105,63.8981578947371 L 131.085526315789,64.1447368421053 L 131.25,64.3092105263158 L 132.401315789474,64.3092105263158 L 132.976973684211,64.7202631578945 L 133.223684210526,64.5560526315792 L 133.223684210526,64.0623684210524 L 133.470394736842,63.8981578947371 L 133.470394736842,63.4044736842103 L 133.634868421053,63.240263157895 L 133.634868421053,62.9934210526316 L 133.799342105263,62.8289473684211 L 133.634868421053,62.5823684210529 L 133.881578947368,62.5823684210529 L 134.046052631579,62.171052631579 L 134.292763157895,62.4176315789471 L 134.621710526316,62.4176315789471 L 135.361842105263,62.8289473684211 L 136.019736842105,63.240263157895 L 136.348684210526,63.4868421052632 L 137.006578947368,62.8289473684211 L 137.171052631579,62.5 L 137.5,62.171052631579 L 137.006578947368,61.759736842105 L 137.006578947368,61.5955263157897 L 137.253289473684,61.3486842105263 L 137.664473684211,61.3486842105263 L 137.582236842105,60.2797368421055 L 137.828947368421,60.1149999999997 L 138.898026315789,60.1149999999997 L 139.144736842105,60.3618421052632 L 139.720394736842,60.3618421052632 L 140.378289473684,60.9376315789476 L 140.542763157895,60.9376315789476 L 140.953947368421,61.3486842105263 L 142.1875,61.3486842105263 L 142.598684210526,61.1018421052629 L 143.092105263158,60.6907894736842 L 143.256578947368,60.6907894736842 L 143.256578947368,60.0328947368421 L 143.092105263158,59.7039473684211 L 142.845394736842,58.7992105263155 L 142.680921052632,58.2236842105263 L 142.598684210526,57.8123684210524 L 143.256578947368,57.8123684210524 L 143.503289473684,57.5657894736842 L 143.914473684211,57.5657894736842 L 143.914473684211,57.4013157894737 L 143.667763157895,57.2368421052632 L 143.503289473684,57.2368421052632 L 143.256578947368,56.9078947368421 L 143.256578947368,56.4965789473682 L 143.503289473684,56.3323684210529 L 145.559210526316,56.3323684210529 L 146.299342105263,55.921052631579 L 146.875,55.921052631579 L 147.039473684211,55.6744736842108 L 147.697368421053,55.6744736842108 L 148.026315789474,55.509736842105 L 148.4375,55.2631578947368 L 148.930921052632,55.2631578947368 L 148.930921052632,54.9342105263158 L 149.177631578947,54.6876315789476 L 149.671052631579,54.8518421052629 L 150.411184210526,54.8518421052629 L 150.657894736842,54.6876315789476 L 150.657894736842,54.4407894736842 L 150.328947368421,53.8649999999997 L 150,53.4539473684211 L 149.753289473684,53.2894736842105 L 149.753289473684,53.3718421052634 L 149.671052631579,53.3718421052634 L 149.342105263158,53.6184210526316 L 148.930921052632,53.2071052631576 L 148.108552631579,52.5492105263155 L 147.779605263158,52.5492105263155 L 147.121710526316,51.8092105263158 L 145.970394736842,50.6578947368421 L 144.819078947368,50.0823684210529 L 144.407894736842,50.0823684210529 L 142.680921052632,49.5886842105261 L 142.023026315789,49.671052631579 L 140.296052631579,49.0131578947368 L 138.898026315789,48.4376315789476 L 137.828947368421,47.7797368421055 L 137.171052631579,47.2860526315787 L 136.595394736842,46.9571052631576 L 136.019736842105,46.7105263157895 L 135.197368421053,46.2992105263155 L 134.621710526316,46.0526315789474 L 132.072368421053,46.0526315789474 L 131.825657894737,46.2992105263155 L 129.440789473684,46.2992105263155 L 129.194078947368,45.8881578947368 L 129.029605263158,46.0526315789474 L 128.125,46.0526315789474 L 127.878289473684,45.8881578947368 L 127.631578947368,45.8881578947368 L 127.220394736842,45.6413157894734 L 126.726973684211,45.4771052631582 L 125.822368421053,44.8192105263161 L 125.493421052632,44.8192105263161 L 125.493421052632,44.9834210526313 L 125.246710526316,45.3947368421053 L 124.917763157895,45.8881578947368 L 124.424342105263,45.3947368421053 L 123.848684210526,44.8192105263161 L 123.108552631579,44.4078947368421 L 122.532894736842,44.4078947368421 L 122.532894736842,45.3947368421053 L 122.368421052632,45.4771052631582 L 122.286184210526,45.8060526315792 L 121.875,46.2992105263155 L 122.039473684211,46.2992105263155 L 122.368421052632,46.6281578947366 L 122.697368421053,46.7105263157895 L 122.944078947368,47.2039473684211 L 122.944078947368,47.5328947368421 L 122.779605263158,48.0263157894737 L 122.779605263158,49.1776315789474 L 122.944078947368,49.4244736842108 L 122.368421052632,50.0823684210529 L 122.286184210526,50.2465789473682 L 121.792763157895,50.9044736842103 L 121.710526315789,51.0692105263161 L 121.463815789474,51.1513157894737 L 120.641447368421,51.9736842105263 L 120.394736842105,52.3026315789474 L 120.230263157895,52.796052631579 L 119.983552631579,53.0428947368424 L 119.983552631579,53.5360526315787 L 119.654605263158,53.8649999999997 L 119.572368421053,54.2763157894737 L 119.407894736842,54.4407894736842 L 119.161184210526,54.4407894736842 L 118.832236842105,54.6052631578947 L 118.585526315789,54.6876315789476 L 118.256578947368,54.8518421052629 L 118.092105263158,54.9342105263158 L 117.680921052632,55.0986842105263 L 117.516447368421,55.0986842105263 L 117.516447368421,54.2763157894737 L 116.447368421053,54.1939473684208 L 116.200657894737,54.0297368421055 L 116.282894736842,53.2071052631576 L 116.036184210526,52.9605263157895 L 116.036184210526,52.796052631579 L 115.625,52.3850000000003 L 115.789473684211,52.1381578947368 L 115.871710526316,51.9736842105263 L 115.378289473684,51.5623684210524 L 115.213815789474,51.7271052631582 L 115.049342105263,51.7271052631582 L 114.720394736842,51.9736842105263 L 114.144736842105,51.9736842105263 L 113.898026315789,52.3026315789474 L 113.486842105263,52.3026315789474 L 113.322368421053,52.1381578947368 L 113.322368421053,51.7271052631582 L 113.157894736842,51.4802631578947 L 112.911184210526,51.3981578947371 L 112.911184210526,51.1513157894737 L 112.911184210526,50.9044736842103 L 112.664473684211,50.6578947368421 L 112.253289473684,50.411315789474 L 112.5,49.9176315789471 L 112.5,49.0955263157897 L 112.335526315789,48.7665789473687 L 111.842105263158,48.4376315789476 L 111.677631578947,48.1086842105266 L 111.019736842105,47.7797368421055 L 110.855263157895,47.9439473684208 L 110.361842105263,47.9439473684208 L 110.197368421053,47.7797368421055 L 109.539473684211,47.7797368421055 L 109.128289473684,47.5328947368421 L 108.717105263158,47.5328947368421 L 108.470394736842,47.3684210526316 L 107.565789473684,47.2860526315787 L 104.851973684211,47.3684210526316 L 104.523026315789,47.5328947368421 L 103.289473684211,47.5328947368421 L 102.878289473684,47.6973684210526 L 102.220394736842,47.7797368421055 L 102.467105263158,47.9439473684208 L 102.631578947368,48.1907894736842 L 102.631578947368,48.3552631578947 L 102.384868421053,48.6018421052629 L 102.220394736842,48.7665789473687 L 101.151315789474,48.8486842105263 L 100.822368421053,48.8486842105263 L 100.411184210526,49.0131578947368 L 99.7532894736842,49.4244736842108 L 99.7532894736842,49.5886842105261 L 99.2598684210526,50.0823684210529 L 98.8486842105263,50.6578947368421 L 98.6019736842105,50.6578947368421 L 98.4375,50.4934210526316 L 98.1907894736842,50.6578947368421 L 97.6151315789474,50.740263157895 L 97.2039473684211,50.9044736842103 L 96.7927631578947,50.6578947368421 L 95.8881578947368,49.8355263157895 L 95.5592105263158,49.259736842105 L 95.7236842105263,49.0131578947368 L 95.7236842105263,46.546052631579 L 96.7927631578947,46.546052631579 L 96.9572368421053,46.1350000000003 L 96.9572368421053,45.4771052631582 L 97.2039473684211,45.0657894736842 L 97.3684210526316,45.2302631578947 L 98.0263157894737,45.2302631578947 L 98.8486842105263,44.4078947368421 L 98.8486842105263,43.9965789473682 L 98.6842105263158,43.75 L 98.1907894736842,43.009736842105 L 97.2039473684211,42.1876315789476 L 96.4638157894737,41.6118421052632 L 95.0657894736842,41.0360526315787 L 94.0789473684211,40.9539473684211 z"  />

<path id="Windsor" d=" M 179.934210526316,26.3981578947371 L 179.769736842105,26.6447368421053 L 179.523026315789,26.5623684210524 L 179.276315789474,26.8092105263158 L 179.111842105263,27.0560526315792 L 178.865131578947,27.4671052631579 L 178.865131578947,27.6315789473684 L 178.207236842105,27.6315789473684 L 177.960526315789,27.4671052631579 L 177.631578947368,27.4671052631579 L 177.384868421053,27.6315789473684 L 177.384868421053,27.8781578947366 L 177.220394736842,28.0428947368424 L 177.138157894737,28.5360526315787 L 177.055921052632,28.7007894736845 L 177.302631578947,28.8649999999997 L 178.125,28.8649999999997 L 178.782894736842,29.2763157894737 L 179.111842105263,29.9342105263158 L 178.453947368421,29.9342105263158 L 178.207236842105,30.0986842105263 L 177.878289473684,30.5921052631579 L 176.809210526316,30.5921052631579 L 176.5625,30.7565789473684 L 176.5625,31.0855263157895 L 176.151315789474,31.4965789473682 L 175.986842105263,32.0723684210526 L 175.740131578947,32.0723684210526 L 175.493421052632,31.5789473684211 L 174.506578947368,31.661315789474 L 173.930921052632,31.3323684210529 L 173.848684210526,31.3323684210529 L 173.848684210526,33.7171052631579 L 174.506578947368,33.7171052631579 L 174.671052631579,33.8815789473684 L 174.753289473684,34.1281578947366 L 174.259868421053,34.5394736842105 L 174.259868421053,34.9507894736845 L 174.671052631579,35.6086842105266 L 175.328947368421,35.6086842105266 L 175.328947368421,35.7728947368418 L 175.493421052632,36.1842105263158 L 175.328947368421,36.5955263157897 L 175.328947368421,37.6644736842105 L 175.164473684211,38.0755263157892 L 175.164473684211,39.3913157894734 L 174.753289473684,38.9802631578947 L 174.259868421053,38.9802631578947 L 174.095394736842,38.7334210526313 L 173.4375,38.7334210526313 L 173.4375,38.8981578947371 L 173.273026315789,39.1447368421053 L 172.615131578947,39.8026315789474 L 172.121710526316,40.1315789473684 L 171.710526315789,39.6381578947368 L 170.888157894737,38.7334210526313 L 170.065789473684,38.3223684210526 L 169.078947368421,37.5 L 165.296052631579,37.5 L 164.967105263158,37.6644736842105 L 164.473684210526,37.6644736842105 L 164.226973684211,37.911315789474 L 164.226973684211,38.3223684210526 L 164.0625,38.4868421052632 L 163.980263157895,38.7334210526313 L 163.569078947368,39.2271052631582 L 163.569078947368,39.5560526315792 L 163.157894736842,39.9671052631579 L 162.746710526316,40.625 L 162.664473684211,40.8718421052634 L 162.417763157895,40.8718421052634 L 162.335526315789,40.625 L 161.677631578947,40.625 L 161.430921052632,40.4605263157895 L 160.855263157895,40.3781578947366 L 160.526315789474,40.296052631579 L 159.868421052632,40.2139473684213 L 159.786184210526,39.9671052631579 L 159.375,39.9671052631579 L 159.210526315789,40.2139473684213 L 158.963815789474,40.2139473684213 L 158.799342105263,39.9671052631579 L 158.552631578947,39.9671052631579 L 158.388157894737,39.8026315789474 L 158.141447368421,39.5560526315792 L 157.976973684211,39.4736842105263 L 157.730263157895,39.1447368421053 L 157.565789473684,39.1447368421053 L 157.319078947368,39.3913157894734 L 156.825657894737,39.9671052631579 L 155.674342105263,39.9671052631579 L 155.427631578947,39.8026315789474 L 155.180921052632,39.8026315789474 L 154.358552631579,38.7334210526313 L 154.358552631579,37.6644736842105 L 154.194078947368,37.5 L 153.536184210526,37.5 L 153.289473684211,37.2534210526319 L 152.302631578947,37.2534210526319 L 152.055921052632,37.5 L 152.055921052632,38.0755263157892 L 151.891447368421,38.240263157895 L 151.809210526316,39.7202631578945 L 151.644736842105,40.2139473684213 L 151.398026315789,40.7894736842105 L 150.986842105263,41.9407894736842 L 150.411184210526,42.4342105263158 L 149.506578947368,43.0921052631579 L 149.506578947368,43.5034210526319 L 149.177631578947,43.9144736842105 L 148.930921052632,44.4078947368421 L 148.930921052632,45.3947368421053 L 149.177631578947,45.6413157894734 L 149.177631578947,46.3815789473684 L 149.342105263158,46.6281578947366 L 149.342105263158,48.9307894736839 L 149.506578947368,49.259736842105 L 149.506578947368,50.411315789474 L 149.342105263158,50.740263157895 L 149.342105263158,51.9736842105263 L 149.506578947368,52.3850000000003 L 149.753289473684,53.0428947368424 L 149.753289473684,53.2894736842105 L 150,53.4539473684211 L 150.328947368421,53.8649999999997 L 150.657894736842,54.4407894736842 L 150.657894736842,54.6876315789476 L 150.411184210526,54.8518421052629 L 149.671052631579,54.8518421052629 L 149.177631578947,54.6876315789476 L 148.930921052632,54.9342105263158 L 148.930921052632,56.0855263157895 L 150,56.0855263157895 L 150.164473684211,55.921052631579 L 150.575657894737,55.921052631579 L 150.986842105263,55.509736842105 L 151.233552631579,55.3455263157897 L 151.398026315789,55.2631578947368 L 152.138157894737,54.6876315789476 L 152.220394736842,54.6876315789476 L 152.467105263158,54.4407894736842 L 152.878289473684,54.4407894736842 L 153.125,54.6052631578947 L 153.536184210526,54.6052631578947 L 153.536184210526,54.4407894736842 L 153.782894736842,54.2763157894737 L 153.782894736842,53.6184210526316 L 154.194078947368,53.2071052631576 L 154.194078947368,52.9605263157895 L 154.358552631579,52.796052631579 L 154.440789473684,52.3850000000003 L 153.947368421053,51.9736842105263 L 153.947368421053,51.4802631578947 L 153.782894736842,51.3157894736842 L 153.536184210526,51.3157894736842 L 153.289473684211,51.1513157894737 L 153.125,51.0692105263161 L 153.536184210526,50.9044736842103 L 153.947368421053,50.740263157895 L 154.194078947368,50.6578947368421 L 154.358552631579,50.4934210526316 L 154.605263157895,50.4934210526316 L 155.263157894737,50 L 155.427631578947,50 L 155.756578947368,49.8355263157895 L 156.25,49.671052631579 L 156.414473684211,49.5886842105261 L 156.661184210526,49.4244736842108 L 156.907894736842,49.4244736842108 L 157.236842105263,49.671052631579 L 157.565789473684,49.4244736842108 L 157.894736842105,49.4244736842108 L 158.141447368421,49.671052631579 L 158.552631578947,49.671052631579 L 158.717105263158,49.5065789473684 L 159.210526315789,49.4244736842108 L 159.375,49.671052631579 L 159.210526315789,49.9176315789471 L 159.375,49.8355263157895 L 159.868421052632,50.0823684210529 L 159.786184210526,50.4934210526316 L 159.621710526316,50.6578947368421 L 159.621710526316,51.0692105263161 L 160.032894736842,51.1513157894737 L 160.526315789474,51.3157894736842 L 162.088815789474,51.3157894736842 L 162.5,51.5623684210524 L 163.569078947368,51.5623684210524 L 163.651315789474,52.1381578947368 L 163.980263157895,52.796052631579 L 164.226973684211,52.9605263157895 L 163.815789473684,53.3718421052634 L 163.980263157895,53.6184210526316 L 163.980263157895,54.2763157894737 L 163.569078947368,55.180789473684 L 163.569078947368,55.921052631579 L 163.240131578947,56.4965789473682 L 162.911184210526,56.3323684210529 L 163.157894736842,56.7434210526316 L 163.157894736842,57.2368421052632 L 162.746710526316,57.5657894736842 L 162.746710526316,57.8123684210524 L 162.5,58.0592105263158 L 162.5,58.4702631578945 L 162.335526315789,58.7992105263155 L 162.171052631579,59.2928947368424 L 161.842105263158,59.4571052631576 L 161.677631578947,59.4571052631576 L 161.513157894737,59.7039473684211 L 161.513157894737,59.8684210526316 L 161.924342105263,60.3618421052632 L 162.088815789474,60.8552631578947 L 162.335526315789,61.2665789473687 L 162.5,61.3486842105263 L 162.5,62.171052631579 L 162.335526315789,62.7465789473682 L 162.171052631579,63.6513157894737 L 161.924342105263,64.6381578947368 L 161.677631578947,65.3781578947366 L 161.430921052632,66.2828947368421 L 161.348684210526,66.8586842105266 L 161.348684210526,67.3518421052629 L 161.430921052632,67.6807894736839 L 161.595394736842,67.5165789473687 L 163.075657894737,66.7763157894737 L 164.720394736842,66.2007894736845 L 166.529605263158,65.625 L 169.243421052632,64.3913157894734 L 172.368421052632,62.4176315789471 L 174.342105263158,61.3486842105263 L 175.082236842105,61.2665789473687 L 175.657894736842,61.0197368421053 L 175.904605263158,60.9376315789476 L 176.480263157895,61.1842105263158 L 176.644736842105,61.430789473684 L 177.713815789474,61.3486842105263 L 178.371710526316,60.8552631578947 L 178.536184210526,60.9376315789476 L 179.276315789474,61.430789473684 L 179.851973684211,61.759736842105 L 180.838815789474,61.759736842105 L 181.25,62.0886842105261 L 181.414473684211,62.0886842105261 L 182.072368421053,61.5131578947368 L 182.565789473684,61.6776315789474 L 182.730263157895,61.9244736842108 L 182.976973684211,61.9244736842108 L 182.976973684211,61.5131578947368 L 182.8125,61.1018421052629 L 182.565789473684,60.8552631578947 L 182.236842105263,60.4439473684208 L 181.743421052632,60.1973684210526 L 182.236842105263,59.7860526315787 L 182.648026315789,59.375 L 182.483552631579,59.2928947368424 L 182.483552631579,58.9639473684213 L 183.059210526316,58.2236842105263 L 183.141447368421,57.6481578947371 L 183.059210526316,57.5657894736842 L 182.648026315789,57.4834210526313 L 182.565789473684,57.2368421052632 L 183.305921052632,56.0855263157895 L 183.305921052632,55.5921052631579 L 184.292763157895,53.4539473684211 L 184.786184210526,52.2202631578945 L 184.950657894737,51.8092105263158 L 184.703947368421,47.9439473684208 L 185.526315789474,47.0394736842105 L 186.677631578947,45.6413157894734 L 186.677631578947,44.9013157894737 L 186.842105263158,44.7368421052632 L 187.088815789474,44.7368421052632 L 187.171052631579,44.9013157894737 L 187.417763157895,44.9013157894737 L 187.828947368421,44.5723684210526 L 188.322368421053,44.5723684210526 L 188.651315789474,43.9965789473682 L 188.980263157895,43.9965789473682 L 189.555921052632,43.6676315789471 L 190.131578947368,42.8455263157897 L 190.625,42.1876315789476 L 190.789473684211,42.1052631578947 L 191.282894736842,42.1052631578947 L 192.434210526316,43.5034210526319 L 192.680921052632,43.6676315789471 L 193.421052631579,44.2434210526316 L 193.832236842105,44.7368421052632 L 194.161184210526,44.7368421052632 L 194.325657894737,44.2434210526316 L 194.490131578947,44.0789473684211 L 194.736842105263,44.0789473684211 L 195.394736842105,44.7368421052632 L 196.299342105263,45.0657894736842 L 197.203947368421,45.5592105263158 L 197.861842105263,45.9702631578945 L 199.013157894737,46.3815789473684 L 199.506578947368,46.3815789473684 L 199.506578947368,45.3123684210524 L 199.013157894737,44.9013157894737 L 198.684210526316,44.7368421052632 L 198.4375,44.7368421052632 L 198.273026315789,44.5723684210526 L 198.273026315789,44.161315789474 L 198.4375,43.9965789473682 L 198.4375,43.8323684210529 L 198.273026315789,43.6676315789471 L 198.930921052632,43.009736842105 L 198.930921052632,42.7631578947368 L 197.450657894737,41.2007894736845 L 196.628289473684,40.296052631579 L 196.463815789474,40.1315789473684 L 196.463815789474,39.8026315789474 L 197.368421052632,39.2271052631582 L 197.532894736842,38.8157894736842 L 197.861842105263,38.0755263157892 L 198.273026315789,37.0886842105261 L 198.273026315789,36.1842105263158 L 199.177631578947,35.8552631578947 L 199.506578947368,35.7728947368418 L 200.493421052632,36.0197368421053 L 200.904605263158,36.4307894736839 L 200.904605263158,36.759736842105 L 201.315789473684,36.759736842105 L 201.5625,36.5955263157897 L 201.973684210526,36.4307894736839 L 202.138157894737,36.1842105263158 L 202.302631578947,35.6086842105266 L 202.549342105263,35.1149999999997 L 202.796052631579,34.375 L 202.796052631579,33.1413157894734 L 202.960526315789,32.6481578947371 L 203.207236842105,32.0723684210526 L 203.618421052632,31.661315789474 L 203.618421052632,30.5921052631579 L 203.782894736842,30.3455263157897 L 204.276315789474,29.8518421052629 L 204.440789473684,29.2763157894737 L 204.851973684211,29.2763157894737 L 205.098684210526,29.1118421052632 L 205.263157894737,28.6184210526316 L 202.796052631579,28.7007894736845 L 201.809210526316,29.1118421052632 L 201.315789473684,29.1118421052632 L 200.822368421053,29.3586842105266 L 197.697368421053,29.2763157894737 L 197.697368421053,29.1939473684208 L 197.450657894737,29.2763157894737 L 196.628289473684,29.3586842105266 L 196.217105263158,29.5228947368418 L 195.641447368421,29.5228947368418 L 195.394736842105,29.6876315789476 L 195.065789473684,30.0986842105263 L 194.819078947368,30.3455263157897 L 194.654605263158,30.3455263157897 L 194.407894736842,30.1807894736839 L 193.914473684211,30.0986842105263 L 193.585526315789,29.8518421052629 L 193.503289473684,29.6876315789476 L 193.75,29.5228947368418 L 193.75,28.9473684210526 L 193.256578947368,28.7007894736845 L 192.763157894737,28.4539473684211 L 192.434210526316,28.3718421052634 L 192.269736842105,28.4539473684211 L 192.105263157895,28.7007894736845 L 192.105263157895,29.0297368421055 L 191.611842105263,29.7697368421053 L 191.611842105263,29.9342105263158 L 191.282894736842,29.9342105263158 L 190.789473684211,29.6876315789476 L 190.296052631579,29.3586842105266 L 189.720394736842,28.9473684210526 L 189.144736842105,28.6184210526316 L 188.815789473684,28.4539473684211 L 188.240131578947,28.2894736842105 L 187.5,27.8781578947366 L 187.006578947368,27.8781578947366 L 186.842105263158,28.0428947368424 L 186.842105263158,28.4539473684211 L 186.430921052632,28.0428947368424 L 186.184210526316,27.8781578947366 L 186.019736842105,27.6315789473684 L 185.773026315789,27.6315789473684 L 185.197368421053,26.9736842105263 L 185.032894736842,27.1381578947368 L 184.703947368421,27.3850000000003 L 184.703947368421,27.8781578947366 L 184.539473684211,28.0428947368424 L 184.539473684211,28.2894736842105 L 183.799342105263,28.2894736842105 L 183.634868421053,28.4539473684211 L 183.552631578947,28.2894736842105 L 183.059210526316,27.8781578947366 L 182.894736842105,27.8781578947366 L 182.648026315789,27.6315789473684 L 182.401315789474,27.6315789473684 L 182.072368421053,27.2202631578945 L 181.743421052632,26.9736842105263 L 181.085526315789,26.6447368421053 L 180.756578947368,26.3981578947371 L 179.934210526316,26.3981578947371 z"  />

<path id="Reading_West" d=" M 120.394736842105,52.3026315789474 L 120.230263157895,52.1381578947368 L 119.983552631579,51.7271052631582 L 120.065789473684,50.4934210526316 L 119.819078947368,50 L 119.819078947368,49.8355263157895 L 119.654605263158,49.4244736842108 L 119.572368421053,49.1776315789474 L 119.407894736842,48.2728947368418 L 119.407894736842,47.9439473684208 L 119.161184210526,47.7797368421055 L 118.75,47.5328947368421 L 118.503289473684,47.1218421052634 L 118.338815789474,47.1218421052634 L 118.338815789474,47.5328947368421 L 117.516447368421,47.5328947368421 L 117.269736842105,47.3684210526316 L 117.105263157895,47.3684210526316 L 116.858552631579,47.5328947368421 L 116.858552631579,46.3815789473684 L 117.105263157895,46.0526315789474 L 117.105263157895,45.2302631578947 L 117.269736842105,44.9834210526313 L 117.516447368421,44.8192105263161 L 117.516447368421,44.5723684210526 L 117.269736842105,44.3255263157892 L 117.269736842105,43.75 L 117.105263157895,43.5855263157895 L 117.105263157895,43.1744736842108 L 116.858552631579,43.0921052631579 L 116.694078947368,42.9276315789474 L 116.694078947368,42.7631578947368 L 116.447368421053,42.7631578947368 L 116.282894736842,42.9276315789474 L 115.625,42.9276315789474 L 115.378289473684,42.6807894736839 L 115.213815789474,42.6807894736839 L 114.967105263158,42.5165789473687 L 114.967105263158,40.8718421052634 L 115.213815789474,40.8718421052634 L 115.378289473684,40.625 L 115.378289473684,40.2139473684213 L 114.802631578947,40.2139473684213 L 114.638157894737,39.9671052631579 L 114.638157894737,39.8026315789474 L 114.309210526316,39.3913157894734 L 114.391447368421,37.6644736842105 L 114.144736842105,37.8289473684211 L 113.898026315789,37.8289473684211 L 113.733552631579,37.7465789473682 L 113.322368421053,37.6644736842105 L 112.828947368421,37.5 L 112.088815789474,37.5 L 111.677631578947,37.7465789473682 L 111.430921052632,37.911315789474 L 111.184210526316,37.911315789474 L 111.184210526316,37.9934210526316 L 111.019736842105,38.3223684210526 L 110.444078947368,38.3223684210526 L 109.868421052632,38.7334210526313 L 109.539473684211,38.7334210526313 L 108.881578947368,38.4868421052632 L 108.059210526316,37.8289473684211 L 106.661184210526,36.8421052631579 L 105.345394736842,35.6907894736842 L 105.345394736842,34.5394736842105 L 105.592105263158,34.046052631579 L 105.592105263158,33.5526315789474 L 105.180921052632,33.3060526315792 L 105.098684210526,32.7302631578947 L 104.111842105263,31.8255263157892 L 102.878289473684,31.25 L 102.138157894737,31.25 L 101.151315789474,31.3323684210529 L 100.575657894737,31.5789473684211 L 99.0953947368421,31.990263157895 L 97.8618421052632,32.6481578947371 L 96.2171052631579,33.0592105263158 L 95.4769736842105,32.8947368421053 L 93.6677631578947,31.990263157895 L 93.5032894736842,32.0723684210526 L 92.4342105263158,32.5657894736842 L 91.2828947368421,33.3060526315792 L 90.7072368421053,33.7171052631579 L 90.7072368421053,34.1281578947366 L 90.4605263157895,34.2928947368424 L 90.296052631579,34.375 L 90.4605263157895,34.7860526315787 L 90.4605263157895,34.9507894736845 L 90.296052631579,35.1973684210526 L 89.8026315789474,35.1973684210526 L 89.6381578947368,35.4439473684208 L 89.3914473684211,35.8552631578947 L 89.2269736842105,35.8552631578947 L 89.2269736842105,39.1447368421053 L 89.4736842105263,39.3913157894734 L 89.3914473684211,39.9671052631579 L 89.2269736842105,40.2139473684213 L 89.2269736842105,40.4605263157895 L 89.3914473684211,40.625 L 89.8026315789474,40.625 L 90.2138157894737,40.8718421052634 L 91.0361842105263,40.8718421052634 L 91.3651315789474,40.625 L 93.421052631579,40.625 L 93.6677631578947,40.7894736842105 L 94.0789473684211,40.7894736842105 L 94.0789473684211,40.9539473684211 L 95.0657894736842,41.0360526315787 L 96.4638157894737,41.6118421052632 L 97.2039473684211,42.1876315789476 L 98.1907894736842,43.009736842105 L 98.6842105263158,43.75 L 98.8486842105263,43.9965789473682 L 98.8486842105263,44.4078947368421 L 98.0263157894737,45.2302631578947 L 97.3684210526316,45.2302631578947 L 97.2039473684211,45.0657894736842 L 96.9572368421053,45.4771052631582 L 96.9572368421053,46.1350000000003 L 96.7927631578947,46.546052631579 L 95.7236842105263,46.546052631579 L 95.7236842105263,49.0131578947368 L 95.5592105263158,49.259736842105 L 95.8881578947368,49.8355263157895 L 96.7927631578947,50.6578947368421 L 97.2039473684211,50.9044736842103 L 97.6151315789474,50.740263157895 L 98.1907894736842,50.6578947368421 L 98.4375,50.4934210526316 L 98.6019736842105,50.6578947368421 L 98.8486842105263,50.6578947368421 L 99.2598684210526,50.0823684210529 L 99.7532894736842,49.5886842105261 L 99.7532894736842,49.4244736842108 L 100.411184210526,49.0131578947368 L 100.822368421053,48.8486842105263 L 101.151315789474,48.8486842105263 L 102.220394736842,48.7665789473687 L 102.384868421053,48.6018421052629 L 102.631578947368,48.3552631578947 L 102.631578947368,48.1907894736842 L 102.467105263158,47.9439473684208 L 102.220394736842,47.7797368421055 L 102.878289473684,47.6973684210526 L 103.289473684211,47.5328947368421 L 104.523026315789,47.5328947368421 L 104.851973684211,47.3684210526316 L 107.565789473684,47.2860526315787 L 108.470394736842,47.3684210526316 L 108.717105263158,47.5328947368421 L 109.128289473684,47.5328947368421 L 109.539473684211,47.7797368421055 L 110.197368421053,47.7797368421055 L 110.361842105263,47.9439473684208 L 110.855263157895,47.9439473684208 L 111.019736842105,47.7797368421055 L 111.677631578947,48.1086842105266 L 111.842105263158,48.4376315789476 L 112.335526315789,48.7665789473687 L 112.5,49.0955263157897 L 112.5,49.9176315789471 L 112.253289473684,50.411315789474 L 112.664473684211,50.6578947368421 L 112.911184210526,50.9044736842103 L 112.911184210526,51.1513157894737 L 112.911184210526,51.3981578947371 L 113.157894736842,51.4802631578947 L 113.322368421053,51.7271052631582 L 113.322368421053,52.1381578947368 L 113.486842105263,52.3026315789474 L 113.898026315789,52.3026315789474 L 114.144736842105,51.9736842105263 L 114.720394736842,51.9736842105263 L 115.049342105263,51.7271052631582 L 115.213815789474,51.7271052631582 L 115.378289473684,51.5623684210524 L 115.871710526316,51.9736842105263 L 115.789473684211,52.1381578947368 L 115.625,52.3850000000003 L 116.036184210526,52.796052631579 L 116.036184210526,52.9605263157895 L 116.282894736842,53.2071052631576 L 116.200657894737,54.0297368421055 L 116.447368421053,54.1939473684208 L 117.516447368421,54.2763157894737 L 117.516447368421,55.0986842105263 L 117.680921052632,55.0986842105263 L 118.092105263158,54.9342105263158 L 118.256578947368,54.8518421052629 L 118.585526315789,54.6876315789476 L 118.832236842105,54.6052631578947 L 119.161184210526,54.4407894736842 L 119.407894736842,54.4407894736842 L 119.572368421053,54.2763157894737 L 119.654605263158,53.8649999999997 L 119.983552631579,53.5360526315787 L 119.983552631579,53.0428947368424 L 120.230263157895,52.796052631579 L 120.394736842105,52.3026315789474 z"  />

<path id="Reading_East" d=" M 119.078947368421,30.7565789473684 L 118.585526315789,31.4144736842105 L 117.845394736842,31.4965789473682 L 117.845394736842,31.7434210526316 L 117.516447368421,32.4013157894737 L 116.940789473684,32.6481578947371 L 116.858552631579,32.3192105263161 L 116.611842105263,31.990263157895 L 116.282894736842,32.2368421052632 L 116.200657894737,32.8947368421053 L 115.789473684211,33.0592105263158 L 113.733552631579,33.0592105263158 L 113.404605263158,32.8947368421053 L 113.240131578947,33.3060526315792 L 112.746710526316,33.3060526315792 L 112.664473684211,34.046052631579 L 112.5,34.4571052631576 L 112.746710526316,34.7039473684211 L 112.746710526316,35.3618421052632 L 112.5,35.6907894736842 L 112.335526315789,36.1842105263158 L 111.924342105263,36.2665789473687 L 111.348684210526,36.6776315789474 L 111.019736842105,37.171052631579 L 111.184210526316,37.911315789474 L 111.430921052632,37.911315789474 L 111.677631578947,37.7465789473682 L 112.088815789474,37.5 L 112.828947368421,37.5 L 113.322368421053,37.6644736842105 L 113.733552631579,37.7465789473682 L 113.898026315789,37.8289473684211 L 114.144736842105,37.8289473684211 L 114.391447368421,37.6644736842105 L 114.309210526316,39.3913157894734 L 114.638157894737,39.8026315789474 L 114.638157894737,39.9671052631579 L 114.802631578947,40.2139473684213 L 115.378289473684,40.2139473684213 L 115.378289473684,40.625 L 115.213815789474,40.8718421052634 L 114.967105263158,40.8718421052634 L 114.967105263158,42.5165789473687 L 115.213815789474,42.6807894736839 L 115.378289473684,42.6807894736839 L 115.625,42.9276315789474 L 116.282894736842,42.9276315789474 L 116.447368421053,42.7631578947368 L 116.694078947368,42.7631578947368 L 116.694078947368,42.9276315789474 L 116.858552631579,43.0921052631579 L 117.105263157895,43.1744736842108 L 117.105263157895,43.5855263157895 L 117.269736842105,43.75 L 117.269736842105,44.3255263157892 L 117.516447368421,44.5723684210526 L 117.516447368421,44.8192105263161 L 117.269736842105,44.9834210526313 L 117.105263157895,45.2302631578947 L 117.105263157895,46.0526315789474 L 116.858552631579,46.3815789473684 L 116.858552631579,47.5328947368421 L 117.105263157895,47.3684210526316 L 117.269736842105,47.3684210526316 L 117.516447368421,47.5328947368421 L 118.338815789474,47.5328947368421 L 118.338815789474,47.1218421052634 L 118.503289473684,47.1218421052634 L 118.75,47.5328947368421 L 119.161184210526,47.7797368421055 L 119.407894736842,47.9439473684208 L 119.407894736842,48.2728947368418 L 119.572368421053,49.1776315789474 L 119.654605263158,49.4244736842108 L 119.819078947368,49.8355263157895 L 119.819078947368,50 L 120.065789473684,50.4934210526316 L 119.983552631579,51.7271052631582 L 120.230263157895,52.1381578947368 L 120.394736842105,52.3026315789474 L 120.641447368421,51.9736842105263 L 121.463815789474,51.1513157894737 L 121.710526315789,51.0692105263161 L 121.792763157895,50.9044736842103 L 122.286184210526,50.2465789473682 L 122.368421052632,50.0823684210529 L 122.944078947368,49.4244736842108 L 122.779605263158,49.1776315789474 L 122.779605263158,48.0263157894737 L 122.944078947368,47.5328947368421 L 122.944078947368,47.2039473684211 L 122.697368421053,46.7105263157895 L 122.368421052632,46.6281578947366 L 122.039473684211,46.2992105263155 L 121.875,46.2992105263155 L 122.286184210526,45.8060526315792 L 122.368421052632,45.4771052631582 L 122.532894736842,45.3947368421053 L 122.532894736842,44.4078947368421 L 123.108552631579,44.4078947368421 L 123.848684210526,44.8192105263161 L 124.424342105263,45.3947368421053 L 124.917763157895,45.8881578947368 L 125.246710526316,45.3947368421053 L 125.493421052632,44.9834210526313 L 125.493421052632,44.8192105263161 L 125.822368421053,44.8192105263161 L 126.726973684211,45.4771052631582 L 127.220394736842,45.6413157894734 L 127.631578947368,45.8881578947368 L 127.878289473684,45.8881578947368 L 128.125,46.0526315789474 L 129.029605263158,46.0526315789474 L 129.194078947368,45.8881578947368 L 129.440789473684,46.2992105263155 L 131.825657894737,46.2992105263155 L 132.072368421053,46.0526315789474 L 132.8125,46.0526315789474 L 132.976973684211,45.8881578947368 L 133.223684210526,45.6413157894734 L 133.388157894737,45.3123684210524 L 133.634868421053,44.9834210526313 L 133.634868421053,44.6544736842103 L 133.634868421053,44.2434210526316 L 133.881578947368,43.9965789473682 L 134.046052631579,43.8323684210529 L 134.457236842105,43.75 L 134.703947368421,43.5855263157895 L 134.703947368421,43.421052631579 L 134.868421052632,42.9276315789474 L 134.868421052632,42.3518421052629 L 135.032894736842,42.1052631578947 L 135.115131578947,41.6939473684208 L 135.690789473684,41.0360526315787 L 136.101973684211,40.8718421052634 L 137.006578947368,39.9671052631579 L 137.006578947368,39.3913157894734 L 136.759868421053,39.1447368421053 L 136.348684210526,39.1447368421053 L 136.019736842105,39.5560526315792 L 135.690789473684,39.5560526315792 L 135.361842105263,39.1447368421053 L 135.115131578947,39.1447368421053 L 135.115131578947,39.5560526315792 L 134.292763157895,39.5560526315792 L 133.634868421053,40.2139473684213 L 133.881578947368,40.3781578947366 L 133.799342105263,40.625 L 133.470394736842,40.7894736842105 L 133.223684210526,41.0360526315787 L 132.648026315789,41.4473684210526 L 132.565789473684,41.6118421052632 L 132.319078947368,41.8586842105266 L 131.907894736842,42.1052631578947 L 131.332236842105,42.1052631578947 L 131.085526315789,41.8586842105266 L 130.345394736842,41.8586842105266 L 130.098684210526,42.1052631578947 L 129.6875,42.1052631578947 L 129.6875,41.9407894736842 L 128.865131578947,41.0360526315787 L 128.618421052632,41.0360526315787 L 128.453947368421,40.8718421052634 L 128.125,40.8718421052634 L 127.878289473684,40.625 L 126.973684210526,40.625 L 126.644736842105,40.3781578947366 L 125.904605263158,40.4605263157895 L 125.575657894737,40.0492105263155 L 125.246710526316,38.9802631578947 L 125.246710526316,38.7334210526313 L 125.328947368421,38.1578947368421 L 125,38.1578947368421 L 124.835526315789,38.4044736842103 L 124.835526315789,38.4868421052632 L 123.848684210526,39.3913157894734 L 122.532894736842,40.4605263157895 L 121.463815789474,40.4605263157895 L 121.134868421053,40.296052631579 L 120.641447368421,40.0492105263155 L 120.723684210526,39.6381578947368 L 120.723684210526,38.8157894736842 L 121.710526315789,38.8157894736842 L 122.121710526316,38.3223684210526 L 121.957236842105,37.9934210526316 L 121.710526315789,37.6644736842105 L 121.710526315789,37.3355263157895 L 122.203947368421,37.0065789473684 L 122.121710526316,36.5131578947368 L 123.190789473684,35.9376315789476 L 122.532894736842,34.7039473684211 L 122.368421052632,33.9639473684213 L 122.450657894737,33.7992105263155 L 121.875,33.0592105263158 L 121.957236842105,32.7302631578947 L 121.628289473684,32.4834210526313 L 121.134868421053,32.4834210526313 L 120.641447368421,31.9078947368421 L 120.230263157895,30.7565789473684 L 119.078947368421,30.7565789473684 z"  />

<path id="Maidenhead" d=" M 162.253289473684,5.26315789473684 L 161.513157894737,5.42763157894737 L 160.526315789474,6.1676315789471 L 159.621710526316,6.66131578947395 L 158.141447368421,7.64815789473711 L 157.072368421053,8.55263157894737 L 156.907894736842,8.55263157894737 L 156.25,9.21052631578947 L 156.003289473684,9.21052631578947 L 155.509868421053,8.79921052631552 L 154.523026315789,8.79921052631552 L 154.358552631579,9.04605263157895 L 154.194078947368,9.04605263157895 L 153.536184210526,8.38815789473684 L 153.042763157895,8.55263157894737 L 152.549342105263,9.21052631578947 L 152.055921052632,10.9376315789476 L 151.891447368421,11.5131578947368 L 151.480263157895,12.0065789473684 L 150.822368421053,12.5823684210529 L 150.164473684211,12.7465789473682 L 149.342105263158,13.4044736842103 L 149.095394736842,13.240263157895 L 148.026315789474,13.240263157895 L 146.957236842105,12.8289473684211 L 146.299342105263,12.9934210526316 L 145.559210526316,13.4044736842103 L 144.983552631579,13.4044736842103 L 144.654605263158,13.6513157894737 L 144.161184210526,13.6513157894737 L 143.75,14.1447368421053 L 143.503289473684,14.8850000000003 L 143.256578947368,15.0492105263155 L 142.351973684211,15.0492105263155 L 141.940789473684,14.6381578947368 L 141.529605263158,14.6381578947368 L 141.036184210526,15.2960526315789 L 140.131578947368,15.2960526315789 L 138.486842105263,14.2271052631582 L 137.253289473684,14.2271052631582 L 137.006578947368,13.8981578947371 L 136.759868421053,13.1578947368421 L 136.184210526316,12.0065789473684 L 135.526315789474,11.6776315789474 L 135.361842105263,11.0197368421053 L 134.786184210526,10.4439473684208 L 134.046052631579,10.2797368421055 L 133.470394736842,10.4439473684208 L 133.059210526316,10.6907894736842 L 132.401315789474,11.3486842105263 L 131.990131578947,12.6644736842105 L 131.332236842105,14.3913157894734 L 130.921052631579,15.3781578947366 L 130.263157894737,16.7763157894737 L 130.263157894737,17.7631578947368 L 130.756578947368,18.3386842105261 L 131.990131578947,19.161315789474 L 133.141447368421,20.3123684210524 L 134.375,21.7105263157895 L 134.375,23.1086842105266 L 134.046052631579,23.6018421052629 L 134.046052631579,25.1644736842105 L 134.868421052632,25.5755263157892 L 135.773026315789,26.3981578947371 L 135.773026315789,26.8092105263158 L 135.9375,27.2202631578945 L 135.9375,27.6315789473684 L 135.526315789474,27.8781578947366 L 134.292763157895,27.7960526315789 L 133.881578947368,28.0428947368424 L 132.648026315789,28.6184210526316 L 131.578947368421,29.5228947368418 L 131.496710526316,30.509736842105 L 131.743421052632,30.7565789473684 L 131.167763157895,31.0034210526318 L 131.085526315789,31.661315789474 L 130.921052631579,31.8255263157892 L 130.921052631579,32.0723684210526 L 131.167763157895,32.2368421052632 L 130.345394736842,32.8123684210524 L 129.440789473684,32.8123684210524 L 128.865131578947,33.6350000000003 L 128.618421052632,34.375 L 128.618421052632,34.6218421052634 L 128.865131578947,35.0328947368421 L 128.700657894737,35.3618421052632 L 128.453947368421,35.3618421052632 L 128.042763157895,35.7728947368418 L 127.631578947368,36.0197368421053 L 126.973684210526,36.8421052631579 L 126.973684210526,37.2534210526319 L 126.726973684211,37.5 L 126.726973684211,37.911315789474 L 126.5625,38.1578947368421 L 125.328947368421,38.1578947368421 L 125.246710526316,38.7334210526313 L 125.246710526316,38.9802631578947 L 125.575657894737,40.0492105263155 L 125.904605263158,40.4605263157895 L 126.644736842105,40.3781578947366 L 126.973684210526,40.625 L 127.878289473684,40.625 L 128.125,40.8718421052634 L 128.453947368421,40.8718421052634 L 128.618421052632,41.0360526315787 L 128.865131578947,41.0360526315787 L 129.6875,41.9407894736842 L 129.6875,42.1052631578947 L 130.098684210526,42.1052631578947 L 130.345394736842,41.8586842105266 L 131.085526315789,41.8586842105266 L 131.332236842105,42.1052631578947 L 131.907894736842,42.1052631578947 L 132.319078947368,41.8586842105266 L 132.565789473684,41.6118421052632 L 132.648026315789,41.4473684210526 L 133.223684210526,41.0360526315787 L 133.470394736842,40.7894736842105 L 133.799342105263,40.625 L 133.881578947368,40.3781578947366 L 133.634868421053,40.2139473684213 L 134.292763157895,39.5560526315792 L 135.115131578947,39.5560526315792 L 135.115131578947,39.1447368421053 L 135.361842105263,39.1447368421053 L 135.690789473684,39.5560526315792 L 136.019736842105,39.5560526315792 L 136.348684210526,39.1447368421053 L 136.759868421053,39.1447368421053 L 137.006578947368,39.3913157894734 L 137.006578947368,39.9671052631579 L 136.101973684211,40.8718421052634 L 135.690789473684,41.0360526315787 L 135.115131578947,41.6939473684208 L 135.032894736842,42.1052631578947 L 134.868421052632,42.3518421052629 L 134.868421052632,42.9276315789474 L 134.703947368421,43.421052631579 L 134.703947368421,43.5855263157895 L 134.457236842105,43.75 L 134.046052631579,43.8323684210529 L 133.881578947368,43.9965789473682 L 133.634868421053,44.2434210526316 L 133.634868421053,44.6544736842103 L 133.634868421053,44.9834210526313 L 133.388157894737,45.3123684210524 L 133.223684210526,45.6413157894734 L 132.976973684211,45.8881578947368 L 132.8125,46.0526315789474 L 134.621710526316,46.0526315789474 L 135.197368421053,46.2992105263155 L 136.019736842105,46.7105263157895 L 136.595394736842,46.9571052631576 L 137.171052631579,47.2860526315787 L 137.828947368421,47.7797368421055 L 138.898026315789,48.4376315789476 L 140.296052631579,49.0131578947368 L 142.023026315789,49.671052631579 L 142.680921052632,49.5886842105261 L 144.407894736842,50.0823684210529 L 144.819078947368,50.0823684210529 L 145.970394736842,50.6578947368421 L 147.121710526316,51.8092105263158 L 147.779605263158,52.5492105263155 L 148.108552631579,52.5492105263155 L 148.930921052632,53.2071052631576 L 149.342105263158,53.6184210526316 L 149.671052631579,53.3718421052634 L 149.753289473684,53.3718421052634 L 149.753289473684,53.0428947368424 L 149.506578947368,52.3850000000003 L 149.342105263158,51.9736842105263 L 149.342105263158,50.740263157895 L 149.506578947368,50.411315789474 L 149.506578947368,49.259736842105 L 149.342105263158,48.9307894736839 L 149.342105263158,46.6281578947366 L 149.177631578947,46.3815789473684 L 149.177631578947,45.6413157894734 L 148.930921052632,45.3947368421053 L 148.930921052632,44.4078947368421 L 149.177631578947,43.9144736842105 L 149.506578947368,43.5034210526319 L 149.506578947368,43.0921052631579 L 150.411184210526,42.4342105263158 L 150.986842105263,41.9407894736842 L 151.398026315789,40.7894736842105 L 151.644736842105,40.2139473684213 L 151.809210526316,39.7202631578945 L 151.891447368421,38.240263157895 L 152.055921052632,38.0755263157892 L 152.055921052632,37.5 L 152.302631578947,37.2534210526319 L 153.289473684211,37.2534210526319 L 153.536184210526,37.5 L 154.194078947368,37.5 L 154.358552631579,37.6644736842105 L 154.358552631579,38.7334210526313 L 155.180921052632,39.8026315789474 L 155.427631578947,39.8026315789474 L 155.674342105263,39.9671052631579 L 156.825657894737,39.9671052631579 L 157.319078947368,39.3913157894734 L 157.565789473684,39.1447368421053 L 157.730263157895,39.1447368421053 L 157.976973684211,39.4736842105263 L 158.141447368421,39.5560526315792 L 158.388157894737,39.8026315789474 L 158.552631578947,39.9671052631579 L 158.799342105263,39.9671052631579 L 158.963815789474,40.2139473684213 L 159.210526315789,40.2139473684213 L 159.375,39.9671052631579 L 159.786184210526,39.9671052631579 L 159.868421052632,40.2139473684213 L 160.526315789474,40.296052631579 L 160.855263157895,40.3781578947366 L 161.430921052632,40.4605263157895 L 161.677631578947,40.625 L 162.335526315789,40.625 L 162.417763157895,40.8718421052634 L 162.664473684211,40.8718421052634 L 162.746710526316,40.625 L 163.157894736842,39.9671052631579 L 163.569078947368,39.5560526315792 L 163.569078947368,39.2271052631582 L 163.980263157895,38.7334210526313 L 164.0625,38.4868421052632 L 164.226973684211,38.3223684210526 L 164.226973684211,37.911315789474 L 164.473684210526,37.6644736842105 L 164.967105263158,37.6644736842105 L 165.296052631579,37.5 L 169.078947368421,37.5 L 170.065789473684,38.3223684210526 L 170.888157894737,38.7334210526313 L 171.710526315789,39.6381578947368 L 172.121710526316,40.1315789473684 L 172.615131578947,39.8026315789474 L 173.273026315789,39.1447368421053 L 173.4375,38.8981578947371 L 173.4375,38.7334210526313 L 174.095394736842,38.7334210526313 L 174.259868421053,38.9802631578947 L 174.753289473684,38.9802631578947 L 175.164473684211,39.3913157894734 L 175.164473684211,38.0755263157892 L 175.328947368421,37.6644736842105 L 175.328947368421,36.5955263157897 L 175.493421052632,36.1842105263158 L 175.328947368421,35.7728947368418 L 175.328947368421,35.6086842105266 L 174.671052631579,35.6086842105266 L 174.259868421053,34.9507894736845 L 174.259868421053,34.5394736842105 L 174.753289473684,34.1281578947366 L 174.671052631579,33.8815789473684 L 174.506578947368,33.7171052631579 L 173.848684210526,33.7171052631579 L 173.848684210526,31.3323684210529 L 173.026315789474,31.1676315789471 L 172.615131578947,30.8386842105261 L 172.121710526316,30.2631578947368 L 171.463815789474,29.7697368421053 L 171.134868421053,29.7697368421053 L 170.888157894737,29.2763157894737 L 170.723684210526,28.6184210526316 L 170.065789473684,27.6315789473684 L 170.065789473684,26.8092105263158 L 169.654605263158,26.2334210526313 L 169.161184210526,25.5755263157892 L 168.174342105263,24.9176315789471 L 167.598684210526,24.9176315789471 L 167.351973684211,25.1644736842105 L 166.858552631579,25.1644736842105 L 166.694078947368,24.9176315789471 L 166.365131578947,24.9176315789471 L 166.365131578947,23.4376315789476 L 166.529605263158,22.8618421052632 L 166.529605263158,20.3947368421053 L 166.776315789474,19.3255263157892 L 166.940789473684,18.8323684210529 L 166.940789473684,18.5034210526318 L 167.105263157895,17.9276315789474 L 167.105263157895,16.7763157894737 L 167.598684210526,16.0360526315787 L 168.009868421053,15.2960526315789 L 168.256578947368,14.8850000000003 L 168.174342105263,13.9802631578947 L 168.338815789474,12.0886842105261 L 168.174342105263,10.8552631578947 L 167.763157894737,9.95078947368448 L 167.516447368421,9.21052631578947 L 167.105263157895,8.79921052631552 L 166.365131578947,8.79921052631552 L 166.118421052632,9.21052631578947 L 166.118421052632,9.53947368421053 L 165.625,9.86842105263158 L 165.460526315789,9.86842105263158 L 164.473684210526,9.04605263157895 L 164.391447368421,7.07236842105263 L 164.144736842105,6.3323684210529 L 163.733552631579,5.67447368421079 L 163.075657894737,5.26315789473684 L 162.253289473684,5.26315789473684 z"  /></svg>
