<svg width="237.982195845697" height="282.492581602374" xmlns:dc="http://purl.org/dc/elements/1.1/" xmlns:cc="http://creativecommons.org/ns#" xmlns:rdf="http://www.w3.org/1999/02/22-rdf-syntax-ns#" xmlns:svg="http://www.w3.org/2000/svg" xmlns="http://www.w3.org/2000/svg" xmlns:sodipodi="http://sodipodi.sourceforge.net/DTD/sodipodi-0.dtd" xmlns:inkscape="http://www.inkscape.org/namespaces/inkscape"><style>path{stroke-miterlimit:4;fill-opacity:1;stroke:#000000;stroke-opacity:1;display:inline;stroke-dasharray:none;fill:#ffc8c8;stroke-width:1;}</style>
	
<path id="Birmingham__Northfield" d=" M 97.9228486646884,235.311097922848 L 97.0326409495549,234.717626112759 L 96.7359050445104,234.717626112759 L 96.4391691394659,234.12415430267 L 96.4391691394659,233.233471810087 L 96.1424332344214,232.937210682492 L 95.2522255192878,231.750267062314 L 94.3620178041543,230.563323442136 L 94.3620178041543,228.782908011868 L 94.0652818991098,228.189436201779 L 93.7685459940653,227.002492581601 L 94.6587537091988,226.706231454006 L 95.2522255192878,226.111810089019 L 95.2522255192878,225.815548961423 L 95.5489614243323,225.222077151334 L 95.5489614243323,224.33234421365 L 96.7359050445104,223.441661721067 L 96.7359050445104,222.254718100889 L 96.4391691394659,221.958456973294 L 96.4391691394659,221.364035608307 L 96.1424332344214,220.771513353116 L 95.5489614243323,221.067774480711 L 94.9554896142433,221.6612462908 L 93.4718100890208,223.441661721067 L 91.9881305637982,224.628605341245 L 90.2077151335312,226.111810089019 L 89.6142433234421,226.111810089019 L 87.240356083086,227.59596439169 L 84.5697329376855,228.189436201779 L 79.2284866468843,228.782908011868 L 75.9643916913947,229.080118694362 L 73.2937685459941,229.672640949553 L 70.6231454005935,230.563323442136 L 68.5459940652819,231.750267062314 L 67.6557863501484,231.750267062314 L 67.0623145400593,231.454005934718 L 67.6557863501484,231.454005934718 L 68.2492581602374,231.156795252225 L 68.2492581602374,228.189436201779 L 68.5459940652819,227.893175074184 L 69.4362017804154,227.298753709197 L 69.7329376854599,226.706231454006 L 70.326409495549,226.111810089019 L 70.919881305638,226.111810089019 L 71.2166172106825,225.815548961423 L 71.513353115727,224.33234421365 L 70.919881305638,223.737922848663 L 70.919881305638,222.848189910978 L 70.326409495549,221.364035608307 L 70.326409495549,218.39762611276 L 69.7329376854599,217.803204747773 L 69.4362017804154,217.506943620177 L 70.0296735905044,216.913471810088 L 71.2166172106825,215.133056379821 L 72.106824925816,213.649851632047 L 73.2937685459941,212.165697329376 L 74.1839762611276,210.681543026704 L 74.1839762611276,209.79181008902 L 75.3709198813056,208.902077151335 L 75.6676557863501,208.011394658753 L 77.1513353115727,206.230979228486 L 77.1513353115727,205.637507418397 L 76.8545994065282,205.044035608308 L 75.6676557863501,204.450563798219 L 74.1839762611276,203.559881305636 L 72.700296735905,202.670148367952 L 71.2166172106825,200.889732937684 L 70.0296735905044,199.109317507417 L 69.4362017804154,197.032640949555 L 69.4362017804154,195.845697329377 L 68.5459940652819,194.955014836794 L 67.9525222551929,194.955014836794 L 67.3590504451038,194.955014836794 L 67.3590504451038,195.548486646883 L 66.7655786350148,195.845697329377 L 64.6884272997033,196.141958456972 L 62.9080118694362,196.141958456972 L 62.3145400593472,196.438219584568 L 61.4243323442136,196.141958456972 L 60.5341246290801,196.141958456972 L 60.5341246290801,197.32890207715 L 60.8308605341246,197.922373887239 L 60.8308605341246,198.515845697328 L 59.6439169139466,198.515845697328 L 59.0504451038576,198.515845697328 L 59.3471810089021,199.109317507417 L 59.3471810089021,199.702789317506 L 59.0504451038576,199.702789317506 L 59.0504451038576,200.593471810089 L 59.3471810089021,200.889732937684 L 59.3471810089021,201.483204747773 L 57.8635014836795,201.483204747773 L 58.160237388724,201.18599406528 L 57.2700296735905,201.18599406528 L 56.973293768546,204.746824925814 L 56.973293768546,206.528189910979 L 57.566765578635,208.902077151335 L 57.566765578635,211.275964391691 L 57.2700296735905,211.572225519287 L 57.2700296735905,214.539584569732 L 56.379821958457,215.133056379821 L 54.5994065281899,216.023738872404 L 54.0059347181009,216.616261127594 L 54.5994065281899,218.100415430266 L 55.4896142433234,218.100415430266 L 56.379821958457,218.693887240355 L 56.379821958457,219.287359050444 L 57.2700296735905,220.771513353116 L 57.566765578635,221.067774480711 L 56.6765578635015,221.6612462908 L 55.4896142433234,221.958456973294 L 54.0059347181009,222.848189910978 L 53.1157270029674,223.441661721067 L 52.2255192878338,223.441661721067 L 51.6320474777448,224.035133531156 L 51.6320474777448,224.33234421365 L 51.3353115727003,224.628605341245 L 51.3353115727003,225.222077151334 L 50.7418397626113,225.519287833828 L 50.4451038575668,225.519287833828 L 50.1483679525222,225.815548961423 L 49.5548961424332,226.409020771512 L 49.2581602373887,226.409020771512 L 49.2581602373887,227.298753709197 L 48.9614243323442,227.59596439169 L 48.9614243323442,227.893175074184 L 48.3679525222552,228.189436201779 L 47.7744807121662,228.189436201779 L 47.4777448071217,228.782908011868 L 45.6973293768546,228.485697329375 L 44.8071216617211,229.376379821957 L 44.213649851632,229.672640949553 L 43.9169139465875,229.969851632046 L 43.3234421364985,231.156795252225 L 43.3234421364985,232.046528189909 L 42.7299703264095,232.343738872403 L 41.839762611276,232.343738872403 L 40.3560830860534,231.750267062314 L 38.8724035608309,231.750267062314 L 38.5756676557863,231.454005934718 L 38.2789317507418,232.046528189909 L 38.2789317507418,233.233471810087 L 37.3887240356083,233.233471810087 L 37.0919881305638,233.530682492581 L 36.4985163204748,233.530682492581 L 36.2017804154303,233.827893175074 L 35.9050445103858,232.937210682492 L 35.6083086053412,232.343738872403 L 35.3115727002967,232.046528189909 L 35.0148367952522,232.046528189909 L 34.4213649851632,232.937210682492 L 33.2344213649852,232.640949554896 L 32.9376854599407,233.233471810087 L 32.9376854599407,233.827893175074 L 33.2344213649852,233.827893175074 L 33.2344213649852,234.717626112759 L 32.0474777448071,235.904569732937 L 32.0474777448071,236.20178041543 L 30.8605341246291,237.091513353115 L 29.673590504451,237.091513353115 L 29.080118694362,236.498041543026 L 27.893175074184,235.607359050443 L 27.0029673590504,235.607359050443 L 26.4094955489614,236.498041543026 L 25.5192878338279,236.498041543026 L 24.3323442136499,235.311097922848 L 23.4421364985163,234.717626112759 L 23.4421364985163,235.607359050443 L 23.1454005934718,236.20178041543 L 21.9584569732938,237.091513353115 L 20.7715133531157,238.278456973293 L 20.7715133531157,238.871928783382 L 18.9910979228487,240.355133531155 L 19.2878338278932,240.652344213649 L 19.5845697329377,240.652344213649 L 21.0682492581602,242.432759643916 L 21.6617210682493,242.729020771511 L 26.1127596439169,242.729020771511 L 27.299703264095,243.026231454005 L 27.893175074184,244.213175074183 L 28.486646884273,245.697329376855 L 29.080118694362,247.476795252224 L 29.673590504451,248.960949554895 L 29.9703264094955,248.960949554895 L 32.0474777448071,248.960949554895 L 32.0474777448071,249.554421364984 L 32.3442136498516,250.147893175073 L 32.3442136498516,250.741364985162 L 32.6409495548961,251.334836795251 L 32.6409495548961,255.192878338279 L 32.9376854599407,256.082611275963 L 33.8278931750742,256.972344213648 L 34.1246290801187,257.86302670623 L 34.4213649851632,257.86302670623 L 35.6083086053412,257.269554896141 L 35.9050445103858,257.269554896141 L 36.4985163204748,257.86302670623 L 37.3887240356083,258.456498516319 L 37.3887240356083,259.049970326409 L 38.2789317507418,260.236913946587 L 39.1691394658754,260.236913946587 L 39.7626112759644,259.940652818991 L 40.0593471810089,259.940652818991 L 40.0593471810089,260.533175074182 L 40.6528189910979,262.017329376854 L 41.5430267062315,262.907062314538 L 42.433234421365,263.501483679525 L 43.026706231454,263.501483679525 L 43.620178041543,263.204272997032 L 44.213649851632,263.204272997032 L 44.5103857566766,263.501483679525 L 45.4005934718101,263.204272997032 L 45.9940652818991,262.314540059347 L 47.4777448071217,262.610801186943 L 48.3679525222552,262.017329376854 L 48.9614243323442,261.72011869436 L 48.9614243323442,261.423857566765 L 49.2581602373887,260.830385756676 L 49.2581602373887,259.643442136498 L 49.8516320474777,259.346231454004 L 51.0385756676558,258.456498516319 L 51.6320474777448,257.269554896141 L 51.9287833827893,256.676083086052 L 53.7091988130564,256.676083086052 L 55.1928783382789,256.082611275963 L 56.973293768546,256.676083086052 L 57.8635014836795,256.676083086052 L 59.3471810089021,256.082611275963 L 59.6439169139466,255.192878338279 L 60.2373887240356,254.302195845696 L 61.4243323442136,254.302195845696 L 61.7210682492582,254.598456973292 L 62.0178041543027,254.302195845696 L 63.2047477744807,254.302195845696 L 63.5014836795252,254.005934718101 L 63.5014836795252,252.818991097923 L 64.0949554896142,252.521780415429 L 64.0949554896142,251.92830860534 L 64.6884272997033,251.334836795251 L 64.9851632047478,252.224569732936 L 66.1721068249258,253.411513353114 L 67.3590504451038,254.598456973292 L 67.6557863501484,254.598456973292 L 68.2492581602374,255.78540059347 L 68.8427299703264,255.192878338279 L 68.8427299703264,254.598456973292 L 70.326409495549,253.115252225518 L 71.2166172106825,251.92830860534 L 71.2166172106825,251.037626112758 L 71.8100890207715,250.445103857567 L 72.700296735905,250.445103857567 L 74.4807121661721,251.632047477745 L 76.2611275964392,252.521780415429 L 78.3382789317507,253.708724035607 L 79.8219584569733,254.005934718101 L 81.3056379821958,254.302195845696 L 82.1958456973294,254.895667655785 L 83.3827893175074,256.379821958457 L 83.9762611275964,256.379821958457 L 84.5697329376855,256.972344213648 L 84.2729970326409,255.78540059347 L 84.86646884273,254.598456973292 L 85.7566765578635,253.411513353114 L 86.9436201780415,252.224569732936 L 87.8338278931751,251.334836795251 L 88.7240356083086,250.741364985162 L 88.7240356083086,250.147893175073 L 90.2077151335312,248.367477744806 L 91.0979228486647,246.587062314539 L 91.6913946587537,247.180534124628 L 92.5816023738872,246.289851632046 L 92.8783382789317,246.289851632046 L 94.0652818991098,245.400118694361 L 94.9554896142433,245.102908011867 L 94.9554896142433,243.026231454005 L 96.4391691394659,241.839287833827 L 96.4391691394659,240.949554896142 L 97.0326409495549,239.465400593471 L 97.0326409495549,236.794302670621 L 97.9228486646884,235.311097922848 z" />

<path id="Birmingham__Selly_Oak" d=" M 140.059347181009,231.156795252225 L 139.762611275964,230.26706231454 L 138.872403560831,229.080118694362 L 137.982195845697,227.59596439169 L 137.091988130564,226.111810089019 L 136.795252225519,226.111810089019 L 136.795252225519,224.33234421365 L 136.498516320475,223.737922848663 L 135.905044510386,222.254718100889 L 135.905044510386,221.6612462908 L 134.718100890208,220.771513353116 L 134.421364985163,220.771513353116 L 134.421364985163,217.210682492582 L 134.124629080119,217.210682492582 L 134.124629080119,214.836795252225 L 134.421364985163,214.539584569732 L 134.421364985163,214.242373887238 L 134.124629080119,213.946112759643 L 134.718100890208,212.759169139465 L 135.608308605341,211.572225519287 L 135.014836795252,211.275964391691 L 134.421364985163,211.275964391691 L 134.124629080119,210.978753709198 L 134.124629080119,210.385281899109 L 134.421364985163,210.385281899109 L 134.421364985163,209.79181008902 L 133.827893175074,209.494599406526 L 132.344213649852,209.198338278931 L 131.157270029674,209.494599406526 L 130.860534124629,209.494599406526 L 130.26706231454,210.385281899109 L 130.26706231454,211.275964391691 L 128.783382789317,211.275964391691 L 125.816023738872,210.681543026704 L 123.145400593472,209.79181008902 L 122.255192878338,209.494599406526 L 121.06824925816,210.681543026704 L 119.881305637982,211.275964391691 L 117.804154302671,212.462908011869 L 116.913946587537,212.462908011869 L 115.727002967359,213.352640949554 L 114.540059347181,214.539584569732 L 114.243323442136,214.539584569732 L 113.649851632047,213.946112759643 L 112.759643916914,213.05543026706 L 111.86943620178,212.759169139465 L 111.572700296736,211.868486646882 L 111.572700296736,208.604866468842 L 110.979228486647,208.307655786348 L 110.385756676558,208.902077151335 L 109.495548961424,209.494599406526 L 108.605341246291,209.494599406526 L 107.418397626113,210.681543026704 L 106.231454005935,211.275964391691 L 105.637982195846,212.165697329376 L 104.154302670623,212.759169139465 L 103.857566765579,212.759169139465 L 102.670623145401,211.868486646882 L 102.077151335312,211.275964391691 L 102.077151335312,210.385281899109 L 102.373887240356,209.494599406526 L 102.670623145401,208.604866468842 L 103.560830860534,207.417922848664 L 104.154302670623,206.824451038575 L 105.044510385757,205.637507418397 L 105.341246290801,205.044035608308 L 105.044510385757,204.746824925814 L 103.857566765579,203.85709198813 L 102.373887240356,203.85709198813 L 100,202.967359050445 L 98.8130563798219,202.967359050445 L 98.8130563798219,202.372937685458 L 99.7032640949555,201.18599406528 L 99.406528189911,196.735430267061 L 99.1097922848665,196.141958456972 L 99.1097922848665,194.064332344212 L 99.7032640949555,193.768071216616 L 99.7032640949555,193.174599406527 L 99.7032640949555,192.581127596438 L 100.296735905044,192.581127596438 L 100.890207715134,191.690445103856 L 100.890207715134,189.910979228487 L 98.8130563798219,189.910979228487 L 98.2195845697329,190.207240356082 L 96.7359050445104,190.207240356082 L 95.5489614243323,191.097922848665 L 95.2522255192878,191.690445103856 L 93.7685459940653,192.581127596438 L 92.5816023738872,192.877388724034 L 89.6142433234421,192.877388724034 L 88.7240356083086,192.581127596438 L 87.8338278931751,193.174599406527 L 87.240356083086,192.581127596438 L 85.7566765578635,192.581127596438 L 84.86646884273,191.987655786349 L 83.9762611275964,191.987655786349 L 81.0089020771513,192.581127596438 L 80.4154302670623,192.877388724034 L 77.1513353115727,192.877388724034 L 76.2611275964392,193.768071216616 L 75.6676557863501,193.471810089021 L 74.1839762611276,193.471810089021 L 73.8872403560831,193.768071216616 L 71.513353115727,193.768071216616 L 70.6231454005935,193.471810089021 L 69.7329376854599,193.768071216616 L 68.5459940652819,193.768071216616 L 67.6557863501484,194.064332344212 L 67.3590504451038,194.955014836794 L 67.9525222551929,194.955014836794 L 68.5459940652819,194.955014836794 L 69.4362017804154,195.845697329377 L 69.4362017804154,197.032640949555 L 70.0296735905044,199.109317507417 L 71.2166172106825,200.889732937684 L 72.700296735905,202.670148367952 L 74.1839762611276,203.559881305636 L 75.6676557863501,204.450563798219 L 76.8545994065282,205.044035608308 L 77.1513353115727,205.637507418397 L 77.1513353115727,206.230979228486 L 75.6676557863501,208.011394658753 L 75.3709198813056,208.902077151335 L 74.1839762611276,209.79181008902 L 74.1839762611276,210.681543026704 L 73.2937685459941,212.165697329376 L 72.106824925816,213.649851632047 L 71.2166172106825,215.133056379821 L 70.0296735905044,216.913471810088 L 69.4362017804154,217.506943620177 L 69.7329376854599,217.803204747773 L 70.326409495549,218.39762611276 L 70.326409495549,221.364035608307 L 70.919881305638,222.848189910978 L 70.919881305638,223.737922848663 L 71.513353115727,224.33234421365 L 71.2166172106825,225.815548961423 L 70.919881305638,226.111810089019 L 70.326409495549,226.111810089019 L 69.7329376854599,226.706231454006 L 69.4362017804154,227.298753709197 L 68.5459940652819,227.893175074184 L 68.2492581602374,228.189436201779 L 68.2492581602374,231.156795252225 L 67.6557863501484,231.454005934718 L 67.0623145400593,231.454005934718 L 67.6557863501484,231.750267062314 L 68.5459940652819,231.750267062314 L 70.6231454005935,230.563323442136 L 73.2937685459941,229.672640949553 L 75.9643916913947,229.080118694362 L 79.2284866468843,228.782908011868 L 84.5697329376855,228.189436201779 L 87.240356083086,227.59596439169 L 89.6142433234421,226.111810089019 L 90.2077151335312,226.111810089019 L 91.9881305637982,224.628605341245 L 93.4718100890208,223.441661721067 L 94.9554896142433,221.6612462908 L 95.5489614243323,221.067774480711 L 96.1424332344214,220.771513353116 L 96.4391691394659,221.364035608307 L 96.4391691394659,221.958456973294 L 96.7359050445104,222.254718100889 L 96.7359050445104,223.441661721067 L 95.5489614243323,224.33234421365 L 95.5489614243323,225.222077151334 L 95.2522255192878,225.815548961423 L 95.2522255192878,226.111810089019 L 94.6587537091988,226.706231454006 L 93.7685459940653,227.002492581601 L 94.0652818991098,228.189436201779 L 94.3620178041543,228.782908011868 L 94.3620178041543,230.563323442136 L 95.2522255192878,231.750267062314 L 96.1424332344214,232.937210682492 L 96.4391691394659,233.233471810087 L 96.4391691394659,234.12415430267 L 96.7359050445104,234.717626112759 L 97.0326409495549,234.717626112759 L 97.9228486646884,235.311097922848 L 97.9228486646884,235.014836795252 L 98.5163204747774,235.311097922848 L 99.1097922848665,235.311097922848 L 99.7032640949555,235.904569732937 L 100.296735905044,236.794302670621 L 100.593471810089,237.981246290799 L 100.593471810089,238.575667655786 L 102.373887240356,238.278456973293 L 103.857566765579,240.05887240356 L 104.747774480712,239.762611275964 L 105.637982195846,239.168189910977 L 106.824925816024,238.871928783382 L 108.308605341246,239.168189910977 L 108.308605341246,239.465400593471 L 110.089020771513,239.465400593471 L 111.275964391691,238.575667655786 L 112.462908011869,238.278456973293 L 113.056379821958,238.575667655786 L 113.649851632047,238.575667655786 L 113.946587537092,238.278456973293 L 116.023738872404,237.981246290799 L 116.023738872404,238.575667655786 L 116.617210682493,239.762611275964 L 117.507418397626,241.542077151333 L 118.39762611276,242.729020771511 L 118.39762611276,243.026231454005 L 121.364985163205,243.026231454005 L 121.364985163205,240.949554896142 L 121.958456973294,240.652344213649 L 125.222551928783,240.652344213649 L 125.222551928783,237.981246290799 L 127.299703264095,237.981246290799 L 127.299703264095,237.388724035608 L 127.00296735905,236.794302670621 L 127.00296735905,234.420415430265 L 128.486646884273,232.937210682492 L 129.080118694362,231.750267062314 L 128.486646884273,230.859584569731 L 129.080118694362,230.563323442136 L 129.970326409496,231.156795252225 L 130.860534124629,232.640949554896 L 132.937685459941,233.233471810087 L 133.827893175074,233.827893175074 L 136.498516320475,233.530682492581 L 137.685459940653,232.640949554896 L 138.575667655786,231.750267062314 L 139.762611275964,231.156795252225 L 140.059347181009,231.156795252225 z" />

<path id="Birmingham__Hall_Green" d=" M 122.255192878338,166.764629080117 L 121.958456973294,167.655311572699 L 121.661721068249,168.842255192877 L 119.881305637982,170.325459940651 L 119.287833827893,170.622670623144 L 118.100890207715,171.809614243322 L 117.804154302671,172.403086053411 L 116.913946587537,173.59002967359 L 116.320474777448,173.59002967359 L 116.023738872404,174.183501483679 L 115.727002967359,175.073234421363 L 114.836795252226,175.073234421363 L 112.462908011869,173.59002967359 L 111.572700296736,173.59002967359 L 110.385756676558,172.699347181007 L 108.308605341246,171.809614243322 L 107.715133531157,172.699347181007 L 107.715133531157,173.59002967359 L 106.824925816024,175.073234421363 L 105.93471810089,176.557388724035 L 105.341246290801,178.041543026706 L 105.044510385757,178.931275964391 L 104.154302670623,180.415430267062 L 104.154302670623,180.711691394658 L 105.341246290801,181.305163204747 L 105.93471810089,181.898635014836 L 106.231454005935,181.898635014836 L 106.231454005935,182.194896142431 L 106.528189910979,182.789317507418 L 106.231454005935,183.381839762609 L 106.231454005935,184.272522255192 L 105.044510385757,184.865994065281 L 105.044510385757,185.755727002965 L 104.154302670623,186.350148367952 L 102.670623145401,187.833353115726 L 102.077151335312,189.020296735904 L 101.483679525223,189.910979228487 L 100.890207715134,189.910979228487 L 100.890207715134,191.690445103856 L 100.296735905044,192.581127596438 L 99.7032640949555,192.581127596438 L 99.7032640949555,193.174599406527 L 99.7032640949555,193.768071216616 L 99.1097922848665,194.064332344212 L 99.1097922848665,196.141958456972 L 99.406528189911,196.735430267061 L 99.7032640949555,201.18599406528 L 98.8130563798219,202.372937685458 L 98.8130563798219,202.967359050445 L 100,202.967359050445 L 102.373887240356,203.85709198813 L 103.857566765579,203.85709198813 L 105.044510385757,204.746824925814 L 105.341246290801,205.044035608308 L 105.044510385757,205.637507418397 L 104.154302670623,206.824451038575 L 103.560830860534,207.417922848664 L 102.670623145401,208.604866468842 L 102.373887240356,209.494599406526 L 102.077151335312,210.385281899109 L 102.077151335312,211.275964391691 L 102.670623145401,211.868486646882 L 103.857566765579,212.759169139465 L 104.154302670623,212.759169139465 L 105.637982195846,212.165697329376 L 106.231454005935,211.275964391691 L 107.418397626113,210.681543026704 L 108.605341246291,209.494599406526 L 109.495548961424,209.494599406526 L 110.385756676558,208.902077151335 L 110.979228486647,208.307655786348 L 111.572700296736,208.604866468842 L 111.572700296736,211.868486646882 L 111.86943620178,212.759169139465 L 112.759643916914,213.05543026706 L 113.649851632047,213.946112759643 L 114.243323442136,214.539584569732 L 114.540059347181,214.539584569732 L 115.727002967359,213.352640949554 L 116.913946587537,212.462908011869 L 117.804154302671,212.462908011869 L 119.881305637982,211.275964391691 L 121.06824925816,210.681543026704 L 122.255192878338,209.494599406526 L 123.145400593472,209.79181008902 L 125.816023738872,210.681543026704 L 128.783382789317,211.275964391691 L 130.26706231454,211.275964391691 L 130.26706231454,210.385281899109 L 130.860534124629,209.494599406526 L 131.157270029674,209.494599406526 L 132.344213649852,209.198338278931 L 133.827893175074,209.494599406526 L 134.421364985163,209.79181008902 L 134.421364985163,210.385281899109 L 134.124629080119,210.385281899109 L 134.124629080119,210.978753709198 L 134.421364985163,211.275964391691 L 135.014836795252,211.275964391691 L 135.608308605341,211.572225519287 L 134.718100890208,212.759169139465 L 134.124629080119,213.946112759643 L 134.421364985163,214.242373887238 L 134.421364985163,214.539584569732 L 134.124629080119,214.836795252225 L 134.124629080119,217.210682492582 L 134.421364985163,217.210682492582 L 134.421364985163,220.771513353116 L 134.718100890208,220.771513353116 L 135.905044510386,221.6612462908 L 135.905044510386,222.254718100889 L 136.498516320475,223.737922848663 L 136.795252225519,224.33234421365 L 136.795252225519,226.111810089019 L 137.091988130564,226.111810089019 L 137.982195845697,227.59596439169 L 138.872403560831,229.080118694362 L 139.762611275964,230.26706231454 L 140.059347181009,231.156795252225 L 140.356083086053,231.454005934718 L 142.433234421365,231.454005934718 L 143.323442136498,231.156795252225 L 143.916913946588,230.563323442136 L 143.916913946588,229.376379821957 L 144.807121661721,228.485697329375 L 145.994065281899,227.893175074184 L 147.181008902077,226.706231454006 L 147.181008902077,226.409020771512 L 149.258160237389,224.33234421365 L 150.148367952522,223.145400593472 L 149.851632047478,222.550979228485 L 150.741839762611,221.958456973294 L 150.741839762611,221.067774480711 L 151.928783382789,218.100415430266 L 152.818991097923,216.616261127594 L 153.709198813056,215.133056379821 L 154.59940652819,212.759169139465 L 155.192878338279,211.572225519287 L 155.489614243323,211.275964391691 L 154.59940652819,210.978753709198 L 153.412462908012,210.385281899109 L 151.928783382789,209.79181008902 L 150.445103857567,209.198338278931 L 148.961424332344,207.715133531157 L 147.774480712166,206.824451038575 L 147.181008902077,206.824451038575 L 147.181008902077,206.230979228486 L 147.774480712166,204.154302670623 L 149.258160237389,202.372937685458 L 149.258160237389,201.780415430267 L 146.884272997033,201.18599406528 L 145.697329376855,201.18599406528 L 144.807121661721,200.296261127595 L 145.40059347181,199.702789317506 L 146.290801186944,198.812106824924 L 147.181008902077,197.625163204746 L 147.774480712166,197.625163204746 L 148.961424332344,196.735430267061 L 148.961424332344,196.438219584568 L 149.554896142433,196.438219584568 L 149.554896142433,195.548486646883 L 148.961424332344,194.658753709199 L 147.477744807122,194.064332344212 L 146.290801186944,193.174599406527 L 145.103857566766,192.581127596438 L 143.620178041543,191.39418397626 L 141.839762611276,190.503501483678 L 141.839762611276,189.613768545993 L 142.433234421365,187.239881305637 L 142.433234421365,186.052937685459 L 139.169139465875,186.052937685459 L 138.278931750742,186.350148367952 L 136.795252225519,186.350148367952 L 135.014836795252,184.568783382787 L 133.827893175074,184.272522255192 L 132.937685459941,183.976261127596 L 131.454005934718,182.789317507418 L 132.344213649852,182.194896142431 L 132.640949554896,180.118219584569 L 132.937685459941,177.447121661719 L 133.234421364985,173.59002967359 L 132.344213649852,173.293768545994 L 130.860534124629,172.403086053411 L 129.673590504451,171.809614243322 L 127.596439169139,170.622670623144 L 127.00296735905,170.622670623144 L 125.222551928783,169.435727002966 L 122.255192878338,166.764629080117 z" />

<path id="Birmingham__Edgbaston" d=" M 66.4688427299703,154.302670623145 L 65.8753709198813,154.598931750741 L 64.3916913946587,155.785875370919 L 63.2047477744807,157.566290801186 L 62.9080118694362,158.753234421364 L 61.7210682492582,159.940178041542 L 61.7210682492582,160.829910979227 L 62.3145400593472,160.829910979227 L 62.9080118694362,161.424332344214 L 64.0949554896142,162.314065281898 L 62.9080118694362,163.501008902076 L 63.5014836795252,164.094480712165 L 63.7982195845697,164.687952522254 L 63.2047477744807,164.687952522254 L 62.6112759643917,165.577685459939 L 61.7210682492582,165.577685459939 L 61.7210682492582,165.874896142432 L 60.5341246290801,166.764629080117 L 59.3471810089021,167.951572700295 L 58.753709198813,168.248783382788 L 58.160237388724,169.138516320473 L 57.2700296735905,170.029198813055 L 56.379821958457,170.622670623144 L 53.7091988130564,171.809614243322 L 52.2255192878338,172.106824925816 L 51.0385756676558,172.9965578635 L 49.5548961424332,172.9965578635 L 48.0712166172107,173.59002967359 L 45.9940652818991,173.886290801185 L 43.026706231454,175.370445103857 L 40.9495548961424,175.370445103857 L 40.3560830860534,175.073234421363 L 40.0593471810089,175.073234421363 L 37.3887240356083,176.557388724035 L 32.6409495548961,176.557388724035 L 32.6409495548961,178.337804154302 L 32.9376854599407,178.931275964391 L 34.1246290801187,182.789317507418 L 34.1246290801187,184.272522255192 L 33.8278931750742,185.163204747774 L 33.8278931750742,186.942670623143 L 32.6409495548961,189.3165578635 L 32.6409495548961,191.39418397626 L 31.4540059347181,191.987655786349 L 30.5637982195846,193.174599406527 L 30.5637982195846,193.768071216616 L 29.673590504451,196.735430267061 L 29.673590504451,198.515845697328 L 30.2670623145401,199.109317507417 L 30.2670623145401,206.230979228486 L 30.2670623145401,206.528189910979 L 30.2670623145401,208.307655786348 L 31.1572700296736,208.307655786348 L 31.4540059347181,208.902077151335 L 31.1572700296736,209.198338278931 L 31.1572700296736,212.462908011869 L 31.7507418397626,212.165697329376 L 32.6409495548961,211.275964391691 L 32.9376854599407,211.572225519287 L 32.6409495548961,212.165697329376 L 33.8278931750742,213.352640949554 L 35.0148367952522,214.539584569732 L 36.4985163204748,213.05543026706 L 37.6854599406528,213.05543026706 L 37.9821958456973,212.759169139465 L 38.2789317507418,212.759169139465 L 38.2789317507418,214.836795252225 L 38.5756676557863,214.836795252225 L 39.4658753709199,216.319999999999 L 40.0593471810089,217.506943620177 L 40.3560830860534,218.39762611276 L 39.7626112759644,218.990148367951 L 39.7626112759644,219.584569732938 L 40.0593471810089,219.584569732938 L 40.3560830860534,219.880830860533 L 40.3560830860534,221.067774480711 L 40.9495548961424,221.364035608307 L 41.2462908011869,221.958456973294 L 41.839762611276,223.145400593472 L 42.1364985163205,223.441661721067 L 42.7299703264095,223.737922848663 L 43.620178041543,224.628605341245 L 44.213649851632,224.924866468841 L 45.1038575667656,225.519287833828 L 46.2908011869436,226.111810089019 L 47.1810089020771,226.409020771512 L 48.3679525222552,225.815548961423 L 48.6646884272997,225.815548961423 L 49.2581602373887,225.222077151334 L 50.1483679525222,224.924866468841 L 50.4451038575668,225.519287833828 L 50.7418397626113,225.519287833828 L 51.3353115727003,225.222077151334 L 51.3353115727003,224.628605341245 L 51.6320474777448,224.33234421365 L 51.6320474777448,224.035133531156 L 52.2255192878338,223.441661721067 L 53.1157270029674,223.441661721067 L 54.0059347181009,222.848189910978 L 55.4896142433234,221.958456973294 L 56.6765578635015,221.6612462908 L 57.566765578635,221.067774480711 L 57.2700296735905,220.771513353116 L 56.379821958457,219.287359050444 L 56.379821958457,218.693887240355 L 55.4896142433234,218.100415430266 L 54.5994065281899,218.100415430266 L 54.0059347181009,216.616261127594 L 54.5994065281899,216.023738872404 L 56.379821958457,215.133056379821 L 57.2700296735905,214.539584569732 L 57.2700296735905,211.572225519287 L 57.566765578635,211.275964391691 L 57.566765578635,208.902077151335 L 56.973293768546,206.528189910979 L 56.973293768546,204.746824925814 L 57.2700296735905,201.18599406528 L 58.160237388724,201.18599406528 L 57.8635014836795,201.483204747773 L 59.3471810089021,201.483204747773 L 59.3471810089021,200.889732937684 L 59.0504451038576,200.593471810089 L 59.0504451038576,199.702789317506 L 59.3471810089021,199.702789317506 L 59.3471810089021,199.109317507417 L 59.0504451038576,198.515845697328 L 59.6439169139466,198.515845697328 L 60.8308605341246,198.515845697328 L 60.8308605341246,197.922373887239 L 60.5341246290801,197.32890207715 L 60.5341246290801,196.141958456972 L 61.4243323442136,196.141958456972 L 62.3145400593472,196.438219584568 L 62.9080118694362,196.141958456972 L 64.6884272997033,196.141958456972 L 66.7655786350148,195.845697329377 L 67.3590504451038,195.548486646883 L 67.6557863501484,194.064332344212 L 68.5459940652819,193.768071216616 L 69.7329376854599,193.768071216616 L 70.6231454005935,193.471810089021 L 71.513353115727,193.768071216616 L 73.8872403560831,193.768071216616 L 74.1839762611276,193.471810089021 L 75.6676557863501,193.471810089021 L 76.2611275964392,193.768071216616 L 77.1513353115727,192.877388724034 L 80.4154302670623,192.877388724034 L 81.0089020771513,192.581127596438 L 83.9762611275964,191.987655786349 L 84.86646884273,191.987655786349 L 85.7566765578635,192.581127596438 L 87.240356083086,192.581127596438 L 87.8338278931751,193.174599406527 L 88.7240356083086,192.581127596438 L 89.6142433234421,192.877388724034 L 92.5816023738872,192.877388724034 L 93.7685459940653,192.581127596438 L 95.2522255192878,191.690445103856 L 95.5489614243323,191.097922848665 L 96.7359050445104,190.207240356082 L 98.2195845697329,190.207240356082 L 98.8130563798219,189.910979228487 L 101.483679525223,189.910979228487 L 102.077151335312,189.020296735904 L 102.670623145401,187.833353115726 L 104.154302670623,186.350148367952 L 105.044510385757,185.755727002965 L 105.044510385757,184.865994065281 L 106.231454005935,184.272522255192 L 106.231454005935,183.381839762609 L 106.528189910979,182.789317507418 L 106.231454005935,182.194896142431 L 106.231454005935,181.898635014836 L 105.93471810089,181.898635014836 L 105.341246290801,181.305163204747 L 104.154302670623,180.711691394658 L 104.154302670623,180.415430267062 L 105.044510385757,178.931275964391 L 105.341246290801,178.041543026706 L 105.93471810089,176.557388724035 L 106.824925816024,175.073234421363 L 107.715133531157,173.59002967359 L 107.715133531157,172.699347181007 L 108.308605341246,171.809614243322 L 105.93471810089,170.919881305638 L 104.154302670623,170.622670623144 L 102.967359050445,169.73293768546 L 102.077151335312,168.545994065282 L 100,167.655311572699 L 98.2195845697329,166.172106824926 L 95.5489614243323,165.281424332343 L 94.0652818991098,165.281424332343 L 92.5816023738872,165.577685459939 L 90.2077151335312,165.874896142432 L 86.3501483679525,165.874896142432 L 86.3501483679525,165.577685459939 L 86.9436201780415,164.094480712165 L 87.8338278931751,162.907537091987 L 87.240356083086,162.314065281898 L 85.7566765578635,162.314065281898 L 85.459940652819,162.016854599405 L 85.459940652819,161.424332344214 L 83.6795252225519,160.237388724036 L 82.4925816023739,161.424332344214 L 81.8991097922849,160.533649851631 L 81.3056379821958,160.533649851631 L 80.1186943620178,160.829910979227 L 79.8219584569733,161.424332344214 L 78.9317507418397,162.016854599405 L 78.0415430267062,161.720593471809 L 76.8545994065282,161.720593471809 L 77.1513353115727,160.533649851631 L 76.2611275964392,159.346706231453 L 76.2611275964392,157.566290801186 L 75.6676557863501,158.159762611275 L 74.4807121661721,159.050445103858 L 74.1839762611276,159.940178041542 L 73.8872403560831,161.12712166172 L 73.5905044510386,160.829910979227 L 72.4035608308605,159.940178041542 L 71.2166172106825,159.346706231453 L 71.2166172106825,158.753234421364 L 70.326409495549,157.863501483679 L 68.5459940652819,155.19240356083 L 68.5459940652819,154.302670623145 L 66.4688427299703,154.302670623145 z" />

<path id="Birmingham__Yardley" d=" M 198.813056379822,168.545994065282 L 198.219584569733,168.248783382788 L 197.922848664688,167.951572700295 L 197.032640949555,167.359050445104 L 196.142433234421,166.468367952521 L 194.658753709199,165.281424332343 L 192.878338278932,164.094480712165 L 191.691394658754,162.611275964392 L 189.910979228487,161.720593471809 L 188.427299703264,160.533649851631 L 186.350148367952,159.346706231453 L 184.569732937685,158.159762611275 L 182.789317507418,156.676557863501 L 181.60237388724,156.676557863501 L 180.415430267062,156.082136498514 L 178.041543026706,154.895192878336 L 175.66765578635,154.005459940652 L 175.074183976261,154.005459940652 L 175.074183976261,152.818516320474 L 175.370919881306,152.225044510385 L 175.370919881306,151.334362017802 L 175.66765578635,150.147418397624 L 176.854599406528,148.664213649851 L 176.854599406528,147.181008902077 L 175.964391691395,145.994065281899 L 175.964391691395,145.103382789317 L 175.370919881306,144.807121661721 L 173.590504451039,143.620178041543 L 173.293768545994,143.620178041543 L 172.106824925816,144.807121661721 L 170.919881305638,145.399643916912 L 170.326409495549,145.399643916912 L 170.029673590504,145.696854599406 L 169.73293768546,145.399643916912 L 169.436201780415,145.696854599406 L 167.359050445104,145.696854599406 L 166.765578635015,145.994065281899 L 166.46884272997,145.994065281899 L 165.875370919881,145.696854599406 L 164.688427299703,145.696854599406 L 164.094955489614,146.58658753709 L 164.094955489614,146.883798219584 L 163.204747774481,147.477270029673 L 163.501483679525,147.773531157268 L 162.314540059347,148.960474777446 L 161.721068249258,150.444629080118 L 160.830860534125,152.225044510385 L 160.830860534125,154.302670623145 L 160.237388724036,156.082136498514 L 159.050445103858,158.159762611275 L 158.160237388724,159.940178041542 L 158.160237388724,160.829910979227 L 158.456973293769,161.720593471809 L 158.456973293769,164.390741839761 L 157.863501483679,165.281424332343 L 156.973293768546,165.281424332343 L 155.489614243323,166.468367952521 L 155.489614243323,167.655311572699 L 154.302670623145,168.545994065282 L 153.709198813056,169.138516320473 L 153.709198813056,169.435727002966 L 152.818991097923,170.622670623144 L 151.3353115727,171.512403560829 L 150.148367952522,172.106824925816 L 149.258160237389,173.293768545994 L 147.181008902077,173.886290801185 L 146.587537091988,173.886290801185 L 145.697329376855,173.59002967359 L 144.213649851632,172.9965578635 L 141.543026706231,172.106824925816 L 138.872403560831,170.919881305638 L 135.608308605341,169.435727002966 L 135.014836795252,169.138516320473 L 134.421364985163,170.622670623144 L 134.124629080119,171.809614243322 L 133.53115727003,173.293768545994 L 133.234421364985,173.59002967359 L 132.937685459941,177.447121661719 L 132.640949554896,180.118219584569 L 132.344213649852,182.194896142431 L 131.454005934718,182.789317507418 L 132.937685459941,183.976261127596 L 133.827893175074,184.272522255192 L 135.014836795252,184.568783382787 L 136.795252225519,186.350148367952 L 138.278931750742,186.350148367952 L 139.169139465875,186.052937685459 L 142.433234421365,186.052937685459 L 142.433234421365,187.239881305637 L 141.839762611276,189.613768545993 L 141.839762611276,190.503501483678 L 143.620178041543,191.39418397626 L 145.103857566766,192.581127596438 L 146.290801186944,193.174599406527 L 147.477744807122,194.064332344212 L 148.961424332344,194.658753709199 L 149.554896142433,195.548486646883 L 149.554896142433,196.438219584568 L 148.961424332344,196.438219584568 L 148.961424332344,196.735430267061 L 147.774480712166,197.625163204746 L 147.181008902077,197.625163204746 L 146.290801186944,198.812106824924 L 145.40059347181,199.702789317506 L 144.807121661721,200.296261127595 L 145.697329376855,201.18599406528 L 146.884272997033,201.18599406528 L 149.258160237389,201.780415430267 L 149.258160237389,202.372937685458 L 147.774480712166,204.154302670623 L 147.181008902077,206.230979228486 L 147.181008902077,206.824451038575 L 147.774480712166,206.824451038575 L 148.961424332344,207.715133531157 L 150.445103857567,209.198338278931 L 151.928783382789,209.79181008902 L 153.412462908012,210.385281899109 L 154.59940652819,210.978753709198 L 155.489614243323,211.275964391691 L 156.083086053412,210.681543026704 L 158.160237388724,210.089020771513 L 159.347181008902,209.494599406526 L 160.830860534125,208.011394658753 L 161.127596439169,205.933768545992 L 161.127596439169,203.559881305636 L 161.424332344214,202.967359050445 L 161.721068249258,202.076676557863 L 162.908011869436,201.780415430267 L 163.501483679525,200.296261127595 L 163.79821958457,199.406528189911 L 164.094955489614,197.32890207715 L 164.391691394659,196.735430267061 L 164.094955489614,196.438219584568 L 164.985163204748,195.548486646883 L 165.875370919881,194.955014836794 L 165.875370919881,194.064332344212 L 166.46884272997,192.581127596438 L 167.062314540059,191.097922848665 L 167.359050445104,190.207240356082 L 167.655786350148,189.613768545993 L 168.249258160237,189.020296735904 L 168.249258160237,186.942670623143 L 168.545994065282,186.646409495548 L 168.545994065282,184.568783382787 L 168.249258160237,184.272522255192 L 170.029673590504,182.492106824925 L 170.919881305638,181.007952522253 L 172.106824925816,180.118219584569 L 173.887240356083,181.60237388724 L 174.777448071217,183.085578635014 L 176.261127596439,184.272522255192 L 178.041543026706,185.755727002965 L 178.338278931751,186.052937685459 L 178.635014836795,185.755727002965 L 179.821958456973,185.755727002965 L 181.899109792285,186.942670623143 L 183.382789317507,187.833353115726 L 184.272997032641,187.833353115726 L 186.350148367952,188.724035608309 L 186.943620178042,188.129614243321 L 187.537091988131,188.129614243321 L 188.13056379822,187.833353115726 L 191.691394658754,187.833353115726 L 191.691394658754,187.537091988131 L 192.878338278932,187.537091988131 L 193.175074183976,187.833353115726 L 194.06528189911,187.833353115726 L 194.362017804154,187.537091988131 L 197.626112759644,187.537091988131 L 198.219584569733,186.942670623143 L 199.109792284866,186.052937685459 L 199.703264094955,184.865994065281 L 200.296735905044,183.679050445103 L 201.186943620178,182.789317507418 L 201.780415430267,181.898635014836 L 200.593471810089,180.711691394658 L 200,179.821008902075 L 199.109792284866,178.337804154302 L 197.922848664688,176.557388724035 L 196.439169139466,174.776973293768 L 196.142433234421,174.183501483679 L 196.142433234421,171.216142433233 L 197.032640949555,170.325459940651 L 197.329376854599,170.325459940651 L 197.922848664688,170.622670623144 L 198.516320474777,170.325459940651 L 199.109792284866,170.325459940651 L 199.406528189911,169.435727002966 L 198.516320474777,168.842255192877 L 198.813056379822,168.545994065282 z" />

<path id="Birmingham__Hodge_Hill" d=" M 175.074183976261,125.518813056379 L 170.623145400593,125.816023738872 L 167.359050445104,126.112284866468 L 163.204747774481,127.595489614241 L 161.721068249258,127.595489614241 L 160.237388724036,128.189910979228 L 159.050445103858,128.486172106824 L 156.083086053412,128.782433234419 L 154.005934718101,129.673115727002 L 153.115727002967,129.673115727002 L 152.818991097923,129.673115727002 L 146.884272997033,132.047002967358 L 140.652818991098,133.827418397625 L 137.685459940653,134.71715133531 L 135.014836795252,137.091038575666 L 133.234421364985,138.575192878337 L 132.640949554896,139.464925816022 L 131.454005934718,140.949080118693 L 130.563798219585,142.72949554896 L 130.26706231454,143.620178041543 L 129.970326409496,144.807121661721 L 129.970326409496,147.773531157268 L 128.783382789317,151.038100890207 L 128.486646884273,152.52130563798 L 128.486646884273,154.005459940652 L 128.783382789317,155.19240356083 L 130.563798219585,154.598931750741 L 132.937685459941,154.302670623145 L 135.311572700297,154.005459940652 L 137.685459940653,154.005459940652 L 138.575667655786,153.708249258158 L 140.652818991098,153.411988130563 L 140.059347181009,153.708249258158 L 140.059347181009,156.082136498514 L 140.356083086053,156.972818991097 L 140.356083086053,158.159762611275 L 140.652818991098,158.753234421364 L 140.652818991098,159.346706231453 L 140.059347181009,159.346706231453 L 139.169139465875,159.940178041542 L 138.872403560831,159.940178041542 L 138.575667655786,160.237388724036 L 138.278931750742,160.533649851631 L 138.278931750742,162.016854599405 L 138.872403560831,162.907537091987 L 139.46587537092,163.203798219583 L 138.575667655786,163.79821958457 L 137.982195845697,163.79821958457 L 137.388724035608,164.094480712165 L 136.498516320475,164.094480712165 L 136.498516320475,165.281424332343 L 135.905044510386,166.468367952521 L 135.905044510386,166.764629080117 L 135.014836795252,167.655311572699 L 134.718100890208,168.248783382788 L 135.014836795252,169.138516320473 L 135.608308605341,169.435727002966 L 138.872403560831,170.919881305638 L 141.543026706231,172.106824925816 L 144.213649851632,172.9965578635 L 145.697329376855,173.59002967359 L 146.587537091988,173.886290801185 L 147.181008902077,173.886290801185 L 149.258160237389,173.293768545994 L 150.148367952522,172.106824925816 L 151.3353115727,171.512403560829 L 152.818991097923,170.622670623144 L 153.709198813056,169.435727002966 L 153.709198813056,169.138516320473 L 154.302670623145,168.545994065282 L 155.489614243323,167.655311572699 L 155.489614243323,166.468367952521 L 156.973293768546,165.281424332343 L 157.863501483679,165.281424332343 L 158.456973293769,164.390741839761 L 158.456973293769,161.720593471809 L 158.160237388724,160.829910979227 L 158.160237388724,159.940178041542 L 159.050445103858,158.159762611275 L 160.237388724036,156.082136498514 L 160.830860534125,154.302670623145 L 160.830860534125,152.225044510385 L 161.721068249258,150.444629080118 L 162.314540059347,148.960474777446 L 163.501483679525,147.773531157268 L 163.204747774481,147.477270029673 L 164.094955489614,146.883798219584 L 164.094955489614,146.58658753709 L 164.688427299703,145.696854599406 L 165.875370919881,145.696854599406 L 166.46884272997,145.994065281899 L 166.765578635015,145.994065281899 L 167.359050445104,145.696854599406 L 169.436201780415,145.696854599406 L 169.73293768546,145.399643916912 L 170.029673590504,145.696854599406 L 170.326409495549,145.399643916912 L 170.919881305638,145.399643916912 L 172.106824925816,144.807121661721 L 173.293768545994,143.620178041543 L 173.590504451039,143.620178041543 L 175.370919881306,144.807121661721 L 175.964391691395,145.103382789317 L 175.964391691395,145.994065281899 L 176.854599406528,147.181008902077 L 176.854599406528,148.664213649851 L 175.66765578635,150.147418397624 L 175.370919881306,151.334362017802 L 175.370919881306,152.225044510385 L 175.074183976261,152.818516320474 L 175.074183976261,154.005459940652 L 175.66765578635,154.005459940652 L 178.041543026706,154.895192878336 L 180.415430267062,156.082136498514 L 181.60237388724,156.676557863501 L 182.789317507418,156.676557863501 L 184.569732937685,158.159762611275 L 186.350148367952,159.346706231453 L 188.427299703264,160.533649851631 L 189.910979228487,161.720593471809 L 191.691394658754,162.611275964392 L 192.878338278932,164.094480712165 L 194.658753709199,165.281424332343 L 196.142433234421,166.468367952521 L 197.032640949555,167.359050445104 L 197.922848664688,167.951572700295 L 198.219584569733,168.248783382788 L 198.813056379822,168.545994065282 L 199.406528189911,167.655311572699 L 200,166.468367952521 L 201.186943620178,164.985163204748 L 200.296735905044,164.094480712165 L 199.406528189911,162.314065281898 L 198.813056379822,161.720593471809 L 198.813056379822,160.533649851631 L 199.406528189911,160.237388724036 L 199.406528189911,158.45602373887 L 198.516320474777,157.269080118692 L 198.516320474777,156.379347181008 L 199.109792284866,155.785875370919 L 198.813056379822,155.19240356083 L 198.516320474777,154.598931750741 L 198.516320474777,153.115727002967 L 197.626112759644,151.928783382789 L 197.032640949555,150.741839762611 L 197.032640949555,150.444629080118 L 197.329376854599,149.851157270029 L 197.032640949555,149.554896142433 L 196.142433234421,149.25768545994 L 196.142433234421,148.664213649851 L 197.032640949555,147.477270029673 L 196.73590504451,147.181008902077 L 196.73590504451,145.696854599406 L 197.626112759644,144.212700296734 L 197.329376854599,142.136023738871 L 198.219584569733,141.542551928782 L 198.219584569733,140.6518694362 L 200.296735905044,138.575192878337 L 200.296735905044,136.201305637981 L 200.593471810089,135.904094955488 L 199.703264094955,135.014362017803 L 199.109792284866,135.014362017803 L 198.813056379822,135.311572700297 L 195.548961424332,135.311572700297 L 195.252225519288,134.420890207714 L 194.658753709199,134.420890207714 L 194.06528189911,133.827418397625 L 191.988130563798,133.827418397625 L 191.097922848665,133.233946587536 L 189.614243323442,133.233946587536 L 188.724035608309,133.530207715132 L 185.756676557863,133.530207715132 L 185.459940652819,134.124629080119 L 183.976261127596,133.827418397625 L 182.789317507418,133.233946587536 L 181.008902077151,132.937685459941 L 178.338278931751,132.047002967358 L 176.854599406528,131.750741839763 L 176.261127596439,132.343264094954 L 174.480712166172,132.047002967358 L 174.183976261128,132.640474777447 L 172.700296735905,131.750741839763 L 172.106824925816,130.86005934718 L 172.106824925816,129.969376854597 L 172.700296735905,129.079643916913 L 173.887240356083,128.486172106824 L 174.777448071217,128.486172106824 L 175.66765578635,127.892700296735 L 175.66765578635,127.595489614241 L 175.964391691395,127.00296735905 L 175.370919881306,126.112284866468 L 175.66765578635,125.816023738872 L 175.074183976261,125.518813056379 z" />

<path id="Birmingham__Ladywood" d=" M 105.93471810089,118.397151335311 L 105.93471810089,119.286884272995 L 105.637982195846,119.881305637982 L 105.637982195846,121.06824925816 L 104.747774480712,125.518813056379 L 104.747774480712,127.892700296735 L 105.637982195846,129.969376854597 L 105.637982195846,130.86005934718 L 104.154302670623,131.750741839763 L 104.154302670623,135.607833827892 L 103.26409495549,135.607833827892 L 101.780415430267,136.498516320475 L 100.593471810089,137.388249258159 L 100.593471810089,138.277982195844 L 99.7032640949555,138.575192878337 L 98.2195845697329,139.762136498515 L 98.2195845697329,140.059347181009 L 96.4391691394659,140.355608308604 L 96.1424332344214,139.762136498515 L 94.9554896142433,137.981721068248 L 93.7685459940653,136.201305637981 L 92.5816023738872,135.607833827892 L 91.0979228486647,134.71715133531 L 89.3175074183976,134.124629080119 L 87.240356083086,133.233946587536 L 83.6795252225519,132.047002967358 L 82.4925816023739,131.750741839763 L 78.3382789317507,130.86005934718 L 76.8545994065282,129.673115727002 L 74.4807121661721,128.486172106824 L 72.106824925816,127.595489614241 L 70.0296735905044,125.816023738872 L 68.8427299703264,125.518813056379 L 67.9525222551929,125.221602373885 L 66.1721068249258,125.221602373885 L 65.8753709198813,126.705756676557 L 66.4688427299703,126.705756676557 L 66.4688427299703,128.486172106824 L 66.7655786350148,128.782433234419 L 65.5786350148368,129.969376854597 L 65.5786350148368,130.563798219585 L 66.4688427299703,130.86005934718 L 68.2492581602374,131.750741839763 L 69.4362017804154,132.343264094954 L 70.6231454005935,133.233946587536 L 70.6231454005935,134.124629080119 L 73.2937685459941,134.124629080119 L 74.4807121661721,134.71715133531 L 75.3709198813056,135.014362017803 L 76.5578635014837,135.607833827892 L 78.3382789317507,136.201305637981 L 80.1186943620178,136.79477744807 L 81.8991097922849,137.685459940653 L 81.3056379821958,137.685459940653 L 80.7121661721068,137.981721068248 L 80.1186943620178,137.981721068248 L 79.2284866468843,139.168664688426 L 77.7448071216617,140.355608308604 L 78.0415430267062,140.949080118693 L 78.0415430267062,142.136023738871 L 76.8545994065282,143.025756676556 L 77.1513353115727,143.322967359049 L 78.9317507418397,144.807121661721 L 78.9317507418397,145.399643916912 L 78.3382789317507,145.994065281899 L 78.3382789317507,146.290326409495 L 77.4480712166172,146.58658753709 L 77.1513353115727,145.994065281899 L 76.5578635014837,146.883798219584 L 76.8545994065282,148.070741839762 L 76.2611275964392,148.367952522255 L 76.2611275964392,148.960474777446 L 75.6676557863501,148.960474777446 L 75.0741839762611,149.554896142433 L 74.4807121661721,149.851157270029 L 74.1839762611276,150.147418397624 L 73.8872403560831,151.038100890207 L 74.1839762611276,151.334362017802 L 74.1839762611276,152.52130563798 L 73.8872403560831,153.115727002967 L 73.8872403560831,153.411988130563 L 72.9970326409496,154.005459940652 L 71.8100890207715,154.005459940652 L 70.919881305638,154.598931750741 L 69.7329376854599,154.598931750741 L 69.1394658753709,154.302670623145 L 68.5459940652819,154.302670623145 L 68.5459940652819,155.19240356083 L 70.326409495549,157.863501483679 L 71.2166172106825,158.753234421364 L 71.2166172106825,159.346706231453 L 72.4035608308605,159.940178041542 L 73.5905044510386,160.829910979227 L 73.8872403560831,161.12712166172 L 74.1839762611276,159.940178041542 L 74.4807121661721,159.050445103858 L 75.6676557863501,158.159762611275 L 76.2611275964392,157.566290801186 L 76.2611275964392,159.346706231453 L 77.1513353115727,160.533649851631 L 76.8545994065282,161.720593471809 L 78.0415430267062,161.720593471809 L 78.9317507418397,162.016854599405 L 79.8219584569733,161.424332344214 L 80.1186943620178,160.829910979227 L 81.3056379821958,160.533649851631 L 81.8991097922849,160.533649851631 L 82.4925816023739,161.424332344214 L 83.6795252225519,160.237388724036 L 85.459940652819,161.424332344214 L 85.459940652819,162.016854599405 L 85.7566765578635,162.314065281898 L 87.240356083086,162.314065281898 L 87.8338278931751,162.907537091987 L 86.9436201780415,164.094480712165 L 86.3501483679525,165.577685459939 L 86.3501483679525,165.874896142432 L 90.2077151335312,165.874896142432 L 92.5816023738872,165.577685459939 L 94.0652818991098,165.281424332343 L 95.5489614243323,165.281424332343 L 98.2195845697329,166.172106824926 L 100,167.655311572699 L 102.077151335312,168.545994065282 L 102.967359050445,169.73293768546 L 104.154302670623,170.622670623144 L 105.93471810089,170.919881305638 L 108.308605341246,171.809614243322 L 110.385756676558,172.699347181007 L 111.572700296736,173.59002967359 L 112.462908011869,173.59002967359 L 114.836795252226,175.073234421363 L 115.727002967359,175.073234421363 L 116.023738872404,174.183501483679 L 116.320474777448,173.59002967359 L 116.913946587537,173.59002967359 L 117.804154302671,172.403086053411 L 118.100890207715,171.809614243322 L 119.287833827893,170.622670623144 L 119.881305637982,170.325459940651 L 121.661721068249,168.842255192877 L 121.958456973294,167.655311572699 L 122.255192878338,166.764629080117 L 125.222551928783,169.435727002966 L 127.00296735905,170.622670623144 L 127.596439169139,170.622670623144 L 129.673590504451,171.809614243322 L 130.860534124629,172.403086053411 L 132.344213649852,173.293768545994 L 133.234421364985,173.59002967359 L 133.53115727003,173.293768545994 L 134.124629080119,171.809614243322 L 134.421364985163,170.622670623144 L 135.014836795252,169.138516320473 L 134.718100890208,168.248783382788 L 135.014836795252,167.655311572699 L 135.905044510386,166.764629080117 L 135.905044510386,166.468367952521 L 136.498516320475,165.281424332343 L 136.498516320475,164.094480712165 L 137.388724035608,164.094480712165 L 137.982195845697,163.79821958457 L 138.575667655786,163.79821958457 L 139.46587537092,163.203798219583 L 138.872403560831,162.907537091987 L 138.278931750742,162.016854599405 L 138.278931750742,160.533649851631 L 138.575667655786,160.237388724036 L 138.872403560831,159.940178041542 L 139.169139465875,159.940178041542 L 140.059347181009,159.346706231453 L 140.652818991098,159.346706231453 L 140.652818991098,158.753234421364 L 140.356083086053,158.159762611275 L 140.356083086053,156.972818991097 L 140.059347181009,156.082136498514 L 140.059347181009,153.708249258158 L 140.652818991098,153.411988130563 L 138.575667655786,153.708249258158 L 137.685459940653,154.005459940652 L 135.311572700297,154.005459940652 L 132.937685459941,154.302670623145 L 130.563798219585,154.598931750741 L 128.783382789317,155.19240356083 L 128.486646884273,154.005459940652 L 128.486646884273,152.52130563798 L 128.783382789317,151.038100890207 L 129.970326409496,147.773531157268 L 129.970326409496,144.807121661721 L 130.26706231454,143.620178041543 L 130.563798219585,142.72949554896 L 131.454005934718,140.949080118693 L 132.640949554896,139.464925816022 L 133.234421364985,138.575192878337 L 135.014836795252,137.091038575666 L 137.685459940653,134.71715133531 L 140.652818991098,133.827418397625 L 146.884272997033,132.047002967358 L 152.818991097923,129.673115727002 L 151.038575667656,129.969376854597 L 146.884272997033,130.563798219585 L 141.839762611276,130.86005934718 L 140.949554896142,130.266587537091 L 138.575667655786,129.079643916913 L 136.20178041543,128.486172106824 L 133.827893175074,127.00296735905 L 132.047477744807,126.112284866468 L 131.157270029674,125.518813056379 L 129.970326409496,125.221602373885 L 129.376854599407,124.92534124629 L 128.189910979228,125.518813056379 L 125.519287833828,126.112284866468 L 122.848664688427,127.892700296735 L 120.474777448071,129.079643916913 L 119.881305637982,128.782433234419 L 118.991097922849,128.189910979228 L 118.39762611276,126.408545994063 L 117.210682492582,125.221602373885 L 116.023738872404,123.738397626112 L 116.023738872404,122.847715133529 L 116.320474777448,122.551454005934 L 116.617210682493,121.957982195845 L 115.13353115727,121.06824925816 L 113.056379821958,120.473827893173 L 110.682492581602,119.286884272995 L 107.121661721068,118.397151335311 L 105.93471810089,118.397151335311 z" />

<path id="Birmingham__Erdington" d=" M 118.39762611276,72.4035608308605 L 117.804154302671,75.0737091988121 L 117.210682492582,78.6345400593462 L 116.913946587537,79.5252225519288 L 116.913946587537,81.6018991097913 L 117.210682492582,82.1953709198803 L 117.210682492582,84.2729970326409 L 116.320474777448,85.459940652819 L 116.320474777448,91.0974480712157 L 120.178041543027,94.9554896142433 L 121.364985163205,95.8452225519278 L 122.848664688427,97.6256379821949 L 122.848664688427,97.9218991097904 L 121.364985163205,98.8125816023729 L 119.881305637982,99.4060534124619 L 119.287833827893,99.7032640949555 L 119.584569732938,100.59299703264 L 120.771513353116,104.451038575668 L 121.364985163205,107.121186943619 L 122.255192878338,108.901602373886 L 123.145400593472,110.385756676558 L 123.442136498516,110.978278931749 L 123.442136498516,111.868961424331 L 123.442136498516,111.868961424331 L 123.442136498516,112.165222551927 L 122.551928783383,112.165222551927 L 121.661721068249,113.055905044509 L 121.661721068249,113.649376854598 L 123.738872403561,115.13353115727 L 124.33234421365,115.13353115727 L 124.925816023739,116.320474777448 L 126.409495548961,117.803679525222 L 127.299703264095,119.286884272995 L 127.596439169139,120.177566765578 L 128.783382789317,121.364510385756 L 128.783382789317,121.957982195845 L 129.376854599407,123.144925816023 L 130.26706231454,124.034658753707 L 129.970326409496,125.221602373885 L 131.157270029674,125.518813056379 L 132.047477744807,126.112284866468 L 133.827893175074,127.00296735905 L 136.20178041543,128.486172106824 L 138.575667655786,129.079643916913 L 140.949554896142,130.266587537091 L 141.839762611276,130.86005934718 L 146.884272997033,130.563798219585 L 151.038575667656,129.969376854597 L 154.005934718101,129.673115727002 L 156.083086053412,128.782433234419 L 159.050445103858,128.486172106824 L 160.237388724036,128.189910979228 L 161.721068249258,127.595489614241 L 163.204747774481,127.595489614241 L 167.359050445104,126.112284866468 L 170.623145400593,125.816023738872 L 175.074183976261,125.518813056379 L 175.66765578635,125.816023738872 L 175.964391691395,125.518813056379 L 177.151335311573,125.518813056379 L 177.744807121662,125.221602373885 L 179.821958456973,125.221602373885 L 181.008902077151,124.92534124629 L 181.305637982196,124.331869436201 L 181.899109792285,124.034658753707 L 182.492581602374,123.738397626112 L 183.086053412463,122.847715133529 L 183.086053412463,120.771038575667 L 183.976261127596,120.771038575667 L 184.86646884273,120.473827893173 L 186.053412462908,120.177566765578 L 187.833827893175,119.286884272995 L 189.020771513353,118.694362017804 L 189.020771513353,118.397151335311 L 189.910979228487,117.507418397626 L 190.80118694362,115.726053412461 L 190.80118694362,114.242848664687 L 190.207715133531,112.759643916914 L 188.724035608309,110.978278931749 L 186.943620178042,109.495074183975 L 185.163204747774,107.714658753708 L 183.976261127596,106.824925816024 L 183.679525222552,106.52771513353 L 182.789317507418,105.934243323441 L 182.492581602374,105.934243323441 L 181.899109792285,106.230504451037 L 180.415430267062,107.121186943619 L 179.228486646884,108.011869436202 L 178.635014836795,108.011869436202 L 177.448071216617,107.417448071215 L 176.261127596439,107.417448071215 L 174.480712166172,106.52771513353 L 172.106824925816,106.52771513353 L 172.106824925816,105.934243323441 L 170.919881305638,105.934243323441 L 168.842729970326,104.747299703263 L 166.46884272997,103.560356083085 L 165.578635014837,102.077151335312 L 164.688427299703,100.890207715134 L 161.127596439169,101.186468842729 L 159.643916913947,99.999525222551 L 159.643916913947,99.7032640949555 L 157.863501483679,98.5163204747774 L 156.973293768546,99.1088427299684 L 156.083086053412,98.5163204747774 L 153.412462908012,98.5163204747774 L 152.522255192878,97.9218991097904 L 151.632047477745,98.5163204747774 L 151.038575667656,97.9218991097904 L 150.741839762611,98.2191097922839 L 149.851632047478,99.4060534124619 L 149.554896142433,98.8125816023729 L 149.554896142433,98.2191097922839 L 148.367952522255,97.0321661721059 L 147.181008902077,96.4386943620168 L 145.994065281899,95.8452225519278 L 145.697329376855,96.1424332344214 L 145.40059347181,96.1424332344214 L 145.103857566766,95.8452225519278 L 145.697329376855,94.9554896142433 L 144.213649851632,94.0648071216607 L 143.916913946588,94.3610682492562 L 143.620178041543,94.3610682492562 L 143.026706231454,94.0648071216607 L 142.433234421365,94.3610682492562 L 142.13649851632,93.4713353115717 L 141.246290801187,92.5816023738872 L 141.246290801187,92.2843916913937 L 141.543026706231,91.6909198813047 L 141.839762611276,91.0974480712157 L 141.543026706231,90.5039762611266 L 140.059347181009,89.6132937685441 L 139.762611275964,90.2077151335312 L 139.169139465875,90.2077151335312 L 139.169139465875,89.3170326409486 L 139.46587537092,89.0207715133531 L 139.169139465875,88.7235608308596 L 138.278931750742,87.8338278931751 L 137.388724035608,87.5366172106815 L 135.905044510386,85.7562017804145 L 135.311572700297,85.7562017804145 L 134.124629080119,87.239406528188 L 133.53115727003,87.239406528188 L 131.750741839763,85.7562017804145 L 129.376854599407,83.0860534124629 L 129.376854599407,81.0084272997023 L 127.893175074184,80.4149554896133 L 126.706231454006,79.2280118694352 L 125.816023738872,79.2280118694352 L 124.035608308605,78.0410682492572 L 122.551928783383,76.8541246290792 L 121.661721068249,75.6671810089011 L 120.771513353116,75.0737091988121 L 120.474777448071,74.1830267062295 L 118.991097922849,72.4035608308605 L 118.694362017804,72.4035608308605 L 118.39762611276,72.4035608308605 z" />

<path id="Birmingham__Perry_Barr" d=" M 112.166172106825,68.8427299703264 L 111.275964391691,70.0296735905044 L 110.089020771513,71.2166172106825 L 108.605341246291,72.9960830860515 L 108.308605341246,73.8867655786341 L 108.011869436202,74.7774480712166 L 107.715133531157,75.6671810089011 L 107.121661721068,76.8541246290792 L 105.93471810089,77.4475964391682 L 104.451038575668,77.7438575667637 L 103.560830860534,78.0410682492572 L 101.483679525223,78.9308011869417 L 99.7032640949555,79.5252225519288 L 97.9228486646884,81.6018991097913 L 95.5489614243323,83.9757863501474 L 94.6587537091988,85.459940652819 L 93.4718100890208,86.646884272997 L 85.459940652819,86.646884272997 L 85.459940652819,87.239406528188 L 87.5370919881306,89.3170326409486 L 87.5370919881306,92.2843916913937 L 87.240356083086,92.8778635014827 L 87.240356083086,99.1088427299684 L 86.9436201780415,99.999525222551 L 87.240356083086,100.59299703264 L 87.240356083086,101.482729970324 L 86.646884272997,101.482729970324 L 86.053412462908,100.890207715134 L 85.459940652819,100.890207715134 L 84.86646884273,100.59299703264 L 83.9762611275964,100.890207715134 L 83.0860534124629,101.186468842729 L 82.4925816023739,101.482729970324 L 82.1958456973294,101.186468842729 L 81.3056379821958,100.890207715134 L 80.1186943620178,99.999525222551 L 78.9317507418397,98.8125816023729 L 77.7448071216617,99.7032640949555 L 76.2611275964392,99.7032640949555 L 75.9643916913947,99.999525222551 L 75.9643916913947,100.59299703264 L 75.3709198813056,101.186468842729 L 74.4807121661721,102.373412462907 L 74.4807121661721,102.669673590503 L 73.8872403560831,103.856617210681 L 68.8427299703264,103.856617210681 L 68.8427299703264,102.373412462907 L 68.5459940652819,102.077151335312 L 67.6557863501484,102.077151335312 L 67.6557863501484,102.966884272996 L 66.1721068249258,105.340771513352 L 66.1721068249258,106.230504451037 L 66.4688427299703,106.52771513353 L 67.0623145400593,108.308130563797 L 67.6557863501484,109.791335311571 L 67.6557863501484,111.868961424331 L 68.5459940652819,113.352166172105 L 68.8427299703264,114.242848664687 L 68.5459940652819,115.13353115727 L 68.5459940652819,115.726053412461 L 67.6557863501484,116.912997032639 L 67.3590504451038,117.507418397626 L 66.1721068249258,118.694362017804 L 66.1721068249258,120.177566765578 L 65.8753709198813,120.771038575667 L 65.8753709198813,121.364510385756 L 66.1721068249258,122.255192878338 L 66.1721068249258,122.847715133529 L 67.0623145400593,124.034658753707 L 67.0623145400593,124.629080118694 L 67.9525222551929,125.221602373885 L 68.8427299703264,125.518813056379 L 70.0296735905044,125.816023738872 L 72.106824925816,127.595489614241 L 74.4807121661721,128.486172106824 L 76.8545994065282,129.673115727002 L 78.3382789317507,130.86005934718 L 82.4925816023739,131.750741839763 L 83.6795252225519,132.047002967358 L 87.240356083086,133.233946587536 L 89.3175074183976,134.124629080119 L 91.0979228486647,134.71715133531 L 92.5816023738872,135.607833827892 L 93.7685459940653,136.201305637981 L 94.9554896142433,137.981721068248 L 96.1424332344214,139.762136498515 L 96.4391691394659,140.355608308604 L 98.2195845697329,140.059347181009 L 98.2195845697329,139.762136498515 L 99.7032640949555,138.575192878337 L 100.593471810089,138.277982195844 L 100.593471810089,137.388249258159 L 101.780415430267,136.498516320475 L 103.26409495549,135.607833827892 L 104.154302670623,135.607833827892 L 104.154302670623,131.750741839763 L 105.637982195846,130.86005934718 L 105.637982195846,129.969376854597 L 104.747774480712,127.892700296735 L 104.747774480712,125.518813056379 L 105.637982195846,121.06824925816 L 105.637982195846,119.881305637982 L 105.93471810089,119.286884272995 L 105.93471810089,118.397151335311 L 107.121661721068,118.397151335311 L 110.682492581602,119.286884272995 L 113.056379821958,120.473827893173 L 115.13353115727,121.06824925816 L 116.617210682493,121.957982195845 L 116.320474777448,122.551454005934 L 116.023738872404,122.847715133529 L 116.023738872404,123.738397626112 L 117.210682492582,125.221602373885 L 118.39762611276,126.408545994063 L 118.991097922849,128.189910979228 L 119.881305637982,128.782433234419 L 120.474777448071,129.079643916913 L 122.848664688427,127.892700296735 L 125.519287833828,126.112284866468 L 128.189910979228,125.518813056379 L 129.376854599407,124.92534124629 L 129.970326409496,125.221602373885 L 130.26706231454,124.034658753707 L 129.376854599407,123.144925816023 L 128.783382789317,121.957982195845 L 128.783382789317,121.364510385756 L 127.596439169139,120.177566765578 L 127.299703264095,119.286884272995 L 126.409495548961,117.803679525222 L 124.925816023739,116.320474777448 L 124.33234421365,115.13353115727 L 123.738872403561,115.13353115727 L 121.661721068249,113.649376854598 L 121.661721068249,113.055905044509 L 122.551928783383,112.165222551927 L 123.442136498516,112.165222551927 L 123.442136498516,111.868961424331 L 123.442136498516,110.978278931749 L 123.145400593472,110.385756676558 L 122.255192878338,108.901602373886 L 121.364985163205,107.121186943619 L 120.771513353116,104.451038575668 L 119.584569732938,100.59299703264 L 119.287833827893,99.7032640949555 L 119.881305637982,99.4060534124619 L 121.364985163205,98.8125816023729 L 122.848664688427,97.9218991097904 L 122.848664688427,97.6256379821949 L 121.364985163205,95.8452225519278 L 120.178041543027,94.9554896142433 L 116.320474777448,91.0974480712157 L 116.320474777448,85.459940652819 L 117.210682492582,84.2729970326409 L 117.210682492582,82.1953709198803 L 116.913946587537,81.6018991097913 L 116.913946587537,79.5252225519288 L 117.210682492582,78.6345400593462 L 117.804154302671,75.0737091988121 L 118.39762611276,72.4035608308605 L 116.913946587537,71.512878338278 L 114.243323442136,70.3259347180999 L 112.166172106825,68.8427299703264 z" />

<path id="Sutton_Coldfield" d=" M 153.709198813056,18.9910979228487 L 151.928783382789,19.8808308605332 L 149.554896142433,20.4743026706222 L 147.774480712166,20.4743026706222 L 145.697329376855,21.6612462908002 L 143.026706231454,23.1444510385737 L 141.543026706231,23.1444510385737 L 139.46587537092,23.7388724035608 L 138.278931750742,25.2220771513344 L 136.20178041543,27.0024925816014 L 135.905044510386,28.7829080118685 L 134.124629080119,31.1567952522246 L 131.750741839763,36.2008308605322 L 129.376854599407,39.4654005934708 L 126.409495548961,42.1355489614224 L 125.222551928783,43.619703264094 L 124.629080118694,44.806646884272 L 124.629080118694,45.4001186943611 L 124.035608308605,45.6963798219565 L 123.442136498516,47.4777448071217 L 122.255192878338,49.2572106824907 L 121.661721068249,53.4124629080119 L 121.661721068249,55.4891394658744 L 121.364985163205,56.6760830860525 L 121.364985163205,58.4564985163195 L 121.06824925816,59.0499703264085 L 121.06824925816,60.2369139465866 L 120.771513353116,61.1266468842711 L 120.178041543027,62.0173293768536 L 119.287833827893,62.3135905044491 L 118.39762611276,63.2042729970317 L 116.023738872404,65.5781602373878 L 113.946587537092,67.3585756676548 L 112.462908011869,68.5455192878329 L 112.166172106825,68.8427299703264 L 114.243323442136,70.3259347180999 L 116.913946587537,71.512878338278 L 118.39762611276,72.4035608308605 L 118.991097922849,72.4035608308605 L 120.474777448071,74.1830267062295 L 120.771513353116,75.0737091988121 L 121.661721068249,75.6671810089011 L 122.551928783383,76.8541246290792 L 124.035608308605,78.0410682492572 L 125.816023738872,79.2280118694352 L 126.706231454006,79.2280118694352 L 127.893175074184,80.4149554896133 L 129.376854599407,81.0084272997023 L 129.376854599407,83.0860534124629 L 131.750741839763,85.7562017804145 L 133.53115727003,87.239406528188 L 134.124629080119,87.239406528188 L 135.311572700297,85.7562017804145 L 135.905044510386,85.7562017804145 L 137.388724035608,87.5366172106815 L 138.278931750742,87.8338278931751 L 139.169139465875,88.7235608308596 L 139.46587537092,89.0207715133531 L 139.169139465875,89.3170326409486 L 139.169139465875,90.2077151335312 L 139.762611275964,90.2077151335312 L 140.059347181009,89.6132937685441 L 141.543026706231,90.5039762611266 L 141.839762611276,91.0974480712157 L 141.543026706231,91.6909198813047 L 141.246290801187,92.2843916913937 L 141.246290801187,92.5816023738872 L 142.13649851632,93.4713353115717 L 142.433234421365,94.3610682492562 L 143.026706231454,94.0648071216607 L 143.620178041543,94.3610682492562 L 143.916913946588,94.3610682492562 L 144.213649851632,94.0648071216607 L 145.697329376855,94.9554896142433 L 145.103857566766,95.8452225519278 L 145.40059347181,96.1424332344214 L 145.697329376855,96.1424332344214 L 145.994065281899,95.8452225519278 L 147.181008902077,96.4386943620168 L 148.367952522255,97.0321661721059 L 149.554896142433,98.2191097922839 L 149.554896142433,98.8125816023729 L 149.851632047478,99.4060534124619 L 150.741839762611,98.2191097922839 L 151.038575667656,97.9218991097904 L 151.632047477745,98.5163204747774 L 152.522255192878,97.9218991097904 L 153.412462908012,98.5163204747774 L 156.083086053412,98.5163204747774 L 156.973293768546,99.1088427299684 L 157.863501483679,98.5163204747774 L 159.643916913947,99.7032640949555 L 159.643916913947,99.999525222551 L 161.127596439169,101.186468842729 L 164.688427299703,100.890207715134 L 165.578635014837,102.077151335312 L 166.46884272997,103.560356083085 L 168.842729970326,104.747299703263 L 170.919881305638,105.934243323441 L 172.106824925816,105.934243323441 L 172.106824925816,106.52771513353 L 174.480712166172,106.52771513353 L 176.261127596439,107.417448071215 L 177.448071216617,107.417448071215 L 178.635014836795,108.011869436202 L 179.228486646884,108.011869436202 L 180.415430267062,107.121186943619 L 181.899109792285,106.230504451037 L 182.492581602374,105.934243323441 L 182.789317507418,105.934243323441 L 183.679525222552,106.52771513353 L 183.976261127596,106.824925816024 L 185.163204747774,107.714658753708 L 186.943620178042,109.495074183975 L 188.724035608309,110.978278931749 L 190.207715133531,112.759643916914 L 190.80118694362,114.242848664687 L 190.80118694362,115.726053412461 L 189.910979228487,117.507418397626 L 189.020771513353,118.397151335311 L 189.020771513353,118.694362017804 L 187.833827893175,119.286884272995 L 186.053412462908,120.177566765578 L 184.86646884273,120.473827893173 L 183.976261127596,120.771038575667 L 183.086053412463,120.771038575667 L 183.086053412463,122.847715133529 L 182.492581602374,123.738397626112 L 181.899109792285,124.034658753707 L 181.305637982196,124.331869436201 L 181.008902077151,124.92534124629 L 181.899109792285,124.92534124629 L 183.976261127596,123.738397626112 L 186.646884272997,122.255192878338 L 189.317507418398,120.771038575667 L 191.691394658754,119.881305637982 L 193.175074183976,119.584094955489 L 197.922848664688,119.584094955489 L 200,120.177566765578 L 201.780415430267,121.06824925816 L 202.670623145401,121.06824925816 L 202.670623145401,118.9906231454 L 202.077151335312,118.397151335311 L 200.890207715134,117.507418397626 L 200.593471810089,116.912997032639 L 200.593471810089,115.726053412461 L 202.077151335312,115.726053412461 L 202.373887240356,115.429792284865 L 202.373887240356,113.649376854598 L 202.670623145401,112.46243323442 L 203.560830860534,113.352166172105 L 205.93471810089,113.352166172105 L 207.121661721068,113.946587537092 L 208.011869436202,113.946587537092 L 208.902077151335,113.352166172105 L 210.682492581602,113.352166172105 L 212.462908011869,112.165222551927 L 213.353115727003,111.572700296736 L 214.243323442136,111.572700296736 L 214.836795252225,110.385756676558 L 215.13353115727,110.088545994064 L 215.727002967359,110.088545994064 L 216.913946587537,110.978278931749 L 217.507418397626,110.978278931749 L 218.39762611276,109.791335311571 L 218.39762611276,109.495074183975 L 218.991097922849,109.19881305638 L 218.39762611276,108.308130563797 L 217.507418397626,107.714658753708 L 217.507418397626,107.121186943619 L 217.210682492582,106.230504451037 L 217.210682492582,105.934243323441 L 215.727002967359,105.340771513352 L 214.243323442136,104.451038575668 L 213.946587537092,104.153827893174 L 213.353115727003,104.153827893174 L 213.056379821958,104.747299703263 L 211.86943620178,104.747299703263 L 212.462908011869,104.153827893174 L 212.166172106825,102.077151335312 L 211.86943620178,101.779940652818 L 211.86943620178,101.186468842729 L 210.979228486647,101.186468842729 L 210.979228486647,101.779940652818 L 209.792284866469,101.779940652818 L 209.792284866469,101.482729970324 L 209.19881305638,100.59299703264 L 208.308605341246,100.890207715134 L 207.121661721068,102.077151335312 L 205.93471810089,102.077151335312 L 205.341246290801,100.295786350146 L 204.747774480712,99.4060534124619 L 204.747774480712,98.2191097922839 L 204.451038575668,96.4386943620168 L 205.93471810089,96.4386943620168 L 205.93471810089,91.0974480712157 L 206.528189910979,90.8002373887221 L 207.418397626113,90.8002373887221 L 206.231454005935,89.9105044510376 L 204.747774480712,89.0207715133531 L 203.560830860534,88.426350148366 L 202.967359050445,87.239406528188 L 202.967359050445,85.1627299703254 L 202.373887240356,84.5692581602364 L 202.373887240356,83.3823145400584 L 201.780415430267,81.6018991097913 L 201.780415430267,79.8214836795242 L 201.186943620178,78.9308011869417 L 201.186943620178,77.7438575667637 L 201.186943620178,76.8541246290792 L 201.186943620178,75.9643916913947 L 200.593471810089,75.6671810089011 L 200,75.9643916913947 L 198.219584569733,75.9643916913947 L 197.032640949555,75.0737091988121 L 196.142433234421,74.7774480712166 L 194.955489614243,74.7774480712166 L 194.658753709199,74.4802373887231 L 194.658753709199,73.8867655786341 L 193.175074183976,72.4035608308605 L 194.06528189911,71.512878338278 L 194.06528189911,69.7324629080109 L 192.878338278932,68.5455192878329 L 191.394658753709,67.0613649851613 L 190.207715133531,66.7651038575658 L 189.020771513353,66.4688427299703 L 189.020771513353,65.5781602373878 L 190.207715133531,63.7977448071207 L 191.691394658754,62.6108011869427 L 192.581602373887,62.3135905044491 L 192.878338278932,62.6108011869427 L 194.362017804154,62.0173293768536 L 195.252225519288,61.4238575667646 L 196.142433234421,60.2369139465866 L 196.142433234421,59.3471810089021 L 194.362017804154,59.3471810089021 L 193.768545994065,59.0499703264085 L 193.471810089021,58.4564985163195 L 192.878338278932,57.2695548961415 L 193.175074183976,56.3788724035589 L 192.581602373887,55.786350148368 L 191.988130563798,55.1919287833809 L 191.394658753709,54.8956676557854 L 190.504451038576,55.4891394658744 L 190.207715133531,55.1919287833809 L 189.317507418398,55.1919287833809 L 189.317507418398,55.4891394658744 L 187.240356083086,55.4891394658744 L 186.646884272997,55.1919287833809 L 186.646884272997,54.5994065281899 L 185.756676557863,53.7087240356073 L 185.756676557863,51.3348367952513 L 184.86646884273,50.7413649851622 L 184.86646884273,49.8516320474777 L 183.086053412463,48.3674777448062 L 181.60237388724,47.4777448071217 L 180.712166172107,45.9935905044501 L 180.415430267062,45.4001186943611 L 180.118694362018,44.806646884272 L 179.821958456973,44.806646884272 L 179.821958456973,40.3560830860534 L 179.228486646884,39.7616617210663 L 179.228486646884,38.2784569732928 L 178.635014836795,37.3877744807102 L 177.448071216617,35.6083086053412 L 175.964391691395,34.1241543026697 L 175.370919881306,34.1241543026697 L 175.370919881306,33.2344213649852 L 175.66765578635,32.9372106824916 L 175.66765578635,32.0474777448071 L 174.777448071217,30.5633234421355 L 174.480712166172,29.079169139464 L 173.887240356083,29.079169139464 L 172.403560830861,28.486646884273 L 170.919881305638,27.0024925816014 L 169.73293768546,27.0024925816014 L 169.436201780415,26.4090207715124 L 167.062314540059,25.5183382789298 L 164.688427299703,24.0351335311563 L 162.611275964392,23.1444510385737 L 159.940652818991,21.9575074183957 L 157.27002967359,20.4743026706222 L 155.192878338279,19.5836201780396 L 153.709198813056,18.9910979228487 z" /></svg>
