<svg width="218.879056047198" height="155.457227138643" xmlns:dc="http://purl.org/dc/elements/1.1/" xmlns:cc="http://creativecommons.org/ns#" xmlns:rdf="http://www.w3.org/1999/02/22-rdf-syntax-ns#" xmlns:svg="http://www.w3.org/2000/svg" xmlns="http://www.w3.org/2000/svg" xmlns:sodipodi="http://sodipodi.sourceforge.net/DTD/sodipodi-0.dtd" xmlns:inkscape="http://www.inkscape.org/namespaces/inkscape"><style>path{fill-opacity:1;display:inline;fill:#ffc8c8;stroke-width:1;stroke-miterlimit:4;stroke:#000000;stroke-opacity:1;stroke-dasharray:none;}</style>

<path id="Stockton_South" d=" M 75.811209439528,122.27162241888 L 75.3687315634218,122.418879056047 L 75.0737463126844,122.27162241888 L 74.7787610619469,121.97616519174 L 74.188790560472,121.97616519174 L 74.188790560472,121.681651917405 L 73.8938053097345,121.681651917405 L 73.7463126843658,121.97616519174 L 71.8289085545723,121.828908554572 L 71.8289085545723,121.681651917405 L 71.2389380530973,121.681651917405 L 71.2389380530973,121.533923303835 L 71.0914454277286,121.533923303835 L 71.0914454277286,121.09168141593 L 70.9439528023599,121.09168141593 L 70.6489675516224,121.238938053097 L 70.0589970501475,121.238938053097 L 69.76401179941,121.533923303835 L 69.3215339233038,121.533923303835 L 69.3215339233038,121.97616519174 L 69.1740412979351,121.681651917405 L 68.5840707964602,121.238938053097 L 67.8466076696165,121.238938053097 L 67.6991150442478,121.533923303835 L 67.2566371681416,121.533923303835 L 67.1091445427729,121.238938053097 L 66.6666666666667,120.94395280236 L 66.0766961651917,120.353982300885 L 65.4867256637168,120.206253687315 L 64.0117994100295,120.206253687315 L 63.5693215339233,119.76401179941 L 62.5368731563422,118.879056047198 L 61.9469026548673,118.58407079646 L 61.5044247787611,118.58407079646 L 61.6519174041298,117.699115044248 L 61.7994100294985,117.55185840708 L 61.9469026548673,117.256401179941 L 61.7994100294985,117.109144542773 L 61.7994100294985,116.666430678466 L 61.3569321533923,115.929203539823 L 61.3569321533923,115.781946902655 L 61.5044247787611,115.486489675516 L 61.5044247787611,114.306548672566 L 61.3569321533923,114.159292035398 L 60.9144542772861,113.422064896756 L 60.9144542772861,112.979351032448 L 60.7669616519174,112.684365781711 L 60.7669616519174,109.882241887906 L 60.4719764011799,109.144542772861 L 60.7669616519174,108.849557522124 L 60.7669616519174,108.406843657817 L 61.0619469026549,108.259587020649 L 61.2094395280236,107.964601769911 L 61.6519174041298,107.669616519174 L 61.9469026548673,106.784660766962 L 62.3893805309734,106.046961651917 L 62.3893805309734,105.899705014749 L 62.5368731563422,105.309734513274 L 62.3893805309734,105.162477876107 L 62.3893805309734,104.277050147492 L 62.8318584070796,103.834808259587 L 62.9793510324484,103.244837758112 L 63.1268436578171,102.949852507375 L 63.1268436578171,102.507138643067 L 63.2743362831858,102.3598820059 L 63.2743362831858,101.032684365782 L 63.5693215339233,100.884955752212 L 63.8643067846608,100.884955752212 L 63.8643067846608,100.589970501475 L 64.7492625368732,99.7050147492625 L 64.7492625368732,99.4100294985251 L 65.0442477876106,98.9673156342178 L 65.0442477876106,98.5250737463127 L 64.6017699115044,97.9351032448378 L 64.0117994100295,97.6401179941003 L 63.2743362831858,97.0501474926254 L 62.6843657817109,96.3129203539828 L 62.2418879056047,95.5752212389381 L 61.6519174041298,94.543008849558 L 61.3569321533923,93.9530383480831 L 60.9144542772861,94.1002949852507 L 60.1769911504425,94.2475516224184 L 59.5870206489676,94.543008849558 L 59.2920353982301,94.543008849558 L 58.1120943952802,94.3952802359882 L 57.0796460176991,94.3952802359882 L 56.1946902654867,94.2475516224184 L 55.7522123893805,94.1002949852507 L 55.1622418879056,93.8053097345133 L 54.5722713864307,93.6575811209435 L 53.6873156342183,93.6575811209435 L 53.3923303834808,93.8053097345133 L 52.9498525073746,94.3952802359882 L 52.9498525073746,95.5752212389381 L 53.0973451327434,96.0174631268432 L 53.834808259587,97.197404129793 L 53.834808259587,98.0828318584076 L 52.9498525073746,98.9673156342178 L 52.6548672566372,99.4100294985251 L 52.8023598820059,99.7050147492625 L 52.5073746312684,99.5572861356927 L 52.212389380531,99.5572861356927 L 51.9174041297935,99.7050147492625 L 51.3274336283186,99.7050147492625 L 50.5899705014749,99.4100294985251 L 50.5899705014749,97.4928613569326 L 50.4424778761062,97.197404129793 L 50.4424778761062,96.4601769911504 L 49.1150442477876,96.4601769911504 L 48.6725663716814,96.165191740413 L 48.6725663716814,96.0174631268432 L 48.9675516224189,95.2802359882006 L 49.1150442477876,94.8375221238933 L 49.1150442477876,94.6902654867257 L 48.9675516224189,94.543008849558 L 47.6401179941003,94.543008849558 L 47.4926253687316,94.1002949852507 L 47.0501474926254,93.5103244837758 L 47.0501474926254,93.2153392330383 L 47.1976401179941,92.6253687315634 L 47.1976401179941,92.0353982300885 L 47.6401179941003,91.5931563421834 L 47.9351032448378,91.4454277286136 L 48.377581120944,91.1504424778761 L 47.787610619469,91.2976991150438 L 47.4926253687316,91.2976991150438 L 46.9026548672566,91.5931563421834 L 46.6076696165192,91.5931563421834 L 46.4601769911504,91.740412979351 L 46.165191740413,91.5931563421834 L 45.7227138643068,91.4454277286136 L 45.7227138643068,92.1831268436583 L 44.8377581120944,92.1831268436583 L 44.5427728613569,91.740412979351 L 44.2477876106195,91.740412979351 L 44.2477876106195,91.0031858407084 L 44.5427728613569,90.2654867256637 L 44.6902654867257,89.9705014749263 L 44.6902654867257,89.527787610619 L 45.1327433628319,89.0855457227139 L 45.1327433628319,88.7905604719764 L 45.5752212389381,88.3478466076691 L 45.2802359882006,87.7578761061942 L 45.1327433628319,87.1679056047193 L 44.9852507374631,86.7256637168142 L 44.8377581120944,86.1356932153392 L 44.2477876106195,86.1356932153392 L 43.8053097345133,86.283421828909 L 43.5103244837758,86.4306784660767 L 43.5103244837758,87.0206489675516 L 43.2153392330383,87.3156342182891 L 42.1828908554572,87.3156342182891 L 41.5929203539823,86.873392330384 L 41.2979351032448,87.1679056047193 L 41.0029498525074,87.1679056047193 L 40.7079646017699,87.0206489675516 L 40.4129793510324,87.0206489675516 L 40.117994100295,87.3156342182891 L 39.6755162241888,87.3156342182891 L 39.0855457227139,87.0206489675516 L 38.6430678466077,87.3156342182891 L 38.3480825958702,87.0206489675516 L 38.2005899705015,86.5779351032444 L 37.905604719764,86.1356932153392 L 37.6106194690265,85.3979941002945 L 37.3156342182891,84.9557522123894 L 37.1681415929204,84.3657817109144 L 36.7256637168142,83.9235398230093 L 36.283185840708,82.8908554572271 L 35.8407079646018,82.3008849557522 L 35.5457227138643,82.0058997050147 L 35.2507374631268,82.3008849557522 L 35.2507374631268,82.8908554572271 L 35.1032448377581,83.4808259587021 L 34.8082595870207,83.7758112094395 L 34.8082595870207,84.2180530973447 L 34.5132743362832,84.6607669616519 L 34.6607669616519,85.2507374631268 L 34.5132743362832,86.4306784660767 L 33.4808259587021,86.4306784660767 L 33.0383480825959,86.7256637168142 L 32.7433628318584,86.873392330384 L 32.7433628318584,87.3156342182891 L 31.4159292035398,87.3156342182891 L 31.4159292035398,87.7578761061942 L 31.7109144542773,87.905604719764 L 31.7109144542773,88.2005899705015 L 31.2684365781711,88.3478466076691 L 30.9734513274336,88.6433038348087 L 30.9734513274336,88.7905604719764 L 31.2684365781711,89.2332743362837 L 31.2684365781711,89.3805309734513 L 30.8259587020649,89.3805309734513 L 30.3834808259587,89.3805309734513 L 29.9410029498525,89.8232448377586 L 29.7935103244838,90.4132153392335 L 29.4985250737463,91.1504424778761 L 29.3510324483776,91.740412979351 L 29.0560471976401,91.8876696165187 L 28.9085545722714,92.330383480826 L 28.6135693215339,92.7730973451332 L 28.6135693215339,93.8053097345133 L 28.9085545722714,94.1002949852507 L 29.3510324483776,94.8375221238933 L 29.9410029498525,95.5752212389381 L 30.0884955752212,96.0174631268432 L 30.5309734513274,96.7551622418879 L 30.5309734513274,97.197404129793 L 31.4159292035398,97.197404129793 L 31.5634218289086,97.787374631268 L 31.858407079646,98.2300884955752 L 32.1533923303835,98.2300884955752 L 32.7433628318584,97.787374631268 L 33.6283185840708,97.787374631268 L 33.9233038348083,98.2300884955752 L 33.9233038348083,98.5250737463127 L 34.3657817109145,98.9673156342178 L 34.5132743362832,98.8200589970501 L 35.2507374631268,99.5572861356927 L 35.2507374631268,100 L 35.5457227138643,100.442713864307 L 35.9882005899705,100.294985250737 L 36.1356932153392,100.589970501475 L 36.4306784660767,100.589970501475 L 36.7256637168142,100.442713864307 L 36.8731563421829,100.589970501475 L 37.905604719764,100.589970501475 L 38.6430678466077,101.327197640118 L 38.6430678466077,102.064896755162 L 38.9380530973451,102.507138643067 L 39.2330383480826,103.097109144542 L 39.5280235988201,103.687079646017 L 39.8230088495575,104.129793510324 L 39.5280235988201,104.572507374632 L 39.2330383480826,104.572507374632 L 38.6430678466077,105.309734513274 L 38.4955752212389,105.309734513274 L 37.7581120943953,105.899705014749 L 37.6106194690265,105.899705014749 L 37.4631268436578,106.046961651917 L 37.1681415929204,106.046961651917 L 36.7256637168142,106.489675516224 L 36.7256637168142,107.816873156342 L 36.8731563421829,108.112330383481 L 36.7256637168142,108.849557522124 L 36.4306784660767,109.144542772861 L 36.283185840708,109.439528023599 L 36.283185840708,109.734513274336 L 36.1356932153392,109.882241887906 L 35.8407079646018,110.176755162241 L 35.8407079646018,110.324483775811 L 35.693215339233,110.324483775811 L 35.693215339233,110.472212389381 L 35.1032448377581,111.062182890856 L 34.8082595870207,111.209439528024 L 34.6607669616519,111.062182890856 L 34.3657817109145,111.356696165191 L 34.2182890855457,111.356696165191 L 33.6283185840708,111.946666666666 L 33.6283185840708,112.242123893806 L 33.1858407079646,112.684365781711 L 32.8908554572271,112.684365781711 L 32.7433628318584,112.832094395281 L 32.1533923303835,112.832094395281 L 31.858407079646,112.536637168141 L 31.2684365781711,112.684365781711 L 30.9734513274336,112.832094395281 L 30.8259587020649,112.832094395281 L 30.3834808259587,113.274336283186 L 30.3834808259587,113.422064896756 L 30.23598820059,114.012035398231 L 29.9410029498525,114.454277286136 L 29.7935103244838,114.454277286136 L 29.3510324483776,114.749262536873 L 29.4985250737463,114.896519174041 L 29.4985250737463,115.339233038348 L 29.7935103244838,115.634218289086 L 29.7935103244838,115.929203539823 L 28.7610619469027,116.961887905605 L 28.4660766961652,117.109144542773 L 27.4336283185841,118.141828908555 L 27.2861356932153,118.141828908555 L 26.9911504424779,118.289085545723 L 26.8436578171091,118.289085545723 L 26.5486725663717,118.58407079646 L 26.2536873156342,118.73179941003 L 25.6637168141593,119.174041297935 L 25.5162241887906,119.174041297935 L 25.3687315634218,119.321769911505 L 24.6312684365782,119.321769911505 L 24.4837758112094,119.61628318584 L 23.8938053097345,119.61628318584 L 23.598820058997,119.76401179941 L 23.3038348082596,119.61628318584 L 23.0088495575221,119.61628318584 L 22.8613569321534,119.91174041298 L 22.2713864306785,120.353982300885 L 21.5339233038348,120.501710914455 L 20.9439528023599,120.501710914455 L 20.353982300885,120.648967551622 L 19.3215339233038,120.353982300885 L 18.8790560471976,120.206253687315 L 18.5840707964602,121.09168141593 L 17.1091445427729,121.533923303835 L 17.9941002949853,124.631504424779 L 18.2890855457227,126.695929203539 L 18.141592920354,128.171327433629 L 17.2566371681416,129.793510324484 L 17.1091445427729,130.825722713864 L 15.6342182890855,131.415693215339 L 15.6342182890855,132.005663716814 L 15.3392330383481,132.153392330383 L 14.8967551622419,133.333333333333 L 15.7817109144543,134.071032448378 L 15.3392330383481,135.103244837758 L 15.1917404129794,135.693215339233 L 16.6666666666667,136.135457227138 L 15.929203539823,137.758112094395 L 14.7492625368732,138.495339233038 L 15.7817109144543,139.233038348083 L 17.6991150442478,139.380766961652 L 20.2064896755162,140.855221238938 L 21.976401179941,139.823008849558 L 22.7138643067847,137.020884955753 L 21.976401179941,134.955516224188 L 21.976401179941,133.038348082596 L 22.7138643067847,131.563421828909 L 24.9262536873156,131.563421828909 L 25.811209439528,132.448377581121 L 25.811209439528,135.398230088496 L 29.4985250737463,135.545486725663 L 30.3834808259587,134.808259587021 L 30.23598820059,132.448377581121 L 30.9734513274336,131.711150442478 L 32.4483775811209,133.333333333333 L 32.4483775811209,133.923303834808 L 34.070796460177,135.398230088496 L 32.4483775811209,137.020884955753 L 32.4483775811209,140.412979351032 L 33.3333333333333,141.592920353982 L 33.3333333333333,142.920589970502 L 35.3982300884956,145.280471976402 L 36.4306784660767,145.280471976402 L 38.4955752212389,143.06784660767 L 39.2330383480826,142.330619469027 L 41.0029498525074,142.182890855457 L 42.4778761061947,143.657817109145 L 42.4778761061947,146.017699115044 L 43.952802359882,146.017699115044 L 46.6076696165192,144.542772861357 L 49.1150442477876,143.06784660767 L 50.5899705014749,142.182890855457 L 50.7374631268437,141.002949852507 L 51.622418879056,140.117994100295 L 55.8997050147493,140.117994100295 L 57.0796460176991,138.495339233038 L 58.7020648967552,137.315398230088 L 59.2920353982301,135.398230088496 L 59.882005899705,133.923303834808 L 61.6519174041298,133.185604719764 L 63.5693215339233,133.333333333333 L 64.6017699115044,133.923303834808 L 67.4041297935103,134.808259587021 L 68.7315634218289,134.218289085546 L 68.7315634218289,131.563421828909 L 69.6165191740413,130.383480825959 L 69.6165191740413,128.023598820059 L 68.7315634218289,127.138643067847 L 72.4188790560472,127.285899705014 L 74.0412979351032,125.663716814159 L 74.3362831858407,125.073746312684 L 75.5162241887906,124.926017699115 L 75.5162241887906,122.713864306785 L 75.811209439528,122.418879056047 L 75.811209439528,122.27162241888 z" />

<path id="Middlesbrough_South_and_East_Cleveland" d=" M 151.474926253687,80.3837168141598 L 151.327433628319,80.8259587020649 L 150,80.8259587020649 L 150.294985250737,81.1209439528024 L 150.294985250737,81.4159292035398 L 149.705014749263,81.4159292035398 L 149.410029498525,81.7109144542773 L 148.967551622419,81.7109144542773 L 148.967551622419,81.8581710914449 L 149.262536873156,82.0058997050147 L 149.262536873156,82.3008849557522 L 149.557522123894,82.5958702064897 L 149.262536873156,82.8908554572271 L 148.082595870206,82.8908554572271 L 147.935103244838,83.0381120943948 L 148.377581120944,83.3335693215344 L 148.82005899705,83.4808259587021 L 148.82005899705,83.9235398230093 L 148.672566371681,84.5135103244843 L 148.672566371681,85.8407079646018 L 148.82005899705,86.1356932153392 L 148.82005899705,86.5779351032444 L 148.967551622419,87.0206489675516 L 149.115044247788,87.3156342182891 L 148.672566371681,87.3156342182891 L 148.377581120944,87.1679056047193 L 148.230088495575,87.3156342182891 L 147.787610619469,87.3156342182891 L 147.345132743363,87.6106194690265 L 146.902654867257,87.6106194690265 L 146.607669616519,87.7578761061942 L 146.165191740413,87.7578761061942 L 145.870206489676,87.905604719764 L 145.575221238938,87.905604719764 L 145.280235988201,88.3478466076691 L 144.837758112094,88.2005899705015 L 144.395280235988,88.3478466076691 L 144.395280235988,88.4955752212389 L 144.690265486726,88.7905604719764 L 144.247787610619,89.0855457227139 L 143.952802359882,89.2332743362837 L 143.510324483776,89.2332743362837 L 143.362831858407,89.0855457227139 L 142.035398230089,89.0855457227139 L 142.035398230089,88.7905604719764 L 141.88790560472,88.4955752212389 L 141.445427728614,88.3478466076691 L 141.297935103245,88.2005899705015 L 139.52802359882,88.2005899705015 L 138.938053097345,87.7578761061942 L 138.495575221239,87.905604719764 L 138.34808259587,88.2005899705015 L 137.463126843658,88.2005899705015 L 137.315634218289,88.3478466076691 L 136.725663716814,88.3478466076691 L 136.578171091445,88.2005899705015 L 136.135693215339,88.4955752212389 L 135.98820058997,89.0855457227139 L 135.545722713864,89.0855457227139 L 135.398230088496,89.2332743362837 L 134.660766961652,89.2332743362837 L 134.513274336283,89.6755162241888 L 134.218289085546,89.6755162241888 L 134.218289085546,89.527787610619 L 134.070796460177,89.2332743362837 L 134.070796460177,88.7905604719764 L 133.923303834808,88.7905604719764 L 133.628318584071,89.0855457227139 L 133.628318584071,89.2332743362837 L 133.480825958702,89.3805309734513 L 132.743362831858,89.8232448377586 L 132.448377581121,90.1177581120939 L 132.153392330383,90.1177581120939 L 132.005899705015,90.2654867256637 L 132.005899705015,90.7077286135688 L 132.153392330383,90.8554572271386 L 132.153392330383,91.4454277286136 L 132.448377581121,91.740412979351 L 132.448377581121,92.4776401179936 L 132.153392330383,92.6253687315634 L 131.710914454277,92.7730973451332 L 131.41592920354,93.0676106194686 L 130.973451327434,93.2153392330383 L 130.825958702065,93.5103244837758 L 130.530973451327,93.2153392330383 L 130.23598820059,93.5103244837758 L 130.088495575221,93.3630678466081 L 129.646017699115,93.0676106194686 L 129.351032448378,93.0676106194686 L 128.908554572271,93.2153392330383 L 128.613569321534,93.5103244837758 L 128.466076696165,93.5103244837758 L 128.171091445428,93.0676106194686 L 127.433628318584,93.0676106194686 L 127.286135693215,92.330383480826 L 127.138643067847,91.4454277286136 L 126.843657817109,91.1504424778761 L 126.69616519174,90.2654867256637 L 126.548672566372,89.6755162241888 L 126.548672566372,88.7905604719764 L 126.253687315634,88.0533333333338 L 126.106194690265,87.6106194690265 L 125.811209439528,87.1679056047193 L 125.516224188791,87.3156342182891 L 125.221238938053,87.6106194690265 L 124.778761061947,87.905604719764 L 124.631268436578,88.2005899705015 L 123.893805309735,88.2005899705015 L 123.598820058997,88.3478466076691 L 123.30383480826,88.6433038348087 L 122.861356932153,88.7905604719764 L 122.418879056047,88.9378171091441 L 122.12389380531,89.2332743362837 L 121.828908554572,89.3805309734513 L 121.681415929204,89.3805309734513 L 121.533923303835,89.6755162241888 L 120.796460176991,90.2654867256637 L 120.648967551622,90.2654867256637 L 120.353982300885,90.5604719764012 L 120.206489675516,90.5604719764012 L 119.911504424779,90.7077286135688 L 119.469026548673,90.7077286135688 L 119.321533923304,90.8554572271386 L 118.879056047198,90.8554572271386 L 118.436578171091,91.1504424778761 L 118.141592920354,91.2976991150438 L 117.699115044248,91.5931563421834 L 117.40412979351,91.740412979351 L 117.40412979351,92.1831268436583 L 117.256637168142,92.330383480826 L 116.814159292035,92.330383480826 L 116.666666666667,92.6253687315634 L 116.371681415929,92.6253687315634 L 116.076696165192,92.330383480826 L 115.044247787611,92.330383480826 L 114.601769911504,92.6253687315634 L 114.306784660767,92.7730973451332 L 114.011799410029,93.2153392330383 L 113.864306784661,93.6575811209435 L 113.126843657817,93.8053097345133 L 112.83185840708,93.8053097345133 L 112.389380530973,94.3952802359882 L 112.241887905605,94.2475516224184 L 111.946902654867,94.1002949852507 L 111.799410029499,94.1002949852507 L 111.799410029499,94.543008849558 L 111.356932153392,94.6902654867257 L 111.061946902655,94.9852507374631 L 110.619469026549,94.9852507374631 L 110.176991150442,95.1329793510329 L 109.587020648968,95.4274926253683 L 109.439528023599,95.4274926253683 L 108.997050147493,95.7229498525079 L 108.702064896755,96.0174631268432 L 108.407079646018,95.7229498525079 L 107.964601769911,95.8702064896755 L 107.374631268437,96.4601769911504 L 107.374631268437,97.0501474926254 L 107.522123893805,97.197404129793 L 106.93215339233,97.9351032448378 L 107.079646017699,98.2300884955752 L 106.93215339233,98.5250737463127 L 106.637168141593,98.8200589970501 L 106.784660766962,99.1150442477876 L 106.194690265487,99.5572861356927 L 105.899705014749,99.5572861356927 L 105.162241887906,100.147256637168 L 105.162241887906,100.589970501475 L 104.572271386431,101.474926253687 L 104.424778761062,102.064896755162 L 104.129793510324,102.949852507375 L 103.834808259587,103.53982300885 L 103.834808259587,103.834808259587 L 103.53982300885,104.129793510324 L 103.097345132743,104.572507374632 L 103.097345132743,104.719764011799 L 102.507374631268,105.456991150442 L 102.064896755162,106.194690265487 L 102.064896755162,106.784660766962 L 102.064896755162,106.784660766962 L 101.769911504425,106.784660766962 L 100.884955752212,106.784660766962 L 100.294985250737,106.636932153392 L 99.7050147492625,106.636932153392 L 98.6725663716814,106.636932153392 L 98.5250737463127,106.932389380531 L 98.0825958702065,107.226902654867 L 97.787610619469,107.522359882006 L 97.6401179941003,107.964601769911 L 97.1976401179941,108.406843657817 L 97.1976401179941,109.144542772861 L 97.3451327433628,109.292271386431 L 97.6401179941003,109.734513274336 L 97.787610619469,110.029498525074 L 98.0825958702065,110.324483775811 L 98.5250737463127,110.324483775811 L 98.5250737463127,110.472212389381 L 98.377581120944,110.472212389381 L 98.0825958702065,110.766725663716 L 98.2300884955752,111.062182890856 L 98.2300884955752,111.504424778761 L 98.5250737463127,111.799410029499 L 98.5250737463127,112.536637168141 L 98.5250737463127,114.012035398231 L 98.2300884955752,114.454277286136 L 97.4926253687316,114.306548672566 L 96.9026548672566,113.864306784661 L 96.0176991150443,113.274336283186 L 94.8377581120944,112.389380530973 L 93.952802359882,111.504424778761 L 92.4778761061947,110.324483775811 L 91.2979351032448,109.292271386431 L 90.2654867256637,108.259587020649 L 89.5280235988201,107.522359882006 L 89.3805309734513,107.522359882006 L 88.6430678466077,106.784660766962 L 87.905604719764,106.046961651917 L 87.3156342182891,105.162477876107 L 86.7256637168142,104.572507374632 L 86.7256637168142,104.424778761062 L 87.3156342182891,104.424778761062 L 87.6106194690265,104.129793510324 L 88.0530973451327,103.687079646017 L 88.4955752212389,103.244837758112 L 88.9380530973451,102.802595870207 L 89.3805309734513,102.3598820059 L 89.2330383480826,101.769911504425 L 88.9380530973451,101.327197640118 L 88.7905604719764,100.884955752212 L 88.4955752212389,100.442713864307 L 88.0530973451327,100 L 87.905604719764,100 L 87.0206489675516,99.1150442477876 L 87.0206489675516,98.9673156342178 L 86.8731563421829,98.6728023598825 L 86.8731563421829,98.5250737463127 L 86.7256637168142,98.2300884955752 L 86.7256637168142,97.787374631268 L 86.4306784660767,97.6401179941003 L 86.4306784660767,97.3451327433628 L 85.9882005899705,97.4928613569326 L 85.8407079646018,97.6401179941003 L 85.8407079646018,98.0828318584076 L 84.9557522123894,98.0828318584076 L 84.8082595870206,97.787374631268 L 84.6607669616519,97.4928613569326 L 84.2182890855457,97.4928613569326 L 83.9233038348083,97.6401179941003 L 83.0383480825959,97.6401179941003 L 82.5958702064897,98.0828318584076 L 82.4483775811209,98.0828318584076 L 82.3008849557522,97.9351032448378 L 82.0058997050147,97.787374631268 L 81.7109144542773,97.6401179941003 L 82.3008849557522,98.8200589970501 L 83.7758112094395,100.589970501475 L 83.4808259587021,101.17994100295 L 82.8908554572271,101.622654867257 L 82.3008849557522,101.769911504425 L 81.858407079646,102.064896755162 L 81.4159292035398,102.507138643067 L 81.4159292035398,102.949852507375 L 81.2684365781711,102.949852507375 L 80.6784660766962,103.244837758112 L 80.3834808259587,103.244837758112 L 79.3510324483776,104.129793510324 L 79.646017699115,104.572507374632 L 79.646017699115,105.014749262537 L 79.3510324483776,105.162477876107 L 79.3510324483776,105.456991150442 L 79.4985250737463,105.752448377582 L 79.4985250737463,106.046961651917 L 79.3510324483776,106.194690265487 L 78.7610619469027,105.899705014749 L 78.1710914454277,105.604719764012 L 78.1710914454277,105.752448377582 L 77.5811209439528,106.194690265487 L 78.023598820059,106.636932153392 L 78.6135693215339,107.374631268437 L 79.0560471976401,107.964601769911 L 79.7935103244838,108.554572271386 L 80.3834808259587,108.996814159292 L 80.8259587020649,109.292271386431 L 81.2684365781711,110.029498525074 L 81.4159292035398,110.619469026549 L 80.9734513274336,110.619469026549 L 78.6135693215339,110.914454277286 L 76.9911504424779,111.062182890856 L 75.811209439528,111.356696165191 L 74.4837758112094,111.799410029499 L 72.8613569321534,112.242123893806 L 71.8289085545723,112.832094395281 L 70.6489675516224,113.274336283186 L 69.6165191740413,113.422064896756 L 68.141592920354,113.569321533923 L 66.6666666666667,113.569321533923 L 65.4867256637168,113.274336283186 L 64.8967551622419,112.979351032448 L 63.8643067846608,112.979351032448 L 63.2743362831858,112.832094395281 L 62.6843657817109,112.832094395281 L 62.5368731563422,113.274336283186 L 61.6519174041298,113.274336283186 L 60.9144542772861,113.126607669616 L 60.9144542772861,113.422064896756 L 61.3569321533923,114.159292035398 L 61.5044247787611,114.306548672566 L 61.5044247787611,115.486489675516 L 61.3569321533923,115.781946902655 L 61.3569321533923,115.929203539823 L 61.7994100294985,116.666430678466 L 61.7994100294985,117.109144542773 L 61.9469026548673,117.256401179941 L 61.7994100294985,117.55185840708 L 61.6519174041298,117.699115044248 L 61.5044247787611,118.58407079646 L 61.9469026548673,118.58407079646 L 62.5368731563422,118.879056047198 L 63.5693215339233,119.76401179941 L 64.0117994100295,120.206253687315 L 65.4867256637168,120.206253687315 L 66.0766961651917,120.353982300885 L 66.6666666666667,120.94395280236 L 67.1091445427729,121.238938053097 L 67.2566371681416,121.533923303835 L 67.6991150442478,121.533923303835 L 67.8466076696165,121.238938053097 L 68.5840707964602,121.238938053097 L 69.1740412979351,121.681651917405 L 69.3215339233038,121.97616519174 L 69.3215339233038,121.533923303835 L 69.76401179941,121.533923303835 L 70.0589970501475,121.238938053097 L 70.6489675516224,121.238938053097 L 70.9439528023599,121.09168141593 L 71.0914454277286,121.09168141593 L 71.0914454277286,121.533923303835 L 71.2389380530973,121.533923303835 L 71.2389380530973,121.681651917405 L 71.8289085545723,121.681651917405 L 71.8289085545723,121.828908554572 L 73.7463126843658,121.97616519174 L 73.8938053097345,121.681651917405 L 74.188790560472,121.681651917405 L 74.188790560472,121.97616519174 L 74.7787610619469,121.97616519174 L 75.0737463126844,122.27162241888 L 75.3687315634218,122.418879056047 L 75.811209439528,122.27162241888 L 76.2536873156342,121.97616519174 L 79.4985250737463,121.828908554572 L 80.23598820059,122.713864306785 L 82.8908554572271,122.713864306785 L 84.5132743362832,124.188790560472 L 91.4454277286136,124.188790560472 L 92.330383480826,124.926017699115 L 93.3628318584071,124.926017699115 L 94.1002949852507,126.401415929204 L 95.1327433628319,126.401415929204 L 95.8702064896755,125.663716814159 L 97.0501474926254,125.663716814159 L 98.5250737463127,126.548672566372 L 104.867256637168,126.401415929204 L 105.752212389381,127.285899705014 L 107.079646017699,127.285899705014 L 107.964601769911,128.023598820059 L 110.324483775811,128.023598820059 L 110.914454277286,128.761297935104 L 112.094395280236,128.023598820059 L 112.83185840708,127.285899705014 L 113.274336283186,126.253687315634 L 113.274336283186,125.073746312684 L 115.486725663717,124.188790560472 L 119.026548672566,124.188790560472 L 120.648967551622,125.663716814159 L 124.483775811209,125.663716814159 L 127.286135693215,127.728613569322 L 129.203539823009,127.581356932154 L 131.268436578171,128.761297935104 L 132.448377581121,129.498525073746 L 134.955752212389,129.351268436579 L 135.98820058997,130.383480825959 L 136.578171091445,129.498525073746 L 140.412979351032,125.663716814159 L 148.672566371681,125.663716814159 L 150.737463126844,126.253687315634 L 153.687315634218,127.138643067847 L 156.047197640118,128.023598820059 L 157.817109144543,128.908554572271 L 160.619469026549,131.711150442478 L 162.094395280236,133.185604719764 L 163.421828908555,133.185604719764 L 166.961651917404,131.563421828909 L 168.731563421829,130.973451327434 L 169.76401179941,130.973451327434 L 170.648967551622,131.711150442478 L 171.533923303835,130.973451327434 L 173.008849557522,130.973451327434 L 174.188790560472,130.383480825959 L 176.401179941003,130.383480825959 L 177.286135693215,129.498525073746 L 178.171091445428,129.351268436579 L 179.646017699115,128.023598820059 L 184.070796460177,127.875870206489 L 184.955752212389,129.351268436579 L 185.693215339233,130.973451327434 L 187.020648967552,131.711150442478 L 188.790560471976,131.711150442478 L 189.970501474926,132.448377581121 L 194.690265486726,132.448377581121 L 195.575221238938,131.563421828909 L 195.575221238938,131.121179941003 L 194.690265486726,129.645781710914 L 193.215339233038,127.875870206489 L 193.215339233038,127.138643067847 L 192.330383480826,126.401415929204 L 192.477876106195,116.666430678466 L 193.215339233038,115.781946902655 L 193.215339233038,110.619469026549 L 194.690265486726,108.259587020649 L 195.427728613569,106.784660766962 L 196.902654867257,103.982536873157 L 198.230088495575,102.212625368732 L 200,100.589970501475 L 201.474926253687,100 L 203.687315634218,98.6728023598825 L 204.572271386431,99.2627728613574 L 208.259587020649,99.2627728613574 L 208.407079646018,97.4928613569326 L 209.144542772861,96.3129203539828 L 209.439528023599,95.5752212389381 L 205.309734513274,95.7229498525079 L 204.277286135693,94.8375221238933 L 203.834808259587,94.8375221238933 L 203.244837758112,94.3952802359882 L 202.802359882006,94.3952802359882 L 201.769911504425,93.5103244837758 L 201.17994100295,93.5103244837758 L 199.705014749263,92.1831268436583 L 199.115044247788,92.1831268436583 L 197.6401179941,91.0031858407084 L 197.197640117994,91.0031858407084 L 196.607669616519,90.5604719764012 L 196.017699115044,90.5604719764012 L 195.575221238938,90.1177581120939 L 194.542772861357,90.1177581120939 L 194.100294985251,89.6755162241888 L 191.002949852507,89.6755162241888 L 190.412979351032,89.3805309734513 L 189.970501474926,89.8232448377586 L 187.905604719764,89.8232448377586 L 187.463126843658,90.2654867256637 L 186.873156342183,90.2654867256637 L 186.430678466077,90.7077286135688 L 185.98820058997,90.7077286135688 L 184.955752212389,89.8232448377586 L 184.365781710914,89.8232448377586 L 183.923303834808,89.3805309734513 L 179.793510324484,89.527787610619 L 179.05604719764,88.7905604719764 L 179.05604719764,87.6106194690265 L 178.761061946903,87.3156342182891 L 178.171091445428,87.3156342182891 L 177.728613569322,87.7578761061942 L 176.69616519174,87.7578761061942 L 175.368731563422,86.7256637168142 L 175.368731563422,86.283421828909 L 174.188790560472,85.2507374631268 L 173.598820058997,85.2507374631268 L 172.861356932153,84.6607669616519 L 172.861356932153,83.6280825958697 L 171.091445427729,82.1536283185846 L 170.501474926254,82.1536283185846 L 170.058997050147,81.7109144542773 L 169.026548672566,81.7109144542773 L 168.436578171091,81.26820058997 L 167.40412979351,81.4159292035398 L 166.961651917404,80.9736873156347 L 164.454277286136,80.9736873156347 L 163.864306784661,81.4159292035398 L 163.421828908555,81.4159292035398 L 162.389380530973,82.3008849557522 L 161.946902654867,82.3008849557522 L 161.356932153392,82.7435988200595 L 160.324483775811,82.7435988200595 L 159.882005899705,83.1858407079646 L 158.407079646018,83.1858407079646 L 157.817109144543,82.8908554572271 L 156.784660766962,82.8908554572271 L 156.342182890855,82.4481415929199 L 155.752212389381,82.4481415929199 L 155.309734513274,82.0058997050147 L 154.719764011799,82.0058997050147 L 154.277286135693,81.5636578171096 L 153.687315634218,81.5636578171096 L 153.244837758112,81.1209439528024 L 152.654867256637,81.1209439528024 L 152.212389380531,80.6782300884951 L 151.769911504425,80.6782300884951 L 151.474926253687,80.3837168141598 z"  />

<path id="Middlesbrough" d=" M 89.3805309734513,102.507138643067 L 89.9705014749263,102.3598820059 L 90.5604719764012,102.064896755162 L 91.2979351032448,101.917168141592 L 91.740412979351,101.917168141592 L 92.0353982300885,101.622654867257 L 92.330383480826,101.622654867257 L 92.7728613569322,101.327197640118 L 93.2153392330383,101.032684365782 L 93.5103244837758,100.589970501475 L 94.1002949852507,100.147256637168 L 94.3952802359882,100 L 94.8377581120944,100 L 95.2802359882006,99.7050147492625 L 95.7227138643068,99.7050147492625 L 95.8702064896755,99.5572861356927 L 96.165191740413,99.5572861356927 L 96.6076696165192,99.4100294985251 L 96.3126843657817,99.1150442477876 L 96.3126843657817,98.9673156342178 L 96.0176991150443,98.5250737463127 L 95.5752212389381,97.9351032448378 L 95.1327433628319,97.4928613569326 L 94.8377581120944,96.9028908554577 L 94.5427728613569,96.6074336283181 L 94.2477876106195,96.165191740413 L 93.952802359882,96.0174631268432 L 93.6578171091445,95.7229498525079 L 93.6578171091445,94.3952802359882 L 93.3628318584071,93.5103244837758 L 93.3628318584071,92.6253687315634 L 93.2153392330383,92.330383480826 L 92.9203539823009,92.0353982300885 L 92.7728613569322,91.740412979351 L 92.0353982300885,91.740412979351 L 91.740412979351,91.4454277286136 L 91.2979351032448,91.4454277286136 L 90.8554572271386,91.2976991150438 L 90.7079646017699,90.8554572271386 L 90.7079646017699,90.5604719764012 L 90.4129793510324,90.4132153392335 L 90.4129793510324,89.9705014749263 L 90.2654867256637,89.6755162241888 L 89.0855457227139,88.6433038348087 L 88.7905604719764,88.6433038348087 L 88.4955752212389,88.7905604719764 L 87.905604719764,88.7905604719764 L 87.4631268436578,88.4955752212389 L 87.0206489675516,88.2005899705015 L 86.4306784660767,87.905604719764 L 86.1356932153392,87.4633628318589 L 85.8407079646018,87.3156342182891 L 86.1356932153392,87.1679056047193 L 86.7256637168142,87.0206489675516 L 87.0206489675516,86.7256637168142 L 87.6106194690265,86.4306784660767 L 87.7581120943953,86.1356932153392 L 87.905604719764,85.9879646017694 L 87.7581120943953,85.6934513274341 L 87.6106194690265,85.5457227138643 L 87.4631268436578,85.2507374631268 L 87.3156342182891,85.2507374631268 L 87.1681415929203,85.5457227138643 L 86.7256637168142,85.5457227138643 L 85.693215339233,86.4306784660767 L 85.2507374631268,86.4306784660767 L 84.6607669616519,86.873392330384 L 83.6283185840708,86.873392330384 L 83.1858407079646,86.4306784660767 L 82.5958702064897,86.4306784660767 L 82.3008849557522,86.1356932153392 L 82.0058997050147,86.1356932153392 L 80.23598820059,85.3979941002945 L 78.023598820059,84.2180530973447 L 76.2536873156342,83.1858407079646 L 74.9262536873156,82.4481415929199 L 74.3362831858407,82.0058997050147 L 73.4513274336283,81.26820058997 L 72.5663716814159,80.5309734513274 L 71.8289085545723,80.23598820059 L 70.9439528023599,79.9410029498525 L 70.2064896755162,80.0882595870202 L 69.6165191740413,80.5309734513274 L 69.0265486725664,80.9736873156347 L 68.5840707964602,82.0058997050147 L 68.2890855457227,83.1858407079646 L 68.141592920354,85.5457227138643 L 67.8466076696165,87.7578761061942 L 67.6991150442478,89.2332743362837 L 67.6991150442478,90.1177581120939 L 67.551622418879,90.7077286135688 L 67.2566371681416,91.1504424778761 L 66.8141592920354,91.740412979351 L 66.3716814159292,92.0353982300885 L 65.929203539823,92.330383480826 L 65.3392330383481,92.6253687315634 L 65.0442477876106,92.7730973451332 L 64.4542772861357,92.7730973451332 L 64.0117994100295,92.9203539823009 L 63.2743362831858,93.0676106194686 L 62.6843657817109,93.2153392330383 L 61.6519174041298,93.6575811209435 L 61.3569321533923,93.9530383480831 L 61.6519174041298,94.543008849558 L 62.2418879056047,95.5752212389381 L 62.6843657817109,96.3129203539828 L 63.2743362831858,97.0501474926254 L 64.0117994100295,97.6401179941003 L 64.6017699115044,97.9351032448378 L 65.0442477876106,98.5250737463127 L 65.0442477876106,98.9673156342178 L 64.7492625368732,99.4100294985251 L 64.7492625368732,99.7050147492625 L 63.8643067846608,100.589970501475 L 63.8643067846608,100.884955752212 L 63.5693215339233,100.884955752212 L 63.2743362831858,101.032684365782 L 63.2743362831858,102.3598820059 L 63.1268436578171,102.507138643067 L 63.1268436578171,102.949852507375 L 62.9793510324484,103.244837758112 L 62.8318584070796,103.834808259587 L 62.3893805309734,104.277050147492 L 62.3893805309734,105.162477876107 L 62.5368731563422,105.309734513274 L 62.3893805309734,105.899705014749 L 62.3893805309734,106.046961651917 L 61.9469026548673,106.784660766962 L 61.6519174041298,107.669616519174 L 61.2094395280236,107.964601769911 L 61.0619469026549,108.259587020649 L 60.7669616519174,108.406843657817 L 60.7669616519174,108.849557522124 L 60.4719764011799,109.144542772861 L 60.7669616519174,109.882241887906 L 60.7669616519174,112.684365781711 L 60.9144542772861,112.979351032448 L 60.9144542772861,113.126607669616 L 61.6519174041298,113.274336283186 L 62.5368731563422,113.274336283186 L 62.6843657817109,112.832094395281 L 63.2743362831858,112.832094395281 L 63.8643067846608,112.979351032448 L 64.8967551622419,112.979351032448 L 65.4867256637168,113.274336283186 L 66.6666666666667,113.569321533923 L 68.141592920354,113.569321533923 L 69.6165191740413,113.422064896756 L 70.6489675516224,113.274336283186 L 71.8289085545723,112.832094395281 L 72.8613569321534,112.242123893806 L 74.4837758112094,111.799410029499 L 75.811209439528,111.356696165191 L 76.9911504424779,111.062182890856 L 78.6135693215339,110.914454277286 L 80.9734513274336,110.619469026549 L 81.4159292035398,110.619469026549 L 81.2684365781711,110.029498525074 L 80.8259587020649,109.292271386431 L 80.3834808259587,108.996814159292 L 79.7935103244838,108.554572271386 L 79.0560471976401,107.964601769911 L 78.6135693215339,107.374631268437 L 78.023598820059,106.636932153392 L 77.5811209439528,106.194690265487 L 78.1710914454277,105.752448377582 L 78.1710914454277,105.604719764012 L 78.7610619469027,105.899705014749 L 79.3510324483776,106.194690265487 L 79.4985250737463,106.046961651917 L 79.4985250737463,105.752448377582 L 79.3510324483776,105.456991150442 L 79.3510324483776,105.162477876107 L 79.646017699115,105.014749262537 L 79.646017699115,104.572507374632 L 79.3510324483776,104.129793510324 L 80.3834808259587,103.244837758112 L 80.6784660766962,103.244837758112 L 81.2684365781711,102.949852507375 L 81.4159292035398,102.949852507375 L 81.4159292035398,102.507138643067 L 81.858407079646,102.064896755162 L 82.3008849557522,101.769911504425 L 82.8908554572271,101.622654867257 L 83.4808259587021,101.17994100295 L 83.7758112094395,100.589970501475 L 82.3008849557522,98.8200589970501 L 81.7109144542773,97.6401179941003 L 82.0058997050147,97.787374631268 L 82.3008849557522,97.9351032448378 L 82.4483775811209,98.0828318584076 L 82.5958702064897,98.0828318584076 L 83.0383480825959,97.6401179941003 L 83.9233038348083,97.6401179941003 L 84.2182890855457,97.4928613569326 L 84.6607669616519,97.4928613569326 L 84.8082595870206,97.787374631268 L 84.9557522123894,98.0828318584076 L 85.8407079646018,98.0828318584076 L 85.8407079646018,97.6401179941003 L 85.9882005899705,97.4928613569326 L 86.4306784660767,97.3451327433628 L 86.4306784660767,97.6401179941003 L 86.7256637168142,97.787374631268 L 86.7256637168142,98.2300884955752 L 86.8731563421829,98.5250737463127 L 86.8731563421829,98.6728023598825 L 87.0206489675516,98.9673156342178 L 87.0206489675516,99.1150442477876 L 87.905604719764,100 L 88.0530973451327,100 L 88.4955752212389,100.442713864307 L 88.7905604719764,100.884955752212 L 88.9380530973451,101.327197640118 L 89.2330383480826,101.769911504425 L 89.3805309734513,102.3598820059 L 89.3805309734513,102.507138643067 z"  />

<path id="Redcar" d=" M 104.572271386431,50.2952212389385 L 104.277286135693,50.5897345132739 L 104.277286135693,51.7696755162237 L 103.834808259587,52.212389380531 L 103.834808259587,54.425014749263 L 103.392330383481,54.8672566371681 L 103.392330383481,56.1949262536878 L 103.834808259587,56.6371681415929 L 103.834808259587,57.079410029498 L 104.424778761062,57.5221238938053 L 104.424778761062,58.4070796460177 L 104.867256637168,58.8493215339228 L 104.867256637168,59.2920353982301 L 105.457227138643,59.7347492625373 L 105.457227138643,60.1769911504425 L 105.899705014749,60.6192330383476 L 105.752212389381,60.7669616519174 L 102.212389380531,60.7669616519174 L 101.622418879056,61.2092035398225 L 100.589970501475,61.2092035398225 L 100.442477876106,61.5046607669621 L 100.442477876106,63.716814159292 L 100.884955752212,64.1590560471972 L 101.032448377581,70.2064896755162 L 100.442477876106,70.6487315634214 L 100.442477876106,71.0914454277286 L 98.9675516224189,72.4186430678461 L 98.9675516224189,72.8613569321534 L 99.5575221238938,73.3040707964606 L 99.5575221238938,73.7463126843658 L 101.032448377581,75.0739823008854 L 100.737463126844,75.2212389380531 L 100.294985250737,75.2212389380531 L 98.8200589970501,74.0412979351032 L 97.787610619469,74.0412979351032 L 96.4601769911504,75.0739823008854 L 96.4601769911504,75.5162241887906 L 92.9203539823009,78.613805309735 L 92.9203539823009,79.0560471976401 L 89.9705014749263,81.7109144542773 L 89.9705014749263,82.1536283185846 L 88.9380530973451,83.0381120943948 L 88.9380530973451,83.4808259587021 L 88.4955752212389,83.9235398230093 L 88.4955752212389,84.3657817109144 L 88.2005899705015,84.6607669616519 L 87.7581120943953,84.6607669616519 L 87.4631268436578,84.8080235988196 L 87.4631268436578,85.2507374631268 L 87.6106194690265,85.5457227138643 L 87.7581120943953,85.6934513274341 L 87.905604719764,85.9879646017694 L 87.7581120943953,86.1356932153392 L 87.6106194690265,86.4306784660767 L 87.0206489675516,86.7256637168142 L 86.7256637168142,87.0206489675516 L 86.1356932153392,87.1679056047193 L 85.8407079646018,87.3156342182891 L 86.1356932153392,87.4633628318589 L 86.4306784660767,87.905604719764 L 87.0206489675516,88.2005899705015 L 87.4631268436578,88.4955752212389 L 87.905604719764,88.7905604719764 L 88.4955752212389,88.7905604719764 L 88.7905604719764,88.6433038348087 L 89.0855457227139,88.6433038348087 L 90.2654867256637,89.6755162241888 L 90.4129793510324,89.9705014749263 L 90.4129793510324,90.4132153392335 L 90.7079646017699,90.5604719764012 L 90.7079646017699,90.8554572271386 L 90.8554572271386,91.2976991150438 L 91.2979351032448,91.4454277286136 L 91.740412979351,91.4454277286136 L 92.0353982300885,91.740412979351 L 92.7728613569322,91.740412979351 L 92.9203539823009,92.0353982300885 L 93.2153392330383,92.330383480826 L 93.3628318584071,92.6253687315634 L 93.3628318584071,93.5103244837758 L 93.6578171091445,94.3952802359882 L 93.6578171091445,95.7229498525079 L 93.952802359882,96.0174631268432 L 94.2477876106195,96.165191740413 L 94.5427728613569,96.6074336283181 L 94.8377581120944,96.9028908554577 L 95.1327433628319,97.4928613569326 L 95.5752212389381,97.9351032448378 L 96.0176991150443,98.5250737463127 L 96.3126843657817,98.9673156342178 L 96.3126843657817,99.1150442477876 L 96.6076696165192,99.4100294985251 L 96.165191740413,99.5572861356927 L 95.8702064896755,99.5572861356927 L 95.7227138643068,99.7050147492625 L 95.2802359882006,99.7050147492625 L 94.8377581120944,100 L 94.3952802359882,100 L 94.1002949852507,100.147256637168 L 93.5103244837758,100.589970501475 L 93.2153392330383,101.032684365782 L 92.7728613569322,101.327197640118 L 92.330383480826,101.622654867257 L 92.0353982300885,101.622654867257 L 91.740412979351,101.917168141592 L 91.2979351032448,101.917168141592 L 90.5604719764012,102.064896755162 L 89.9705014749263,102.3598820059 L 89.3805309734513,102.507138643067 L 89.2330383480826,102.507138643067 L 88.9380530973451,102.802595870207 L 88.4955752212389,103.244837758112 L 88.0530973451327,103.687079646017 L 87.6106194690265,104.129793510324 L 87.3156342182891,104.424778761062 L 86.7256637168142,104.424778761062 L 86.7256637168142,104.572507374632 L 87.3156342182891,105.162477876107 L 87.905604719764,106.046961651917 L 88.6430678466077,106.784660766962 L 89.3805309734513,107.522359882006 L 89.5280235988201,107.522359882006 L 90.2654867256637,108.259587020649 L 91.2979351032448,109.292271386431 L 92.4778761061947,110.324483775811 L 93.952802359882,111.504424778761 L 94.8377581120944,112.389380530973 L 96.0176991150443,113.274336283186 L 96.9026548672566,113.864306784661 L 97.4926253687316,114.306548672566 L 98.2300884955752,114.454277286136 L 98.5250737463127,114.012035398231 L 98.5250737463127,112.536637168141 L 98.5250737463127,111.799410029499 L 98.2300884955752,111.504424778761 L 98.2300884955752,111.062182890856 L 98.0825958702065,110.766725663716 L 98.377581120944,110.472212389381 L 98.5250737463127,110.472212389381 L 98.5250737463127,110.324483775811 L 98.0825958702065,110.324483775811 L 97.787610619469,110.029498525074 L 97.6401179941003,109.734513274336 L 97.3451327433628,109.292271386431 L 97.1976401179941,109.144542772861 L 97.1976401179941,108.406843657817 L 97.6401179941003,107.964601769911 L 97.787610619469,107.522359882006 L 98.0825958702065,107.226902654867 L 98.5250737463127,106.932389380531 L 98.6725663716814,106.636932153392 L 99.7050147492625,106.636932153392 L 100.294985250737,106.636932153392 L 100.884955752212,106.784660766962 L 101.769911504425,106.784660766962 L 102.064896755162,106.784660766962 L 102.064896755162,106.194690265487 L 102.507374631268,105.456991150442 L 103.097345132743,104.719764011799 L 103.097345132743,104.572507374632 L 103.53982300885,104.129793510324 L 103.834808259587,103.834808259587 L 103.834808259587,103.53982300885 L 104.129793510324,102.949852507375 L 104.424778761062,102.064896755162 L 104.572271386431,101.474926253687 L 105.162241887906,100.589970501475 L 105.162241887906,100.147256637168 L 105.899705014749,99.5572861356927 L 106.194690265487,99.5572861356927 L 106.784660766962,99.1150442477876 L 106.637168141593,98.8200589970501 L 106.93215339233,98.5250737463127 L 107.079646017699,98.2300884955752 L 106.93215339233,97.9351032448378 L 107.522123893805,97.197404129793 L 107.374631268437,97.0501474926254 L 107.374631268437,96.4601769911504 L 107.964601769911,95.8702064896755 L 108.407079646018,95.7229498525079 L 108.702064896755,96.0174631268432 L 108.997050147493,95.7229498525079 L 109.439528023599,95.4274926253683 L 109.587020648968,95.4274926253683 L 110.176991150442,95.1329793510329 L 110.619469026549,94.9852507374631 L 111.061946902655,94.9852507374631 L 111.356932153392,94.6902654867257 L 111.799410029499,94.543008849558 L 111.799410029499,94.1002949852507 L 111.946902654867,94.1002949852507 L 112.241887905605,94.2475516224184 L 112.389380530973,94.3952802359882 L 112.83185840708,93.8053097345133 L 113.126843657817,93.8053097345133 L 113.864306784661,93.6575811209435 L 114.011799410029,93.2153392330383 L 114.306784660767,92.7730973451332 L 114.601769911504,92.6253687315634 L 115.044247787611,92.330383480826 L 116.076696165192,92.330383480826 L 116.371681415929,92.6253687315634 L 116.666666666667,92.6253687315634 L 116.814159292035,92.330383480826 L 117.256637168142,92.330383480826 L 117.40412979351,92.1831268436583 L 117.40412979351,91.740412979351 L 117.699115044248,91.5931563421834 L 118.141592920354,91.2976991150438 L 118.436578171091,91.1504424778761 L 118.879056047198,90.8554572271386 L 119.321533923304,90.8554572271386 L 119.469026548673,90.7077286135688 L 119.911504424779,90.7077286135688 L 120.206489675516,90.5604719764012 L 120.353982300885,90.5604719764012 L 120.648967551622,90.2654867256637 L 120.796460176991,90.2654867256637 L 121.533923303835,89.6755162241888 L 121.681415929204,89.3805309734513 L 121.828908554572,89.3805309734513 L 122.12389380531,89.2332743362837 L 122.418879056047,88.9378171091441 L 122.861356932153,88.7905604719764 L 123.30383480826,88.6433038348087 L 123.598820058997,88.3478466076691 L 123.893805309735,88.2005899705015 L 124.631268436578,88.2005899705015 L 124.778761061947,87.905604719764 L 125.221238938053,87.6106194690265 L 125.516224188791,87.3156342182891 L 125.811209439528,87.1679056047193 L 126.106194690265,87.6106194690265 L 126.253687315634,88.0533333333338 L 126.548672566372,88.7905604719764 L 126.548672566372,89.6755162241888 L 126.69616519174,90.2654867256637 L 126.843657817109,91.1504424778761 L 127.138643067847,91.4454277286136 L 127.286135693215,92.330383480826 L 127.433628318584,93.0676106194686 L 128.171091445428,93.0676106194686 L 128.466076696165,93.5103244837758 L 128.613569321534,93.5103244837758 L 128.908554572271,93.2153392330383 L 129.351032448378,93.0676106194686 L 129.646017699115,93.0676106194686 L 130.088495575221,93.3630678466081 L 130.23598820059,93.5103244837758 L 130.530973451327,93.2153392330383 L 130.825958702065,93.5103244837758 L 130.973451327434,93.2153392330383 L 131.41592920354,93.0676106194686 L 131.710914454277,92.7730973451332 L 132.153392330383,92.6253687315634 L 132.448377581121,92.4776401179936 L 132.448377581121,91.740412979351 L 132.153392330383,91.4454277286136 L 132.153392330383,90.8554572271386 L 132.005899705015,90.7077286135688 L 132.005899705015,90.2654867256637 L 132.153392330383,90.1177581120939 L 132.448377581121,90.1177581120939 L 132.743362831858,89.8232448377586 L 133.480825958702,89.3805309734513 L 133.628318584071,89.2332743362837 L 133.628318584071,89.0855457227139 L 133.923303834808,88.7905604719764 L 134.070796460177,88.7905604719764 L 134.070796460177,89.2332743362837 L 134.218289085546,89.527787610619 L 134.218289085546,89.6755162241888 L 134.513274336283,89.6755162241888 L 134.660766961652,89.2332743362837 L 135.398230088496,89.2332743362837 L 135.545722713864,89.0855457227139 L 135.98820058997,89.0855457227139 L 136.135693215339,88.4955752212389 L 136.578171091445,88.2005899705015 L 136.725663716814,88.3478466076691 L 137.315634218289,88.3478466076691 L 137.463126843658,88.2005899705015 L 138.34808259587,88.2005899705015 L 138.495575221239,87.905604719764 L 138.938053097345,87.7578761061942 L 139.52802359882,88.2005899705015 L 141.297935103245,88.2005899705015 L 141.445427728614,88.3478466076691 L 141.88790560472,88.4955752212389 L 142.035398230089,88.7905604719764 L 142.035398230089,89.0855457227139 L 143.362831858407,89.0855457227139 L 143.510324483776,89.2332743362837 L 143.952802359882,89.2332743362837 L 144.247787610619,89.0855457227139 L 144.690265486726,88.7905604719764 L 144.395280235988,88.4955752212389 L 144.395280235988,88.3478466076691 L 144.837758112094,88.2005899705015 L 145.280235988201,88.3478466076691 L 145.575221238938,87.905604719764 L 145.870206489676,87.905604719764 L 146.165191740413,87.7578761061942 L 146.607669616519,87.7578761061942 L 146.902654867257,87.6106194690265 L 147.345132743363,87.6106194690265 L 147.787610619469,87.3156342182891 L 148.230088495575,87.3156342182891 L 148.377581120944,87.1679056047193 L 148.672566371681,87.3156342182891 L 149.115044247788,87.3156342182891 L 148.967551622419,87.0206489675516 L 148.82005899705,86.5779351032444 L 148.82005899705,86.1356932153392 L 148.672566371681,85.8407079646018 L 148.672566371681,84.5135103244843 L 148.82005899705,83.9235398230093 L 148.82005899705,83.4808259587021 L 148.377581120944,83.3335693215344 L 147.935103244838,83.0381120943948 L 148.082595870206,82.8908554572271 L 149.262536873156,82.8908554572271 L 149.557522123894,82.5958702064897 L 149.262536873156,82.3008849557522 L 149.262536873156,82.0058997050147 L 148.967551622419,81.8581710914449 L 148.967551622419,81.7109144542773 L 149.410029498525,81.7109144542773 L 149.705014749263,81.4159292035398 L 150.294985250737,81.4159292035398 L 150.294985250737,81.1209439528024 L 150,80.8259587020649 L 151.327433628319,80.8259587020649 L 151.474926253687,80.3837168141598 L 151.17994100295,80.23598820059 L 150.737463126844,80.3837168141598 L 150.147492625369,79.7937463126848 L 149.705014749263,79.9410029498525 L 149.115044247788,79.4982890855452 L 148.672566371681,79.4982890855452 L 148.082595870206,79.0560471976401 L 147.050147492625,78.613805309735 L 146.017699115044,78.1710914454277 L 145.575221238938,78.1710914454277 L 143.952802359882,76.8438938053102 L 143.510324483776,76.8438938053102 L 142.477876106195,76.1061946902655 L 142.035398230089,76.1061946902655 L 141.002949852507,75.2212389380531 L 140.412979351032,75.2212389380531 L 139.970501474926,74.7785250737458 L 139.380530973451,74.7785250737458 L 136.135693215339,71.976401179941 L 136.135693215339,71.5341592920359 L 134.513274336283,70.2064896755162 L 134.513274336283,69.7642477876111 L 133.038348082596,68.5843067846612 L 133.038348082596,68.141592920354 L 131.710914454277,66.9616519174041 L 131.120943952802,66.9616519174041 L 130.088495575221,66.0766961651917 L 129.646017699115,66.2244247787615 L 129.203539823009,65.7817109144543 L 128.613569321534,65.7817109144543 L 128.171091445428,65.338997050147 L 127.581120943953,65.338997050147 L 127.138643067847,64.8967551622419 L 126.106194690265,64.8967551622419 L 125.516224188791,64.4545132743368 L 123.008849557522,64.4545132743368 L 122.566371681416,64.8967551622419 L 120.94395280236,64.8967551622419 L 120.501474926254,64.4545132743368 L 117.994100294985,64.6017699115044 L 117.40412979351,64.1590560471972 L 116.371681415929,64.1590560471972 L 115.929203539823,63.716814159292 L 115.339233038348,63.716814159292 L 114.306784660767,62.8318584070796 L 113.864306784661,62.8318584070796 L 112.389380530973,61.5046607669621 L 111.799410029499,61.5046607669621 L 110.324483775811,60.3247197640123 L 109.734513274336,60.3247197640123 L 108.997050147493,59.5870206489676 L 108.997050147493,57.8171091445428 L 107.669616519174,56.7848967551627 L 107.227138643068,56.7848967551627 L 105.309734513274,55.3094985250733 L 105.457227138643,54.425014749263 L 104.867256637168,53.9823008849557 L 104.867256637168,53.5395870206485 L 105.309734513274,53.0973451327434 L 105.309734513274,50.4424778761062 L 105.162241887906,50.2952212389385 L 104.572271386431,50.2952212389385 z"  />

<path id="Stockton_North" d=" M 86.1356932153392,63.5690855457222 L 85.3982300884956,63.5690855457222 L 85.2507374631268,63.716814159292 L 84.5132743362832,63.716814159292 L 84.3657817109144,64.0117994100295 L 83.9233038348083,64.0117994100295 L 83.7758112094395,64.1590560471972 L 82.0058997050147,64.1590560471972 L 81.858407079646,63.8645427728618 L 81.7109144542773,63.5690855457222 L 79.9410029498525,63.4218289085546 L 79.646017699115,63.4218289085546 L 79.646017699115,63.1268436578171 L 79.9410029498525,63.1268436578171 L 79.9410029498525,62.5368731563422 L 79.4985250737463,62.5368731563422 L 79.0560471976401,62.9791150442473 L 79.0560471976401,63.1268436578171 L 78.9085545722714,63.2745722713869 L 78.6135693215339,63.4218289085546 L 78.4660766961652,63.1268436578171 L 78.4660766961652,62.8318584070796 L 78.6135693215339,62.2418879056047 L 78.6135693215339,62.0946312684371 L 78.023598820059,62.0946312684371 L 78.023598820059,61.6519174041298 L 77.2861356932153,61.6519174041298 L 77.1386430678466,61.9469026548673 L 77.1386430678466,62.3891445427724 L 76.9911504424779,62.3891445427724 L 76.6961651917404,61.9469026548673 L 76.5486725663717,61.9469026548673 L 76.401179941003,62.2418879056047 L 76.1061946902655,62.0946312684371 L 76.1061946902655,61.6519174041298 L 75.9587020648968,61.3569321533923 L 75.811209439528,60.9146902654872 L 75.6637168141593,60.4719764011799 L 75.0737463126844,60.6192330383476 L 74.9262536873156,60.7669616519174 L 74.6312684365782,60.7669616519174 L 74.188790560472,60.9146902654872 L 74.188790560472,61.6519174041298 L 74.3362831858407,61.7991740412975 L 74.3362831858407,61.7991740412975 L 73.8938053097345,62.2418879056047 L 73.598820058997,62.684601769912 L 73.4513274336283,62.5368731563422 L 73.1563421828909,62.5368731563422 L 72.8613569321534,62.2418879056047 L 72.5663716814159,62.2418879056047 L 72.2713864306785,62.0946312684371 L 71.6814159292035,62.0946312684371 L 71.0914454277286,62.5368731563422 L 70.5014749262537,62.5368731563422 L 70.2064896755162,62.8318584070796 L 69.9115044247788,63.1268436578171 L 69.4690265486726,63.1268436578171 L 69.1740412979351,63.5690855457222 L 68.8790560471976,63.5690855457222 L 68.4365781710914,63.2745722713869 L 68.5840707964602,62.9791150442473 L 68.7315634218289,62.8318584070796 L 68.7315634218289,62.3891445427724 L 68.8790560471976,62.2418879056047 L 68.4365781710914,62.0946312684371 L 68.141592920354,61.9469026548673 L 67.8466076696165,62.2418879056047 L 67.9941002949852,62.684601769912 L 67.551622418879,62.8318584070796 L 67.1091445427729,62.684601769912 L 66.8141592920354,62.8318584070796 L 66.5191740412979,63.1268436578171 L 65.6342182890855,63.1268436578171 L 65.3392330383481,62.8318584070796 L 65.3392330383481,62.3891445427724 L 65.1917404129794,62.0946312684371 L 64.8967551622419,62.0946312684371 L 64.306784660767,62.2418879056047 L 64.1592920353982,62.5368731563422 L 63.716814159292,62.2418879056047 L 63.1268436578171,61.7991740412975 L 62.6843657817109,61.3569321533923 L 62.094395280236,61.2092035398225 L 61.7994100294985,61.0619469026549 L 61.0619469026549,61.0619469026549 L 60.9144542772861,61.2092035398225 L 60.1769911504425,61.2092035398225 L 59.882005899705,61.3569321533923 L 59.5870206489676,61.0619469026549 L 59.2920353982301,61.2092035398225 L 58.9970501474926,61.3569321533923 L 58.7020648967552,61.6519174041298 L 58.259587020649,61.6519174041298 L 58.259587020649,61.3569321533923 L 57.9646017699115,60.9146902654872 L 57.8171091445428,60.7669616519174 L 57.669616519174,60.9146902654872 L 57.3746312684366,61.0619469026549 L 57.0796460176991,61.2092035398225 L 55.8997050147493,61.2092035398225 L 55.8997050147493,60.6192330383476 L 56.047197640118,60.3247197640123 L 56.047197640118,59.4392920353977 L 55.8997050147493,59.1447787610624 L 55.8997050147493,58.1120943952802 L 56.047197640118,57.8171091445428 L 56.047197640118,57.2271386430678 L 54.7197640117994,57.2271386430678 L 54.4247787610619,56.9321533923304 L 53.9823008849557,56.6371681415929 L 53.3923303834808,56.6371681415929 L 53.0973451327434,56.1949262536878 L 52.9498525073746,55.7522123893805 L 52.6548672566372,55.4572271386431 L 52.3598820058997,55.0149852507379 L 52.0648967551622,54.425014749263 L 51.9174041297935,53.9823008849557 L 51.0324483775811,53.3923303834808 L 51.0324483775811,52.9496165191736 L 50.8849557522124,52.5073746312684 L 50.5899705014749,52.3596460176986 L 49.1150442477876,52.3596460176986 L 48.9675516224189,52.5073746312684 L 48.2300884955752,52.5073746312684 L 47.787610619469,52.3596460176986 L 47.4926253687316,52.3596460176986 L 47.3451327433628,52.6551032448382 L 46.9026548672566,52.8023598820059 L 46.6076696165192,53.2450737463132 L 46.6076696165192,54.8672566371681 L 46.7551622418879,55.8994690265482 L 46.6076696165192,56.9321533923304 L 46.4601769911504,57.3748672566376 L 46.165191740413,57.8171091445428 L 45.5752212389381,58.7020648967552 L 45.1327433628319,59.4392920353977 L 44.9852507374631,59.4392920353977 L 44.6902654867257,58.8493215339228 L 44.5427728613569,58.4070796460177 L 44.2477876106195,57.8171091445428 L 43.8053097345133,57.2271386430678 L 42.9203539823009,56.7848967551627 L 42.4778761061947,56.7848967551627 L 42.1828908554572,56.6371681415929 L 41.8879056047198,56.3421828908555 L 41.4454277286136,56.1949262536878 L 41.1504424778761,56.047197640118 L 40.7079646017699,55.7522123893805 L 39.8230088495575,55.7522123893805 L 39.6755162241888,55.8994690265482 L 39.2330383480826,55.8994690265482 L 39.0855457227139,56.1949262536878 L 38.7905604719764,56.1949262536878 L 38.2005899705015,55.8994690265482 L 37.6106194690265,55.4572271386431 L 36.4306784660767,54.5722713864307 L 35.8407079646018,53.9823008849557 L 34.8082595870207,53.2450737463132 L 32.7433628318584,53.2450737463132 L 32.4483775811209,53.3923303834808 L 31.2684365781711,53.3923303834808 L 30.9734513274336,53.2450737463132 L 30.5309734513274,53.0973451327434 L 30.5309734513274,53.2450737463132 L 29.4985250737463,53.8350442477881 L 28.9085545722714,54.425014749263 L 28.9085545722714,55.1622418879056 L 28.3185840707965,55.3094985250733 L 28.1710914454277,55.8994690265482 L 28.1710914454277,57.079410029498 L 28.4660766961652,57.669380530973 L 28.7610619469027,58.4070796460177 L 29.0560471976401,58.9970501474926 L 28.6135693215339,59.7347492625373 L 28.1710914454277,59.7347492625373 L 27.5811209439528,59.4392920353977 L 26.5486725663717,59.882005899705 L 26.8436578171091,60.6192330383476 L 26.9911504424779,61.0619469026549 L 26.401179941003,61.2092035398225 L 25.6637168141593,61.9469026548673 L 25.2212389380531,61.6519174041298 L 24.9262536873156,61.9469026548673 L 24.7787610619469,62.5368731563422 L 25.0737463126844,62.9791150442473 L 25.5162241887906,63.4218289085546 L 25.3687315634218,63.716814159292 L 24.4837758112094,64.306784660767 L 24.188790560472,64.0117994100295 L 23.8938053097345,63.716814159292 L 23.598820058997,63.8645427728618 L 23.0088495575221,64.7490265486721 L 23.4513274336283,65.1917404129794 L 23.0088495575221,65.4867256637168 L 22.1238938053097,66.8143952802365 L 21.0914454277286,67.6988790560467 L 19.76401179941,68.7315634218289 L 18.5840707964602,69.3215339233038 L 17.5516224188791,70.2064896755162 L 17.4041297935103,69.7642477876111 L 16.8141592920354,69.3215339233038 L 16.8141592920354,68.7315634218289 L 16.5191740412979,68.2888495575216 L 15.6342182890855,68.4365781710914 L 15.1917404129794,69.0265486725664 L 14.306784660767,68.7315634218289 L 13.8643067846608,69.6165191740413 L 13.4218289085546,69.4687905604715 L 13.2743362831858,70.5014749262537 L 12.8318584070796,70.5014749262537 L 12.094395280236,70.9441887905609 L 10.7669616519174,70.5014749262537 L 10.0294985250737,70.7964601769911 L 9.58702064896755,71.6814159292035 L 9.43952802359882,72.5663716814159 L 9.88200589970501,73.1563421828909 L 10.0294985250737,73.7463126843658 L 10.4719764011799,74.1885545722709 L 10.9144542772861,74.6312684365782 L 11.5044247787611,75.0739823008854 L 11.7994100294985,75.5162241887906 L 11.9469026548673,75.9584660766957 L 11.6519174041298,76.2539233038353 L 11.6519174041298,76.5484365781706 L 12.2418879056047,76.9911504424779 L 12.6843657817109,77.4338643067851 L 13.2743362831858,78.0238348082601 L 13.4218289085546,78.4660766961652 L 13.8643067846608,78.9083185840703 L 14.1592920353982,78.7610619469027 L 14.6017699115044,78.4660766961652 L 15.0442477876106,78.7610619469027 L 15.7817109144543,78.613805309735 L 16.0766961651917,78.3183480825954 L 16.5191740412979,78.0238348082601 L 16.5191740412979,77.1384070796455 L 16.3716814159292,75.9584660766957 L 16.9616519174041,75.3684955752208 L 17.5516224188791,74.7785250737458 L 18.4365781710914,74.4840117994105 L 18.7315634218289,74.9262536873156 L 18.7315634218289,75.811209439528 L 19.1740412979351,76.2539233038353 L 19.9115044247788,76.2539233038353 L 20.353982300885,76.8438938053102 L 20.7964601769912,77.4338643067851 L 21.0914454277286,78.0238348082601 L 21.3864306784661,78.4660766961652 L 21.976401179941,78.613805309735 L 21.976401179941,79.0560471976401 L 22.2713864306785,79.2037758112099 L 22.8613569321534,79.0560471976401 L 23.1563421828909,79.3510324483776 L 23.1563421828909,80.0882595870202 L 23.0088495575221,80.9736873156347 L 22.2713864306785,82.0058997050147 L 21.5339233038348,82.3008849557522 L 21.5339233038348,83.0381120943948 L 21.2389380530973,84.6607669616519 L 20.7964601769912,86.873392330384 L 20.6489675516224,88.3478466076691 L 20.5014749262537,88.7905604719764 L 20.5014749262537,89.8232448377586 L 20.6489675516224,90.5604719764012 L 21.2389380530973,91.1504424778761 L 20.6489675516224,91.5931563421834 L 21.2389380530973,92.330383480826 L 21.2389380530973,93.0676106194686 L 22.1238938053097,94.6902654867257 L 20.6489675516224,95.2802359882006 L 19.4690265486726,95.2802359882006 L 17.5516224188791,95.4274926253683 L 16.0766961651917,96.165191740413 L 14.7492625368732,96.9028908554577 L 14.7492625368732,97.3451327433628 L 14.6017699115044,97.6401179941003 L 12.6843657817109,98.8200589970501 L 11.5044247787611,99.4100294985251 L 11.7994100294985,100 L 11.7994100294985,100.884955752212 L 12.094395280236,102.507138643067 L 12.3893805309735,104.424778761062 L 12.6843657817109,105.309734513274 L 12.6843657817109,106.046961651917 L 12.3893805309735,106.194690265487 L 12.2418879056047,107.079646017699 L 11.5044247787611,108.996814159292 L 11.7994100294985,109.882241887906 L 12.3893805309735,110.324483775811 L 12.094395280236,110.472212389381 L 11.5044247787611,110.914454277286 L 10.9144542772861,110.619469026549 L 10.6194690265487,110.914454277286 L 10.7669616519174,111.504424778761 L 11.2094395280236,111.946666666666 L 11.7994100294985,112.684365781711 L 11.9469026548673,113.569321533923 L 12.2418879056047,114.454277286136 L 12.5368731563422,113.864306784661 L 12.9793510324484,113.864306784661 L 13.8643067846608,113.864306784661 L 14.306784660767,114.159292035398 L 14.7492625368732,113.864306784661 L 15.3392330383481,114.159292035398 L 15.7817109144543,115.044247787611 L 16.0766961651917,115.929203539823 L 17.1091445427729,116.22418879056 L 17.5516224188791,116.519174041298 L 19.0265486725664,117.109144542773 L 19.4690265486726,118.58407079646 L 19.1740412979351,119.76401179941 L 18.8790560471976,120.206253687315 L 19.3215339233038,120.353982300885 L 20.353982300885,120.648967551622 L 20.9439528023599,120.501710914455 L 21.5339233038348,120.501710914455 L 22.2713864306785,120.353982300885 L 22.8613569321534,119.91174041298 L 23.0088495575221,119.61628318584 L 23.3038348082596,119.61628318584 L 23.598820058997,119.76401179941 L 23.8938053097345,119.61628318584 L 24.4837758112094,119.61628318584 L 24.6312684365782,119.321769911505 L 25.3687315634218,119.321769911505 L 25.5162241887906,119.174041297935 L 25.6637168141593,119.174041297935 L 26.2536873156342,118.73179941003 L 26.5486725663717,118.58407079646 L 26.8436578171091,118.289085545723 L 26.9911504424779,118.289085545723 L 27.2861356932153,118.141828908555 L 27.4336283185841,118.141828908555 L 28.4660766961652,117.109144542773 L 28.7610619469027,116.961887905605 L 29.7935103244838,115.929203539823 L 29.7935103244838,115.634218289086 L 29.4985250737463,115.339233038348 L 29.4985250737463,114.896519174041 L 29.3510324483776,114.749262536873 L 29.7935103244838,114.454277286136 L 29.9410029498525,114.454277286136 L 30.23598820059,114.012035398231 L 30.3834808259587,113.422064896756 L 30.3834808259587,113.274336283186 L 30.8259587020649,112.832094395281 L 30.9734513274336,112.832094395281 L 31.2684365781711,112.684365781711 L 31.858407079646,112.536637168141 L 32.1533923303835,112.832094395281 L 32.7433628318584,112.832094395281 L 32.8908554572271,112.684365781711 L 33.1858407079646,112.684365781711 L 33.6283185840708,112.242123893806 L 33.6283185840708,111.946666666666 L 34.2182890855457,111.356696165191 L 34.3657817109145,111.356696165191 L 34.6607669616519,111.062182890856 L 34.8082595870207,111.209439528024 L 35.1032448377581,111.062182890856 L 35.693215339233,110.472212389381 L 35.693215339233,110.324483775811 L 35.8407079646018,110.324483775811 L 35.8407079646018,110.176755162241 L 36.1356932153392,109.882241887906 L 36.283185840708,109.734513274336 L 36.283185840708,109.439528023599 L 36.4306784660767,109.144542772861 L 36.7256637168142,108.849557522124 L 36.8731563421829,108.112330383481 L 36.7256637168142,107.816873156342 L 36.7256637168142,106.489675516224 L 37.1681415929204,106.046961651917 L 37.4631268436578,106.046961651917 L 37.6106194690265,105.899705014749 L 37.7581120943953,105.899705014749 L 38.4955752212389,105.309734513274 L 38.6430678466077,105.309734513274 L 39.2330383480826,104.572507374632 L 39.5280235988201,104.572507374632 L 39.8230088495575,104.129793510324 L 39.5280235988201,103.687079646017 L 39.2330383480826,103.097109144542 L 38.9380530973451,102.507138643067 L 38.6430678466077,102.064896755162 L 38.6430678466077,101.327197640118 L 37.905604719764,100.589970501475 L 36.8731563421829,100.589970501475 L 36.7256637168142,100.442713864307 L 36.4306784660767,100.589970501475 L 36.1356932153392,100.589970501475 L 35.9882005899705,100.294985250737 L 35.5457227138643,100.442713864307 L 35.2507374631268,100 L 35.2507374631268,99.5572861356927 L 34.5132743362832,98.8200589970501 L 34.3657817109145,98.9673156342178 L 33.9233038348083,98.5250737463127 L 33.9233038348083,98.2300884955752 L 33.6283185840708,97.787374631268 L 32.7433628318584,97.787374631268 L 32.1533923303835,98.2300884955752 L 31.858407079646,98.2300884955752 L 31.5634218289086,97.787374631268 L 31.4159292035398,97.197404129793 L 30.5309734513274,97.197404129793 L 30.5309734513274,96.7551622418879 L 30.0884955752212,96.0174631268432 L 29.9410029498525,95.5752212389381 L 29.3510324483776,94.8375221238933 L 28.9085545722714,94.1002949852507 L 28.6135693215339,93.8053097345133 L 28.6135693215339,92.7730973451332 L 28.9085545722714,92.330383480826 L 29.0560471976401,91.8876696165187 L 29.3510324483776,91.740412979351 L 29.4985250737463,91.1504424778761 L 29.7935103244838,90.4132153392335 L 29.9410029498525,89.8232448377586 L 30.3834808259587,89.3805309734513 L 30.8259587020649,89.3805309734513 L 31.2684365781711,89.3805309734513 L 31.2684365781711,89.2332743362837 L 30.9734513274336,88.7905604719764 L 30.9734513274336,88.6433038348087 L 31.2684365781711,88.3478466076691 L 31.7109144542773,88.2005899705015 L 31.7109144542773,87.905604719764 L 31.4159292035398,87.7578761061942 L 31.4159292035398,87.3156342182891 L 32.7433628318584,87.3156342182891 L 32.7433628318584,86.873392330384 L 33.0383480825959,86.7256637168142 L 33.4808259587021,86.4306784660767 L 34.5132743362832,86.4306784660767 L 34.6607669616519,85.2507374631268 L 34.5132743362832,84.6607669616519 L 34.8082595870207,84.2180530973447 L 34.8082595870207,83.7758112094395 L 35.1032448377581,83.4808259587021 L 35.2507374631268,82.8908554572271 L 35.2507374631268,82.3008849557522 L 35.5457227138643,82.0058997050147 L 35.8407079646018,82.3008849557522 L 36.283185840708,82.8908554572271 L 36.7256637168142,83.9235398230093 L 37.1681415929204,84.3657817109144 L 37.3156342182891,84.9557522123894 L 37.6106194690265,85.3979941002945 L 37.905604719764,86.1356932153392 L 38.2005899705015,86.5779351032444 L 38.3480825958702,87.0206489675516 L 38.6430678466077,87.3156342182891 L 39.0855457227139,87.0206489675516 L 39.6755162241888,87.3156342182891 L 40.117994100295,87.3156342182891 L 40.4129793510324,87.0206489675516 L 40.7079646017699,87.0206489675516 L 41.0029498525074,87.1679056047193 L 41.2979351032448,87.1679056047193 L 41.5929203539823,86.873392330384 L 42.1828908554572,87.3156342182891 L 43.2153392330383,87.3156342182891 L 43.5103244837758,87.0206489675516 L 43.5103244837758,86.4306784660767 L 43.8053097345133,86.283421828909 L 44.2477876106195,86.1356932153392 L 44.8377581120944,86.1356932153392 L 44.9852507374631,86.7256637168142 L 45.1327433628319,87.1679056047193 L 45.2802359882006,87.7578761061942 L 45.5752212389381,88.3478466076691 L 45.1327433628319,88.7905604719764 L 45.1327433628319,89.0855457227139 L 44.6902654867257,89.527787610619 L 44.6902654867257,89.9705014749263 L 44.5427728613569,90.2654867256637 L 44.2477876106195,91.0031858407084 L 44.2477876106195,91.740412979351 L 44.5427728613569,91.740412979351 L 44.8377581120944,92.1831268436583 L 45.7227138643068,92.1831268436583 L 45.7227138643068,91.4454277286136 L 46.165191740413,91.5931563421834 L 46.4601769911504,91.740412979351 L 46.6076696165192,91.5931563421834 L 46.9026548672566,91.5931563421834 L 47.4926253687316,91.2976991150438 L 47.787610619469,91.2976991150438 L 48.377581120944,91.1504424778761 L 47.9351032448378,91.4454277286136 L 47.6401179941003,91.5931563421834 L 47.1976401179941,92.0353982300885 L 47.1976401179941,92.6253687315634 L 47.0501474926254,93.2153392330383 L 47.0501474926254,93.5103244837758 L 47.4926253687316,94.1002949852507 L 47.6401179941003,94.543008849558 L 48.9675516224189,94.543008849558 L 49.1150442477876,94.6902654867257 L 49.1150442477876,94.8375221238933 L 48.9675516224189,95.2802359882006 L 48.6725663716814,96.0174631268432 L 48.6725663716814,96.165191740413 L 49.1150442477876,96.4601769911504 L 50.4424778761062,96.4601769911504 L 50.4424778761062,97.197404129793 L 50.5899705014749,97.4928613569326 L 50.5899705014749,99.4100294985251 L 51.3274336283186,99.7050147492625 L 51.9174041297935,99.7050147492625 L 52.212389380531,99.5572861356927 L 52.5073746312684,99.5572861356927 L 52.8023598820059,99.7050147492625 L 52.6548672566372,99.4100294985251 L 52.9498525073746,98.9673156342178 L 53.834808259587,98.0828318584076 L 53.834808259587,97.197404129793 L 53.0973451327434,96.0174631268432 L 52.9498525073746,95.5752212389381 L 52.9498525073746,94.3952802359882 L 53.3923303834808,93.8053097345133 L 53.6873156342183,93.6575811209435 L 54.5722713864307,93.6575811209435 L 55.1622418879056,93.8053097345133 L 55.7522123893805,94.1002949852507 L 56.1946902654867,94.2475516224184 L 57.0796460176991,94.3952802359882 L 58.1120943952802,94.3952802359882 L 59.2920353982301,94.543008849558 L 59.5870206489676,94.543008849558 L 60.1769911504425,94.2475516224184 L 60.9144542772861,94.1002949852507 L 61.3569321533923,93.9530383480831 L 61.6519174041298,93.6575811209435 L 62.6843657817109,93.2153392330383 L 63.2743362831858,93.0676106194686 L 64.0117994100295,92.9203539823009 L 64.4542772861357,92.7730973451332 L 65.0442477876106,92.7730973451332 L 65.3392330383481,92.6253687315634 L 65.929203539823,92.330383480826 L 66.3716814159292,92.0353982300885 L 66.8141592920354,91.740412979351 L 67.2566371681416,91.1504424778761 L 67.551622418879,90.7077286135688 L 67.6991150442478,90.1177581120939 L 67.6991150442478,89.2332743362837 L 67.8466076696165,87.7578761061942 L 68.141592920354,85.5457227138643 L 68.2890855457227,83.1858407079646 L 68.5840707964602,82.0058997050147 L 69.0265486725664,80.9736873156347 L 69.6165191740413,80.5309734513274 L 70.2064896755162,80.0882595870202 L 70.9439528023599,79.9410029498525 L 71.8289085545723,80.23598820059 L 72.5663716814159,80.5309734513274 L 73.4513274336283,81.26820058997 L 74.3362831858407,82.0058997050147 L 74.9262536873156,82.4481415929199 L 76.2536873156342,83.1858407079646 L 78.023598820059,84.2180530973447 L 80.23598820059,85.3979941002945 L 82.0058997050147,86.1356932153392 L 82.3008849557522,86.1356932153392 L 82.5958702064897,85.9879646017694 L 84.2182890855457,85.9879646017694 L 84.6607669616519,85.5457227138643 L 85.1032448377581,85.5457227138643 L 87.4631268436578,83.4808259587021 L 87.4631268436578,83.0381120943948 L 88.4955752212389,82.1536283185846 L 88.3480825958702,81.7109144542773 L 88.9380530973451,81.26820058997 L 88.9380530973451,80.8259587020649 L 91.1504424778761,78.9083185840703 L 91.740412979351,78.9083185840703 L 91.8879056047198,78.613805309735 L 91.8879056047198,78.1710914454277 L 94.5427728613569,75.9584660766957 L 94.3952802359882,75.5162241887906 L 96.0176991150443,74.1885545722709 L 96.0176991150443,72.4186430678461 L 96.4601769911504,71.976401179941 L 96.4601769911504,71.6814159292035 L 98.5250737463127,69.7642477876111 L 98.377581120944,67.6988790560467 L 97.9351032448378,67.2566371681416 L 97.9351032448378,66.8143952802365 L 97.6401179941003,66.5189380530969 L 97.1976401179941,66.5189380530969 L 96.3126843657817,65.9289675516219 L 96.3126843657817,63.2745722713869 L 96.9026548672566,62.8318584070796 L 96.9026548672566,61.0619469026549 L 96.0176991150443,60.4719764011799 L 94.9852507374631,60.4719764011799 L 94.2477876106195,61.0619469026549 L 94.3952802359882,64.6017699115044 L 93.5103244837758,65.338997050147 L 89.5280235988201,65.338997050147 L 88.9380530973451,64.8967551622419 L 86.4306784660767,64.8967551622419 L 86.283185840708,64.7490265486721 L 86.1356932153392,63.5690855457222 z"  />

<path id="Hartlepool" d=" M 64.1592920353982,9.43952802359882 L 63.716814159292,9.73451327433628 L 63.4218289085546,10.1772271386435 L 62.8318584070796,10.3244837758112 L 62.3893805309734,10.1772271386435 L 62.2418879056047,10.7671976401185 L 61.6519174041298,11.0617109144538 L 61.0619469026549,11.5044247787611 L 60.6194690265487,11.5044247787611 L 60.1769911504425,12.2416519174037 L 59.4395280235988,12.8316224188786 L 58.7020648967552,13.2743362831858 L 58.259587020649,14.0115634218284 L 57.669616519174,14.0115634218284 L 57.0796460176991,13.5693215339233 L 56.6371681415929,13.4215929203535 L 56.047197640118,13.5693215339233 L 55.3097345132743,13.5693215339233 L 54.7197640117994,14.0115634218284 L 53.834808259587,14.0115634218284 L 53.3923303834808,14.4542772861357 L 53.834808259587,14.7492625368732 L 53.834808259587,15.0442477876106 L 53.5398230088496,15.3392330383481 L 53.5398230088496,15.7814749262532 L 53.834808259587,16.2241887905605 L 53.9823008849557,16.6669026548677 L 53.9823008849557,17.1091445427729 L 54.4247787610619,17.4041297935103 L 54.4247787610619,17.6991150442478 L 54.5722713864307,17.9941002949853 L 54.8672566371681,18.4368141592925 L 54.7197640117994,18.5840707964602 L 54.5722713864307,19.0267846607674 L 54.8672566371681,19.4690265486726 L 54.4247787610619,19.4690265486726 L 53.9823008849557,19.6167551622424 L 54.2772861356932,20.2067256637173 L 53.9823008849557,20.7966961651922 L 53.9823008849557,21.3866666666671 L 53.6873156342183,21.3866666666671 L 53.2448377581121,21.5339233038348 L 52.8023598820059,22.1238938053097 L 52.5073746312684,22.2711504424774 L 52.3598820058997,22.566607669617 L 52.3598820058997,22.8611209439523 L 52.0648967551622,22.8611209439523 L 51.0324483775811,23.0088495575221 L 51.0324483775811,23.598820058997 L 51.3274336283186,24.188790560472 L 50.7374631268437,24.7787610619469 L 51.1799410029499,25.221002949852 L 51.3274336283186,25.810973451327 L 50.8849557522124,26.2536873156342 L 50,26.8436578171091 L 49.4100294985251,27.1386430678466 L 49.2625368731563,27.7286135693215 L 49.5575221238938,28.023598820059 L 49.2625368731563,28.3185840707965 L 48.6725663716814,28.3185840707965 L 48.0825958702065,28.1708554572267 L 47.4926253687316,28.3185840707965 L 47.0501474926254,28.1708554572267 L 46.3126843657817,29.0562831858412 L 45.7227138643068,28.9085545722714 L 45.4277286135693,28.4663126843663 L 45.4277286135693,27.8763421828913 L 44.5427728613569,27.8763421828913 L 43.3628318584071,28.023598820059 L 41.8879056047198,28.3185840707965 L 42.4778761061947,28.7608259587016 L 43.3628318584071,29.2035398230088 L 44.2477876106195,29.2035398230088 L 44.9852507374631,29.4985250737463 L 45.7227138643068,30.5307374631264 L 45.7227138643068,31.858407079646 L 45.8702064896755,32.7433628318584 L 45.7227138643068,34.0705604719759 L 45.7227138643068,35.3982300884956 L 45.1327433628319,35.693215339233 L 45.4277286135693,36.4304424778756 L 45.4277286135693,37.7581120943953 L 45.1327433628319,38.49581120944 L 44.6902654867257,38.6430678466077 L 44.2477876106195,39.2330383480826 L 43.2153392330383,39.8230088495575 L 42.1828908554572,40.117994100295 L 42.4778761061947,40.7079646017699 L 42.4778761061947,41.2979351032448 L 42.1828908554572,41.8879056047198 L 41.2979351032448,42.4778761061947 L 41.2979351032448,42.9201179940998 L 41.0029498525074,43.3628318584071 L 41.2979351032448,44.1000589970497 L 41.5929203539823,44.6900294985246 L 41.0029498525074,45.2799999999995 L 41.8879056047198,45.4277286135693 L 42.330383480826,45.8699705014744 L 42.330383480826,46.6076696165192 L 42.4778761061947,47.1976401179941 L 43.0678466076696,48.2298525073742 L 42.6253687315634,48.6725663716814 L 43.0678466076696,49.2625368731563 L 43.0678466076696,49.7052507374636 L 42.6253687315634,49.8525073746313 L 42.0353982300885,49.409793510324 L 40.4129793510324,49.409793510324 L 40.4129793510324,50.4424778761062 L 40.2654867256637,50.5897345132739 L 39.2330383480826,50.4424778761062 L 38.0530973451327,50.7374631268437 L 37.7581120943953,50.4424778761062 L 37.0206489675516,50.2952212389385 L 36.4306784660767,50.2952212389385 L 35.693215339233,50.7374631268437 L 35.3982300884956,50.4424778761062 L 34.6607669616519,51.0324483775811 L 33.6283185840708,51.3274336283186 L 32.1533923303835,51.9174041297935 L 30.3834808259587,51.9174041297935 L 30.0884955752212,52.212389380531 L 30.23598820059,52.5073746312684 L 30.6784660766962,52.8023598820059 L 30.5309734513274,53.0973451327434 L 30.9734513274336,53.2450737463132 L 31.2684365781711,53.3923303834808 L 32.4483775811209,53.3923303834808 L 32.7433628318584,53.2450737463132 L 34.8082595870207,53.2450737463132 L 35.8407079646018,53.9823008849557 L 36.4306784660767,54.5722713864307 L 37.6106194690265,55.4572271386431 L 38.2005899705015,55.8994690265482 L 38.7905604719764,56.1949262536878 L 39.0855457227139,56.1949262536878 L 39.2330383480826,55.8994690265482 L 39.6755162241888,55.8994690265482 L 39.8230088495575,55.7522123893805 L 40.7079646017699,55.7522123893805 L 41.1504424778761,56.047197640118 L 41.4454277286136,56.1949262536878 L 41.8879056047198,56.3421828908555 L 42.1828908554572,56.6371681415929 L 42.4778761061947,56.7848967551627 L 42.9203539823009,56.7848967551627 L 43.8053097345133,57.2271386430678 L 44.2477876106195,57.8171091445428 L 44.5427728613569,58.4070796460177 L 44.6902654867257,58.8493215339228 L 44.9852507374631,59.4392920353977 L 45.1327433628319,59.4392920353977 L 45.5752212389381,58.7020648967552 L 46.165191740413,57.8171091445428 L 46.4601769911504,57.3748672566376 L 46.6076696165192,56.9321533923304 L 46.7551622418879,55.8994690265482 L 46.6076696165192,54.8672566371681 L 46.6076696165192,53.2450737463132 L 46.9026548672566,52.8023598820059 L 47.3451327433628,52.6551032448382 L 47.4926253687316,52.3596460176986 L 47.787610619469,52.3596460176986 L 48.2300884955752,52.5073746312684 L 48.9675516224189,52.5073746312684 L 49.1150442477876,52.3596460176986 L 50.5899705014749,52.3596460176986 L 50.8849557522124,52.5073746312684 L 51.0324483775811,52.9496165191736 L 51.0324483775811,53.3923303834808 L 51.9174041297935,53.9823008849557 L 52.0648967551622,54.425014749263 L 52.3598820058997,55.0149852507379 L 52.6548672566372,55.4572271386431 L 52.9498525073746,55.7522123893805 L 53.0973451327434,56.1949262536878 L 53.3923303834808,56.6371681415929 L 53.9823008849557,56.6371681415929 L 54.4247787610619,56.9321533923304 L 54.7197640117994,57.2271386430678 L 56.047197640118,57.2271386430678 L 56.047197640118,57.8171091445428 L 55.8997050147493,58.1120943952802 L 55.8997050147493,59.1447787610624 L 56.047197640118,59.4392920353977 L 56.047197640118,60.3247197640123 L 55.8997050147493,60.6192330383476 L 55.8997050147493,61.2092035398225 L 57.0796460176991,61.2092035398225 L 57.3746312684366,61.0619469026549 L 57.669616519174,60.9146902654872 L 57.8171091445428,60.7669616519174 L 57.9646017699115,60.9146902654872 L 58.259587020649,61.3569321533923 L 58.259587020649,61.6519174041298 L 58.7020648967552,61.6519174041298 L 58.9970501474926,61.3569321533923 L 59.2920353982301,61.2092035398225 L 59.5870206489676,61.0619469026549 L 59.882005899705,61.3569321533923 L 60.1769911504425,61.2092035398225 L 60.9144542772861,61.2092035398225 L 61.0619469026549,61.0619469026549 L 61.7994100294985,61.0619469026549 L 62.094395280236,61.2092035398225 L 62.6843657817109,61.3569321533923 L 63.1268436578171,61.7991740412975 L 63.716814159292,62.2418879056047 L 64.1592920353982,62.5368731563422 L 64.306784660767,62.2418879056047 L 64.8967551622419,62.0946312684371 L 65.1917404129794,62.0946312684371 L 65.3392330383481,62.3891445427724 L 65.3392330383481,62.8318584070796 L 65.6342182890855,63.1268436578171 L 66.5191740412979,63.1268436578171 L 66.8141592920354,62.8318584070796 L 67.1091445427729,62.684601769912 L 67.551622418879,62.8318584070796 L 67.9941002949852,62.684601769912 L 67.8466076696165,62.2418879056047 L 68.141592920354,61.9469026548673 L 68.4365781710914,62.0946312684371 L 68.8790560471976,62.2418879056047 L 68.7315634218289,62.3891445427724 L 68.7315634218289,62.8318584070796 L 68.5840707964602,62.9791150442473 L 68.4365781710914,63.2745722713869 L 68.8790560471976,63.5690855457222 L 69.1740412979351,63.5690855457222 L 69.4690265486726,63.1268436578171 L 69.9115044247788,63.1268436578171 L 70.2064896755162,62.8318584070796 L 70.5014749262537,62.5368731563422 L 71.0914454277286,62.5368731563422 L 71.6814159292035,62.0946312684371 L 72.2713864306785,62.0946312684371 L 72.5663716814159,62.2418879056047 L 72.8613569321534,62.2418879056047 L 73.1563421828909,62.5368731563422 L 73.4513274336283,62.5368731563422 L 73.598820058997,62.684601769912 L 73.8938053097345,62.2418879056047 L 74.3362831858407,61.7991740412975 L 74.188790560472,61.6519174041298 L 74.188790560472,60.9146902654872 L 74.6312684365782,60.7669616519174 L 74.9262536873156,60.7669616519174 L 75.0737463126844,60.6192330383476 L 75.6637168141593,60.4719764011799 L 75.811209439528,60.9146902654872 L 75.9587020648968,61.3569321533923 L 76.1061946902655,61.6519174041298 L 76.1061946902655,62.0946312684371 L 76.401179941003,62.2418879056047 L 76.5486725663717,61.9469026548673 L 76.6961651917404,61.9469026548673 L 76.9911504424779,62.3891445427724 L 77.1386430678466,62.3891445427724 L 77.1386430678466,61.9469026548673 L 77.2861356932153,61.6519174041298 L 78.023598820059,61.6519174041298 L 78.023598820059,62.0946312684371 L 78.6135693215339,62.0946312684371 L 78.6135693215339,62.0946312684371 L 78.6135693215339,62.2418879056047 L 78.4660766961652,62.8318584070796 L 78.4660766961652,63.1268436578171 L 78.6135693215339,63.4218289085546 L 78.9085545722714,63.2745722713869 L 79.0560471976401,63.1268436578171 L 79.0560471976401,62.9791150442473 L 79.4985250737463,62.5368731563422 L 79.9410029498525,62.5368731563422 L 79.9410029498525,63.1268436578171 L 79.646017699115,63.1268436578171 L 79.646017699115,63.4218289085546 L 79.9410029498525,63.4218289085546 L 81.7109144542773,63.5690855457222 L 81.858407079646,63.8645427728618 L 82.0058997050147,64.1590560471972 L 83.7758112094395,64.1590560471972 L 83.9233038348083,64.0117994100295 L 84.3657817109144,64.0117994100295 L 84.5132743362832,63.716814159292 L 85.2507374631268,63.716814159292 L 85.3982300884956,63.5690855457222 L 86.1356932153392,63.5690855457222 L 86.1356932153392,63.4218289085546 L 86.7256637168142,62.9791150442473 L 86.7256637168142,62.5368731563422 L 87.7581120943953,61.6519174041298 L 87.6106194690265,61.2092035398225 L 88.6430678466077,60.3247197640123 L 88.6430678466077,59.882005899705 L 89.6755162241888,58.9970501474926 L 89.6755162241888,58.5548082595875 L 89.9705014749263,58.4070796460177 L 90.4129793510324,58.2593510324479 L 91.0029498525074,58.8493215339228 L 94.5427728613569,58.7020648967552 L 94.9852507374631,59.1447787610624 L 96.6076696165192,59.1447787610624 L 96.7551622418879,58.8493215339228 L 96.7551622418879,56.7848967551627 L 96.3126843657817,56.3421828908555 L 96.165191740413,55.4572271386431 L 95.7227138643068,55.0149852507379 L 95.7227138643068,52.3596460176986 L 96.4601769911504,51.622418879056 L 97.9351032448378,51.622418879056 L 98.2300884955752,51.4751622418884 L 98.2300884955752,51.0324483775811 L 97.4926253687316,50.2952212389385 L 96.4601769911504,50.2952212389385 L 92.6253687315634,47.1976401179941 L 92.6253687315634,46.755398230089 L 91.5929203539823,45.8699705014744 L 91.5929203539823,45.4277286135693 L 91.0029498525074,44.9854867256642 L 91.0029498525074,44.5427728613569 L 90.5604719764012,44.1000589970497 L 90.5604719764012,43.2155752212394 L 89.9705014749263,42.7728613569322 L 89.9705014749263,41.8879056047198 L 89.5280235988201,41.4456637168146 L 89.5280235988201,40.5602359882001 L 88.9380530973451,40.117994100295 L 88.9380530973451,39.2330383480826 L 88.4955752212389,38.9380530973451 L 88.4955752212389,38.49581120944 L 87.4631268436578,37.6103834808255 L 87.4631268436578,37.1681415929204 L 86.8731563421829,36.7258997050152 L 86.8731563421829,36.283185840708 L 86.4306784660767,35.8404719764007 L 86.283185840708,31.4161651917409 L 85.8407079646018,30.9734513274336 L 86.283185840708,30.5307374631264 L 86.283185840708,29.6462536873161 L 86.8731563421829,29.2035398230088 L 86.7256637168142,28.4663126843663 L 87.0206489675516,28.1708554572267 L 87.6106194690265,28.1708554572267 L 87.7581120943953,27.8763421828913 L 87.7581120943953,27.5808849557517 L 88.3480825958702,26.9909144542768 L 88.3480825958702,25.810973451327 L 88.0530973451327,25.5164601769916 L 87.4631268436578,25.5164601769916 L 86.7256637168142,24.9264896755167 L 86.7256637168142,24.4837758112094 L 87.0206489675516,24.188790560472 L 87.4631268436578,24.188790560472 L 88.0530973451327,24.6310324483771 L 88.4955752212389,24.6310324483771 L 88.7905604719764,24.9264896755167 L 88.7905604719764,25.3687315634218 L 89.2330383480826,25.6637168141593 L 88.7905604719764,26.1064306784666 L 88.7905604719764,26.5486725663717 L 89.0855457227139,26.8436578171091 L 89.5280235988201,26.8436578171091 L 90.117994100295,27.2863716814164 L 90.5604719764012,27.2863716814164 L 91.1504424778761,27.7286135693215 L 92.0353982300885,27.7286135693215 L 92.330383480826,27.4336283185841 L 92.330383480826,26.9909144542768 L 92.9203539823009,26.5486725663717 L 92.9203539823009,25.221002949852 L 92.330383480826,24.7787610619469 L 92.330383480826,24.3365191740418 L 90.5604719764012,22.8611209439523 L 89.5280235988201,22.8611209439523 L 89.0855457227139,22.4188790560472 L 88.4955752212389,22.4188790560472 L 87.4631268436578,21.5339233038348 L 87.0206489675516,21.5339233038348 L 85.9882005899705,20.7966961651922 L 85.3982300884956,20.7966961651922 L 84.3657817109144,19.9112684365777 L 83.9233038348083,19.9112684365777 L 83.4808259587021,19.4690265486726 L 82.8908554572271,19.4690265486726 L 81.4159292035398,18.1413569321529 L 80.8259587020649,18.1413569321529 L 79.3510324483776,16.8141592920354 L 78.7610619469027,16.8141592920354 L 75.2212389380531,13.8643067846608 L 74.7787610619469,13.8643067846608 L 74.4837758112094,13.7170501474931 L 74.4837758112094,13.1270796460182 L 73.7463126843658,12.5371091445432 L 73.1563421828909,12.5371091445432 L 72.4188790560472,11.9471386430683 L 72.1238938053097,11.9471386430683 L 71.6814159292035,11.9471386430683 L 71.0914454277286,11.6516814159287 L 70.9439528023599,11.7994100294985 L 70.6489675516224,12.5371091445432 L 69.9115044247788,13.1270796460182 L 69.4690265486726,13.1270796460182 L 69.1740412979351,12.8316224188786 L 68.7315634218289,12.3893805309735 L 68.4365781710914,11.7994100294985 L 68.141592920354,11.2094395280236 L 68.141592920354,10.6194690265487 L 67.8466076696165,10.3244837758112 L 67.4041297935103,10.0294985250737 L 66.6666666666667,10.0294985250737 L 66.2241887905605,9.58725663716862 L 66.0766961651917,9.73451327433628 L 65.7817109144543,9.73451327433628 L 65.3392330383481,9.58725663716862 L 65.0442477876106,9.58725663716862 L 64.6017699115044,9.73451327433628 L 64.1592920353982,9.43952802359882 z" /></svg>
