<?xml version="1.0" encoding="UTF-8" standalone="no"?>
<!-- Created with Inkscape (http://www.inkscape.org/) -->
<svg xmlns:svg="http://www.w3.org/2000/svg" xmlns="http://www.w3.org/2000/svg" version="1.0" width="280" height="225" id="svg5810">
	<style>path{fill-opacity:1;display:inline;fill:#ffc8c8;stroke-width:1;stroke-miterlimit:4;stroke:#000000;stroke-opacity:1;stroke-dasharray:none;}</style>

  <defs id="defs5812"/>

<path id="Foyle" d="M 84.777847,55.333958 C 84.264499,53.855427 83.740002,52.379665 83.587715,50.811455 C 84.310258,50.062588 83.969435,49.042893 83.984421,48.113819 C 84.365084,47.65482 85.327807,46.964011 84.745048,46.383362 C 84.15179,45.947976 83.252072,45.560888 84.150164,44.890464 C 84.684284,44.082111 85.461669,43.419635 85.515131,42.387697 C 85.94101,41.570318 86.985319,41.17065 87.418025,40.299334 C 88.204596,38.958174 89.563446,38.143232 90.887192,37.402626 C 91.523539,37.783404 92.126472,38.32965 92.906642,37.99823 C 93.661915,37.829362 94.241048,37.192294 94.933647,36.847229 C 94.78235,37.50441 95.605679,38.347978 96.000379,37.92363 C 97.033659,37.95891 96.58771,36.842386 97.063133,36.266156 C 97.210765,35.414069 97.998809,35.358692 98.684868,35.561841 C 99.403145,35.88915 99.077648,36.635399 99.719993,36.398878 C 99.260251,37.226835 99.18773,38.199243 98.821411,39.06881 C 99.566437,39.031512 100.30688,38.951348 101.04299,38.830784 C 101.22724,38.142908 101.3968,37.451004 101.59839,36.767887 C 102.49334,36.316244 102.73752,37.046197 103.42449,37.04854 C 104.18532,37.058997 104.46389,36.192777 105.31418,36.717624 C 106.24519,36.834651 107.36358,36.2758 108.1071,37.126915 C 108.75781,37.32794 109.58694,37.046528 109.42469,38.075415 C 109.64222,38.772818 109.52425,39.500851 108.86089,39.899205 C 108.41872,40.316467 107.47704,40.663688 107.73014,41.353382 C 108.06759,41.772364 109.60308,42.052292 109.04071,42.575714 C 108.78907,43.165505 109.7859,43.880166 109.35172,44.619528 C 108.93519,45.517534 109.51637,45.81349 110.32603,45.971581 C 110.56405,47.29395 110.80208,48.61632 111.04011,49.93869 C 111.57192,49.391801 112.1203,48.877022 112.92837,48.865316 C 113.56407,48.858391 113.74367,50.465207 114.50461,49.658712 C 115.3607,48.846208 115.52262,49.680533 115.69604,50.487558 C 115.52183,51.600913 114.86919,52.576708 114.13445,53.429745 C 114.48206,54.235656 114.83827,55.040304 114.60508,55.931652 C 114.52037,56.976637 114.32173,58.032601 114.77213,59.026012 C 114.98949,59.675759 115.75518,59.982203 116.19735,60.491199 C 116.80102,60.66699 118.12127,60.465606 117.32185,61.379917 C 116.60871,62.324216 118.24457,61.718058 118.64364,62.358474 C 119.5221,62.592209 119.65702,63.254628 119.52972,64.068231 C 119.58822,65.001033 119.4144,65.918067 119.29169,66.83857 C 119.76486,67.020226 121.48955,66.842182 120.42421,67.466022 C 119.91515,68.005625 118.96584,68.329263 119.17649,69.221925 C 119.01316,70.491432 119.52515,71.773138 119.02646,73.004136 C 118.76239,73.682004 119.19764,74.507541 119.65562,74.975281 C 120.36973,75.2848 120.8886,75.775109 121.1222,76.529593 C 121.41573,77.115454 122.47012,77.65725 121.45264,78.106167 C 120.638,78.522701 119.56101,78.248849 118.66892,78.572987 C 117.85512,78.780745 117.1866,79.368954 116.32453,79.493581 C 115.34481,79.292125 114.44521,78.538098 113.41904,78.316299 C 112.95111,78.106577 112.04776,79.832511 112.07156,78.936265 C 111.99126,78.23148 112.40193,77.223257 111.42931,77.069959 C 110.0907,76.038778 108.99386,74.700797 107.63216,73.678365 C 106.84015,73.28681 107.61412,72.368249 107.60843,71.712068 C 107.92406,70.825052 106.49294,71.832806 105.99709,71.826029 C 105.24646,71.691997 104.58852,71.713901 104.28524,72.529853 C 104.15944,73.438491 102.6086,72.147415 103.22585,71.928096 C 103.94075,71.463974 104.52746,70.994732 103.52413,70.461983 C 103.05632,69.937576 102.21875,69.571391 102.47115,68.738803 C 102.87044,68.129414 103.39968,67.565017 103.14175,66.754908 C 103.44069,65.679223 102.37602,65.974583 101.67092,65.908411 C 100.62341,65.839061 99.662354,66.427964 98.662727,66.679886 C 98.2439,65.852843 97.299427,65.886098 96.520485,65.648438 C 96.243392,64.9135 96.276646,64.213046 96.733825,63.559696 C 97.171825,62.856498 97.321855,62.096061 97.186736,61.278943 C 97.48309,60.111004 96.442054,60.694994 95.755884,60.814124 C 94.884861,61.19453 94.09496,60.467089 93.267456,60.253174 C 93.458331,59.037715 92.754542,59.44683 92.020978,59.910009 C 91.154563,59.906868 91.31687,61.313611 90.493843,60.970962 C 89.446005,60.832768 88.415353,60.61058 87.396133,60.332516 C 86.812185,58.676901 86.15875,57.020023 85.014782,55.665667 C 84.935804,55.555097 84.856825,55.444528 84.777847,55.333958 z "  />

<path id="East_Antrim" d="M 223.94403,40.893681 C 224.67206,41.424951 225.74546,41.892348 226.13644,42.636086 C 226.07848,43.948332 225.19954,45.115154 225.10984,46.362656 C 225.69188,47.459832 224.36793,47.852685 224.73746,48.983718 C 224.33524,49.615227 224.19621,50.56975 223.32473,50.959336 C 223.49959,51.853907 222.80087,52.775006 222.99274,53.544491 C 223.28605,54.584813 224.6211,54.466782 225.13016,54.188592 C 226.41414,53.964657 225.68638,55.45312 226.3243,56.12738 C 227.29108,56.722344 227.66624,55.303848 228.62521,56.286064 C 228.83314,57.463264 230.432,56.757028 230.32466,58.005917 C 230.49052,58.967373 230.9081,59.831169 231.87825,60.173828 C 231.13056,61.322347 232.92137,61.51663 232.35429,62.554096 C 233.15646,63.352226 232.45016,64.419861 232.98265,65.1345 C 234.16525,65.522956 233.16147,67.219355 233.85941,67.36247 C 234.6112,67.45794 235.26198,68.313171 235.89902,68.770775 C 236.30698,68.139134 238.18878,68.390636 237.2397,69.348897 C 237.15535,70.145261 237.75431,71.099381 237.87427,71.9694 C 238.97364,72.262054 238.85224,72.726022 239.49922,73.402826 C 240.54222,73.670255 240.82558,74.772389 240.68523,75.724899 C 241.60802,76.191467 241.63866,77.199406 241.63734,78.105164 C 241.03008,78.724692 239.64792,78.911462 240.15059,80.071652 C 240.18754,81.33353 241.00112,81.388445 241.78536,81.879352 C 242.25484,82.963705 243.24079,82.688371 243.96195,83.175037 C 244.63687,83.106545 245.61445,82.543915 246.22219,83.566566 C 245.96112,84.32063 245.82903,84.86235 246.58539,85.860821 C 247.07391,87.130062 248.10184,88.132174 248.30841,89.530387 C 248.75979,90.636133 248.66931,88.313396 248.74989,87.883746 C 249.26342,86.960837 248.33988,86.128149 247.98471,85.405057 C 248.04328,84.211314 247.24535,83.069612 246.23918,82.468987 C 245.64029,81.71649 245.5617,80.657358 244.40605,80.448384 C 244.34594,79.653435 243.53604,79.074213 242.73619,78.552434 C 242.07377,78.235343 241.63985,76.23925 242.74812,76.99437 C 242.98723,75.637085 243.37557,75.238642 244.04565,76.650621 C 245.49452,77.774046 244.26541,75.943904 245.28349,75.915677 C 246.14377,75.961577 246.83711,76.827933 247.54514,77.310979 C 248.31457,78.133911 249.42467,78.748187 250.06509,79.611286 C 250.02093,81.756181 251.81158,83.420339 252.00413,85.482012 C 251.85446,87.228199 251.70478,88.974386 251.55511,90.720573 C 252.74276,91.206155 251.92788,92.351625 251.24348,92.896022 C 250.58889,93.485664 250.33107,94.474141 250.05754,95.138478 C 248.88951,95.263558 248.75752,96.874907 247.50867,96.829918 C 246.81911,97.423211 246.51726,98.690486 245.44576,98.575447 C 244.49608,98.969142 244.01199,99.785866 243.01625,98.940692 C 242.10489,99.190597 240.91379,99.479651 240.41588,100.43296 C 239.87937,101.41993 238.81984,101.43702 237.83301,101.35242 C 236.90945,101.68461 236.60407,103.08461 235.57098,103.43803 C 233.78119,104.40743 232.52354,106.06277 231.00548,107.38243 C 231.12245,106.4895 229.51774,106.21609 228.98852,106.98989 C 228.39125,107.5321 226.96696,107.87731 226.54857,107.15922 C 226.26362,106.22206 225.5454,105.01712 227.09978,105.21673 C 227.84597,104.98052 228.9812,104.64797 228.78391,103.65334 C 229.57311,102.66995 230.18635,103.04696 231.15617,103.08776 C 232.23236,103.03293 231.531,101.43633 231.28183,100.79903 C 230.75072,100.24891 229.55425,100.67896 229.69611,99.264909 C 230.48131,98.954247 230.8464,98.022451 230.96636,97.048823 C 231.13168,96.107806 232.17612,95.4023 231.59993,94.393847 C 230.88491,94.096598 230.18597,93.138433 231.24769,92.541248 C 231.39629,91.730523 230.4601,90.453951 231.85487,90.295877 C 232.2788,89.744911 230.96378,88.649616 230.13272,89.133728 C 229.32542,89.686315 228.50132,90.630506 227.76773,89.463593 C 226.72852,90.108902 226.55514,87.966413 225.84405,89.296601 C 225.31594,90.222801 223.88077,89.405593 224.06242,88.443179 C 223.6584,87.977062 222.48176,90.29958 222.13755,89.188808 C 221.76816,88.271675 221.29574,87.464889 220.24504,87.277393 C 219.98922,86.325568 220.54437,85.042307 220.08076,84.003259 C 219.92482,82.888993 219.38063,81.903673 218.94547,80.882141 C 219.77232,80.1667 220.47567,79.827087 221.30649,80.671241 C 222.28652,81.795648 222.84662,79.245259 223.42088,80.24109 C 223.86689,81.540624 224.99818,80.048538 225.92516,80.295127 C 227.0928,80.723388 227.27103,79.182109 226.91171,78.499556 C 226.02944,77.593549 225.33198,76.562296 224.81679,75.407532 C 223.84912,76.139813 223.18061,75.425766 222.51587,74.693451 C 222.15759,76.191896 221.35577,75.345571 220.4816,75.838047 C 219.74757,76.46722 219.00738,74.857835 218.63067,74.307007 C 218.06247,73.369706 218.62658,72.460951 218.78055,71.624652 C 217.97488,70.879792 218.19179,69.884322 218.30967,68.91312 C 218.02966,68.191808 216.4233,67.449512 217.38406,66.763471 C 218.59135,65.810537 218.85482,64.240357 218.6281,62.792122 C 219.321,62.269277 219.65492,61.093232 219.27045,60.44399 C 218.47487,60.053518 217.21806,60.221445 217.00471,59.148633 C 216.31401,57.973216 216.19582,56.405562 214.86698,55.727403 C 213.59858,55.346017 215.09402,53.853898 213.50752,53.970629 C 212.1472,53.87012 211.94605,53.366812 212.96443,52.439729 C 213.92327,52.136976 214.77238,51.77929 214.65632,50.598386 C 215.73947,49.702625 216.40067,48.475632 217.04126,47.241055 C 217.78076,46.685071 218.80516,46.334432 219.37884,45.658926 C 219.41255,44.398298 219.91692,44.047635 220.93527,44.251598 C 221.42264,43.061968 222.68627,42.627203 223.78534,42.163155 C 223.83824,41.739997 223.89113,41.316839 223.94403,40.893681 z "   />


<path id="North_Down" d="M 267.97894,119.12507 C 267.67535,119.76288 267.56504,120.53703 266.91569,120.93097 C 266.58412,121.48891 266.21052,120.74479 265.85551,120.57643 C 265.4684,120.28366 265.1297,119.86437 264.59223,119.96468 C 264.10402,119.87126 263.65158,119.93481 263.257,120.25233 C 262.79454,120.51131 262.33207,120.7703 261.8696,121.02928 C 261.47289,120.13007 261.07618,119.23086 260.67947,118.33165 C 260.26022,118.24375 259.52926,118.46389 259.6949,117.79796 C 259.50526,117.24866 259.80049,116.94205 260.28661,116.73098 C 261.07066,116.37805 260.4361,116.39096 259.92555,116.37189 C 259.40988,116.33751 258.89421,116.30313 258.37854,116.26875 C 258.29094,115.91568 258.74314,115.03661 258.15453,115.17175 C 257.66679,115.23363 257.10705,115.14227 256.66127,115.29347 C 256.04453,116.0439 255.29612,116.66068 254.57011,117.3002 C 254.1205,116.85059 253.67089,116.40099 253.22128,115.95138 C 252.53257,116.31065 251.93986,116.93397 251.11744,116.9255 C 250.68361,116.94629 250.11786,117.27835 249.94153,116.69151 C 249.59827,116.27057 249.33554,115.72342 248.94154,115.382 C 248.34601,115.29958 247.73872,115.01723 247.16698,115.33911 C 246.64126,115.399 246.31359,115.6607 246.26114,116.20287 C 246.24278,116.94904 245.48262,115.84284 245.30557,116.24917 C 245.06187,116.58279 245.05423,117.27733 244.65919,117.37954 C 243.75769,117.37954 242.85619,117.37954 241.9547,117.37954 C 241.77854,117.07391 241.93891,116.04004 241.4493,116.41272 C 240.55136,116.86468 239.71792,117.48996 238.69035,117.59364 C 238.34136,117.56218 237.49438,118.10122 237.53045,117.62863 C 237.69767,117.06517 237.54344,116.73944 236.92322,116.75835 C 236.06896,116.55591 235.20466,116.40576 234.33784,116.26875 C 234.77735,115.23563 235.0098,114.08341 235.59115,113.1323 C 236.18517,112.65462 236.93492,112.41198 237.55643,112.0024 C 237.98215,111.49845 238.2407,110.79635 238.92753,110.60187 C 239.40134,110.41255 239.81913,110.1561 240.06374,109.69214 C 240.42703,109.46684 240.97871,109.57746 241.41462,109.48165 C 242.05182,109.4433 242.62874,109.08519 243.20316,108.84133 C 243.71867,108.37285 244.25624,107.94062 244.93656,107.74299 C 245.56067,107.55779 246.04608,107.13091 246.55655,106.74769 C 246.7952,107.14712 246.74269,107.84483 247.31074,107.90681 C 247.83221,108.03095 248.27203,108.28413 248.60087,108.71267 C 248.85913,108.63573 249.26007,108.2612 249.75589,108.58458 C 250.22375,108.74869 250.77141,108.49531 251.1584,108.88993 C 251.73762,108.77022 252.3221,108.67848 252.90392,108.57256 C 252.93919,109.01179 253.58871,109.38612 253.78644,108.87529 C 254.0786,108.41914 254.69288,108.31835 255.1255,108.01716 C 255.31037,108.34384 255.11992,109.30508 255.65439,109.0407 C 256.1236,108.87004 256.61992,108.81608 257.10907,108.73124 C 257.29037,108.05438 257.09182,107.29325 257.42642,106.66835 C 257.98543,106.80705 258.62722,106.79359 258.96668,107.33583 C 259.23903,107.84573 259.76979,107.65024 260.23849,107.62414 C 260.33445,107.24448 260.15546,106.48958 260.65851,107.2028 C 260.97008,107.5753 261.54578,107.24922 261.97468,107.3114 C 262.3697,107.39936 262.79295,107.73495 263.08205,108.01038 C 263.22626,108.61467 263.43798,109.18406 263.88624,109.63118 C 264.24547,110.09818 264.6047,110.56518 264.96393,111.03217 C 265.45673,110.93546 265.86069,111.14381 266.23915,111.43975 C 266.70066,111.65777 266.37342,112.30877 266.47144,112.72632 C 266.65768,112.96849 267.35124,112.74648 267.50143,113.31816 C 267.66368,113.71614 267.4206,114.23602 267.42355,114.68191 C 267.15367,115.37891 266.92811,116.0889 266.78882,116.82415 C 267.20902,117.15286 267.44407,117.6771 267.56976,118.1685 C 267.49529,118.63316 267.22827,119.23877 267.94963,119.12088 L 267.97894,119.12507 z " />

<path id="Belfast_North" d="M 233.22707,113.25375 C 231.85423,112.64291 230.52995,111.93027 229.1806,111.27019 C 229.39189,110.89446 229.56087,110.48505 229.93216,110.23675 C 230.14187,110.03031 230.44053,109.87782 230.44665,109.54788 C 230.65578,108.693 230.9105,107.84856 231.08482,106.98572 C 230.68811,106.80059 230.2914,106.61545 229.89468,106.43032 C 229.29393,106.81288 228.68009,107.17408 228.06982,107.54111 C 227.61112,107.53287 227.1312,107.44897 226.68533,107.48647 C 226.3534,107.71626 226.02148,107.94606 225.68956,108.17585 C 225.74245,108.91638 225.79534,109.6569 225.84824,110.39743 C 225.54987,110.60325 225.29682,110.90462 224.96995,111.05036 C 224.62474,111.14431 224.23634,111.16838 223.91692,111.30408 C 223.74787,111.56626 223.57883,111.78295 223.40977,111.3958 C 223.01558,110.9174 222.65022,110.41667 222.27785,109.92138 C 222.27368,109.77396 222.43775,109.0853 222.27728,109.44075 C 221.91978,110.11102 221.59108,110.80238 221.2157,111.45957 C 220.68649,111.98603 220.18514,112.54482 219.55235,112.95114 C 219.05914,113.31649 218.56592,113.68183 218.07271,114.04717 C 218.41652,114.44388 218.76034,114.84059 219.10416,115.2373 C 219.93618,115.28176 220.77367,115.27997 221.58677,115.4846 C 222.05556,115.51707 222.42235,115.83576 222.83324,116.03072 C 223.29368,117.01688 223.76832,117.99612 224.2614,118.96639 C 224.68456,118.99284 225.10771,119.01928 225.53087,119.04573 C 225.90113,118.64902 226.2714,118.25231 226.64166,117.8556 C 226.78841,118.48727 226.91122,119.124 227.03838,119.75981 C 227.26272,119.93366 227.52152,119.92859 227.78824,119.88245 C 228.03578,119.84019 228.36426,119.93515 228.45229,119.62249 C 228.72941,119.15344 229.15283,118.74911 229.21705,118.18588 C 229.27166,117.88728 229.3498,117.60103 229.59733,117.40369 C 230.79561,116.01012 232.06202,114.67532 233.22707,113.25375 z" />

<path id="Belfast_West" d="M 227.35574,119.91849 C 227.05438,119.85578 226.97073,119.62442 226.94943,119.34474 C 226.84087,118.8496 226.73963,118.35294 226.64166,117.8556 C 226.2714,118.25231 225.90113,118.64902 225.53087,119.04573 C 225.10771,119.01928 224.68456,118.99284 224.2614,118.96639 C 223.76834,117.99611 223.2937,117.01687 222.83324,116.03072 C 222.39966,115.81438 222.0032,115.49387 221.50152,115.46862 C 220.7424,115.27814 219.95989,115.28335 219.1835,115.2373 C 218.97192,114.99927 218.76035,114.76124 218.54877,114.52322 C 218.54877,115.2373 218.54877,115.95138 218.54877,116.66546 C 218.37688,116.83316 218.29818,117.16339 218.0675,117.22855 C 217.51384,117.27888 216.96018,117.32921 216.40652,117.37954 C 216.19494,117.88204 215.98336,118.38454 215.77177,118.88704 C 215.21638,118.99283 214.661,119.09862 214.10561,119.20441 C 214.03339,119.5364 213.7624,119.86839 213.96154,120.20038 C 214.04451,120.51496 214.21666,120.83587 214.2453,121.14659 C 214.0665,121.5042 213.88769,121.86181 213.70889,122.21941 C 213.85508,122.37872 214.35382,122.46751 214.0672,122.71338 C 213.81762,122.9278 213.89606,123.15205 214.08146,123.37951 C 214.13872,123.59858 214.52505,123.87142 214.32713,124.0488 C 214.20239,124.22423 213.76686,124.40124 213.85268,124.57559 C 214.11119,124.80013 214.41498,124.99028 214.50519,125.34259 C 214.63646,125.6239 214.76774,125.90521 214.89902,126.18652 C 215.18994,126.16007 215.48086,126.13363 215.77177,126.10718 C 216.05239,126.45159 216.21671,126.92234 216.65718,127.0931 C 216.84876,127.25295 217.20477,127.31218 217.28401,127.54077 C 217.30888,127.98856 217.33375,128.43636 217.35863,128.88416 C 217.72889,128.61968 218.09916,128.35521 218.46942,128.09074 C 218.56745,127.79564 218.60618,127.46301 218.73967,127.19035 C 219.08123,126.92707 219.38737,126.63185 219.60111,126.2533 C 219.77138,126.1188 219.85409,125.64252 220.09082,125.76742 C 220.31525,125.84827 220.59867,126.08423 220.78611,126.06776 C 220.95026,125.70895 221.01468,125.28438 221.35785,125.04361 C 221.83706,124.56789 222.28765,124.05898 222.86609,123.70004 C 223.14683,123.43715 223.51239,123.23809 223.73944,122.93481 C 223.9713,122.42843 224.12331,121.87524 224.51852,121.46464 C 224.69016,121.28488 224.8192,120.98775 225.01692,120.87981 C 225.23794,120.874 225.58313,121.11709 225.72469,120.95199 C 225.86778,120.69527 225.9444,120.35374 226.128,120.14869 C 226.53724,120.07196 226.94649,119.99522 227.35574,119.91849 z " />

<path id="Belfast_East" d="M 235.13129,114.04717 C 234.49655,113.7827 233.86181,113.51823 233.22707,113.25375 C 232.05799,114.67975 230.78804,116.01862 229.586,117.41656 C 229.38991,117.58857 229.27928,117.80544 229.24759,118.06375 C 229.17344,118.39711 229.10578,118.73343 228.86275,118.98977 C 228.66496,119.26458 228.47453,119.54416 228.30785,119.83915 C 228.56179,119.92455 228.84222,119.96929 228.98739,120.22167 C 229.54424,120.77805 229.98571,121.42876 230.45009,122.06073 C 230.48529,122.3858 230.59914,122.7297 230.58633,123.04328 C 230.22355,123.53563 229.86077,124.02799 229.49799,124.52034 C 229.60378,124.91705 229.70956,125.31376 229.81535,125.71047 C 230.00031,125.61746 230.16793,125.26664 230.37419,125.49037 C 230.71686,125.69597 231.05952,125.90158 231.40219,126.10718 C 231.81493,125.97773 232.26104,125.91702 232.65283,125.74443 C 232.84424,125.60088 233.03565,125.45732 233.22707,125.31376 C 233.72957,125.71047 234.23207,126.10718 234.73457,126.50389 C 235.06383,126.37067 235.44132,126.31549 235.74015,126.13305 C 235.9868,125.8864 236.23344,125.63975 236.48009,125.3931 C 236.26374,125.30873 235.97221,125.26871 236.11621,124.97177 C 236.18845,124.46317 236.19262,123.9375 236.4321,123.47085 C 236.5505,123.29705 236.51859,122.95335 236.74883,122.90598 C 237.02645,122.81547 237.36532,122.79418 237.60446,122.66018 C 237.74861,122.32551 237.84546,121.95453 238.01818,121.64178 C 238.29891,121.43761 238.57964,121.23345 238.86037,121.02928 C 238.86037,120.65902 238.86037,120.28875 238.86037,119.91849 C 239.12484,119.8127 239.38931,119.70691 239.65378,119.60112 C 239.52154,119.2573 239.3893,118.91349 239.25706,118.56967 C 239.39248,118.41673 239.75655,118.37315 239.72285,118.13934 C 239.69983,117.88607 239.6768,117.63281 239.65378,117.37954 C 238.9397,117.53823 238.22562,117.69691 237.51154,117.8556 C 237.53798,117.53823 237.56443,117.22086 237.59088,116.90349 C 236.51242,116.66127 235.43197,116.42935 234.33784,116.26875 C 234.60706,115.52984 234.89282,114.79686 235.13129,114.04717 z "   />

<path id="Belfast_South" d="M 227.35574,119.91849 C 227.70562,119.91471 228.06802,119.80654 228.40948,119.87303 C 228.63083,119.93521 228.85175,119.99808 228.97607,120.20922 C 229.46384,120.70142 229.87289,121.25798 230.27419,121.82087 C 230.54823,122.08647 230.49069,122.49185 230.57923,122.83565 C 230.68419,123.08657 230.39122,123.24225 230.29102,123.44406 C 230.02668,123.80282 229.76233,124.16158 229.49799,124.52034 C 229.60378,124.91705 229.70956,125.31376 229.81535,125.71047 C 229.98817,125.63777 230.14588,125.28574 230.33257,125.46978 C 230.58332,125.62936 230.83407,125.78893 231.08482,125.9485 C 231.08482,126.63613 231.08482,127.32376 231.08482,128.01138 C 231.24672,128.14073 231.58391,128.14229 231.5826,128.3906 C 231.62825,128.68735 231.67391,128.98411 231.71956,129.28087 C 231.19061,129.59824 230.66167,129.91561 230.13272,130.23299 L 229.1806,130.31232 C 228.94258,130.471 228.70456,130.62969 228.46654,130.78838 C 227.91568,130.40974 227.40362,129.96666 226.78083,129.70749 C 226.49759,129.54867 226.16718,129.43491 225.91308,129.24824 C 225.79567,129.02132 225.72476,128.74996 225.57827,128.55082 C 225.12765,128.34429 224.70941,128.04336 224.2029,127.9997 C 223.93776,127.88986 223.79041,127.94489 223.82221,128.25062 C 223.7987,128.54904 223.70825,128.86298 223.7258,129.15189 C 223.93078,129.45936 224.13576,129.76683 224.34074,130.0743 C 223.91596,130.42225 223.40732,130.68274 223.09466,131.14766 C 222.95462,131.31882 222.81458,131.48998 222.67455,131.66113 C 222.67455,131.31732 222.67455,130.9735 222.67455,130.62968 C 222.27784,130.70903 221.88113,130.78837 221.48442,130.86771 C 221.45797,130.52389 221.43152,130.18007 221.40508,129.83626 C 221.16705,129.67758 220.92902,129.5189 220.69099,129.36021 C 220.74389,129.14863 220.79679,128.93705 220.84969,128.72546 C 220.66456,128.56678 220.47943,128.4081 220.2943,128.24942 C 220.48336,127.53005 220.65465,126.80553 220.7836,126.07402 C 220.94756,125.72221 221.00746,125.30177 221.34021,125.06126 C 221.81159,124.60586 222.23511,124.09397 222.80089,123.75003 C 223.10582,123.49404 223.44049,123.25655 223.72006,122.98002 C 223.95498,122.49017 224.08604,121.93943 224.4651,121.53409 C 224.63522,121.31293 224.80535,121.09176 224.97548,120.8706 C 225.21351,120.92349 225.45153,120.97639 225.68956,121.02928 C 225.8218,120.73836 225.95404,120.44744 226.08627,120.15652 C 226.50943,120.07717 226.93259,119.99783 227.35574,119.91849 z " />

<path id="South_Antrim" d="M 175.86267,88.578331 C 175.03753,89.299422 175.91554,90.25399 175.30951,90.955235 C 174.84763,91.783128 174.08701,92.472864 173.8791,93.418205 C 174.63279,92.966217 175.59662,92.033943 175.50225,93.520313 C 175.98018,94.447687 175.57537,95.12714 174.81691,95.728432 C 175.25258,96.387568 175.54542,97.069685 174.67255,97.702682 C 174.73284,98.527222 174.47228,99.588656 175.62463,99.606895 C 176.32327,100.25724 177.13267,100.6141 177.86178,99.804836 C 178.7879,99.69605 179.12435,101.04624 179.87029,101.05869 C 180.67687,100.4573 181.68269,101.64591 182.25259,100.95242 C 182.8477,100.17747 183.68615,101.81002 184.46917,101.52155 C 185.38588,101.56053 185.77695,100.3445 186.57202,100.68674 C 187.65367,100.99057 188.38658,99.595223 189.45267,99.530677 C 190.31745,99.278075 191.15862,99.325466 191.7257,100.10279 C 192.13987,99.790797 192.73977,99.192184 193.63531,99.844917 C 194.02001,99.056247 194.36264,97.824314 194.95331,99.206498 C 195.4819,100.39589 195.82671,98.341485 196.77706,99.427928 C 197.73578,99.544416 197.96471,100.48296 198.39584,101.19374 C 196.10352,104.13299 194.23643,107.38504 191.73109,110.1594 C 191.136,110.8384 190.63679,111.54505 190.93928,112.48286 C 191.22186,113.57793 190.60506,114.56571 190.13117,115.50382 C 189.43506,116.14279 189.02845,116.94904 188.79544,117.8556 C 189.57135,118.27545 190.56489,117.55295 191.17679,118.13867 C 191.77804,118.89358 192.47503,117.3763 193.37788,117.72476 C 194.45533,117.68093 193.37947,118.90004 194.2552,119.5693 C 194.08554,120.45155 195.31949,120.62224 196.00566,120.72442 C 197.02269,121.18229 197.5991,120.48444 197.63892,119.4857 C 197.65377,118.63042 199.36838,118.29793 199.20185,119.46349 C 199.63769,119.81341 200.45497,118.34752 201.31089,118.8077 C 201.91774,118.38238 202.75858,117.99017 203.59063,118.16251 C 204.50648,118.7675 204.64582,117.15299 205.62636,117.40745 C 206.31462,117.46434 204.96374,115.52297 206.19864,115.8351 C 207.08047,115.86972 208.26133,116.2577 208.83211,115.40226 C 209.56645,114.57948 210.30018,115.70247 211.20909,115.47223 C 211.53757,114.73738 212.73694,115.40395 213.14749,115.88774 C 214.09052,116.82684 214.9211,117.86587 215.77177,118.88704 C 216.11139,118.07833 216.27424,117.02794 217.39662,117.28954 C 218.47707,117.50537 218.68888,116.34732 218.54877,115.52925 C 218.95266,114.57611 217.51263,113.98923 218.75746,113.53995 C 220.07799,112.6297 221.40418,111.60428 221.96554,110.04196 C 222.51169,108.55605 222.11442,110.37988 222.95956,110.83035 C 223.50595,112.05525 223.70127,111.32389 224.6384,111.1214 C 225.59474,110.9975 226.09407,110.1695 225.76431,109.26433 C 225.25603,108.26545 226.35982,107.91868 226.67455,107.32756 C 226.67105,106.67269 225.41761,105.27502 226.5673,105.30548 C 227.36347,105.24074 228.32121,104.85961 228.78391,104.30474 C 228.54722,103.57683 229.76794,102.5534 230.32074,103.02823 C 231.24005,103.54153 232.04407,102.87084 231.66808,101.85479 C 231.54572,100.77148 230.84652,100.44553 230.01101,100.3441 C 229.22602,99.252995 230.23344,99.090855 230.63636,98.321689 C 230.86196,97.280485 231.14168,96.261972 231.7989,95.401756 C 232.0304,94.273088 230.88426,94.228927 230.72506,93.470294 C 230.98473,92.721721 231.56825,92.138246 231.0795,91.146186 C 230.74637,90.250963 232.93415,90.408761 231.5898,89.495109 C 231.11125,88.642458 229.89618,89.172257 229.31222,89.695124 C 228.522,90.807654 228.00181,89.008435 227.05612,89.590362 C 226.55707,88.568664 226.05372,88.861204 225.39937,89.741288 C 224.45835,89.785677 223.99571,89.186446 224.02338,88.260963 C 223.42797,88.460908 222.53872,90.076318 222.1601,89.232027 C 221.75595,88.454926 221.48835,87.523484 220.4742,87.435827 C 219.74146,87.069905 220.43002,85.787508 220.28677,85.041475 C 219.67814,84.686844 218.55651,84.920687 217.76847,85.084811 C 216.77208,84.963758 216.32004,85.640538 216.19905,86.216127 C 215.36968,85.912729 214.58382,85.091826 213.68294,85.638748 C 212.83274,85.905935 211.9574,86.074989 211.09061,86.277405 C 210.66412,85.513499 210.67652,84.714918 210.93192,83.897141 C 210.27003,83.220386 209.40013,83.019707 208.55568,83.507086 C 207.58463,84.207403 207.20095,83.815634 207.20284,82.707008 C 206.02924,83.413067 204.65247,82.469213 203.49298,83.209385 C 202.90306,83.698816 201.45282,83.173398 201.58376,84.223477 C 201.57905,85.190844 201.47952,86.068047 200.2901,85.908806 C 199.53816,85.609835 198.3643,87.26375 198.27411,86.3295 C 198.13052,85.503749 196.7896,85.598147 196.15236,85.134261 C 195.25148,84.931775 194.70641,83.603085 194.83135,85.205972 C 195.05674,86.592555 194.38883,86.189161 193.52169,85.965914 C 192.74972,87.065599 192.32511,86.052731 191.66871,85.554472 C 190.67029,85.907652 190.16953,84.406554 189.75091,85.71697 C 189.26955,86.138682 188.73736,84.509057 188.23626,84.134029 C 187.76836,83.580978 186.48631,84.006633 186.01347,84.536879 C 185.09453,85.17337 185.00662,86.488736 183.92982,86.928339 C 183.38033,87.883963 182.49812,87.487713 181.65046,87.23187 C 180.24603,86.674754 178.73369,86.267058 177.52885,85.325302 C 177.1477,86.104266 176.90539,87.061059 175.84427,86.969131 C 174.93958,86.917356 175.55512,88.19948 175.86267,88.578331 z "   />

<path id="Strangford" d="M 231.40219,126.10718 C 230.84136,125.96878 230.94702,127.87622 231.34667,128.14231 C 232.15473,128.8331 231.471,129.71437 230.58991,129.95867 L 228.25664,131.44038 C 228.73596,132.10936 227.56939,133.63126 228.34516,133.41922 C 229.33515,133.01563 229.44497,134.52494 230.15252,134.94313 C 231.05051,135.56306 230.07844,136.55463 229.97403,137.37376 C 228.95087,138.04147 231.55858,137.04995 231.44176,138.12733 C 231.98299,138.8384 231.23986,139.75591 232.11099,140.38046 C 233.48723,140.70855 231.75361,141.57057 232.27046,142.30746 C 233.19105,142.6856 232.74335,143.95048 233.9096,143.97352 C 234.8843,144.17666 235.64418,144.8663 236.55943,145.22865 C 237.27137,144.65955 238.01775,143.61308 238.5975,144.87603 C 239.22621,144.73881 239.97421,143.38778 239.46206,145.04506 C 239.05461,146.16606 240.33697,147.16774 241.41496,147.03031 C 242.26236,147.12307 241.1492,149.11466 242.5249,148.70662 C 242.8605,149.30811 242.8201,150.46757 242.76281,151.28519 C 242.36622,152.39739 243.78965,152.08115 243.22812,153.37934 C 242.85138,154.73458 243.45324,154.74016 244.50391,154.12673 C 245.17402,154.24103 245.40369,156.03401 245.70491,154.25864 C 245.80979,153.16124 247.2054,153.85661 247.92434,153.3308 C 248.96193,152.67889 248.59525,154.76641 249.81204,154.04204 C 250.91803,153.14693 250.93491,153.82477 250.7641,154.94197 C 251.46433,155.39189 252.45194,155.63039 252.67563,156.60398 C 252.5098,157.22443 253.7638,158.58227 253.93515,157.4677 C 254.00314,156.64724 255.37766,156.21197 254.94379,155.46073 C 254.18074,154.61511 256.81244,155.08667 255.68089,154.03563 C 255.08655,152.77619 256.51353,152.88716 256.49158,152.2521 C 256.87252,151.21815 255.3094,150.75718 256.02122,150.06813 C 256.54489,149.35929 257.32875,148.68477 256.40028,147.9346 C 256.84708,147.21471 258.15197,148.09592 258.51497,147.62292 C 258.27249,146.57073 258.36487,145.40336 258.04258,144.40577 C 257.6494,143.28903 256.57695,144.09914 255.91708,143.91672 C 254.7475,143.16766 256.25974,142.39572 255.98131,141.66208 C 255.66017,142.00927 254.2126,142.8224 254.88672,141.53476 C 256.15569,140.98263 254.0762,139.84077 255.08858,139.91272 C 256.0119,140.16115 256.73741,139.11947 256.31564,138.32588 C 256.61454,137.73119 258.10511,136.78299 257.62098,136.42058 C 257.07752,136.23191 255.68817,137.9228 256.027,136.59347 C 256.10493,135.71708 255.92516,135.38122 256.90733,134.88864 C 256.25029,133.83715 255.80685,134.99896 255.24687,135.00607 C 254.062,135.23248 255.14704,133.21182 253.77669,133.88272 C 253.40782,132.68845 251.92618,134.22479 251.83774,133.01272 C 251.85701,131.78583 250.79683,132.0695 250.11384,131.53065 C 249.53737,131.01055 248.02194,130.8519 249.3462,130.11556 C 249.61485,129.26051 251.81238,129.93229 250.9781,129.47777 C 249.97605,129.0014 249.85915,128.18475 250.1839,127.19833 C 250.42814,126.6731 250.21154,124.54756 250.80945,125.25047 C 251.38178,125.66353 250.94359,123.37883 252.05331,123.71 C 252.74087,123.74767 253.59553,124.46861 254.04409,125.03018 C 254.29989,125.85772 255.45743,125.8066 255.97942,126.55229 C 256.7836,126.82545 257.55819,127.39316 258.09726,127.67057 C 258.99702,127.30183 259.14307,128.91592 259.47611,129.29703 C 260.45045,129.23755 260.681,130.44464 260.91748,131.18507 C 261.80098,131.25861 261.99955,132.43652 261.71091,133.16864 C 260.70791,133.59872 263.33196,133.6732 262.50433,132.5284 C 262.53465,131.33476 263.74915,131.78887 264.05425,132.64335 C 264.4718,133.30949 264.2184,134.19842 264.72592,134.90185 C 264.59692,136.09351 264.99825,137.23473 265.59866,138.24654 C 264.57518,139.23295 266.66089,138.78508 265.74588,139.99226 C 265.20728,140.68969 267.42848,141.08373 265.8367,141.65825 C 265.83158,142.58365 266.06,143.68419 265.07104,144.18332 C 263.65963,144.62322 264.10754,145.00813 265.32748,144.83597 C 266.21777,144.52373 266.77766,145.80136 265.81251,146.33001 C 265.87686,147.01836 266.4849,147.8546 265.91605,148.7197 C 265.14931,147.66606 264.57092,148.51062 264.10993,149.32901 C 263.69523,150.22265 263.10359,149.99339 262.84811,150.67093 C 262.12655,150.6579 262.55728,152.0655 261.78174,152.53748 C 261.23573,153.39569 261.32228,154.68851 262.2663,155.22575 C 261.92235,156.50137 262.647,156.46597 263.66585,156.38468 C 263.2597,156.96934 264.09784,157.37031 264.45545,158.15426 C 265.06851,159.11441 264.9954,160.24029 265.09467,161.31349 C 265.31927,162.34156 266.46377,160.5052 266.74963,162.08956 C 266.99933,162.73527 266.31664,163.62999 266.3566,164.44819 C 266.41306,165.28678 268.12711,164.93208 267.91651,164.01059 C 267.96193,163.25898 268.34271,165.4597 268.08605,165.88143 C 267.99373,166.4001 269.58996,167.66807 269.62111,166.37722 C 270.21063,165.61012 269.2505,164.68902 270.03789,163.96129 C 269.77058,163.31273 270.21392,161.99883 271.08466,162.46328 C 271.91065,162.80393 271.98701,160.67726 270.91461,161.17644 C 269.70569,160.85988 270.954,159.82515 270.88126,159.00892 C 271.05774,158.08915 271.76864,157.29767 272.59191,158.16884 C 273.12644,158.25054 273.67229,156.84217 273.48724,156.16149 C 273.28856,155.02212 273.50415,153.83069 273.38247,152.71755 C 273.09266,151.87388 272.4034,151.31131 271.94279,150.66043 C 271.20394,149.58029 272.20491,149.34597 272.86995,148.70658 C 273.30621,147.95322 275.08025,149.20439 274.24698,147.76759 C 275.28577,147.41603 274.22474,146.11018 275.43895,145.90027 C 276.43455,145.08813 276.04241,145.43371 276.04877,144.18301 C 276.62312,143.22217 275.83014,142.57713 275.65631,141.66229 C 275.94282,141.13503 276.72632,140.55818 277.07968,139.82435 C 278.08373,138.76473 276.31428,140.45924 275.76876,139.65062 C 274.68649,139.53724 273.4475,138.82553 273.55611,137.59615 C 273.61111,136.67528 273.32045,135.86529 272.85187,135.09267 C 272.5113,134.21243 273.21826,133.1017 272.33426,132.4168 C 271.42973,131.51922 271.20763,129.98102 272.03687,128.9633 C 271.94912,128.24553 272.2017,128.08034 272.4581,127.50756 C 272.07256,126.55233 271.40449,125.6739 271.47,124.59968 C 270.54226,124.86891 269.66655,124.2494 269.96249,123.24536 C 270.17953,122.35988 268.71936,122.1271 268.65527,121.51381 C 267.86046,121.62927 267.94841,120.08052 267.97894,119.40683 C 267.86352,119.04501 267.43524,120.97206 266.66194,121.15934 C 265.89299,120.77838 265.28388,119.72151 264.24607,119.94305 C 263.36476,119.91385 262.67123,120.70881 261.8696,121.02928 C 261.47289,120.13007 261.07618,119.23086 260.67947,118.33165 C 259.60192,118.73969 259.22708,117.1638 260.14053,116.8249 C 261.57154,116.17111 259.41704,116.44198 258.8601,116.30086 C 257.8851,116.33037 258.98252,114.53177 257.4343,115.20448 C 256.35275,115.02685 255.98801,116.32668 255.15062,116.78799 C 254.46503,117.9056 253.86228,116.36988 253.22456,115.95465 C 252.36284,116.5713 251.43214,117.03066 250.34556,117.04128 C 249.56501,116.69129 249.41893,115.15149 248.29681,115.26111 C 247.54037,115.11752 246.29122,115.27614 246.24576,116.249 C 245.6678,116.24819 244.97627,116.15263 244.81102,117.37954 C 243.85891,117.37954 242.9068,117.37954 241.9547,117.37954 C 242.02858,115.90956 241.15677,116.48602 240.29898,117.03212 C 239.41067,117.32973 239.59977,118.41761 239.4147,118.97953 C 240.04421,119.9164 238.26915,119.81093 238.86037,121.02928 C 237.84012,121.25482 238.01307,122.59958 237.16486,122.80197 C 236.14961,122.92915 236.25878,124.33127 236.09681,125.12692 C 236.90798,125.56146 235.40287,126.41038 234.73457,126.50389 C 234.03793,126.17044 233.35449,124.77232 232.64156,125.75289 C 232.25103,125.91355 231.81026,125.98173 231.40219,126.10718 z " />


<path id="Lagan_Valley" d="M 190.54097,124.20297 C 191.21086,123.68704 192.50191,124.2202 192.40485,123.01545 C 192.78133,122.48771 194.41082,123.41809 194.07722,122.17637 C 194.28193,121.65274 194.06345,120.10302 194.75112,120.35738 C 195.45593,120.81286 196.33208,120.70785 197.12637,120.8706 C 197.75784,120.34402 197.29079,119.01608 198.15492,118.86137 C 199.30857,117.87361 198.89214,120.25061 199.70684,119.35911 C 200.23594,118.48428 201.37319,119.19111 201.84385,118.3951 C 202.53007,118.00527 203.50192,118.07361 204.26717,118.33165 C 204.37124,117.38122 205.86601,117.61479 205.8405,117.12418 C 205.29671,116.2309 205.86269,115.4457 206.85614,115.90084 C 207.64804,116.00525 208.49562,116.00047 209.00415,115.30851 C 209.63147,114.47385 210.29814,115.79343 211.16604,115.46892 C 211.52854,114.77763 212.68871,115.36687 213.13052,115.86983 C 214.07981,116.81436 214.91626,117.85917 215.77177,118.88704 C 215.04756,119.12855 213.88224,118.86574 213.86757,119.91849 C 214.30816,120.71461 214.28284,121.47762 213.71747,122.20225 C 214.45443,122.63404 213.60519,123.31366 214.42297,123.96494 C 213.20771,124.51092 214.56296,124.91495 214.68834,125.73506 C 214.94313,126.56336 216.13778,125.74984 216.32718,126.9006 C 217.30688,127.148 217.42204,127.92439 217.35465,128.81248 C 217.87973,128.62848 218.73397,128.01815 218.78679,127.21797 C 219.47317,126.84073 219.69931,125.34219 220.60762,126.04209 C 221.01994,126.58933 220.43399,127.57248 220.2943,128.24942 C 221.10349,128.72433 220.52762,129.56305 221.4155,129.97172 C 220.93112,131.51438 222.716,130.14309 222.67455,131.03726 C 222.51762,132.38433 223.33524,130.50773 223.93206,130.38081 C 224.87424,129.91189 223.16651,129.14526 223.82128,128.31523 C 224.01667,127.5783 225.29296,128.37737 225.68222,128.76134 C 226.16477,129.74572 227.49379,129.756 228.18887,130.57479 C 228.39079,130.61894 228.04709,131.68391 228.28462,132.46997 C 227.8956,133.55905 227.97253,133.44811 229.01795,133.44036 C 229.45541,134.18747 230.04251,134.82057 230.60876,135.46956 C 230.24001,136.16364 230.33942,137.23325 229.57732,137.6118 C 230.42107,137.61548 231.41994,137.35947 231.61504,138.44913 C 231.63076,139.18012 231.52682,140.08083 232.34668,140.53278 C 233.33159,140.92645 231.58358,141.7859 232.27496,142.53101 C 232.93388,143.00605 230.99137,142.51033 230.52943,142.84837 C 229.48374,143.10323 229.25158,143.65262 229.90873,144.52398 C 229.38803,144.64098 228.7966,145.48213 228.16113,145.54602 C 227.94135,146.25259 227.38168,147.04681 228.08384,147.67828 C 228.56646,148.60327 227.44188,148.81747 226.72101,148.7197 C 227.42846,149.76684 226.69719,149.90054 226.40035,150.68497 C 226.47918,151.69181 224.7165,150.84225 225.09822,152.14495 C 225.32821,153.21026 223.8282,153.08218 224.73746,154.03563 C 225.66919,154.34017 226.21897,154.8575 225.41994,155.69758 C 224.8201,156.28684 225.40124,157.51871 224.20708,157.26436 C 223.38574,157.4612 222.6771,156.15103 222.04409,156.75616 C 221.30125,157.44989 220.18414,157.92723 219.17417,157.62305 C 218.0368,157.14883 218.20935,158.40394 217.76598,158.90587 C 217.00302,159.32267 216.49397,160.13834 217.16894,160.82614 C 218.46706,160.88584 217.40476,161.96344 217.56198,162.71393 C 217.90092,163.51964 217.21727,164.18271 216.96191,164.90552 C 216.2559,164.48676 215.1597,164.82908 214.97836,165.57393 C 215.10079,166.60163 213.55583,165.3817 213.07313,166.11783 C 212.3825,166.71445 211.59425,165.49313 210.85257,166.0163 C 210.74356,165.34254 211.32172,163.9185 210.74286,163.75775 C 209.94216,163.88074 208.94816,164.1179 208.24621,163.7561 C 207.97312,162.86725 206.54614,163.60914 206.58272,162.40314 C 205.91785,161.93993 205.42722,161.43025 205.48312,160.57549 C 205.10177,159.91822 205.07011,158.59618 204.02914,159.19287 C 202.95498,158.91137 202.74401,159.88426 202.23616,160.51113 C 201.34223,160.67077 201.00845,161.71413 200.53109,160.48887 C 199.90884,159.91778 200.36339,158.63759 199.19189,158.75715 C 198.20464,158.29803 198.22415,159.99478 197.40424,159.41774 C 196.78339,159.52624 195.93327,160.35585 195.29566,159.52429 C 194.39755,159.06231 193.76085,158.35022 193.32478,157.44616 C 192.56318,156.62471 193.53532,156.19046 194.27005,156.01918 C 194.20282,155.06471 195.35803,155.08886 195.53954,154.19431 C 196.59051,153.90153 196.28568,152.89621 195.83636,152.20421 C 195.83283,151.74651 196.95108,151.47874 196.99444,150.53905 C 197.92811,150.17185 197.74398,149.17944 197.47432,148.40745 C 196.70657,147.26033 198.5937,147.70793 198.6732,146.82229 C 198.92676,146.03622 199.42258,145.18094 198.39422,144.76109 C 197.46417,143.93241 196.7132,142.85677 196.08835,141.79719 C 195.78247,140.96498 195.70683,139.95691 194.74826,139.62323 C 193.60619,139.29327 194.59937,138.29288 194.75717,137.55479 C 194.93858,136.37406 195.7854,138.20745 196.37967,136.96186 C 196.57753,136.52845 195.97081,135.27409 195.25248,135.25019 C 194.02574,135.3496 195.14334,133.99572 194.20035,133.62689 C 193.59114,133.0341 193.05547,132.38169 192.60387,131.66113 C 193.15381,131.16969 193.50112,129.97722 192.44518,129.9156 C 192.86548,128.51681 192.48172,127.11158 192.2865,125.71047 C 191.70466,125.20797 191.12281,124.70547 190.54097,124.20297 z "   />

<path id="Upper_Bann" d="M 162.53317,132.85127 C 163.04956,132.27638 163.95858,131.87164 164.54087,132.42456 C 164.69399,133.0893 164.744,134.29845 165.49178,134.41636 C 166.52098,134.09532 167.36323,135.25415 168.38321,134.76939 C 169.25955,134.72049 168.74457,133.37765 169.72956,133.09292 C 170.30342,132.35791 170.6626,131.71091 171.16281,132.90495 C 171.7811,132.41715 172.43862,131.9974 173.105,132.7655 C 173.87656,133.18392 174.62604,133.62898 175.22794,134.27943 C 176.04214,133.98409 176.74721,133.53293 177.29083,132.85127 C 178.45631,133.47988 178.51091,134.92065 179.04079,136.01035 C 179.52168,136.69858 178.28828,137.50301 179.20024,138.04921 C 179.68503,138.29442 180.58769,137.18447 181.22593,138.0809 C 182.04806,138.70526 181.63093,136.89299 181.87153,136.37394 C 182.18829,136.02176 182.49697,137.93309 183.23454,137.56308 C 183.56808,136.89643 184.25182,136.72761 185.14571,137.0564 C 185.52859,136.36181 185.81804,135.56911 186.67954,135.37705 C 187.47108,134.81671 187.22557,133.96939 186.21874,134.37956 C 185.05376,134.2151 185.55905,133.35879 185.83916,132.59574 C 186.02062,131.92169 184.53131,131.69473 184.86536,130.76717 C 184.72416,129.36748 185.62863,130.42388 186.2131,130.8842 C 187.05346,132.04419 186.75211,130.57039 187.31269,130.0997 C 187.9202,129.64966 188.25604,128.44871 187.17741,128.47706 C 186.61444,128.10949 186.39054,126.85668 187.26326,126.59666 C 187.85854,125.95777 188.63497,125.84436 189.46904,125.89818 C 190.84068,126.27116 189.63013,124.81176 190.20346,124.37508 C 190.8656,124.05995 191.47187,125.21353 192.11136,125.49406 C 192.56232,126.16672 192.43191,127.18365 192.62836,127.99666 C 192.95047,128.64908 192.00178,129.69726 192.78853,130.02702 C 193.75114,130.3472 192.50187,131.44589 192.76098,131.87062 C 193.28749,132.71635 194.14599,133.39994 194.58742,134.25167 C 194.16424,135.39619 195.69408,134.95044 195.96831,135.73357 C 196.63981,136.50379 196.60144,137.10848 195.60214,137.48912 C 194.88209,136.53832 194.72503,137.68161 194.40963,138.43943 C 193.65766,139.32471 194.83715,139.60356 195.41865,140.07017 C 195.96316,140.8826 195.94218,142.06825 196.70698,142.80076 C 197.33701,143.82254 198.12513,144.69674 199.10992,145.38733 C 198.74479,146.09506 198.93561,147.32462 197.94157,147.44206 C 196.76175,147.51141 197.71606,148.62869 197.68176,149.32669 C 198.02873,150.28464 196.64549,150.26211 196.68133,151.16562 C 196.59112,152.09598 195.12532,151.63191 196.08846,152.72266 C 196.78037,153.55057 195.72986,153.97101 195.33745,154.53112 C 194.9393,155.15643 194.22218,155.28545 194.14584,156.06058 C 193.18663,156.09159 192.6838,156.85546 193.4245,157.60726 C 193.80967,158.4806 194.4878,159.06459 195.32644,159.49005 C 196.07179,159.77323 196.25739,160.82717 195.83704,161.46077 C 195.36228,162.12529 196.0629,163.05776 195.14272,163.47744 C 195.17256,164.13178 195.30407,164.90398 194.59023,165.5287 C 194.13906,165.99982 193.16307,166.63463 192.62654,165.95316 C 191.98467,165.08149 191.4266,166.20928 190.88473,166.62465 C 189.63189,167.17086 191.5947,167.78135 191.14923,168.3437 C 190.30552,168.91308 191.70067,169.63078 191.62009,170.41215 C 192.10702,171.2957 190.19885,171.31853 190.69995,172.24657 C 190.85703,173.10923 191.06587,173.97709 190.57558,174.77468 C 190.42758,175.54643 189.44772,175.8614 188.74778,175.85474 C 187.8898,176.01316 187.41235,174.83274 186.66072,175.77087 C 186.06553,176.14243 184.88573,176.18886 184.6502,175.37271 C 184.37315,174.62737 183.70312,174.1678 183.3121,173.54522 C 183.45147,172.32086 182.08582,173.09686 182.10733,172.1675 C 181.69915,171.2998 182.6296,170.56724 182.32515,169.67509 C 182.09887,168.80214 182.9577,168.23218 183.32083,167.5238 C 182.54338,167.02084 182.6619,166.17724 182.6861,165.36949 C 182.59874,164.31151 182.90933,163.19562 182.77061,162.17932 C 182.18198,161.47844 181.80547,160.69221 181.69259,159.78274 C 181.42729,158.5609 180.71923,157.52421 180.24472,156.39929 C 179.94772,155.1618 179.65072,153.9243 179.35371,152.68681 C 178.66268,153.99776 178.25426,155.56276 176.93614,156.40063 C 176.14085,157.21604 175.73756,156.12788 175.42683,155.4604 C 175.18424,155.66599 175.10675,157.27307 174.85518,157.3287 C 174.63162,156.51174 174.11969,155.969 173.31373,155.70587 C 172.77868,155.22885 172.41929,154.45198 171.70177,154.05139 C 170.44793,153.92413 172.0505,152.55922 170.84559,152.67916 C 169.94304,152.32074 170.36917,151.37507 170.73711,150.79255 C 171.27671,150.54587 172.24868,149.35855 171.36714,149.085 C 170.81177,148.46745 169.54867,148.52486 169.912,149.58464 C 169.71431,149.59054 168.96967,148.43601 168.15314,148.80377 C 168.45647,148.16391 167.63513,147.59981 167.21437,147.05351 C 166.73693,146.25196 165.72405,145.63115 165.9449,144.5939 C 164.90465,144.09688 165.59673,143.29348 165.73774,142.81997 C 165.12008,142.60927 163.84988,142.47394 164.06446,141.61111 C 164.32161,140.52482 164.01137,140.17466 162.9953,140.74026 C 162.552,140.42972 163.3474,139.42972 163.64397,138.96062 C 162.67332,138.63265 162.60138,137.91533 162.90711,137.0344 C 163.64438,136.36966 163.67382,136.13529 162.68628,135.72203 C 161.30407,135.50149 162.90349,134.3211 162.08723,134.05907 C 160.91529,133.91944 161.47257,132.78328 162.42953,132.88088 L 162.53317,132.85127 z " />

<path id="South_Down" d="M 236.32141,180.61526 C 234.92437,178.55531 236.67735,179.40355 237.33475,178.2893 C 237.24638,177.04051 236.5919,175.78208 237.47833,174.75865 C 236.58853,173.90889 236.48594,176.2319 235.9247,176.96552 C 235.51901,178.2529 234.51022,179.05541 234.09982,180.05986 C 235.3076,179.30049 236.7951,180.31652 235.76601,181.72604 C 235.25929,182.35019 234.25391,182.94893 233.06837,183.78896 C 232.03824,184.86181 230.45301,185.66292 229.89468,187.03577 C 229.57487,188.50041 230.75452,189.27379 231.19442,190.52661 C 231.67971,191.9498 232.50107,193.89067 231.24352,195.13487 C 231.91943,196.73394 229.98966,197.05455 230.15944,198.49916 C 228.78168,199.52058 230.36289,200.92242 229.80077,202.03298 C 228.85212,202.96069 229.23331,204.45292 228.05989,205.36631 C 226.97031,206.11335 226.47211,206.99768 225.2135,207.51225 C 223.8165,208.15034 223.81953,209.76734 222.4744,210.43796 C 222.70294,212.35154 220.97872,211.77661 219.85021,212.21891 C 218.63568,212.30113 217.51955,213.57914 216.65021,214.48218 C 216.62426,216.31172 214.51239,215.69474 213.95327,217.02061 C 212.61512,217.23392 212.13938,219.4449 211.20062,217.56439 C 209.54739,217.50511 209.44096,215.46427 207.94468,215.53122 C 205.76888,215.93245 208.19432,213.45714 208.97831,213.59766 C 210.5206,214.91315 211.21579,214.0755 209.70809,212.75401 C 209.21349,211.398 207.64169,211.30311 206.42011,211.12812 C 205.47863,209.98688 204.19052,211.83812 203.47688,211.10139 C 202.41059,210.30665 200.90366,210.7743 200.37939,209.17844 C 199.4468,209.25368 199.26769,206.86883 199.11403,205.96736 C 198.26104,204.52514 197.44416,205.45895 196.5153,204.72636 C 195.31156,203.60454 193.79075,204.99701 192.7843,204.70061 C 191.5895,204.14173 190.69306,203.47624 189.74754,202.59303 C 188.49919,201.93965 188.28434,200.38867 188.02703,199.29755 C 186.76345,198.43761 187.77422,196.62875 186.13492,196.07553 C 184.47666,194.62056 187.4179,194.21994 187.10337,193.80157 C 187.00416,192.63787 185.65726,191.43478 186.65844,190.5278 C 188.33801,188.50911 185.77008,189.30531 185.02849,189.11482 C 186.36177,186.6777 183.37971,188.58674 183.40018,187.20065 C 184.31633,185.93083 182.65261,184.89262 183.47952,183.55092 C 184.32488,184.7354 186.01238,185.37592 185.57516,183.35629 C 184.91444,181.61241 183.40642,183.35448 183.79689,180.93263 C 182.50032,181.36797 182.01357,179.29682 181.60316,179.12464 C 182.51356,178.16202 183.05571,177.07624 182.58317,175.96267 C 181.43877,174.8741 184.31743,173.44081 184.51199,175.14236 C 185.12315,177.21352 187.09685,174.83745 187.99558,175.7263 C 189.35881,176.30986 190.82819,175.25423 190.93768,173.79182 C 190.10087,172.2515 191.25486,171.43183 191.61865,170.40638 C 190.5389,169.0379 191.75839,168.14441 190.39097,167.13649 C 191.25977,165.93944 192.23264,165.28608 193.37164,166.24075 C 195.1635,165.96542 194.97356,164.13574 195.52551,163.11624 C 195.68861,162.09166 196.1604,160.52633 196.08872,159.82761 C 197.38269,159.49178 197.91753,159.40472 199.03058,158.63748 C 200.48545,158.3495 200.25881,161.70278 201.33151,160.77971 C 202.85948,160.64398 202.69285,158.58516 204.48378,159.10195 C 205.80414,159.2917 205.04549,161.66805 206.32834,162.16677 C 206.9962,163.32714 208.16597,163.78045 209.47014,163.95116 C 211.64022,162.80027 210.64222,165.31483 211.05991,165.91262 C 212.29446,166.40618 213.35548,165.85519 214.7022,165.98561 C 214.80229,164.89727 216.48368,164.76164 217.15217,164.48272 C 217.75552,163.46298 217.68509,161.78398 217.69037,160.95675 C 215.51594,160.28681 218.24821,159.09199 218.07271,157.94203 C 218.98155,157.10114 220.77618,158.13048 221.76125,156.99185 C 222.53295,155.75246 224.34083,158.16099 225.05482,156.81881 C 225.35234,155.46759 226.51776,154.39596 224.63378,153.82828 C 224.75443,153.22491 224.80188,150.97834 226.3243,151.17931 C 227.2229,150.18482 226.25506,148.50583 227.64828,148.64037 C 228.9896,148.25303 226.81496,146.1323 228.38097,145.54602 C 230.06356,145.09369 229.34985,143.97565 230.04067,143.09276 C 230.92131,142.72571 233.14394,142.12247 233.052,143.54097 C 234.021,144.07857 235.44116,144.5469 236.55943,145.14931 C 237.70364,143.13308 238.58541,145.85336 239.48786,144.13891 C 239.61158,144.29677 238.96833,146.82754 240.60666,146.93926 C 242.329,146.73105 241.49022,148.89804 242.70575,149.18186 C 242.95552,150.53051 242.40609,152.08354 243.27366,152.67343 C 242.57342,155.08794 243.82857,154.06669 244.94986,154.44472 C 245.65946,156.13183 245.58434,152.60205 247.38816,153.46337 C 248.84311,152.45567 248.96425,155.14942 250.48963,153.68521 C 250.56112,154.15863 251.46894,155.48483 252.50086,156.2445 C 252.38303,157.68063 254.40459,157.87185 254.44223,159.09857 C 253.68124,161.32787 256.16449,159.34452 256.17975,159.02743 C 256.50348,158.45036 257.98987,158.20158 259.03124,158.4481 C 259.8617,158.07136 258.62209,156.89205 259.86298,157.37537 C 259.66233,156.36018 261.76769,158.28279 262.51631,158.05713 C 261.91479,158.84502 261.90537,160.93987 263.36638,159.54412 C 264.93202,159.43199 264.01411,161.92872 264.27679,162.97036 C 264.30957,164.31477 265.5385,165.13742 265.37223,166.62961 C 265.61371,167.88324 264.91011,169.58492 266.82301,169.39792 C 267.57586,170.82149 265.1668,169.15621 264.80524,170.61813 C 262.76234,171.16291 266.1067,172.94251 264.57575,173.36234 C 264.03199,171.56368 263.74812,172.61228 263.37185,174.19378 C 262.12345,174.95457 262.25828,176.03357 261.15552,176.88618 C 259.72713,176.84075 260.16965,179.95122 258.63995,177.92233 C 258.27267,177.79652 259.4204,180.48502 257.95386,181.02964 C 257.0875,181.62474 257.3563,178.03563 256.2363,179.98051 C 254.27636,179.74019 255.7629,181.7552 254.88748,182.58639 C 254.52305,183.25395 253.34574,184.8249 252.66589,184.42989 C 252.17624,183.40945 251.60592,182.73657 251.71379,181.64671 C 250.86355,180.33331 249.67687,180.35614 248.83422,180.15015 C 247.38613,180.97638 246.90358,179.49246 245.61957,179.99618 C 244.15336,178.93747 243.5798,181.88776 242.20543,180.62162 C 241.1303,182.14009 239.77034,179.86144 238.78471,180.94255 C 237.94116,181.65798 236.95404,181.52312 236.32141,180.61526 z " />
  
<path id="Newry_and_Armagh" d="M 189.03346,202.11699 C 188.21708,201.13841 188.47565,199.97959 187.8378,199.06465 C 186.80118,198.30297 187.74145,196.71101 186.3243,196.23149 C 185.23235,195.67751 185.72834,193.78027 187.0506,194.20256 C 186.9776,193.91078 186.93256,192.21326 186.27458,191.5498 C 185.73776,190.88013 187.88981,189.66963 187.02065,188.97976 C 185.68897,189.3493 184.47382,189.59741 185.1934,187.82946 C 184.93526,187.22293 182.51611,188.57153 183.51408,186.83618 C 184.2016,185.79294 182.70646,184.93332 183.40608,183.79571 C 183.77734,183.20095 185.35757,186.01909 185.44055,184.16705 C 185.85162,183.32464 184.86425,181.5283 183.95557,182.67816 C 184.37221,180.89698 183.09157,181.22615 182.58054,180.44898 C 182.24391,179.31265 180.70644,179.54963 182.27797,178.28722 C 182.7256,177.40561 183.05476,176.45437 182.29878,175.46696 C 181.99525,174.2084 185.05207,174.67913 183.40018,173.79182 C 183.39676,172.29067 181.73876,173.07575 181.97202,171.49091 C 182.74415,170.47777 181.82555,169.11432 182.82846,168.24342 C 183.82668,167.33933 182.08487,166.53458 182.6861,165.28228 C 182.55238,163.86933 183.33432,162.26911 182.08761,161.18588 C 181.62989,159.64623 181.24235,158.01743 180.30583,156.65392 C 179.98846,155.3051 179.67109,153.95628 179.35371,152.60747 C 178.59824,154.16865 178.01873,156.31137 176.10069,156.73326 C 175.41281,154.72982 175.15592,156.02177 174.91435,157.43089 C 174.82263,156.14944 173.25691,156.05716 172.84767,155.06708 C 172.31114,154.17588 170.50452,153.99103 171.41951,152.76614 C 169.98008,152.95346 170.04999,150.99536 171.11181,150.55836 C 172.39366,149.72012 171.25761,148.38364 170.06693,148.76463 C 170.18772,150.46795 168.95508,148.53992 168.13958,148.61547 C 168.25184,147.60218 166.80689,146.93814 166.40439,145.99041 C 166.18976,145.01053 164.95009,144.02434 165.65445,143.16503 C 165.87679,142.44597 163.2079,142.55534 164.0927,140.98989 C 164.30771,139.70229 162.2104,141.06833 162.02566,141.59619 C 160.95963,142.52838 159.94828,140.81758 159.17395,141.91564 C 158.78169,143.72901 158.89465,143.39666 157.4973,142.71176 C 157.27698,141.19814 156.16927,141.83802 155.35208,140.90386 C 154.29282,139.25959 154.42499,140.78542 153.09146,141.10284 C 153.21121,142.33554 152.38568,143.33176 151.48217,144.01954 C 150.31963,144.27842 149.194,144.41472 150.36087,145.68971 C 151.57066,146.81209 148.72465,146.45876 149.2964,147.93883 C 149.6356,148.80577 150.37575,148.42713 149.33918,149.53693 C 150.11435,150.73132 148.02308,150.94768 147.14069,151.08865 C 147.20488,149.72919 145.63403,150.305 144.91922,149.43378 C 144.00911,150.90297 143.28359,149.71326 142.53896,148.79906 C 141.84966,149.2904 139.87948,147.4441 140.21311,149.3228 C 139.14986,150.14285 140.39258,151.18743 138.94437,151.50877 C 138.74708,152.16091 139.40076,153.007 138.75154,153.42046 C 139.89019,154.5302 138.4678,155.21449 138.293,156.11447 C 138.18056,157.39898 136.40603,157.90371 136.25477,159.27831 C 135.78493,160.44954 136.13894,161.82032 135.23947,162.84261 C 133.64927,162.46789 134.19897,163.49743 132.7008,162.99517 C 133.06514,163.69703 132.18019,165.80666 133.34981,165.83526 C 133.8719,166.4742 133.27585,168.05039 134.12868,168.87262 C 134.02497,169.98919 133.09185,170.02766 133.09723,171.33221 C 132.07113,171.15152 131.53204,169.5151 131.55808,171.71202 C 131.763,172.49148 132.55525,173.55087 133.38266,173.69173 C 133.68197,174.97139 135.1563,173.28385 135.76802,174.72685 C 136.29071,175.84994 135.6446,177.33148 136.52541,178.39652 C 137.16869,179.33541 136.48993,180.85177 137.32832,181.61596 C 138.97686,181.49893 138.52436,182.76347 138.83232,183.85629 C 139.45418,184.617 140.62275,184.67152 140.94356,185.83841 C 141.69235,186.50994 143.05181,185.26605 143.47206,186.7559 C 143.59167,187.807 144.61572,188.05707 144.50872,189.27323 C 144.75605,188.10312 145.82567,188.94147 146.30099,188.7399 C 147.10701,187.77733 146.60133,186.64508 147.81924,186.03727 C 148.95249,185.08568 149.56088,186.81446 150.47388,187.22758 C 151.76932,186.53601 151.98195,188.11755 152.77989,188.75013 C 153.91602,189.29746 153.96172,190.37284 154.59895,191.32645 C 154.46256,192.63239 155.73886,193.69856 155.06452,194.9837 C 154.50804,195.58222 153.26368,196.67957 154.44028,197.51514 C 153.5565,198.04084 153.56528,199.34447 152.37738,199.26067 C 151.64469,199.68765 152.51864,201.38087 152.88543,202.06964 C 153.40192,202.55577 153.58696,204.56895 152.55708,204.42895 C 151.63135,203.14449 151.23723,204.79358 152.09485,205.62031 C 152.63972,206.49462 151.81214,208.05734 150.63185,207.75029 C 150.82117,209.10657 152.07996,209.43596 152.66433,210.26769 C 153.32901,211.26215 153.40662,212.13187 154.20297,212.85511 C 154.38327,213.75948 155.44987,215.04382 156.10015,213.4349 C 157.15357,214.12946 156.83941,213.34081 158.04549,212.91643 C 159.37009,212.63287 157.12738,211.15799 158.91631,210.79111 C 159.76952,211.30762 160.68473,211.80233 161.42751,212.23211 C 162.5577,212.70053 163.21324,211.78365 163.9617,211.10886 C 165.10883,209.91588 165.82145,212.00088 166.93994,211.89767 C 167.31929,211.57088 167.79516,210.44917 168.96041,210.38776 C 169.3013,208.72759 171.3202,210.11571 170.0712,208.87767 C 169.20948,207.59105 172.11687,208.46054 171.92781,208.70239 C 173.15702,208.71888 172.71579,210.51343 173.45026,211.14873 C 174.04531,212.052 175.14122,210.74571 175.73556,210.84103 C 176.50521,210.89057 177.51666,209.9621 178.40163,210.92397 C 179.41622,212.72484 179.10278,210.18856 179.72643,209.64805 C 180.93354,210.05194 181.37363,209.6933 181.91897,208.40285 C 181.94939,207.4934 181.3097,206.5105 181.65465,205.37003 C 181.74091,204.38785 181.87425,203.57399 181.31999,202.7996 C 181.09034,200.78266 182.7238,203.15763 183.40018,202.03764 C 184.74394,202.22926 184.71534,203.67759 184.6196,204.71931 C 184.86875,205.6657 185.70021,206.42532 186.73254,205.76672 C 187.56896,204.85747 187.04968,203.36619 188.30198,202.78198 C 188.54581,202.56032 188.78964,202.33865 189.03346,202.11699 z "   />


<path id="West_Tyrone" d="M 51.930183,111.66691 C 53.94355,112.03683 53.748158,113.83534 54.447137,115.32733 C 55.120744,116.772 57.534572,115.1257 58.741924,116.30908 C 59.820713,117.07567 60.616336,118.66806 61.411244,119.52178 C 63.192732,119.48494 64.947964,119.08954 66.687828,118.72836 C 66.910135,120.27917 68.786018,121.87957 66.625519,122.7599 C 64.79315,123.184 64.634354,124.81772 64.758787,126.23582 C 63.771008,127.23866 62.129197,129.47237 64.156437,130.18035 C 63.04182,131.30317 63.894342,133.17594 62.292053,134.33112 C 61.348548,135.58867 64.901231,136.65536 63.67337,138.22254 C 63.784887,139.45191 65.838798,140.01694 64.793751,142.05148 C 65.50255,142.382 68.328043,144.67217 67.005196,144.35588 C 66.227152,145.74105 68.792542,146.74388 69.038052,147.50474 C 69.99437,145.72323 71.473417,146.19666 72.477596,145.21009 C 73.034646,142.95664 74.986928,145.16112 76.293464,143.88892 C 78.486908,143.30002 76.909198,141.34597 78.457994,141.24798 C 79.795763,142.02698 81.422246,141.16094 82.397583,142.76904 C 83.969983,142.47267 85.404884,141.72562 86.751234,141.20508 C 88.029229,141.5632 90.021006,142.8489 90.976589,141.40011 C 92.735342,141.06692 93.113125,139.53281 91.442589,138.32588 C 92.808384,138.83701 94.10735,140.32477 95.324887,140.55498 C 96.997668,139.66344 98.434164,138.10521 100.40825,138.00851 C 99.199459,135.22202 101.43506,136.93232 102.8117,137.1218 C 104.58723,137.44342 104.44989,137.75299 105.90874,135.86809 C 107.21577,134.7107 108.12289,139.18599 108.29057,135.8292 C 109.62404,135.46275 109.47569,133.28251 110.95535,132.51077 C 112.82476,130.6577 113.11171,134.44471 113.97577,131.89915 C 115.30609,134.46825 114.60944,131.37897 116.83209,131.81982 C 115.94926,130.52385 117.23121,128.16076 118.81343,128.61113 C 120.53409,128.92753 120.54103,125.96028 122.59524,126.52356 C 124.55332,125.1244 120.93367,124.28349 122.89954,122.81671 C 125.08196,122.22869 121.44709,119.41906 122.99486,119.52856 C 124.17279,119.40554 124.32773,118.43333 124.52828,116.82415 C 126.64362,116.32274 126.51635,114.84851 125.01879,113.82888 C 124.91367,112.14876 123.9387,110.61092 123.72638,109.33702 C 123.22618,107.95732 121.40782,107.33304 123.88909,106.35543 C 125.95211,104.81689 121.72405,106.11742 121.59372,104.15864 C 121.31496,102.7392 120.84963,101.63483 122.34258,100.22748 C 120.63412,98.930001 123.91337,97.526044 121.30721,96.68511 C 122.09213,95.916458 120.33058,93.838003 121.98933,93.100838 C 122.70728,91.216415 124.45092,91.849924 125.98154,91.188252 C 127.72663,90.994064 128.90086,89.672083 128.0088,88.186564 C 127.70858,85.726282 130.29677,88.430384 130.79611,86.055363 C 132.67807,85.531054 131.46711,83.207537 130.5611,82.321981 C 128.45131,80.857483 132.5435,80.446674 130.97532,78.80606 C 129.69256,78.377057 128.24381,75.817125 127.57524,76.359264 C 126.96983,77.657124 124.41931,77.043334 123.57617,76.200951 C 122.4108,77.408842 121.20554,78.702411 119.37104,78.501877 C 117.7463,78.728076 116.21678,80.190122 114.67408,78.863087 C 113.01558,77.452241 111.52395,80.596617 112.07156,77.391083 C 110.30083,76.588401 109.18429,74.760726 107.5704,73.655129 C 107.46,71.728778 107.89593,71.075939 105.40889,71.797607 C 104.46869,72.895099 101.98507,72.971863 104.02355,71.279974 C 103.5127,70.302024 101.52393,68.947773 103.17263,67.513599 C 103.80876,65.365194 101.11849,65.77575 99.852859,66.28318 C 98.64904,66.788555 96.466693,65.981367 96.288022,64.563595 C 96.907781,63.582371 98.006172,60.717131 96.614699,60.615936 C 95.178929,61.462407 93.093466,60.33766 92.942208,59.429368 C 91.337302,60.012285 90.898556,61.685039 88.982979,60.808567 C 86.921389,60.809012 86.942586,58.598692 86.06956,57.20702 C 85.417171,55.551882 84.141402,55.004938 82.437824,55.424846 C 80.123583,54.919641 78.940342,57.635299 79.516164,59.570665 C 79.709679,61.223838 78.399484,62.640074 78.351128,64.378967 C 79.665578,65.702663 79.648697,67.261135 78.254873,68.519433 C 77.039971,69.75237 76.304905,70.928825 75.961008,72.563142 C 74.928525,73.963814 75.101981,76.247812 73.035202,76.677002 C 72.349496,78.294921 69.948941,77.828191 69.789286,79.062279 C 67.832375,79.675957 69.062096,81.798998 68.207402,83.134778 C 67.847575,84.616583 68.768707,86.160671 67.957306,87.705566 C 69.981476,88.869887 67.759318,90.280211 66.453854,89.115643 C 64.828299,89.640135 64.771232,86.540028 63.593483,88.975044 C 62.357876,88.796593 60.990014,88.880288 59.617015,88.04202 C 59.004896,86.477615 57.596834,89.565163 56.456711,89.123955 C 55.371196,89.92704 54.591415,91.223035 53.080974,91.434647 C 51.462737,91.265634 50.298965,92.18023 49.144836,92.967258 C 48.23317,94.171778 47.602323,95.954393 45.979519,94.370308 C 44.364251,94.112593 45.008247,91.778911 42.769603,92.243595 C 41.27186,92.393338 41.528951,90.061162 40.425568,89.37175 C 38.942661,88.417867 37.709611,90.293098 36.880113,90.992555 C 36.454467,92.317998 34.807766,93.173955 34.754825,94.487097 C 33.242289,95.212704 32.615093,93.839893 31.120851,94.309015 C 29.415453,95.072506 31.357074,96.274796 31.777269,97.067947 C 33.961391,96.683957 30.63362,98.495453 31.06319,99.606895 C 31.197015,100.58203 31.434691,102.21566 32.882534,102.46924 C 34.178377,102.52007 35.574409,103.24053 36.218205,104.15647 C 36.404183,105.45294 35.881113,106.52411 37.172539,106.98572 C 38.444801,106.53186 39.512103,106.44194 40.425568,105.31953 C 40.95985,106.80788 41.678451,106.8416 43.202541,106.98572 C 44.374579,107.96259 44.370207,110.63974 45.853827,108.46022 C 45.162535,109.21909 47.777007,110.66078 48.541029,108.80592 C 49.778999,108.51214 51.044445,105.9021 51.850842,108.41388 C 49.178887,109.22679 53.348028,109.87811 51.930183,111.66691 z "   />

<path id="North_Antrim" d="M 169.03925,57.63488 C 169.64333,58.414658 171.90747,58.807684 171.2315,59.953303 C 170.56965,61.109567 171.99588,62.273462 172.40082,63.352247 C 172.92682,64.320295 171.11773,64.894239 172.12802,66.408469 C 171.95033,67.844041 173.94665,68.324352 173.48241,69.796462 C 172.85921,71.306232 174.73205,71.738884 174.30254,73.127521 C 174.49351,75.130022 175.06764,77.147654 175.61576,79.091095 C 176.16532,80.167032 175.46536,81.349926 175.78333,82.548325 C 176.8714,83.465064 174.08959,84.615383 175.35833,85.529987 C 175.15123,86.226305 175.42659,87.830516 176.90902,86.564976 C 177.27644,84.474597 178.4893,86.239757 179.73428,86.508973 C 180.85813,86.93878 182.17453,87.596427 183.32526,87.413436 C 184.49629,86.788673 185.03275,85.698407 185.83077,84.71958 C 186.68498,83.672638 188.40755,83.381976 188.88007,84.923823 C 189.74003,86.586049 190.02965,84.503406 191.38227,85.536569 C 192.48325,86.525152 192.95408,86.230774 194.21641,86.129736 C 195.48056,87.100399 194.22585,82.911141 195.46019,84.849251 C 196.35801,85.542459 198.43911,85.308458 198.3165,86.753464 C 199.08598,85.713582 201.07442,86.254167 201.46106,85.224201 C 201.12043,83.498312 202.47176,83.537921 203.70398,83.115567 C 204.79503,82.536913 206.08044,83.256536 207.20284,82.707008 C 207.01828,84.928147 208.57907,83.026867 209.7884,83.192399 C 211.54728,83.480428 210.30647,85.077045 211.04829,86.158911 C 212.10319,86.36707 213.50393,85.401907 214.61146,85.419546 C 216.21839,86.707168 216.11062,85.700649 217.31436,85.169957 C 218.116,84.609341 220.22124,85.351508 220.19952,84.517911 C 220.00748,83.230938 219.4979,82.049422 218.94547,80.882141 C 220.02823,79.577361 220.88037,80.529355 222.11916,80.961479 C 223.15427,78.969162 223.62832,81.611689 225.04313,80.423858 C 226.33335,80.489436 227.53927,80.066296 226.98058,78.579896 C 226.07827,77.64513 225.33727,76.601046 224.81679,75.407532 C 223.53773,76.793464 222.56801,73.537557 221.97375,75.596973 C 221.1612,75.476435 219.81168,76.649873 219.21315,75.179311 C 218.29407,74.294634 218.11728,72.810174 218.86613,71.75779 C 217.59138,70.880847 218.80151,69.338804 217.91295,68.410087 C 216.32609,67.389898 217.62301,66.613441 218.36713,65.604074 C 219.09539,64.427922 218.07372,62.867407 219.29533,61.97662 C 220.00728,60.420335 218.58167,60.137751 217.35863,59.856461 C 216.43825,58.344915 216.253,56.343824 214.54078,55.463339 C 214.44774,54.216604 213.72897,53.817309 212.18835,53.60672 C 212.25814,52.356658 214.14479,52.350961 214.50064,51.428646 C 214.55808,50.006753 216.22289,49.460458 216.5883,48.105537 C 217.06664,46.510519 219.61118,46.619159 219.58623,44.787872 C 219.95459,43.861002 221.36196,44.461381 221.9322,43.069259 C 222.84373,42.773189 224.82713,41.60258 223.52256,40.973022 C 222.10737,40.634305 221.2215,41.455634 219.91811,41.09319 C 218.94671,41.480206 217.75409,42.069506 217.24948,40.596047 C 216.27888,39.433582 217.83011,38.747306 217.48227,37.209275 C 216.74434,36.740488 217.48659,34.76922 218.23453,34.758931 C 218.38355,33.600233 219.58846,33.423225 219.37602,32.197089 C 219.12281,31.325226 219.78319,28.835802 218.31073,29.389065 C 218.78354,28.214775 219.25611,27.469099 220.21495,27.08814 C 219.86224,25.864458 221.17479,24.672592 220.06594,23.606758 C 219.65404,22.602665 219.83998,21.374923 218.34884,21.283457 C 217.81579,20.369708 217.61078,19.259628 217.04126,18.519186 C 216.05574,17.764737 217.58638,16.529677 215.5553,16.772341 C 215.05731,15.436564 213.63182,16.24428 213.31218,14.896737 C 212.71193,14.607873 211.37285,15.086778 210.97427,13.680388 C 209.92977,13.41023 210.27474,11.495036 208.81743,11.551092 C 207.57533,11.435798 206.85185,12.434548 206.26374,13.13964 C 205.66831,14.668349 204.0781,13.109287 203.79543,14.382629 C 202.88095,13.935181 201.71056,14.686934 200.98434,15.087738 C 200.03831,15.816482 199.20734,14.829157 198.7377,13.721271 C 197.87795,14.200904 196.49483,13.138941 196.47519,12.25682 C 195.48417,12.500225 194.71897,11.081402 194.11137,10.66431 C 193.08117,10.518539 192.30957,11.217049 191.51176,9.9514108 C 190.15383,9.1017224 190.91267,8.1055705 189.56411,8.9981241 C 188.66697,8.2252082 187.85725,8.988252 187.33083,7.4027378 C 187.00851,8.4013047 185.10112,7.8813512 185.51062,8.9251955 C 184.65757,9.5016274 183.47366,10.695751 182.55564,9.8251277 C 182.59956,8.0479307 180.92516,9.568322 179.96464,8.5733772 C 178.60231,8.8791238 177.75554,8.0228898 177.67763,6.8087857 C 176.6599,5.9011283 175.37341,6.752973 174.33186,7.0495711 C 173.36466,7.3402383 172.92796,8.6884955 171.85118,8.9600226 C 169.78875,8.9087827 171.81258,10.361296 171.26082,11.219705 C 171.69008,12.60745 168.92195,13.064647 170.86411,13.996681 C 170.12649,15.602472 172.04531,15.234798 171.20145,17.017223 C 171.99623,18.261147 170.90359,19.388052 170.98982,20.587657 C 171.21483,21.845564 172.4801,22.787709 171.86668,24.133431 C 171.40414,25.607161 169.33967,23.434394 168.80153,24.945539 C 167.75821,25.406579 165.92758,25.412173 166.80582,26.983344 C 166.66837,28.173294 165.61171,29.062042 166.39697,30.286816 C 165.27965,31.388493 166.11017,33.84813 164.21593,34.123375 C 163.14302,34.497333 161.39297,35.42456 162.60683,36.637083 C 162.81631,38.320541 164.51635,37.32781 165.12379,38.800974 C 164.31785,39.952232 164.87075,40.926892 165.78621,41.845787 C 165.51666,43.153066 165.32765,44.450371 166.10717,45.627734 C 165.31811,46.489821 165.1508,47.779834 165.31017,49.083097 C 165.63885,50.072942 164.94169,52.378186 166.47048,52.080929 C 168.34258,51.517812 167.93935,52.921778 167.99854,54.243065 C 167.87793,55.51701 168.54077,56.521248 169.03925,57.63488 z "   />

<path id="East_Londonderry" d="M 109.53261,38.830784 C 109.48381,40.065204 107.7617,40.113726 107.62839,41.29039 C 109.10607,41.912555 109.07374,42.356674 109.29924,43.578627 C 109.4092,44.775385 108.98872,45.816136 110.35965,46.158402 C 110.58647,47.418498 110.81329,48.678594 111.04011,49.93869 C 111.73456,49.016847 113.2706,48.284129 113.80666,49.723464 C 114.66235,49.710795 115.91051,48.969861 115.65568,50.751545 C 115.60771,51.951225 114.18087,52.752684 114.27205,53.783577 C 115.25135,55.45457 113.92714,57.432563 114.80746,59.153193 C 115.45376,60.076546 116.4429,60.752271 117.62551,60.729225 C 116.39623,62.233174 118.0835,61.775476 119.00789,62.569351 C 120.0597,63.071956 119.36183,64.68032 119.45277,65.657296 C 118.1979,67.369418 121.49643,66.625269 120.44617,67.447205 C 119.32644,68.048968 118.95621,69.057265 119.1502,70.28065 C 119.38136,71.402351 119.21767,72.497791 118.89498,73.582657 C 118.98953,74.918792 120.39478,75.079044 120.89519,76.075565 C 121.33894,77.369691 122.17813,78.012874 123.06298,76.640827 C 123.81321,75.873661 124.79727,77.423399 126.001,76.94664 C 127.40052,77.836489 127.6893,74.887654 128.39835,76.665694 C 129.08568,77.636746 130.29854,78.096972 131.11368,78.977928 C 131.90635,77.819291 133.2826,79.040835 133.71087,77.420611 C 133.17905,76.355202 134.16718,75.39135 133.84324,74.269578 C 133.49062,72.9509 134.78938,72.411681 135.8853,72.709892 C 137.3643,72.046261 137.37199,72.061278 137.48113,73.567162 C 138.66501,74.032443 139.95763,74.105741 141.03145,74.852135 C 142.64229,75.186897 142.64304,73.070073 143.78015,72.437407 C 145.26718,71.952623 142.96412,69.927194 145.10515,70.442793 C 146.92499,70.837457 144.86777,68.681714 145.76626,68.103034 C 146.45578,67.25874 145.72276,65.840116 146.9163,65.61778 C 147.74272,63.707589 144.669,65.81155 145.26957,64.096442 C 144.80241,62.609963 146.64814,63.028321 146.98212,61.840015 C 147.96837,61.14636 148.9201,61.79557 149.4018,60.440801 C 150.32329,60.25552 152.00064,59.716242 152.47338,60.762526 C 153.13741,61.46786 152.91638,63.63182 154.23061,63.029736 C 155.77067,63.128817 156.15662,62.217358 156.02607,60.821102 C 156.6497,62.316562 157.23588,62.003383 157.7721,60.609061 C 158.12583,58.899687 159.44998,60.116589 160.59337,59.888439 C 161.46928,60.199105 161.67303,61.546463 163.20837,60.889676 C 164.42173,62.244149 163.96684,60.254699 165.11898,61.018811 C 166.70674,61.089362 166.73114,59.870779 166.77478,59.676694 C 167.84263,60.508522 169.054,59.806933 168.93078,58.479995 C 169.52483,57.025884 167.67153,55.953993 168.01137,54.435565 C 167.72215,53.397999 168.60694,51.556168 166.86886,52.080929 C 165.20644,52.631222 165.5572,50.917613 165.36138,49.818649 C 165.34092,48.755337 165.15163,47.524854 165.44439,46.551435 C 166.95991,45.820177 165.17951,44.619041 165.54938,43.503621 C 166.02622,42.245609 165.55186,41.23129 164.64727,40.327195 C 165.20344,39.350798 165.19086,38.123523 163.93086,37.735758 C 162.63245,38.16972 162.69347,36.223597 162.05713,35.498413 C 162.91732,34.729762 163.88894,34.108182 164.95269,33.842682 C 165.95566,32.871812 165.43783,31.241536 166.43765,30.214502 C 165.67439,29.109666 166.35096,28.253989 166.93427,27.299748 C 166.16271,25.891208 167.00463,25.336028 168.34642,25.045228 C 169.19259,24.117472 170.11,24.505548 171.20461,24.653331 C 172.35814,24.459809 172.15266,22.609663 171.50112,21.887393 C 170.84328,20.877575 170.75463,19.716107 171.46231,18.710228 C 171.44276,17.687392 170.99108,16.58228 171.39338,15.475151 C 170.12948,15.517598 171.39213,13.943227 170.16182,13.358233 C 170.04567,13.120411 172.10533,11.206952 170.99237,11.488155 C 169.77466,11.580986 169.3369,12.498506 168.46629,11.607572 C 167.50829,12.098326 166.2018,12.203018 165.83508,13.139681 C 164.74391,13.351072 164.21759,13.643481 163.04336,13.679313 C 162.12389,13.268129 160.94363,12.952737 160.18947,13.799367 C 159.52466,14.118136 158.54654,11.436969 158.0585,12.629489 C 158.11017,13.369086 159.43962,14.251451 157.90187,14.685674 C 156.83045,14.398011 155.69048,14.625939 154.8852,15.266156 C 153.67636,15.572459 153.96232,15.848083 152.68166,16.105479 C 151.10758,15.576396 152.79002,17.914705 151.53858,17.833183 C 152.30436,19.33042 150.77344,19.264615 149.67975,19.471292 C 148.47831,20.186678 147.46268,19.217361 146.58689,19.205829 C 145.57673,19.282111 144.51448,19.309474 143.37027,19.475082 C 142.26226,19.380578 141.57114,20.327213 140.2446,19.899905 C 139.11369,19.895631 137.86591,19.870306 136.95501,19.212303 C 135.73424,19.290722 135.22412,18.318441 133.9705,18.391135 C 132.41026,18.05289 131.63882,16.3199 130.16158,15.821552 C 130.09671,14.684995 128.24678,13.520192 128.41605,15.232029 C 128.30811,16.447674 129.67381,16.936764 128.61575,18.202478 C 128.11018,19.328208 127.84941,20.494022 127.88784,21.716709 C 127.45753,23.657871 126.15957,25.292275 125.79775,27.246826 C 124.51918,27.870245 124.09881,28.582213 125.59015,29.102121 C 124.92172,29.423884 123.19765,28.864308 122.70499,29.734683 C 122.56195,30.785032 121.01307,31.651474 122.10217,32.570065 C 122.94243,33.486662 123.22977,34.463566 122.03397,35.187479 C 121.32883,36.129913 120.47151,36.892069 119.45038,37.481968 C 119.93306,39.193057 117.72582,38.434661 117.08748,39.139715 C 116.1742,39.000527 115.39291,39.849764 114.50371,39.264722 C 113.33256,39.359684 112.05084,40.016878 110.9485,39.673874 C 110.42236,39.337805 109.69608,39.635697 109.53261,38.830784 z "   />

<path id="Fermanagh_and_South_Tyrone" d="M 162.69186,138.24654 C 164.42404,139.10285 162.45684,141.71729 161.08212,141.91918 C 158.5396,140.10017 159.54284,144.94549 157.37595,142.6897 C 156.36822,141.47909 154.53518,139.14681 153.18474,141.06287 C 153.75422,143.46761 149.88159,143.94692 150.04981,145.11357 C 151.72794,146.53886 147.85195,147.99866 149.88276,148.80924 C 149.99218,150.06269 147.11841,152.52709 146.82343,149.98918 C 144.53123,149.68771 143.83649,150.0965 142.0629,149.03706 C 139.67434,146.99671 140.19881,150.95541 139.28592,151.338 C 137.89573,152.28839 140.14819,154.30571 138.33382,155.46379 C 138.41034,157.60223 135.44019,158.56918 135.93266,161.00943 C 135.5906,163.16766 133.61297,163.43487 132.50449,162.65123 C 131.84262,160.77441 130.57658,159.27309 128.81001,159.53509 C 129.25634,158.39875 128.65566,156.43749 127.67139,154.96203 C 125.58496,155.40967 127.36194,153.53314 125.19829,152.84997 C 124.03269,151.91371 122.25565,150.72453 121.98933,149.19576 C 119.57649,150.05024 120.25814,148.28515 117.75849,147.56836 C 116.9643,145.6588 114.46703,148.27837 114.05511,149.35445 C 112.82815,151.1678 111.84344,152.4684 110.80208,154.27367 C 107.53438,154.70298 109.95338,157.47546 108.26493,157.87794 C 106.73597,158.50767 105.3382,160.03997 104.22866,160.73749 C 102.65895,161.3426 99.313978,158.95609 100.88431,162.20787 C 101.45718,164.70721 101.59999,165.74509 99.418802,165.41426 C 97.241489,167.1747 98.426295,167.96762 100.46692,169.1233 C 103.07537,169.30675 99.11798,173.04536 102.35694,172.05328 C 103.24578,172.34037 105.79859,175.94037 103.42326,175.69604 C 102.20321,177.21261 105.21526,177.79549 103.32949,180.1356 C 101.82542,182.40394 99.975482,180.05946 99.192763,179.9932 C 98.675831,183.06887 96.83183,180.75018 95.292935,181.80078 C 93.62853,183.63962 93.703871,183.36222 94.328868,184.94049 C 91.573966,184.14981 91.973513,188.06361 93.650238,188.86922 C 93.308201,189.28573 91.756534,190.73769 92.474037,192.59593 C 91.51265,194.00572 90.260508,195.75635 89.141663,197.27711 C 86.974143,195.84757 86.472352,200.0144 85.423361,197.41511 C 84.562715,196.16394 82.712621,198.82328 81.76284,196.00764 C 81.31182,193.09745 78.773338,198.63752 78.603105,196.63278 C 78.021611,195.56581 82.516985,192.52952 79.220872,193.65177 C 78.073242,193.19069 74.858338,194.61364 75.80081,192.81132 C 78.485455,190.70796 75.022902,190.71827 73.669937,191.00909 C 72.131802,192.35984 71.246601,193.44264 70.339003,195.24645 C 69.368601,197.36404 67.197453,194.65053 65.735725,194.57948 C 64.426309,192.52212 63.546504,196.23011 62.368338,195.16812 C 59.974388,195.45303 61.009687,192.17649 58.912296,192.43724 C 57.408935,192.69432 55.300178,190.54475 55.50058,189.50159 C 55.888284,187.15613 53.397324,186.68832 52.527571,184.70836 C 51.158536,184.0764 49.740408,185.24427 50.18164,182.57443 C 49.141003,181.03697 49.38397,179.53459 47.566364,180.61526 C 46.937008,182.29196 43.483296,180.13293 42.528125,179.74746 C 41.188114,181.14832 38.550078,178.74102 37.373675,180.76949 C 35.810306,181.27115 34.261423,178.77899 32.808716,178.39368 C 31.860316,177.22107 33.156329,174.75641 32.393329,172.87245 C 33.605227,170.47377 30.342961,169.3894 31.380558,166.89283 C 32.995389,164.41872 32.231669,165.66421 30.422566,164.03067 C 29.095811,162.03565 27.397896,165.77609 26.64925,162.61209 C 25.178822,163.7739 22.830796,161.55755 22.719594,159.92762 C 22.691892,158.09051 20.552765,157.31346 20.418658,155.61613 C 18.634174,154.60568 20.126777,151.77299 17.140535,153.07639 C 16.202329,152.79751 14.156942,152.08349 13.674572,150.77626 C 12.768652,149.22915 12.003838,147.13362 11.106318,145.53213 C 9.8642905,143.81743 8.766803,142.79492 7.3398776,141.18221 C 7.1803696,139.78792 2.4943056,138.15832 5.2564813,137.2009 C 7.4938945,136.22378 3.544537,134.48575 2.5000048,133.88272 C 3.8655143,132.24441 6.0468691,132.98605 7.9674248,133.06334 C 9.1266487,132.93814 11.813906,131.88504 10.922953,130.63602 C 12.78004,129.90689 14.188994,130.92187 16.14686,130.47099 C 17.289288,129.0281 15.955176,127.29481 17.644024,125.90249 C 18.975361,124.57338 19.441328,123.47518 20.11397,121.8227 C 21.12512,120.56866 23.633826,120.92313 24.953842,121.50534 C 24.932371,123.44514 28.152583,123.3178 29.09731,122.61208 C 30.871653,123.23378 32.826545,122.91855 34.627002,123.25133 C 35.764003,123.63494 37.938226,123.16402 38.680038,121.66402 C 36.77084,120.85651 39.052011,118.54722 40.663593,118.56967 C 42.136266,117.52645 41.131048,115.148 42.72649,115.87204 C 45.234461,115.50555 45.419457,114.16188 46.663044,112.96995 C 48.667661,113.20452 49.886423,111.24118 51.930183,111.66691 C 54.758574,111.76121 53.080017,116.33226 55.812472,115.88997 C 58.251972,115.22874 59.395754,117.05805 60.816505,118.41099 C 61.187542,120.79782 64.545534,118.76875 66.19367,118.8306 C 67.584992,119.48536 68.553204,122.66194 65.89941,123.15964 C 64.083693,124.40072 65.143351,126.82918 63.377198,128.41824 C 63.559172,130.14854 64.277221,131.67245 62.727779,133.7294 C 60.898892,135.38495 65.087698,137.15874 63.755185,138.98501 C 66.145339,139.73623 63.822169,142.49691 66.269558,143.2865 C 68.583224,144.36071 65.587078,145.10043 68.395056,146.82589 C 69.286518,147.79884 71.52042,145.51091 72.607933,144.96803 C 73.539838,143.07848 76.506547,145.35509 77.536716,142.78798 C 76.917868,140.51165 80.156582,141.48497 81.602149,142.06719 C 83.142503,143.59593 85.279882,141.2679 86.931372,141.23886 C 88.863709,142.5769 90.844542,141.87005 92.282014,140.71648 C 91.962322,138.05873 91.473529,138.32462 94.329758,140.12299 C 95.913835,141.40256 97.589537,138.40145 99.346844,138.20578 C 100.59636,136.93343 100.01705,135.87291 102.898,137.09098 C 104.72698,138.96106 105.20072,134.7968 107.0278,136.11849 C 108.07394,138.55238 108.72532,134.83133 109.77063,133.88272 C 110.61555,130.86221 113.47859,133.32926 113.79641,132.24754 C 114.36128,133.4411 117.01195,132.22842 116.43538,130.47099 C 117.0014,127.59782 120.12792,129.64648 120.78219,126.98184 C 121.91291,127.75883 123.28518,130.08801 125.25888,129.89057 C 128.37962,129.00809 125.71658,133.45178 128.38834,132.13719 C 129.96829,132.37655 131.11559,130.8359 132.85921,132.29587 C 133.42009,128.77225 135.82137,132.10232 136.50896,129.83626 C 138.25142,130.20784 140.47189,133.59461 140.92601,129.72036 C 141.97774,129.26593 143.92005,126.21569 145.23659,128.61843 C 145.99227,129.83394 148.13664,131.8432 149.72594,131.82896 C 151.15183,129.61125 152.40333,130.62022 153.4812,131.78495 C 153.83292,133.25257 156.82303,134.74578 158.50178,133.87375 C 160.318,134.46551 162.6247,132.87161 161.98994,135.2052 C 164.3381,136.51394 162.92469,136.08488 162.69186,138.24654 z M 53.99308,151.97273 C 54.645642,150.03347 53.443316,148.21447 53.199657,146.41878 C 50.307319,146.36666 50.923137,143.74742 51.454599,142.06155 C 49.478975,142.63079 47.980886,140.81596 47.041974,139.50259 C 46.515635,137.63764 44.243838,135.49376 46.376228,134.67615 C 49.36826,135.13862 48.676459,130.49271 46.226451,131.81426 C 43.323045,131.59875 44.372069,129.48158 45.662151,128.01138 C 47.702383,126.84038 43.596278,124.56362 43.421533,127.12055 C 41.768313,126.59835 40.029588,128.34154 38.157369,128.46877 C 36.362658,129.30913 34.079786,129.80495 32.211858,128.52942 C 32.918587,127.89351 36.049247,127.52212 37.679197,126.4494 C 40.655436,125.63916 41.629087,125.69227 38.389084,124.45606 C 36.871549,123.61278 34.580309,125.29486 33.095234,126.47615 C 30.992496,126.51451 30.398758,129.64076 28.308944,129.07686 C 26.982867,128.90249 25.969784,129.88586 24.206581,128.96134 C 22.256171,130.86292 26.933986,130.62795 23.389686,132.89726 C 21.718889,134.57892 20.718047,130.12371 19.711673,133.70512 C 19.001264,135.03244 23.319816,134.0209 24.406438,134.12009 C 26.213471,132.71697 28.882995,135.64331 30.507793,133.56535 C 32.527769,135.04942 34.767376,133.56927 36.778267,135.11816 C 38.838633,135.58931 39.296852,138.39589 40.901619,138.5639 C 42.262824,140.30099 45.384033,139.405 45.023361,142.22119 C 46.058109,143.28649 48.295143,147.27099 49.391232,144.75259 C 51.186283,147.56636 52.990332,150.7436 52.750294,154.15105 C 53.020839,157.29687 54.47183,152.72485 53.99308,151.97273 z "   />

<path id="Mid_Ulster" d="M 175.70398,80.564774 C 174.70369,81.30558 174.14034,82.275319 174.12572,83.532568 C 173.9101,84.791123 173.69065,86.049045 173.48241,87.308853 C 174.42354,87.941598 174.83076,89.023006 175.47965,89.823235 C 175.84394,90.960703 174.455,91.808046 174.06497,92.820688 C 173.96007,94.225538 172.21918,91.732422 171.86625,93.54358 C 171.24388,94.434345 169.31533,94.721495 170.38806,96.036499 C 169.6456,97.31313 170.29887,97.864418 169.48925,98.70625 C 167.71532,99.137574 169.73014,100.11164 168.67589,100.96251 C 167.58872,101.71331 169.62633,102.64309 169.25474,103.79825 C 169.17728,104.98634 169.14944,106.27392 169.83266,107.30309 C 169.49634,108.38064 170.30744,109.58264 171.18245,110.19424 C 171.8757,111.20951 170.51644,112.69134 171.18147,113.80914 C 170.62662,114.856 170.42394,115.93225 170.86411,117.06217 C 169.68509,117.77037 168.04344,118.90006 168.80121,120.47389 C 168.08231,121.42013 166.64725,120.69282 165.84766,121.1946 C 165.50189,122.32494 164.21799,122.78601 164.13203,123.98584 C 163.60467,124.59343 162.19918,124.83829 161.17993,124.98537 C 160.68868,125.65089 161.69915,127.54187 160.52055,127.96955 C 158.75875,129.0482 161.06386,129.26779 160.89629,130.15889 C 160.95105,130.57591 162.31812,129.96182 162.2152,131.73833 C 163.28203,133.18177 161.10191,133.06398 161.11914,134.39576 C 160.04953,134.22239 159.30885,132.99812 158.19828,133.99933 C 156.95316,134.96437 155.81006,133.56462 154.75764,132.9306 C 153.08078,133.65466 154.12606,130.91872 152.48223,131.17602 C 152.74129,130.34477 150.8157,129.79924 150.4077,131.10378 C 150.07201,132.15538 147.88245,132.35007 147.96956,130.98258 C 147.28073,130.19197 145.92352,129.75692 145.23659,129.24775 C 145.82136,128.05128 143.59363,127.46453 143.33232,127.72587 C 143.0056,128.93498 141.41391,129.16976 141.00986,129.41292 C 140.83644,130.19282 140.22271,132.44709 139.33918,131.58823 C 138.42646,131.1002 137.73824,130.0159 136.84178,129.79928 C 136.0665,130.56183 135.86924,131.59798 134.68408,130.23299 C 133.33648,129.56543 133.81883,132.75842 132.57052,132.04327 C 131.55719,130.56215 130.61042,132.38394 129.87881,132.19535 C 129.16318,130.80728 127.97543,132.97093 127.37002,132.4039 C 125.74868,131.51576 128.04889,130.29052 126.65353,130.15905 C 125.42049,129.72554 124.5622,130.09786 123.64178,129.2763 C 122.18402,129.30228 122.00091,127.96757 121.34172,127.05286 C 120.35214,126.45839 123.49229,126.9871 123.21805,125.4746 C 122.93517,124.66744 121.49327,123.95738 122.83903,122.87722 C 124.35229,122.12764 123.10204,121.01521 122.71327,119.92971 C 121.97656,118.68613 124.54458,120.60308 123.73486,118.64902 C 125.35166,119.35558 123.50944,116.81421 124.90891,116.77656 C 125.71357,116.32193 127.25949,115.00599 125.52989,114.63723 C 124.63092,114.02071 124.73322,112.56436 124.55977,111.53595 C 124.34235,110.47474 123.13516,109.81477 123.75132,108.76125 C 122.71456,107.95701 121.66174,107.15097 123.49683,106.66835 C 125.06883,105.53616 124.40483,105.28019 122.77041,105.4045 C 121.66478,104.83219 121.39615,103.64958 121.40072,102.74737 C 120.27064,101.9809 122.45104,100.90428 122.20299,100.00096 C 120.55641,99.020192 123.50723,97.924736 122.01701,97.233589 C 120.03615,96.54442 122.05292,95.908053 121.55335,94.897592 C 120.23563,93.673796 122.04275,93.368981 122.58355,92.348148 C 123.10377,91.039919 124.58849,91.986516 125.58385,91.313341 C 126.69755,90.934873 127.89164,90.643312 128.49539,89.530434 C 127.59904,89.083326 127.78995,86.859674 128.54193,86.954106 C 129.92397,88.018257 130.09457,86.52322 131.05167,85.902032 C 132.35906,85.4902 131.66883,83.839632 131.10552,83.035868 C 130.51762,82.27968 129.11148,80.983919 130.75938,80.491326 C 131.48457,80.003824 130.86477,77.833805 132.54464,78.4034 C 133.77147,78.548229 133.62728,76.875572 133.63164,76.080956 C 134.28527,75.016595 133.29073,73.593071 134.36671,72.709892 C 135.40942,73.207097 137.17854,71.930393 137.36155,72.378874 C 136.7871,73.857999 138.51843,73.892618 139.54159,74.125715 C 140.41223,74.598709 141.96449,75.480923 142.47645,74.12661 C 142.70872,73.00023 144.34164,72.486285 144.32186,71.552565 C 142.97712,69.752494 145.9459,71.019213 145.86441,70.035205 C 145.2244,68.797666 145.81526,68.127264 146.1516,67.011668 C 145.58421,65.948033 147.96937,65.354613 146.6001,64.731064 C 145.04661,65.501463 144.97047,63.859921 145.49656,62.96564 C 146.75469,63.075463 146.81841,61.051156 148.02371,61.470002 C 149.14634,61.834151 149.07216,59.649149 150.68365,60.208121 C 151.99592,59.826061 152.70609,60.725907 152.97968,61.917593 C 153.07617,63.620977 154.37999,63.021165 155.54151,62.774078 C 156.32251,62.205256 155.67697,59.765319 156.73868,61.947067 C 157.4644,61.817379 157.77696,59.50355 158.77699,59.641759 C 159.80651,60.254551 161.45988,59.240699 161.49206,60.9402 C 162.47427,60.443113 163.91819,61.577697 164.21306,61.22985 C 164.2584,60.460447 165.78183,61.492141 166.74524,60.546386 C 165.97882,58.82779 167.41374,60.428594 168.58394,59.874039 C 168.96994,59.004937 168.65998,56.783319 169.98753,58.286831 C 171.22432,58.874109 171.66934,59.592829 171.02556,60.743875 C 171.50926,61.874598 172.14508,62.925112 172.76833,63.982254 C 171.19566,64.333962 172.20195,65.895978 172.22612,66.99708 C 172.44977,68.074737 173.9621,68.582458 173.48241,69.89356 C 172.89949,71.258449 174.56779,71.719512 174.31484,72.92062 C 174.33264,74.869422 175.08953,76.767983 175.45613,78.680631 C 175.65574,79.322495 176.16814,79.919408 175.70398,80.564774 z "   />
</svg>
