<svg width="207.164850675556" height="108.425685273187" xmlns:dc="http://purl.org/dc/elements/1.1/" xmlns:cc="http://creativecommons.org/ns#" xmlns:rdf="http://www.w3.org/1999/02/22-rdf-syntax-ns#" xmlns:svg="http://www.w3.org/2000/svg" xmlns="http://www.w3.org/2000/svg" xmlns:sodipodi="http://sodipodi.sourceforge.net/DTD/sodipodi-0.dtd" xmlns:inkscape="http://www.inkscape.org/namespaces/inkscape"><style>path{fill-opacity:1;display:inline;fill:#ffc8c8;stroke-width:1;stroke-miterlimit:4;stroke:#000000;stroke-opacity:1;stroke-dasharray:none;}</style>

<path id="Yeovil" d=" M 160.87328782459,73.8871643491361 160.369509261465,73.3274103901083 160.25755846966,72.5437548474694 160.25755846966,71.6481485130249 160.145607677854,71.2003453458026 159.585853718826,71.2558729385381 158.970124363896,71.031971354927 158.410370404868,70.5841681877047 158.354484569598,70.2481366910212 158.186647942524,70.0242351074101 157.794820171204,69.9687075146746 157.347017003982,69.7448059310635 157.179180376907,69.0172153449606 157.626983544129,68.4572822646659 158.186737503157,68.4572822646659 157.515032752324,67.841642470369 157.291131168713,67.2818885113412 157.123294541638,66.7221345523134 157.011343749832,67.0579869277301 156.675491374415,66.8340853441189 156.339638998999,66.5542979252383 156.003786623582,66.8340853441189 155.611958852263,66.3303963416272 155.332081872749,65.8825931744049 154.604401726013,65.3226600941103 153.932696975179,65.3226600941103 153.87681113991,64.6509553432769 154.212663515326,63.8674789219048 154.324614307132,63.0277584227299 154.772417474354,62.4119395071657 154.828303309624,61.9641363399435 154.380500142401,62.0769827380836 153.876721579276,62.3567701569639 153.093066036637,62.580671740575 152.14148430629,62.8045733241862 151.805631930874,63.0284749077973 150.966000992332,63.7001796586306 150.350271637401,64.7638017414171 149.958443866082,65.6594080758616 149.454665302957,66.7789159939172 149.734542282471,65.5472781627892 149.398689907054,65.323376579178 148.726985156221,65.7152939111307 148.055280405387,66.163097078353 148.111166240657,66.8906876644559 147.439461489823,67.3384908316781 146.935682926698,68.0101955825115 146.823732134893,68.5701286628061 146.711781343087,68.961866873492 146.431904363573,68.7379652898808 145.76019961274,68.2901621226586 144.976544070101,67.8423589554364 144.304839319268,67.3945557882141 143.857036152045,67.7304081636308 144.304839319268,68.0662605390475 143.465208380726,68.7379652898808 143.185331401212,68.7934928826167 142.681552838087,68.2896247588581 141.841921899545,68.2896247588581 141.72997110774,68.5135263424692 141.562134480665,69.3530677203773 141.562134480665,69.8569358441359 142.177863835595,70.3608039678946 142.849568586429,70.696477222044 142.849568586429,71.2003453458026 142.345790023304,71.8159851400996 142.401675858573,72.6557056392749 142.793503629892,73.2154595983027 143.465208380726,73.3265147837737 143.409322545456,73.6063022026543 143.017494774137,73.998219534607 142.06591304379,74.8938258690515 141.05835591754,75.8453180387655 139.435069436359,77.3008574535047 138.147635330595,78.4203653715603 137.02812741254,79.3159717060048 136.580324245317,79.4843456968804 135.572767119067,80.3238870747885 135.236914743651,79.8760839075663 135.236914743651,79.2043791567329 134.957037764137,79.0360051658572 134.565209992817,78.7001527904406 134.117406825595,78.3082354584879 134.173292660864,78.1971802730165 134.397194244475,77.9172137328694 134.453080079745,76.6857550230083 133.94930151662,76.1820660205164 133.94930151662,75.7901486885638 133.725399933009,75.6217746976881 133.613449141203,75.7346210958283 133.277596765786,76.1263593065141 132.605892014953,76.5741624737364 131.822236472314,76.9100148491531 131.038580929675,77.3019321811061 130.198949991133,77.3019321811061 129.91907301162,76.9659006844226 129.695171428008,76.8548454989513 129.023466677175,77.134632917832 128.911515885369,77.5265502497846 128.631638905856,77.5265502497846 128.239811134536,77.2465837096375 127.456155591897,76.6868297506097 126.784450841064,76.0151249997764 126.616614213989,76.2390265833875 126.616614213989,76.7427155858789 126.336737234475,77.0787470825624 126.336737234475,77.3026486661735 126.616614213989,77.5824360850542 126.280761838572,78.0861250875456 125.776983275447,78.757829838379 125.329180108225,79.5975503375543 125.329180108225,80.7170582556099 124.657475357392,80.661530662874 124.209672190169,80.4376290792629 123.593942835239,80.2692550883877 123.090164272114,80.100881097512 122.082607145864,79.0935030925288 121.354926999128,78.7015857605757 121.242976207322,79.2052747630675 121.019074623711,79.4852413032146 120.40334526878,79.6536152940903 119.955542101558,79.9896467907738 119.787705474483,80.4374499579961 119.060025327747,80.4929775507315 118.444295972817,80.6040327362029 118.164418993303,81.1079008599611 117.380763450664,81.4435741141109 116.821009491636,81.1637866952307 116.876895326905,80.88399927635 116.37311676378,79.5405897746833 115.141658053919,78.3089519435552 114.35800251128,77.6372471927219 113.574346968641,76.7416408582774 113.126543801419,75.9020994803693 112.7347160301,76.2938376910552 112.174962071072,76.2938376910552 112.007125443997,76.069936107444 111.335420693163,76.7416408582774 110.495789754622,76.6305856728065 110.271888171011,76.4622116819308 109.320306440663,77.0219656409586 107.920921543094,77.8056211835975 107.473118375872,77.4697688081809 107.081290604552,77.8615070188671 106.969339812747,78.5332117697005 106.745438229136,78.9251291016531 106.689552393866,79.7648496008285 106.073823038936,80.2685386033199 105.402118288102,80.2130110105844 104.56248734956,80.7725858483454 104.394650722486,81.33251892864 104.114773742972,81.6681921827898 103.163192012624,82.1159953500121 101.819782510958,82.5637985172343 100.924176176513,82.5082709244989 100.084545237972,82.2843693408877 99.5807666748465,81.7806803383959 99.1329635076243,81.5567787547848 98.1254063813742,81.1089755875626 97.2298000469297,81.164503180298 96.8379722756103,81.6123063475203 96.6140706919991,82.7318142655759 96.4462340649243,83.2355032680677 97.0059880239521,83.907208018901 97.3418403993688,84.1871745590482 97.4537911911744,84.8588793098815 98.4053729215216,85.5866490172513 99.077077672355,86.3701254386234 100.196585590411,86.3701254386234 100.756339549438,86.8179286058456 101.148167320758,87.2098459377983 101.148167320758,87.2653735305342 101.428044300272,87.2653735305342 101.763896675688,87.7131766977564 101.763896675688,88.832684615812 101.372068904369,89.8404208633289 101.260118112563,90.679962241237 101.539995092077,91.6316335322179 101.539995092077,93.3107162880344 101.260118112563,93.7026336199871 101.204232277294,94.3184525355513 102.211789403544,94.7101907462371 102.491666383058,95.1579939134594 103.219346529794,95.3818954970705 103.555198905211,95.8857636208292 103.723035532286,96.6692400422012 103.387183156869,97.453074706107 103.499133948675,98.6284684594317 104.338764887216,98.5729408666963 105.346322013466,98.0130077864016 106.801682306939,97.9019526009303 107.809239433189,98.6295431870332 108.257042600411,98.7979171779089 108.760821163536,98.0140825140027 109.936304477494,98.0140825140027 110.272156852911,98.2940490541502 110.719960020133,98.1256750632746 111.335689375064,98.1256750632746 111.335689375064,98.7973798141079 112.175320313606,98.7418522213725 111.503615562772,99.8613601394281 111.615566354578,100.253098350114 111.839467938189,100.813031430409 111.951418729994,102.380342515687 112.735074272633,103.219883893595 112.735074272633,103.667687060817 113.518729815272,104.507228438725 113.574615650542,104.843259935409 114.022418817764,104.730413537269 114.35827119318,104.562039546393 114.638148172694,103.89033479556 114.862049756305,103.386466671802 114.862049756305,102.826891834041 115.02988638338,102.211072918477 115.477689550603,101.87522054306 115.645526177678,102.043594533935 115.981378553094,102.099122126671 116.541132512122,101.371352419302 116.765034095733,101.14745083569 117.10088647115,101.26029723383 117.660640430178,101.26029723383 118.220394389205,100.812494066608 118.780148348233,100.812494066608 119.060025327747,100.420576734655 119.451853099067,100.365049141919 119.843680870386,100.588950725531 120.291484037608,100.308984185383 120.515385621219,99.9731318099668 121.299041163858,99.8620766244954 121.690868935178,99.4142734572732 122.194647498303,99.1903718736621 122.53049987372,99.3014270591334 122.754401457331,99.6372794345501 122.978303040942,99.9172459746972 123.202204624553,99.9727735674331 123.258090459822,99.748871983822 123.537967439336,99.5249704002109 125.161253920517,99.6360255856818 125.553081691836,99.4121240020707 126.392712630378,99.3565964093352 126.784540401697,99.1882224184595 127.456245152531,99.1882224184595 127.624081779606,99.8038622127569 128.295786530439,99.8038622127569 128.687614301758,99.5799606291458 129.303343656689,99.5799606291458 129.639196032106,99.1882224184595 130.031023803425,99.1882224184595 130.814679346064,98.4604527110902 131.430408700995,97.6769762897181 131.654310284606,96.8372557905428 132.270039639536,96.8372557905428 132.54991661905,97.2291731224959 132.158088847731,97.6769762897181 132.94174439037,98.1806652922095 133.781375328911,98.5725826241626 134.229178496134,98.9082558783124 134.788932455161,98.7398818874368 135.012834038773,98.5715078965611 135.180670665847,98.0115748162665 135.404572249459,97.5078858137747 136.63603095932,97.3395118228994 137.531637293764,97.4523582210392 138.147366648695,97.2284566374281 138.147366648695,96.4446219735223 138.371268232306,96.164834554642 138.763096003625,96.275889740113 139.042972983139,96.6117421155297 142.345521341403,96.6672697082651 142.793324508626,96.2194665410429 143.129176884042,96.6672697082651 143.465029259459,96.722797301001 143.576980051264,96.8338524864719 143.800881634876,96.8338524864719 144.080758614389,96.6099509028608 144.080758614389,95.6584587331472 144.192709406195,95.3784921929997 144.472586385709,95.5468661838753 144.920389552931,95.6023937766108 145.312217324251,94.9867539823138 146.207823658695,94.9867539823138 146.37566028577,94.3150492314805 147.719069787437,94.2595216387446 148.558700725978,94.1484664532736 149.846134831742,93.1409093270236 150.79771656209,92.2453029925791 151.077593541604,92.2453029925791 151.41344591702,92.4136769834548 151.80527368834,92.8055943154075 152.141126063756,93.0294958990186 152.197011899026,92.8611219081429 152.47688887854,92.8611219081429 152.47688887854,92.0215805302348 152.756765858054,92.0215805302348 153.540421400692,92.1899545211105 154.715904714651,92.4699210612576 154.995781694165,92.7498876014051 154.995781694165,93.7572656063883 155.611511049095,93.7572656063883 155.835412632706,93.4774781875077 156.283215799929,93.4774781875077 157.066871342568,92.5818718530632 157.122757177837,91.6303796833495 157.346658761448,91.5175332852094 156.954830990129,91.2936317015982 156.451052427004,90.845828534376 156.451052427004,89.9502221999315 156.339101635198,89.7818482090563 156.059224655684,89.2779800852976 156.059224655684,88.9423068311478 155.947273863879,88.7739328402721 155.611421488462,88.6055588493969 155.499470696656,88.0459840116359 156.003249259781,87.5981808444137 156.283126239295,87.3182143042662 156.45096286637,86.4226079698217 156.674864449981,85.1352634246914 157.290593804912,84.6874602574691 157.962298555745,84.463558673858 157.962298555745,83.23192084273 157.738396972134,82.8401826320437 157.346569200815,82.3923794648215 156.898766033592,82.2240054739459 156.618889054078,81.7201373501876 157.122667617203,81.6646097574521 157.514495388523,81.3289365033023 157.514495388523,80.8811333360801 158.186200139356,80.5451018393965 158.801929494287,80.0414128369047 158.801929494287,79.2577572942658 158.578027910676,79.1467021087949 158.522142075406,78.8108497333782 158.80201905492,78.5869481497671 158.746133219651,77.7474067718586 159.193936386873,77.4113752751751 159.138050551604,76.9635721079528 158.522321196673,76.4039972701919 158.634271988479,75.8440641898972 158.746222780284,75.6201626062861 158.746222780284,75.0045228119892 158.634271988479,74.8361488211135 158.410370404868,74.780621228378 158.410370404868,74.2767531046194 158.802198176187,73.9410798504695 159.082075155701,73.605048353786 159.585853718826,73.8850148939336 159.977681490146,74.3328180611558 160.25755846966,74.3328180611558 160.87328782459,73.8850148939336 z" />

<path id="Somerton_and_Frome" d=" M 174.251407445355,15.3376167198954 174.307382841257,15.449567511701 174.643235216674,15.5615183035066 174.587259820771,15.7854198871177 174.75518600848,15.9534356354597 174.923112196188,15.9534356354597 175.202989175702,15.9534356354597 175.930669322438,16.0093214707288 176.266521697855,16.0653864272652 175.706767738827,16.457124637951 175.930669322438,16.6810262215622 175.650792342924,17.0168785969788 175.706767738827,17.24078018059 175.202989175702,17.6326975125431 175.147013779799,17.6326975125431 174.811161404382,17.6885833478122 174.531284424868,18.0244357232289 174.307382841257,17.9685498879597 174.139456653549,18.0805006797653 174.139456653549,17.8005341396178 173.411776506813,18.4722388904511 173.635678090424,18.6402546387931 173.467751902716,18.8641562224042 173.635678090424,19.2000085978209 173.915555069938,19.2000085978209 174.027505861743,19.3119593896265 173.467751902716,19.5917468085067 173.579702694521,20.3754023511457 173.803604278132,21.6068610610068 174.195432049452,22.5024673954513 173.635678090424,22.9502705626735 173.131899527299,23.5100245217013 173.019948735493,23.7899910618489 172.684096360077,23.845876897118 172.516170172368,23.6780402700433 172.124342401049,23.4541386864322 171.844465421535,23.6780402700433 171.732514629729,24.1817292725347 170.668982107577,24.5175816479514 169.661424981327,24.5736466044878 169.493498793618,25.5251387742014 169.045695626396,27.4843671914324 168.429966271465,29.5553672792016 167.814236916535,32.0182846989239 168.373990875563,32.0743496554603 168.765818646882,32.5221528226826 168.821794042785,33.6416607407382 168.93374483459,35.208971826016 167.982163104243,35.824611620313 167.198507561604,35.8806765768494 166.638753602576,36.3843655793408 166.414852018965,37.4479876621272 166.246925831257,37.6718892457383 165.743147268132,37.6718892457383 164.28778697466,38.007741621155 163.560106827924,38.5114306236464 163.112303660701,38.7913971637939 162.88840207709,38.8472829990631 162.440598909868,39.2950861662853 162.608525097576,39.798954290044 162.720475889382,40.0787417089243 162.160721930354,40.4706590408774 161.544992575423,40.0228558736551 161.433041783618,40.3587082490718 161.377066387715,40.4706590408774 161.153164804104,40.6384956679521 160.985238616396,40.6945606244885 160.425484657368,41.2543145835163 159.529878322923,41.3662653753218 158.746222780284,41.1423637917107 157.906591841743,40.9743480433687 157.738665654034,40.0228558736551 157.906591841743,39.630938541702 157.626714862229,38.9033479555995 157.514764070423,38.3435939965717 157.122936299104,38.2875290400353 157.010985507298,37.8957908293495 156.84305931959,37.3919227055908 156.227329964659,37.6718892457383 156.003428381048,37.8957908293495 154.939895858895,37.7838400375439 154.380141899868,38.1196924129606 153.764412544937,38.0636274564242 153.372584773618,37.7277750810075 153.708437149034,37.2799719137853 153.540510961326,37.3919227055908 153.204658585909,37.7277750810075 152.309052251465,37.6718892457383 152.309052251465,37.2799719137853 150.014061019451,36.832168746563 150.853691957992,37.7277750810075 150.741741166187,38.0636274564242 150.573814978479,38.2316432047661 150.965642749798,39.0152987474051 151.133568937506,39.2392003310162 151.133568937506,39.4070369580909 150.685765770284,39.4631019146273 150.573814978479,39.9667909171187 150.573814978479,40.3026432925354 150.629790374381,40.5265448761465 150.741741166187,40.6945606244885 150.741741166187,41.8140685425441 150.237962603062,42.0938559614243 150.181987207159,42.3177575450355 150.685765770284,42.597724085183 150.517839582576,42.8775115040633 150.293937998965,42.5416591286466 150.237962603062,42.7096748769886 150.293937998965,42.7096748769886 150.181987207159,43.0455272524052 150.014061019451,43.3813796278219 150.181987207159,44.1650351704608 150.237962603062,45.1165273401745 149.734184039937,45.2845430885164 149.454307060423,45.396493880322 149.006503893201,45.22847813198 148.334799142367,45.1725922967109 148.054922162853,44.388936754072 147.831020579242,44.22092100573 147.495168203826,44.1650351704608 147.38321741202,43.9411335868497 146.823463452992,43.6611670467022 146.431635681673,43.2133638794799 145.927857118548,43.1574780442108 145.312127763617,42.9894622958688 144.528472220978,42.7655607122577 144.584447616881,43.8850686303133 144.752373804589,44.8367399212942 144.752373804589,45.5084446721276 144.752373804589,45.7323462557387 144.36054603327,45.9562478393498 144.080669053756,46.1240844664245 144.024693657853,46.3479860500356 142.9611611357,46.8518541737943 142.905185739798,47.3555431762857 142.849210343895,47.8033463435079 142.737259552089,48.4191652590721 142.625308760284,48.810903469758 141.95360400945,48.3072144672666 141.33787465452,48.2511495107302 141.393850050423,49.3706574287858 140.9460468832,49.7625747607389 140.9460468832,50.4342795115722 139.994465152853,50.6021161386469 138.707031047089,50.4342795115722 137.363621545422,50.1543129714247 136.132162835561,50.0423621796191 135.012654917506,49.98647634435 134.676802542089,49.1467558451746 134.396925562575,48.027247927119 133.165466852714,48.027247927119 131.654131163339,48.027247927119 131.262303392019,48.0833128836554 130.534623245283,48.1391987189246 129.47109072313,48.5311160508777 128.519508992783,48.9228542615635 127.400001074728,49.0348050533691 127.176099491116,50.4342795115722 126.896222511603,51.7216240567025 126.672320927991,52.617230391147 126.560370136186,53.7367383092026 126.112566968964,54.0167048493501 125.720739197644,53.792803265739 125.049034446811,53.5689016821279 124.489280487783,53.3450000985168 123.985501924658,53.2330493067112 123.481723361533,54.1286556411557 122.698067818894,55.3040493944805 122.138313859866,56.4796222690725 121.858436880352,57.375228603517 121.858436880352,58.4386715650361 122.698067818894,59.4462286912862 122.977944798408,59.6142444396282 122.977944798408,60.0620476068504 122.362215443477,60.6776874011474 120.515027378686,62.3010634429616 117.436380604033,65.1557190733698 115.645167935144,66.2193411561562 114.581635412991,67.2268982824063 114.581635412991,67.7305872848977 114.917487788408,68.1783904521199 115.197364767922,68.6261936193421 114.189807641671,68.7942093676841 113.294201307227,69.1859475783699 112.230668785074,69.2978983701755 111.447013242435,69.4659141185175 110.831283887505,69.9696031210089 110.775308491602,70.7532586636478 110.383480720282,71.2571267874064 110.775308491602,71.8168807464342 111.055185471116,72.376634705462 111.223111658824,73.1602902481009 111.223111658824,74.0558965825454 111.167136262921,74.783487168648 110.383480720282,74.9515029169899 110.383480720282,75.2312903358702 110.551406907991,75.4551919194813 110.663357699796,75.95906004324 110.495431512088,76.3507982539258 110.271529928477,76.4627490457313 110.495431512088,76.6307647940733 111.33506245063,76.7427155858789 112.006767201463,76.0710108350455 112.174693389171,76.2949124186566 112.734447348199,76.2949124186566 113.126275119519,75.9029950867035 113.574078286741,76.7427155858789 114.35773382938,77.6383219203234 115.141389372019,78.3100266711567 116.37284808188,79.5414853810179 116.876626645005,80.8848948826846 116.820651249102,81.1646823015649 117.38040520813,81.4446488417124 118.164060750769,81.1087964662957 118.443937730283,80.6049283425371 119.059667085213,80.4929775507315 119.787347231949,80.4370917154624 119.955273419658,79.9892885482401 120.40307658688,79.6534361728234 121.018805941811,79.4854204244815 121.242707525422,79.2056330056012 121.354658317227,78.7017648818425 122.082338463963,79.0936822137956 123.089895590214,80.1012393400457 123.593674153339,80.2690759671204 124.209403508269,80.4370917154624 124.657206675491,80.6609932990735 125.328911426325,80.7168791343426 125.328911426325,79.597371216287 125.776714593547,78.757829838379 126.280493156672,78.0861250875456 126.616345532089,77.5822569637869 126.336468552575,77.3024695449067 126.336468552575,77.0785679612956 126.616345532089,76.7427155858789 126.616345532089,76.2388474621202 126.784271719797,76.0149458785091 127.45597647063,76.6866506293425 128.239632013269,77.2464045883703 128.631459784589,77.5263711285178 128.911336764103,77.5263711285178 129.023287555908,77.1344537965647 129.694992306742,76.8546663776844 129.918893890353,76.96661716949 130.198770869867,77.3024695449067 131.038401808408,77.3024695449067 131.822057351047,76.9105522129536 132.605712893686,76.5746998375369 133.277417644519,76.1268966703147 133.613270019936,75.7351584596288 133.725220811742,75.6232076678233 133.949122395353,75.791044294898 133.949122395353,76.1829616268511 134.452900958478,76.6866506293425 134.396925562575,77.9181093392036 134.173023978964,78.1980758793512 134.117048583061,78.3100266711567 134.564851750283,78.7017648818425 134.956679521603,79.0376172572592 135.236556501117,79.2056330056012 135.236556501117,79.8773377564346 135.572408876533,80.3251409236568 136.579966002784,79.4854204244815 137.027769170006,79.3175837974068 138.147277088061,78.4219774629623 139.434711193825,77.3024695449067 141.057997675006,75.8471092514344 142.065554801256,74.8954379604535 143.017136531603,73.999831626009 143.408964302923,73.6080934153232 143.464939698825,73.3281268751757 142.793234947992,73.2161760833701 142.401407176673,72.6564221243423 142.34543178077,71.8168807464342 142.849210343895,71.20106183087 142.849210343895,70.6973728283786 142.177505593062,70.3615204529619 141.561776238131,69.8576523292033 141.561776238131,69.3539633267119 141.729702425839,68.5142428275366 141.841653217645,68.2903412439255 142.681284156187,68.2903412439255 143.185062719312,68.7942093676841 143.464939698825,68.7381444111477 144.304570637367,68.0664396603143 143.856767470145,67.7305872848977 144.304570637367,67.394734909481 144.976275388201,67.8425380767032 145.759930930839,68.2903412439255 146.431635681673,68.7381444111477 146.711512661187,68.9620459947588 146.823463452992,68.570307784073 146.935414244798,68.0105538250452 147.439192807923,67.3388490742118 148.110897558756,66.8910459069896 148.054922162853,66.1632761996198 148.726626913687,65.7154730323976 149.39833166452,65.3237348217117 149.734184039937,65.5476364053228 149.454307060423,66.779095115184 149.958085623548,65.6595871971284 150.349913394867,64.7639808626839 150.965642749798,63.7003587798975 151.80527368834,63.0286540290641 152.141126063756,62.804752445453 153.092707794104,62.5808508618419 153.876363336743,62.3569492782308 154.380141899868,62.0771618593505 154.82794506709,61.9652110675449 154.771969671187,62.4130142347672 154.324166503965,63.0286540290641 154.212215712159,63.8683745282394 153.876363336743,64.6520300708784 153.932338732645,65.3237348217117 154.604043483479,65.3237348217117 155.331723630215,65.8834887807395 155.611600609729,66.3312919479618 156.003428381048,66.8349809504532 156.339280756465,66.5551935315729 156.675133131882,66.8349809504532 157.010985507298,67.0588825340643 157.122936299104,66.7230301586476 157.290862486812,67.2827841176754 157.514764070423,67.8425380767032 158.186468821257,68.4583569922674 157.626714862229,68.4583569922674 157.178911695007,69.0181109512952 157.346837882715,69.7457015373977 157.794641049937,69.9696031210089 158.186468821257,70.0256680775453 158.354395008965,70.2495696611564 158.410370404868,70.5854220365731 158.970124363896,71.0332252037953 159.585853718826,71.2571267874064 160.145607677854,71.20106183087 160.25755846966,71.6488649980923 160.25755846966,72.5444713325367 160.369509261465,73.3281268751757 160.87328782459,73.8878808342035 161.209140200007,73.4400776669812 161.936820346743,73.0483394562954 161.88084495084,72.4885854972676 162.440598909868,72.6564221243423 162.720475889382,73.0483394562954 163.056328264799,73.5520284587868 163.28022984841,74.167847374351 163.672057619729,74.167847374351 164.175836182854,73.8319949989343 164.399737766465,73.2722410399065 165.015467121396,72.8803237079534 165.519245684521,72.8244378726843 165.463270288618,71.4810283710175 164.679614745979,71.0891110390645 164.679614745979,70.6413078718422 165.351319496813,70.5293570800367 165.351319496813,69.9137172857397 166.750704394382,69.9696031210089 166.694728998479,70.7532586636478 166.974605977993,71.20106183087 167.254482957507,71.2571267874064 167.534359937021,71.4249634144811 168.429966271465,71.369077579212 168.93374483459,70.9771602472589 170.557031315771,70.9212744119897 170.948859087091,71.1451759956009 171.284711462507,71.8168807464342 171.844465421535,73.2161760833701 172.572145568271,74.5036997497677 172.740071755979,74.8395521251844 172.516170172368,75.175404500601 172.852022547785,75.3432411276758 173.467751902716,76.2949124186566 174.36335823716,77.3024695449067 174.36335823716,78.0861250875456 174.923112196188,78.1420109228147 175.035062987993,77.97417429574 175.37091536341,77.97417429574 175.650792342924,78.8137156736481 176.266521697855,78.8137156736481 176.434447885563,79.2056330056012 176.434447885563,79.3734696326759 176.154570906049,79.6534361728234 176.434447885563,80.0451743835093 176.882251052785,80.0451743835093 177.274078824105,79.7093220080926 177.833832783132,78.9817314219901 178.337611346257,78.1980758793512 178.337611346257,77.3583553801758 177.889808179035,76.8546663776844 177.889808179035,76.2388474621202 178.673463721674,76.2949124186566 179.40114386841,76.0149458785091 179.904922431535,75.6790935030924 180.408611434027,75.6232076678233 180.632513017638,75.8471092514344 181.08031618486,76.4627490457313 181.248242372569,77.1905187531011 181.696045539791,77.6942077555925 182.255799498819,77.6942077555925 182.647627270138,77.4144203367122 183.543233604583,76.798601421148 184.438839939027,76.0710108350455 184.942618502152,76.0149458785091 185.838224836597,75.3993060842122 186.957732754652,75.3993060842122 188.021265276805,74.9515029169899 189.308699382569,74.3356840014257 190.764059676041,74.1117824178146 190.708173840772,73.1042252915645 190.148419881744,72.5444713325367 189.700616714522,71.8727665817034 188.301231816952,71.8168807464342 187.909404045633,71.7049299546287 187.51748671368,71.6488649980923 187.069683546458,71.8727665817034 186.789806566944,71.7608157898978 186.453954191527,71.0891110390645 186.174077212013,70.5293570800367 186.174077212013,69.1300617431008 186.789806566944,68.4583569922674 186.789806566944,67.7866522414341 187.461511317777,67.2827841176754 187.797363693194,66.779095115184 188.581019235833,65.7154730323976 189.028822403055,64.8759316544895 190.148330321111,64.0362111553142 190.93198586375,63.3645064044808 190.987871699019,63.0286540290641 191.771527241658,62.5808508618419 191.995428825269,62.1330476946196 192.331281200686,62.1330476946196 192.667133576102,61.797195319203 192.667133576102,61.4054571085171 192.21933040888,60.6218015658782 192.21933040888,60.4537858175362 192.443231992491,60.2859491904615 192.443231992491,60.0620476068504 191.883478033463,59.2783920642115 191.379699470338,58.7745239404528 190.819945511311,58.7745239404528 190.707994719505,58.4386715650361 190.20421615638,57.4871793953225 190.316166948186,55.8638033535083 190.931896303116,55.0801478108693 191.267748678533,54.9681970190638 192.21933040888,55.0242619756002 192.6111581802,54.7442954354527 193.002985951519,54.3525572247668 193.058871786788,53.9047540575446 193.003165072786,53.4008859337859 192.443411113758,52.8971969312945 191.547804779314,52.617230391147 190.708173840772,52.3374429722667 190.26037067355,51.8335748485081 189.700616714522,51.2179350542111 189.700616714522,50.8260177222581 189.364764339105,50.5462303033778 188.637084192369,49.8745255525444 188.637084192369,48.6989526779524 188.86098577598,48.4750510943413 188.86098577598,48.027247927119 188.637084192369,47.6913955517024 188.469247565294,47.1316415926746 188.469247565294,46.3479860500356 188.637084192369,46.012133674619 189.420739735008,45.7882320910078 190.036469089939,45.3404289237856 190.484272257161,45.3404289237856 190.988050820286,45.0045765483689 190.988050820286,44.388936754072 190.540247653064,43.7172320032386 190.988050820286,43.2694288360164 191.491829383411,42.8775115040633 192.219509530147,42.6536099204521 192.667312697369,42.2058067532299 192.6114268621,41.590166958933 192.443590235025,41.2543145835163 192.443590235025,41.0304129999052 192.835418006344,40.4706590408774 193.619073548983,39.4070369580909 193.842975132594,38.7913971637939 194.794556862942,37.5599384539328 195.130409238358,37.1121352867105 195.130409238358,36.4963163711463 196.026015572803,35.6567749932383 196.865646511345,34.8170544940629 196.865646511345,33.9775131161549 197.201498886761,33.5855957842018 197.705277449886,32.9699559899048 197.705277449886,32.6341036144881 198.041129825303,32.4660878661462 198.041129825303,31.9063339071184 198.488932992525,31.4585307398961 198.544818827795,30.8987767808683 198.992621995017,30.3950877783769 199.440425162239,29.2195149037849 199.944203725364,28.3239085693404 200.447982288489,27.5963179832379 200.839810059809,26.8685482758682 200.447982288489,26.4207451086459 200.447982288489,26.1409576897656 200.615818915564,25.9170561061545 200.671704750833,25.0773356069792 201.00755712625,24.2936800643403 201.287434105764,23.3980737298958 201.455270732839,22.838319770868 201.455270732839,22.5585323519877 201.567221524644,22.222679976571 202.238926275478,21.5509752257377 202.574778650894,21.1590578937846 202.518892815625,20.6553688912932 202.854745191042,20.3195165158765 203.470474545972,19.423910181432 203.190687127092,19.0319928494789 202.966785543481,18.4722388904511 202.966785543481,18.24833730684 203.190687127092,17.9685498879597 203.582425337778,17.3527309723955 203.526539502509,15.7854198871177 203.246662522995,15.1137151362843 203.134711731189,14.0502721747651 202.798859355772,13.7144197993484 202.574957772161,12.7068626730984 202.127154604939,11.9232071304595 201.623376041814,11.8671421739231 201.175572874592,11.8112563386539 201.007736247517,11.4754039632372 201.287613227031,11.2515023796261 200.839810059809,10.9156500042094 200.559933080295,11.2515023796261 199.944203725364,11.2515023796261 199.216523578628,11.6993055468484 199.216523578628,11.2515023796261 199.160637743359,10.2439452533761 199.608440910581,9.57224050254272 199.608440910581,9.18032317058963 199.216434017994,9.01248654351491 198.488753871258,8.39666762795071 198.936557038481,7.94886446072847 199.216434017994,8.11688020907043 199.552286393411,8.06081525253403 199.664237185217,7.89297862545931 200.056064956536,7.50106129350623 200.279966540147,7.05325812628398 199.944114164731,6.43761833198703 199.944114164731,6.04570100003394 199.888228329461,5.31811041393143 199.384449766336,5.15009466558946 198.992621995017,5.20615962212587 198.824785367942,5.09420883032031 197.9851544294,5.20615962212587 197.649302053983,5.5978978328117 197.089548094956,5.5978978328117 196.473818740025,6.10176595657035 195.746138593289,6.43761833198703 195.35431082197,6.43761833198703 194.458704487525,6.99737229101483 193.675048944886,7.50106129350623 192.667491818636,8.45273258448711 192.219688651414,8.67663416809823 191.995607946536,8.39666762795071 191.659755571119,8.06081525253403 191.547804779314,8.28471683614515 191.100001612091,8.34078179268155 190.484272257161,8.73252000336739 189.812567506327,8.73252000336739 189.308788943202,9.23638812712604 188.021354837438,9.96397871322855 186.565994543966,10.020043669765 186.174166772647,10.3558960451816 186.118280937377,10.9156500042094 185.838403957863,11.2515023796261 185.446576186544,11.2515023796261 185.054748415225,10.859585047673 184.718896039808,10.020043669765 184.551059412733,9.57224050254272 184.159231641413,9.18032317058963 183.823379265997,9.51617554600631 183.431551494677,10.020043669765 183.207649911066,10.0759295050341 182.703871347941,9.9080928779594 182.47996976433,10.0759295050341 181.696314221691,10.6917484205983 181.696314221691,11.1395515878206 181.976191201205,11.3073882148953 181.976191201205,11.643240590312 181.528388033983,11.7551913821175 181.47241263808,12.5388469247564 181.192535658566,12.7627485083676 180.408880115927,12.7627485083676 180.296929324122,13.1546658403206 180.073027740511,12.9307642567095 179.457119264313,12.9866500919787 178.841389909383,13.5464040510065 178.505537533966,13.826370591154 178.505537533966,14.6100261337929 177.553955803619,14.6100261337929 177.497980407716,15.2817308846263 176.37847248966,15.2817308846263 175.818718530632,14.9458785092096 175.258964571605,14.6659119690621 174.867136800285,14.4980753419874 174.587259820771,15.0017643444788 174.419333633063,15.3376167198954 174.251407445355,15.3376167198954 z" />

<path id="Wells" d=" M 105.065818109518,3.58242533777793 104.785941130004,3.80632692138905 104.785941130004,4.14217929680573 105.289719693129,4.58998246402797 105.513621276741,4.58998246402797 105.681547464449,4.75799821236994 107.360809341532,4.75799821236994 107.472760133338,4.8699490041755 107.472760133338,5.20580137959218 107.640686321046,5.37363800666689 107.640686321046,5.70949038208357 107.864587904657,5.87750613042554 107.808612508755,9.01212830098123 107.584710925143,9.17996492805594 107.584710925143,10.187522054306 107.360809341532,10.2994728461115 107.360809341532,11.6428823477783 107.136907757921,11.8108980961202 107.136907757921,12.4826028469536 106.91300617431,12.6504394740283 106.91300617431,14.161864724037 106.689104590699,14.3297013511117 106.689104590699,14.777504518334 106.297276819379,15.1133568937506 106.241301423477,15.953077392926 106.353252215282,16.0650281847315 106.577153798893,16.0650281847315 106.689104590699,16.1209140200007 106.689104590699,16.4567663954174 107.080932362018,16.792618770834 107.080932362018,17.1284711462507 107.30483394563,17.2964868945927 107.30483394563,17.6323392700094 107.472760133338,17.8001758970841 107.472760133338,18.1360282725008 107.696661716949,18.3040440208427 107.696661716949,19.1435853987508 107.864587904657,19.3116011470928 107.864587904657,19.4794377741675 108.088489488268,19.6474535225095 108.088489488268,19.8152901495842 108.31239107188,19.9833058979261 108.31239107188,20.1511425250008 108.480317259588,20.3191582733428 108.984095822713,20.8789122323706 109.096046614518,20.9908630241762 109.096046614518,21.3267153995929 109.31994819813,21.4945520266676 109.31994819813,21.6625677750095 109.543849781741,21.8304044020843 109.487874385838,22.6140599447232 109.263972802227,22.7820756930651 109.263972802227,22.9499123201399 109.096046614518,23.1179280684818 109.096046614518,23.7896328193152 109.152022010421,23.9015836111207 109.375923594032,23.9015836111207 109.711775969449,24.1254851947319 109.711775969449,24.6291741972233 110.32750532438,25.1330423209819 110.271529928477,25.1889281562511 110.495431512088,25.2449931127875 110.775308491602,25.356943904593 110.775308491602,25.97258369889 111.111160867019,26.1405994472319 112.174693389171,26.2525502390375 112.510545764588,25.8606329070844 112.846398140005,26.4764518226486 113.182250515421,26.7003534062597 113.406152099033,26.6442884497233 113.630053682644,26.3084360743067 113.853955266255,26.0286486554264 114.245783037574,26.0286486554264 114.469684621185,26.1964852825011 114.97346318431,26.1405994472319 115.253340163824,25.8047470718153 116.092971102366,25.97258369889 117.212479020422,26.5884026144542 118.276011542574,26.8681900333345 119.059667085213,27.4840089488987 119.619421044241,28.155713699732 120.235150399172,28.7154676587598 120.738928962297,29.3871724095932 121.130756733616,30.1708279522321 121.578559900838,30.5066803276488 121.80246148445,30.1708279522321 123.033920194311,30.1708279522321 124.153428112366,29.778910620279 125.216960634519,29.7230247850099 125.496837614033,30.0588771604266 126.056591573061,29.7230247850099 127.064148699311,30.1147629956957 127.959755033755,30.5066803276488 128.519508992783,30.8425327030655 129.023287555908,31.3462217055569 128.967312160005,32.577680415418 128.687435180492,33.9771548736212 128.46353359688,34.7047454597237 128.519508992783,35.1525486269459 129.639016910839,35.6564167507046 131.87803274695,36.9437612958349 133.389368436325,37.8393676302794 135.012654917506,38.7349739647238 135.516433480631,39.1268912966769 135.404482688825,40.134448422927 135.236556501117,40.7500882172239 135.516433480631,41.1978913844462 135.460458084728,41.757645343474 135.29253189702,42.3734642590382 134.732777937992,42.8771532615296 134.396925562575,43.2690705934827 134.396925562575,44.1086119713907 134.788753333895,44.6124800951494 135.068630313408,44.9483324705661 135.012654917506,46.1237262238908 135.068630313408,46.6834801829186 135.348507292922,47.1312833501409 134.9007041257,46.7954309747242 133.333393040422,46.7954309747242 132.213885122367,46.1797911804272 131.094377204311,45.5080864295939 130.590598641186,45.563972264863 130.646574037089,46.2917419722328 131.038401808408,47.2992990984828 131.206327996117,47.9149388927798 131.262303392019,48.0829546411218 131.654131163339,48.0268896845854 133.165466852714,48.0268896845854 134.396925562575,48.0268896845854 134.676802542089,49.146397602641 135.012654917506,49.9861181018163 136.132162835561,50.0420039370854 137.363621545422,50.153954728891 138.707031047089,50.4339212690385 139.994465152853,50.6017578961132 140.9460468832,50.4339212690385 140.9460468832,49.7622165182052 141.393850050423,49.3702991862521 141.33787465452,48.2507912681965 141.95360400945,48.3068562247329 142.625308760284,48.8105452272243 142.737259552089,48.4188070165384 142.849210343895,47.8029881009742 142.905185739798,47.355184933752 142.9611611357,46.8514959312606 144.024693657853,46.347627807502 144.080669053756,46.1237262238908 144.36054603327,45.9558895968161 144.752373804589,45.731988013205 144.752373804589,45.5080864295939 144.752373804589,44.8363816787605 144.584447616881,43.8847103877796 144.528472220978,42.765202469724 145.312127763617,42.9891040533351 145.927857118548,43.1571198016771 146.431635681673,43.2130056369463 146.823463452992,43.6608088041685 147.38321741202,43.940775344316 147.495168203826,44.1646769279271 147.831020579242,44.2205627631963 148.054922162853,44.3885785115383 148.334799142367,45.1722340541772 149.006503893201,45.2281198894463 149.454307060423,45.3961356377883 149.734184039937,45.2841848459828 150.237962603062,45.1161690976408 150.181987207159,44.1646769279271 150.014061019451,43.3810213852882 150.181987207159,43.0451690098716 150.293937998965,42.7093166344549 150.237962603062,42.7093166344549 150.293937998965,42.5413008861129 150.517839582576,42.8771532615296 150.685765770284,42.5973658426493 150.181987207159,42.3173993025018 150.237962603062,42.0934977188907 150.741741166187,41.8137103000104 150.741741166187,40.6942023819548 150.629790374381,40.5261866336128 150.573814978479,40.3022850500017 150.573814978479,39.966432674585 150.685765770284,39.4627436720936 151.133568937506,39.4066787155572 151.133568937506,39.2388420884825 150.965642749798,39.0149405048714 150.573814978479,38.2312849622325 150.741741166187,38.0632692138905 150.853691957992,37.7274168384738 150.014061019451,36.8318105040293 152.309052251465,37.2796136712516 152.309052251465,37.6715310032047 153.204658585909,37.7274168384738 153.540510961326,37.3915644630571 153.708437149034,37.2796136712516 153.372584773618,37.7274168384738 153.764412544937,38.0632692138905 154.380141899868,38.1193341704269 154.939895858895,37.7834817950102 156.003428381048,37.8954325868158 156.227329964659,37.6715310032047 156.84305931959,37.3915644630571 157.010985507298,37.8954325868158 157.122936299104,38.2871707975016 157.514764070423,38.343235754038 157.626714862229,38.9029897130658 157.906591841743,39.6305802991683 157.738665654034,40.0224976311214 157.906591841743,40.9739898008351 158.746222780284,41.142005549177 159.529878322923,41.3659071327881 160.425484657368,41.2539563409826 160.985238616396,40.6942023819548 161.153164804104,40.6381374254184 161.377066387715,40.4703007983437 161.433041783618,40.3583500065381 161.544992575423,40.0224976311214 162.160721930354,40.4703007983437 162.720475889382,40.0783834663906 162.608525097576,39.7985960475103 162.440598909868,39.2947279237517 162.88840207709,38.8469247565294 163.112303660701,38.7910389212603 163.560106827924,38.5110723811127 164.28778697466,38.0073833786213 165.743147268132,37.6715310032047 166.246925831257,37.6715310032047 166.414852018965,37.4476294195935 166.638753602576,36.3840073368071 167.198507561604,35.8803183343157 167.982163104243,35.8242533777793 168.93374483459,35.2086135834823 168.821794042785,33.6413024982045 168.765818646882,32.5217945801489 168.373990875563,32.0739914129266 167.814236916535,32.0179264563902 168.429966271465,29.5550090366679 169.045695626396,27.4840089488987 169.493498793618,25.5247805316677 169.661424981327,24.5732883619541 170.668982107577,24.5172234054177 171.732514629729,24.181371030001 171.844465421535,23.6776820275096 172.124342401049,23.4537804438985 172.516170172368,23.6776820275096 172.684096360077,23.8455186545843 173.019948735493,23.7896328193152 173.131899527299,23.5096662791677 173.635678090424,22.9499123201399 174.195432049452,22.5021091529176 173.803604278132,21.6065028184731 173.579702694521,20.375044108612 173.467751902716,19.591388565973 174.027505861743,19.3116011470928 173.915555069938,19.1996503552872 173.635678090424,19.1996503552872 173.467751902716,18.8637979798705 173.635678090424,18.6398963962594 173.411776506813,18.4718806479174 174.139456653549,17.8001758970841 174.139456653549,18.0801424372316 174.307382841257,17.968191645426 174.531284424868,18.0240774806952 174.811161404382,17.6882251052785 175.147013779799,17.6323392700094 175.202989175702,17.6323392700094 175.706767738827,17.2404219380563 175.650792342924,17.0165203544452 175.930669322438,16.6806679790285 175.706767738827,16.4567663954174 176.266521697855,16.0650281847315 175.930669322438,16.0089632281951 175.202989175702,15.953077392926 174.923112196188,15.953077392926 174.75518600848,15.953077392926 174.587259820771,15.785061644584 174.643235216674,15.5611600609729 174.307382841257,15.4492092691673 174.251407445355,15.3372584773618 173.803604278132,15.2813726420926 173.131899527299,15.1133568937506 173.019948735493,15.1133568937506 172.404219380563,14.9455202666759 172.292268588757,14.6655537265284 172.180317796952,14.8894553101395 171.844465421535,14.7216186830648 170.892883691188,14.2738155158426 171.228736066604,13.8818981838895 171.564588442021,13.4901599732036 171.620563837924,13.0423568059814 172.068367005146,12.7065044305647 172.012391609243,11.8667839313894 171.004834482993,11.8667839313894 170.277154336257,11.5869965125091 169.493498793618,11.4189807641671 168.821794042785,11.3070299723616 168.373990875563,11.363094928898 167.814236916535,11.3070299723616 167.422409145215,10.9711775969449 167.142532165701,10.9152917616758 166.750704394382,10.7472760133338 166.414852018965,10.2435870108424 165.799122664035,10.0196854272313 165.29534410091,10.0196854272313 165.071442517299,10.187522054306 164.90351632959,9.62776809527818 164.455713162368,9.45993146820347 164.175836182854,9.62776809527818 163.392180640215,10.3555378026479 162.664500493479,11.0272425534813 162.048771138548,11.2511441370924 161.600967971326,11.2511441370924 161.377066387715,11.363094928898 161.209140200007,11.2511441370924 160.649386240979,11.1391933452869 160.201583073757,10.6353252215282 159.697804510632,10.6913901780646 159.697804510632,11.6989473043147 158.85817357209,12.2026363068061 157.962567237646,12.8184552223703 157.178911695007,12.986291849445 156.955010111395,12.7065044305647 156.731108527784,12.7065044305647 156.563182340076,12.986291849445 156.115379172854,12.9304060141758 156.059403776951,13.3221442248617 155.611600609729,13.3782091813981 155.387699026118,13.154307597787 154.380141899868,12.3145870986116 154.156240316256,11.6989473043147 154.212215712159,10.8592268051393 153.652461753131,10.5233744297227 152.81283081459,10.0196854272313 151.80527368834,9.34798067639791 150.853691957992,9.34798067639791 151.021618145701,9.01212830098123 151.133568937506,8.7321617608337 151.357470521117,8.56432513375899 151.189544333409,8.39630938541702 150.853691957992,8.28435859361146 150.79771656209,8.00457117473118 150.126011811256,7.50070305097254 149.958085623548,7.72460463458366 149.566257852229,7.72460463458366 149.230405476812,7.27680146736142 148.446749934173,6.66116167306446 147.607118995631,6.21335850584222 147.047365036603,6.21335850584222 146.76748805709,6.38119513291694 144.528472220978,6.38119513291694 144.416521429173,6.10140771403666 144.024693657853,5.48558879847245 143.912742866048,5.87750613042554 143.632865886534,6.04534275750025 143.017136531603,6.21335850584222 142.457382572575,6.04534275750025 142.177505593062,5.82144117388913 141.281899258617,5.76555533861998 139.826538965145,5.76555533861998 139.826538965145,5.14973642305577 139.658612777436,4.98189979598106 139.378735797923,5.14973642305577 138.763006442992,5.4297029632033 138.035326296256,4.92583483944465 136.635941398686,4.92583483944465 136.076187439658,4.75799821236994 134.788753333895,4.75799821236994 134.340950166672,4.36608088041685 134.005097791256,4.3101950451477 133.837171603547,4.47803167222241 133.277417644519,4.53409662875882 132.829614477297,4.25413008861129 131.87803274695,4.3101950451477 131.87803274695,5.14973642305577 131.822057351047,5.76555533861998 132.605712893686,6.10140771403666 133.165466852714,6.71704750833362 133.221442248617,7.38875225916698 132.717663685492,7.50070305097254 132.605712893686,8.00457117473118 132.941565269103,8.50826017722258 132.941565269103,9.34798067639791 131.87803274695,9.40386651166706 130.086820078061,9.57188226000903 128.071705825561,9.62776809527818 127.623902658339,9.79578384362015 127.064148699311,9.62776809527818 126.056591573061,9.51581730347262 125.720739197644,9.23602988459235 125.328911426325,9.17996492805594 125.049034446811,9.34798067639791 124.489280487783,9.40386651166706 124.153428112366,8.95606334444482 123.481723361533,8.34042355014786 123.201846382019,8.45237434195343 122.921969402505,9.01212830098123 122.642092422991,10.0196854272313 122.194289255769,11.2511441370924 121.690510692644,11.3070299723616 119.39551946063,10.6353252215282 118.947716293408,10.187522054306 118.667839313894,9.8516696788893 117.884183771255,9.79578384362015 117.548331395838,9.51581730347262 117.212479020422,9.01212830098123 116.596749665491,8.95606334444482 115.197364767922,8.95606334444482 114.861512392505,8.56432513375899 113.742004474449,8.50826017722258 113.742004474449,9.68383305181459 113.126275119519,10.1316362190368 112.566521160491,10.3555378026479 112.566521160491,10.4114236379171 112.566521160491,10.5794393862591 112.510545764588,10.6353252215282 112.286644180977,10.4674885944535 111.838841013755,10.4674885944535 111.447013242435,10.1316362190368 111.223111658824,10.1316362190368 110.831283887505,9.79578384362015 110.607382303894,9.96362047069486 109.879702157157,9.34798067639791 109.93567755306,8.2284727583423 110.103603740769,8.06045701000034 110.103603740769,7.89262038292562 110.32750532438,7.72460463458366 110.32750532438,7.38875225916698 110.94323467931,6.88506325667558 110.94323467931,6.5492108812589 110.551406907991,6.21335850584222 110.551406907991,5.87750613042554 110.159579136671,5.54165375500886 110.159579136671,5.37363800666689 109.823726761255,5.14973642305577 109.655800573546,5.14973642305577 109.431898989935,4.98189979598106 109.207997406324,4.92583483944465 109.152022010421,4.53409662875882 108.816169635005,4.3101950451477 107.976538696463,4.25413008861129 107.752637112852,4.08629346153658 106.521178402991,4.08629346153658 106.353252215282,3.91827771319461 105.90544904806,3.91827771319461 105.681547464449,3.75044108611989 105.289719693129,3.75044108611989 105.065818109518,3.58242533777793 z" />

<path id="Taunton_Deane" d=" M 122.586117027088,55.5272344930242 122.138313859866,55.3033329094131 121.242707525422,54.7435789503853 120.515027378686,54.2398899478939 120.067224211463,53.5681851970605 119.843322627852,52.8964804462272 119.563445648338,52.3926123224685 119.227593272922,52.5609863133442 118.667839313894,52.9529036452968 118.220036146672,52.9529036452968 117.828208375352,52.337084729733 116.876626645005,52.7848878969553 116.540774269588,53.5687225608611 116.428823477783,54.128297398622 115.253340163824,54.2411437967618 115.085503536749,54.9128485475952 115.197454328555,55.6404391336981 116.149036058902,56.2001930927259 116.876716205638,56.8718978435592 117.492445560569,56.8718978435592 117.660282187644,57.0957994271704 117.268454416324,57.4875376378562 116.764675853199,57.9914057616148 116.204921894172,57.9914057616148 115.589192539241,57.7675041780037 115.253340163824,57.9358781688794 114.693586204796,58.6075829197127 114.021881453963,59.2792876705461 113.574078286741,59.8392207508407 112.734447348199,59.8392207508407 112.174693389171,60.287023918063 111.447013242435,60.9026637123599 110.775308491602,61.0137188978313 110.439456116185,60.9026637123599 109.93567755306,60.119008169721 109.263972802227,60.0079529842501 109.152022010421,59.2801832768803 108.92812042681,58.7206084391194 108.368366467782,58.6077620409796 107.472760133338,58.6077620409796 106.91300617431,58.5522344482437 106.409227611185,58.3838604573685 105.849473652157,58.4393880501039 105.345695089032,58.9432561738622 104.953867317713,59.6149609246955 104.618014942296,59.6149609246955 104.562129107027,59.1110928009373 104.729965734102,58.4954530066399 104.674079898832,57.8237482558066 105.345784649666,57.7109018576668 105.345784649666,57.375228603517 104.058350543902,57.1513270199058 103.274695001263,56.8713604797583 102.658965646332,56.1435907723889 102.155187083207,55.9196891887778 101.987350456132,56.0880631796535 100.587965558563,56.0880631796535 99.8043100159238,55.6961458477004 98.6848020978682,55.0805060534034 97.7891957634237,54.9694508679321 97.1734664084932,55.0805060534034 97.1175805732239,55.6961458477004 97.0056297814183,56.0880631796535 96.5578266141961,56.0880631796535 96.4458758223905,55.8641615960424 95.8861218633627,55.4163584288201 95.942007698632,54.6887678427172 95.4942045314097,54.5203938518415 94.4866474051597,54.5203938518415 93.647016466618,54.7442954354527 92.7514101321735,54.7998230281885 92.3036069649513,54.5759214445774 91.2400744427985,54.5759214445774 91.0161728591873,54.1281182773552 90.5123942960623,53.6244292748634 90.2325173165484,53.0086103592996 89.8966649411317,52.4490355215386 89.3369109821039,52.0012323543164 89.5608125657151,51.2173976904106 88.9450832107845,51.0490236995349 88.6092308353678,50.6572854888487 89.3928863780067,50.6017578961132 89.6167879616178,50.3778563125021 89.2249601902984,50.153954728891 89.2249601902984,49.7061515616688 89.6167879616178,49.4261850215216 90.6803204837707,49.257811030646 91.0161728591873,48.8660728199597 90.6803204837707,48.3622046962015 90.6803204837707,48.0263523207848 90.7922712755762,47.4105334052206 90.5683696919651,47.2994782197497 90.2325173165484,47.4678522106253 89.8966649411317,47.6917537942365 89.5608125657151,47.7472813869719 89.3369109821039,47.3553640550188 89.05703400259,47.3553640550188 88.7211816271734,47.6351514738995 88.1614276681455,48.0270688058522 87.7695998968261,48.1381239913235 87.4897229173122,48.0270688058522 87.4897229173122,47.4673148468244 87.2658213337011,47.3562596613535 87.0979847066262,47.4673148468244 86.4822553516957,47.4117872540889 85.8105506008623,47.1878856704778 85.4187228295428,46.7400825032556 84.9149442664178,46.5717085123799 84.2992149114872,46.4033345215047 84.2433290762179,45.899466397746 83.7955259089956,45.5077281870602 83.2917473458706,45.6187833725311 82.8999195745512,46.0107007044842 82.0602886360095,46.7382912905867 80.7168791343427,47.8019133733732 79.7093220080927,48.8655354561592 79.4294450285788,49.5372402069926 79.0935926531621,49.9289784176788 78.2539617146204,49.9289784176788 77.862133943301,49.6490118775313 77.3583553801759,49.201208710309 77.078478400662,49.201208710309 76.574699837537,49.7050768340677 76.2388474621203,50.4887323767066 76.1268966703148,51.4402245464203 75.5111673153842,51.8321418783733 74.9514133563564,51.8321418783733 74.2237332096202,51.3284528758815 73.9438562301063,50.8245847521233 73.4400776669813,50.3767815849011 72.9362991038563,50.2657263994297 72.3765451448285,50.8254803584575 71.5369142062868,51.7771516494384 71.9287419776063,52.6727579838829 72.3205697489257,53.4003485699854 73.0482498956619,54.1279391560883 73.4960530628841,54.2407855542281 73.663889689959,55.2481635592113 74.6714468162091,56.3117856419978 72.3204801882923,56.3117856419978 72.3204801882923,55.3042285157477 71.1449968743339,54.4086221813032 70.5852429153061,54.4641497740387 70.0254889562783,54.0163466068165 69.353784205445,54.4641497740387 68.8500056423199,54.295775783163 68.1223254955838,54.2402481904276 67.562571536556,54.6319864011134 66.8348913898198,55.1358545248721 66.275137430792,54.7998230281885 66.1073008037171,54.9681970190638 64.875842093856,55.0237246117997 63.588407988092,55.4715277790219 63.1965802167726,55.9753959027801 63.4204818003837,56.5910356970775 63.9242603635087,57.0949038208357 64.3160881348282,57.7105436151331 64.3160881348282,58.4943782790389 63.9802357594115,59.2219688651414 63.6443833839948,59.7817228241692 62.8047524454531,59.3339196569469 62.1330476946197,59.6697720323636 61.4053675478836,60.0616893643167 60.5097612134391,60.0061617715812 59.6141548789946,59.0544904806004 58.998425524064,59.0544904806004 58.4386715650362,60.2861283117284 58.8304993363557,60.6778665224146 58.1587945855224,61.0137188978313 57.6550160223973,60.9026637123599 57.4871793953224,61.1265652959711 56.9834008321974,61.91022083861 56.3676714772668,61.91022083861 56.3676714772668,62.5260397541742 56.1437698936557,62.7499413377853 56.4236468731696,62.9183153286606 56.5355976649751,64.2056598737913 58.4947365215724,64.4295614574024 60.1180230027531,64.5979354482781 60.7337523576837,65.1016244507694 60.4538753781698,67.4527701999531 60.3419245863642,70.2513608738252 60.5658261699753,72.1547034557866 60.7336627970502,72.82640820662 61.6292691314947,72.8819357993554 61.9651215069114,72.6021483804751 62.8607278413559,72.8819357993554 63.8682849676059,72.5460834239387 65.6594976364949,72.2102310485221 66.3312023873282,72.0991758630511 67.5626610971894,72.9947821974956 67.7865626808005,73.9464534884765 69.0180213906617,75.0098964499957 70.0815539128145,75.7935519926346 70.5293570800368,76.1294043680513 70.5852429153061,76.9689457459594 71.8726770210701,77.5847646615236 73.8877912735701,78.7042725795792 75.7349793383619,80.0476820812459 77.4142412154453,80.271583664857 78.757650717112,80.0476820812459 81.4444697204455,79.9921544885104 83.4036085770428,79.3763355729462 84.2992149114872,79.1524339893351 86.146402976279,79.2079615820706 87.2099354984318,79.3208079802108 87.4898124779457,79.768611147433 87.0979847066262,80.4403158982664 86.650181539404,81.39180806798 86.5382307475984,82.9032333179887 86.2583537680845,83.6867097393608 85.5866490172512,84.190577863119 85.5866490172512,84.8622826139524 84.8029934746123,86.0937413238135 84.6351568475373,86.5974303263053 85.6427139737874,87.0452334935276 86.4823449123291,87.3252000336747 86.650181539404,88.5566587435359 87.3778616861402,88.6677139290072 88.3854188123902,88.8360879198829 88.6093203960013,89.059989503494 88.6093203960013,89.7316942543273 88.8891973755152,90.1794974215496 89.8967545017653,90.5714147535023 90.9602870239181,90.1794974215496 91.5760163788487,89.3960210001775 92.247721129682,88.6682512928077 92.8074750887098,89.1721194165664 93.6471060272515,88.6121863362717 94.0949091944738,88.4438123453961 95.8861218633627,87.9399442216374 98.4609900748906,87.7160426380263 100.308178139682,87.3243044273405 101.147809078224,87.268776834605 101.147809078224,87.2132492418691 100.755981306905,86.8213319099165 100.196227347877,86.3735287426942 99.0767194298212,86.3735287426942 98.4050146789878,85.5900523213221 97.4534329486406,84.8622826139524 97.341482156835,84.190577863119 97.0056297814183,83.9106113229719 96.4458758223905,83.2389065721385 96.6137124494654,82.7352175696467 96.8376140330765,81.6157096515911 97.2294418043959,81.1679064843689 98.1250481388404,81.1123788916334 99.1326052650905,81.5601820588557 99.5804084323127,81.7840836424668 100.084186995438,82.2877726449586 100.923817933979,82.5116742285697 101.819424268424,82.5672018213052 103.162833770091,82.1193986540829 104.114415500438,81.6715954868607 104.394292479952,81.3359222327109 104.562129107027,80.7759891524162 105.401760045568,80.2164143146553 106.073464796402,80.2719419073907 106.689194151332,79.7682529048993 106.745079986602,78.928532405724 106.968981570213,78.5366150737713 107.080932362018,77.8649103229379 107.472760133338,77.4731721122517 107.92056330056,77.8090244876684 109.31994819813,77.0253689450295 110.495431512088,76.3536641941961 110.663268139163,75.9619259835103 110.551317347357,75.4580578597516 110.383480720282,75.2341562761405 110.383480720282,74.9541897359934 111.167136262921,74.7858157451177 111.223022098191,74.058046037748 111.223022098191,73.1624397033035 111.055185471116,72.3789632819314 110.775308491602,71.8190302016368 110.383480720282,71.2594553638758 110.775308491602,70.7555872401176 110.831194326871,69.9719316974786 111.446923681802,69.4682426949868 112.230579224441,69.2998687041116 113.294111746594,69.1888135186402 114.189718081038,68.7970753079544 115.197275207288,68.6287013170788 114.917398227774,68.1808981498565 114.581545852358,67.7330949826343 114.581545852358,67.2294059801429 115.64507837451,66.2216697326256 117.436291043399,65.1582267711064 120.514937818052,62.3035711406982 122.362125882844,60.680195098884 122.977855237775,60.064555304587 122.977855237775,59.6167521373648 122.697978258261,59.4483781464891 121.858347319719,58.4408210202391 121.858347319719,57.3773780587195 122.138224299233,56.481771724275 122.586027466455,55.5301004332945 z"  />

<path id="Bridgwater_and_West_Somerset" d=" M 18.8637084192369,20.9903256603752 18.695871792162,21.6061445759394 18.0801424372314,21.7171997614104 18.192093229037,22.6688710523913 17.2405114986897,23.1725600548827 17.8002654577175,23.9001506409856 17.8002654577175,24.2361821376691 17.2964868945925,24.4600837212802 17.7442900618147,25.1317884721136 17.9121266888896,26.3630680607079 17.9121266888896,27.0908377680773 17.9121266888896,28.0983948943273 17.9121266888896,28.5461980615496 17.2963973339591,28.7700996451607 17.2405114986897,29.3859185607249 17.4083481257646,29.8896075632163 18.080052876598,30.4493615222441 18.1920036684035,31.6249343968361 17.0724957503479,32.0727375640583 16.1768894159035,32.4084108182082 15.1133568937506,32.4639384109436 14.8334799142367,32.1839718707965 13.8818981838895,32.0729166853252 13.2101934330561,32.2968182689363 12.3705624945144,32.576605687817 11.3070299723616,32.7449796786922 11.0831283887505,33.0806529328421 9.45984190756984,32.9122789419664 8.90008794854204,32.4084108182082 8.11643240590312,31.8488359804472 6.82899830013918,31.7933083877117 6.43717052881972,31.6249343968361 5.82144117388913,32.184509234597 5.20571181895855,32.1289816418616 4.86985944354187,31.7931292664449 3.58242533777793,31.9041844519158 3.63831117304729,32.4078734544076 4.03013894436675,33.9751845396855 4.03013894436675,35.9902987921856 4.25404052797787,36.6061177077494 4.53391750749177,36.941970083166 4.36608088041685,37.725625625805 4.14217929680573,39.5727241299635 4.92583483944465,40.468330464408 5.59753959027801,41.7558541308051 6.4931459247225,42.8753620488607 8.50826017722258,44.6106888824805 10.187522054306,45.4502302603886 11.0831283887505,46.121935011222 12.3705624945144,46.2329901966933 14.4976275388201,48.3039902844626 16.0089632281951,49.8154155344712 16.9605449585424,50.1512679098879 18.2479790643063,51.4946774115547 21.6624782143759,51.5502050042901 22.8379615283343,52.8936145059568 24.0134448422927,53.2853527166427 25.0210019685427,53.6212050920594 25.3008789480566,54.4609255912347 26.5883130538206,54.740713010115 26.7561496808955,55.6363193445594 27.0920020563122,56.1400083470512 27.9316329948539,56.0844807543154 28.65931314159,56.5322839215376 29.3869932883261,55.9725299625098 30.1706488309651,55.6925634223627 30.8423535817984,55.9164650059738 31.4021075408262,56.4763980862685 32.1297876875624,56.420870493533 32.9694186261041,56.7008370336801 33.753074168743,56.756364626416 33.3052710015208,57.3161185854438 33.0813694179096,57.9317583797407 33.3612463974235,58.7155930436465 33.3612463974235,60.0590025453132 32.8014924383957,61.4582978822495 32.5775908547846,62.0180518412773 31.8499107080485,62.7458215486467 31.6260091244374,63.41752629948 31.6260091244374,64.0892310503134 31.2901567490207,64.4809692609996 31.2901567490207,65.152674011833 31.7379599162429,65.76831380613 32.5775908547846,66.4400185569633 33.753074168743,66.5528649551035 35.6002622335347,66.7767665387146 37.6713518819376,67.0006681223257 39.9103677180488,67.0006681223257 41.645604991035,67.0006681223257 42.0374327623545,66.9451405295899 42.3173097418684,66.2734357787565 42.7651129090906,65.377829444312 43.1569406804101,63.9224691508398 43.2128265156794,63.0827486516648 44.5002606214434,62.747075397515 45.4518423517906,62.0193056901452 47.1870796247768,61.515437566387 48.5304891264435,61.9073548983397 49.5940216485964,62.6349454844426 50.2097510035269,63.0827486516648 50.8814557543603,63.0272210589294 51.3292589215825,62.8033194753182 52.0009636724159,63.1952368072709 52.4487668396381,63.1397092145355 52.5607176314437,62.4680044637021 53.6802255494993,62.244102880091 54.6877826757493,62.1330476946196 55.5833890101938,62.3014216854953 56.1431429692216,62.7492248527175 56.3670445528328,62.5253232691064 56.3670445528328,61.9095043535426 56.9827739077633,61.9095043535426 57.4865524708884,61.1258488109037 57.6543890979632,60.9019472272926 58.1581676610882,61.0130024127635 58.8298724119215,60.6771500373468 58.4380446406021,60.285411826661 58.9977985996299,59.053773995533 59.6135279545605,59.053773995533 60.509134289005,60.0054452865135 61.4047406234494,60.0609728792489 62.1324207701856,59.6690555472962 62.8041255210189,59.3332031718796 63.6437564595606,59.7810063391018 63.9796088349773,59.221252380074 64.315461210394,58.4936617939711 64.315461210394,57.7098271300653 63.9236334390745,57.0941873357684 63.4198548759495,56.5903192120097 63.1959532923384,55.9746794177128 63.5877810636579,55.4708112939541 64.8752151694218,55.0230081267319 66.106673879283,54.9674805339964 66.2745105063579,54.7991065431208 66.8342644653857,55.1351380398043 67.5619446121218,54.631269916046 68.1216985711496,54.2395317053598 68.8493787178858,54.2950592980957 69.3531572810108,54.4634332889709 70.0248620318442,54.0156301217487 70.584615990872,54.4634332889709 71.1443699498998,54.4079056962354 72.3198532638581,55.3035120306799 72.3198532638581,56.31106915693 74.6708198917749,56.31106915693 73.6632627655249,55.2474470741439 73.4954261384499,54.2400690691607 73.0476229712277,54.1272226710205 72.3199428244916,53.399632084918 71.9281150531721,52.6720414988151 71.5362872818526,51.7764351643706 72.3759182203943,50.8247638733901 72.9356721794221,50.2650099143623 73.4394507425472,50.3760650998333 73.9432293056722,50.8238682670555 74.2231062851861,51.3277363908142 74.9507864319222,51.8314253933056 75.51054039095,51.8314253933056 76.1262697458806,51.4395080613529 76.2382205376862,50.4880158916388 76.5740729131029,49.7043603489999 77.0778514762279,49.2004922252417 77.3577284557418,49.2004922252417 77.8615070188668,49.6482953924639 78.2533347901863,49.928261932611 79.092965728728,49.928261932611 79.4288181041446,49.5365237219252 79.7086950836585,48.8648189710918 80.7162522099086,47.8011968883054 82.0596617115753,46.7375748055193 82.899292650117,46.0099842194164 83.2911204214365,45.6180668874637 83.7948989845615,45.5070117019924 84.2427021517837,45.8987499126786 84.2985879870531,46.4026180364369 84.9143173419837,46.5709920273125 85.4180959051087,46.7393660181882 85.8099236764282,47.1871691854104 86.4816284272615,47.4110707690216 87.0973577821921,47.466598361757 87.265194409267,47.3555431762857 87.4890959928781,47.466598361757 87.4890959928781,48.0263523207848 87.768972972392,48.1374075062558 88.1608007437115,48.0263523207848 88.7205547027393,47.6344349888317 89.056407078156,47.3546475699515 89.3362840576699,47.3546475699515 89.560185641281,47.7465649019041 89.8960380166977,47.6910373091687 90.2318903921144,47.4671357255576 90.567742767531,47.2987617346819 90.7916443511422,47.4098169201532 90.6796935593366,48.025635835717 90.6796935593366,48.3614882111337 91.0155459347533,48.8653563348924 90.6796935593366,49.2570945455782 89.6161610371838,49.4254685364539 89.2243332658643,49.7054350766014 89.2243332658643,50.1532382438236 89.6161610371838,50.3771398274347 89.3922594535727,50.6010414110459 88.6086039109337,50.6565690037813 88.9444562863504,51.0483072144672 89.560185641281,51.2166812053428 89.3362840576699,52.0005158692486 89.8960380166977,52.4483190364708 90.2318903921144,53.0078938742318 90.5117673716283,53.623712789796 91.0155459347533,54.1274017922874 91.2394475183644,54.5752049595096 92.3029800405172,54.5752049595096 92.7507832077395,54.7991065431208 93.646389542184,54.7435789503853 94.4860204807257,54.5196773667742 95.4935776069757,54.5196773667742 95.9413807741979,54.6880513576498 95.8854949389286,55.4156419437523 96.4452488979564,55.8634451109746 96.5571996897619,56.0873466945857 97.0050028569842,56.0873466945857 97.1169536487897,55.695429362633 97.1728394840591,55.0797895683356 97.7885688389897,54.9687343828647 98.6841751734342,55.0797895683356 99.8036830914898,55.695429362633 100.587338634129,56.0873466945857 101.986723531698,56.0873466945857 102.154560158773,55.91897270371 102.658338721898,56.1428742873212 103.274068076829,56.8706439946909 104.057723619468,57.1506105348385 105.345157725232,57.3745121184496 105.345157725232,57.710185372599 104.673452974398,57.8230317707392 104.729338809667,58.4947365215726 104.561502182593,59.1103763158695 104.617388017862,59.6142444396282 104.953240393279,59.6142444396282 105.345068164598,58.9425396887948 105.848846727723,58.4386715650361 106.408600686751,58.3831439723007 106.912379249876,58.5515179631763 107.472133208904,58.6070455559118 108.367739543348,58.6070455559118 108.927493502376,58.719891954052 109.151395085987,59.2794667918129 109.263345877793,60.0072364991823 109.935050628626,60.1182916846536 110.438829191751,60.9019472272926 110.774681567168,61.0130024127635 111.446386318001,60.9019472272926 112.174066464737,60.2863074329952 112.733820423765,59.838504265773 113.573451362307,59.838504265773 114.021254529529,59.2785711854783 114.692959280362,58.606866434645 115.25271323939,57.9351616838116 115.588565614807,57.7667876929359 116.204294969737,57.9906892765471 116.764048928765,57.9906892765471 117.26782749189,57.4868211527888 117.65965526321,57.0950829421026 117.491818636135,56.8711813584915 116.876089281204,56.8711813584915 116.148409134468,56.1994766076581 115.196827404121,55.6397226486303 115.084876612315,54.9121320625278 115.25271323939,54.2404273116944 116.428196553349,54.1275809135542 116.540147345154,53.5680060757933 116.875999720571,52.7841714118875 117.827581450918,52.3363682446653 118.219409222237,52.9521871602295 118.66721238946,52.9521871602295 119.226966348488,52.5602698282764 119.562818723904,52.3918958374011 119.842695703418,52.8957639611594 120.066597287029,53.5674687119927 120.514400454251,54.2391734628261 121.242080600988,54.7428624653179 122.137686935432,55.3026164243457 122.585490102654,55.5265180079568 122.69744089446,55.3026164243457 123.481096437099,54.1270435497537 123.984875000224,53.2314372153092 124.488653563349,53.3442836134494 125.048407522377,53.5681851970605 125.72011227321,53.7920867806716 126.111940044529,54.0159883642828 126.559743211752,53.7360218241352 126.671694003557,52.6165139060796 126.895595587168,51.7209075716352 127.175472566682,50.4335630265048 127.399374150293,49.0340885683017 128.518882068349,48.9230333828308 129.470463798696,48.5311160508777 130.533996320849,48.1393778401919 131.261676467585,48.083850247456 131.205790632316,47.9154762565807 131.037954005241,47.2998364622834 130.646126233922,46.2921002147665 130.590240398652,45.564509628664 131.094018961777,45.5089820359281 132.213526879833,46.1806867867615 133.333034797888,46.7963265810588 134.900345883166,46.7963265810588 135.348149050389,47.1321789564755 135.068272070875,46.6843757892533 135.012386235605,46.1246218302255 135.068272070875,44.9490489556335 134.788395091361,44.6133757014836 134.396567320041,44.1095075777254 134.396567320041,43.2699661998169 134.732419695458,42.8780488678642 135.292173654486,42.3743598653724 135.460010281561,41.7585409498086 135.51589611683,41.1987869907808 135.236019137316,40.7509838235586 135.403855764391,40.1353440292612 135.515806556197,39.1276077817443 135.012027993072,38.7358695710585 133.388741511891,37.840263236614 131.877405822516,36.9446569021695 129.638389986405,35.6573123570388 128.518882068349,35.1534442332806 128.46299623308,34.7056410660583 128.686897816691,33.9778713586885 128.966774796205,32.5785760217527 129.022660631474,31.3471173118915 128.518882068349,30.8432491881329 127.959128109321,30.507575933983 127.063521774877,30.1156586020303 126.055964648627,29.7237412700773 125.496210689599,30.0597727667608 125.216333710085,29.7237412700773 124.152801187932,29.7792688628127 123.033293269877,30.171007073499 121.801834560015,30.171007073499 121.577932976404,30.5070385701825 121.130129809182,30.171007073499 120.738302037863,29.3875306521269 120.234523474738,28.7158259012935 119.618794119807,28.1558928209989 119.059040160779,27.4841880701655 118.27538461814,26.8685482758682 117.211852095987,26.588581735721 116.092344177932,25.9729419414237 115.25271323939,25.8045679505484 114.972836259876,26.1402412046983 114.469057696751,26.1957687974337 114.24515611314,26.0273948065581 113.853328341821,26.0273948065581 113.62942675821,26.3071822254383 113.405525174598,26.643034600855 113.181623590987,26.6985621935909 112.845771215571,26.4746606099798 112.509918840154,25.8588416944156 112.174066464737,26.2507590263687 111.110533942584,26.1379126282285 110.774681567168,25.9695386373528 110.774681567168,25.3538988430559 110.494804587654,25.2410524449157 110.270903004043,25.1855248521802 110.215017168773,25.2410524449157 109.991115585162,25.2410524449157 109.487337022037,24.7932492776934 109.487337022037,24.289560275202 109.151484646621,24.0656586915909 109.039533854815,24.1211862843264 109.039533854815,24.4572177810099 108.983648019546,24.5682729664813 108.647795644129,24.4572177810099 108.647795644129,24.7928910351597 108.032066289198,25.2967591589184 107.976180453929,25.4651331497936 107.58435268261,25.7450996899412 107.58435268261,26.0809520653578 107.360451098999,26.2493260562335 107.360451098999,26.7530150587249 107.136549515387,26.9213890496006 107.136549515387,28.432635178342 106.57679555636,28.8243733890282 106.408958929285,28.8243733890282 106.297008137479,28.8799009817637 106.297008137479,29.8874581080137 105.849204970257,30.2233104834304 105.849204970257,30.3916844743061 105.625303386646,30.5600584651817 105.625303386646,30.728432456057 104.673721656298,31.4560230421599 104.505885029224,31.4560230421599 104.281983445613,31.6243970330356 103.21845092346,31.6243970330356 102.994549339849,31.7354522185065 102.602721568529,31.7354522185065 102.266869193112,32.015418758654 102.266869193112,32.5192868824123 102.042967609501,32.6876608732879 102.042967609501,33.1915289970466 101.81906602589,33.3025841825175 101.81906602589,33.4709581733931 101.763180190621,33.5820133588641 101.651229398815,33.4709581733931 101.651229398815,32.5194660036791 101.875130982426,32.295564420068 101.875130982426,32.0155978799209 102.099032566038,31.8472238890452 102.099032566038,31.6788498981695 102.938663504579,31.0071451473362 102.938663504579,30.8387711564605 103.16256508819,30.6703971655853 103.16256508819,30.5020231747096 103.274515879996,30.4464955819742 104.058171422635,30.4464955819742 104.282073006246,30.6148695728494 104.729876173468,30.6148695728494 105.009753152982,30.3909679892383 105.009753152982,30.222593998363 105.233654736593,30.0542200074874 105.233654736593,29.0464837599705 105.065818109518,28.8781097690949 105.065818109518,27.8705526428448 105.289719693129,27.7021786519692 105.289719693129,27.5338046610935 105.681547464449,27.2538381209464 105.681547464449,26.9181648667965 105.793498256254,26.8053184686564 106.185326027574,26.8053184686564 106.297276819379,26.7497908759209 106.353162654649,26.5814168850452 106.520999281724,26.41304289417 106.520999281724,26.2446689032943 106.744900865335,26.0762949124187 106.744900865335,25.4045901615853 106.632950073529,25.3490625688499 106.24112230221,25.3490625688499 106.017220718599,25.5174365597255 105.793319134988,25.2935349761144 105.625482507913,25.2935349761144 104.785851569371,25.9652397269478 104.56194998576,25.9652397269478 104.449999193954,26.0762949124187 104.449999193954,26.18735009789 103.610368255413,26.8590548487234 103.610368255413,27.1949072241401 102.882688108676,27.7546611831679 102.658786525065,27.7546611831679 102.434884941454,27.9230351740431 102.210983357843,27.9230351740431 102.155097522574,28.0358815721833 102.155097522574,28.204255563059 101.931195938963,28.3153107485299 101.931195938963,28.4836847394055 101.819245147157,28.5947399248765 100.979614208615,28.5947399248765 100.755712625004,28.7631139157521 100.531811041393,28.7631139157521 100.363974414318,28.8741691012235 99.916171247096,28.8741691012235 99.6922696634848,29.0425430920987 99.0765403085543,29.0425430920987 98.6847125372348,28.7068698379489 98.4608109536237,28.7068698379489 98.3488601618181,28.5940234398091 98.3488601618181,28.4256494489334 98.0689831823042,28.2017478653223 97.8450815986931,28.2017478653223 97.6772449716182,28.0333738744467 97.4533433880071,28.0333738744467 97.2294418043959,27.8649998835714 97.0055402207848,27.8649998835714 96.83770359371,27.6966258926958 96.6138020100989,27.6410982999603 96.3899004264878,27.530043114489 95.5502694879461,27.4745155217535 95.3824328608711,27.6428895126292 94.3189003387183,27.6428895126292 94.0949987551072,27.4745155217535 93.9271621280323,27.4745155217535 93.47935896081,27.1388422676037 91.8560724796294,27.0833146748682 91.6321708960183,27.2516886657438 89.9529090189349,27.2516886657438 89.7290074353238,27.4200626566191 89.5051058517126,27.4200626566191 88.385597933657,28.3156689910636 88.385597933657,28.4840429819392 88.2736471418515,28.5395705746747 87.6019423910181,28.5395705746747 87.4341057639432,28.7079445655504 87.2102041803321,28.7079445655504 86.986302596721,28.876318556426 86.7624010131098,28.876318556426 86.594564386035,28.9873737418969 85.9228596352017,28.9873737418969 85.5310318638822,28.6515213664803 84.299573154021,28.6515213664803 84.0756715704099,28.8198953573559 83.4599422154793,28.8198953573559 83.2360406318682,28.9882693482316 83.0121390482571,28.9327417554961 82.7322620687432,29.2125291743764 82.7322620687432,29.380903165252 82.3964096933265,29.6048047488631 82.1725081097154,29.6048047488631 81.8926311302015,29.8287063324743 81.8926311302015,29.9970803233499 81.7806803383959,30.1081355088209 81.3328771711737,30.1081355088209 81.2209263793681,30.1636631015563 81.2209263793681,30.332037092432 81.1089755875626,30.4430922779033 79.8775168777014,30.3875646851674 79.6536152940903,30.5559386760431 79.4857786670154,30.5559386760431 79.2618770834042,30.7243126669188 79.0379754997931,30.7243126669188 78.814073916182,30.8926866577944 78.5901723325709,30.8926866577944 78.422335705496,31.0610606486697 78.1984341218848,31.0610606486697 77.9745325382737,31.1739070468098 77.8066959111988,31.1739070468098 77.5827943275877,31.3422810376855 76.5192618054349,31.3422810376855 76.1834094300182,31.5661826212966 76.1834094300182,31.7345566121723 76.1275235947488,31.847403010312 75.9036220111377,31.847403010312 75.567769635721,32.0713045939232 75.567769635721,32.2396785847988 75.4558188439155,32.3507337702698 75.2319172603043,32.2952061775343 75.0640806332295,32.4635801684099 74.3923758823962,32.4635801684099 74.2245392553212,32.6319541592856 73.3849083167795,32.6319541592856 73.1610067331684,32.4635801684099 72.5452773782378,32.4635801684099 72.3213757946267,32.2952061775343 71.481744856085,32.2396785847988 71.0899170847656,32.5755309602155 70.474187729835,32.5755309602155 70.2502861462239,32.7439049510912 69.186753624071,32.7439049510912 69.0748028322655,32.631058552951 69.0748028322655,32.4626845620753 68.7949258527516,32.1827180219282 68.3471226855293,32.1827180219282 68.1792860584544,32.0143440310525 66.2761225977599,32.0143440310525 66.0522210141488,32.1827180219282 65.8843843870739,32.1271904291927 65.6604828034627,32.295564420068 64.5969502813099,32.295564420068 64.2051225099904,31.9595329233845 63.9812209263793,31.9595329233845 63.7573193427682,31.7911589325088 62.525860632907,31.7356313397733 62.3019590492959,31.5672573488977 61.6862296943653,31.5672573488977 61.5183930672905,31.7356313397733 61.2944914836794,31.7356313397733 61.0705899000683,31.904005330649 60.6787621287488,31.904005330649 60.4548605451377,32.0723793215246 58.1598693131237,32.0168517287892 57.9359677295126,31.8484777379135 57.7681311024377,31.8484777379135 56.928500163896,31.1767729870802 56.7045985802849,31.1767729870802 56.2008200171598,30.7289698198579 56.2008200171598,30.5605958289823 55.8089922458404,30.2247434535656 55.8089922458404,30.0563694626899 55.5850906622293,29.8879954718143 55.5850906622293,29.719621480939 54.7454597236876,29.0479167301057 54.7454597236876,28.87954273923 54.5776230966126,28.7111687483544 54.5776230966126,28.3751372516708 54.3537215130015,28.2067632607952 54.3537215130015,27.7028951370369 54.1858848859266,27.5345211461613 54.1858848859266,27.3661471552856 54.073934094121,27.2533007571459 53.8500325105099,27.2533007571459 53.570155530996,27.0293991735347 53.570155530996,26.8610251826591 53.4582047391904,26.7499699971877 53.0104015719682,26.7499699971877 52.8425649448933,26.5815960063125 51.7790324227405,26.5815960063125 51.5551308391293,26.7499699971877 51.1633030678099,26.6944424044523 50.9394014841988,26.8628163953279 50.3236721292682,26.8628163953279 50.2117213374626,26.8072888025925 50.2117213374626,26.6389148117168 49.9878197538515,26.4705408208411 50.0437055891209,25.6308203216662 49.4279762341903,25.1271313191744 49.4279762341903,24.9587573282988 49.3160254423847,24.8477021428278 49.0921238587736,24.8477021428278 48.7002960874541,24.5118497674112 48.476394503843,24.5118497674112 48.3085578767681,24.3434757765355 47.8607547095459,24.3434757765355 47.7488039177403,24.2324205910646 47.7488039177403,24.0640466001889 47.0211237710042,23.5042926411611 46.4053944160736,23.4487650484256 46.2375577889988,23.6171390393009 46.0136562053876,23.6171390393009 45.7897546217765,23.4487650484256 45.5658530381654,23.4487650484256 44.9501236832348,22.9450760459338 44.3343943283042,22.9450760459338 43.7186649733737,22.4413870434425 43.3268372020542,22.385859450707 43.1029356184431,22.2174854598313 42.7111078471236,22.2174854598313 42.2633046799014,21.8814539631478 41.8714769085819,21.8814539631478 41.6475753249708,21.7130799722722 40.1922150314985,21.7130799722722 40.0243784044236,21.489178388661 39.408649049493,21.489178388661 39.1847474658819,21.6575523795367 38.9608458822708,21.6575523795367 38.7369442986596,21.8259263704119 36.6658546502568,21.7703987776765 35.7142729199095,22.4979893637794 35.7142729199095,22.6663633546546 35.2664697526873,23.0020366088045 35.2664697526873,23.1704105996801 34.5387896059511,23.7301645587079 34.31488802234,23.7301645587079 34.0909864387289,23.8985385495836 33.0834293124788,23.8430109568481 32.8595277288677,24.0113849477234 32.4117245616455,24.0113849477234 31.7959952067149,24.5150739502152 30.9563642681732,24.4595463574797 30.6764872886593,24.2356447738686 30.6764872886593,24.0672707829929 30.4525857050482,23.8988967921173 30.4525857050482,23.7305228012416 30.2286841214371,23.5621488103664 30.2286841214371,23.3937748194907 29.9488071419232,23.11398740061 29.5569793706037,23.11398740061 29.3330777869926,23.2823613914857 28.717348432062,23.2823613914857 28.4934468484509,23.11398740061 26.6462587836591,23.0584598078746 26.422357200048,22.8900858169989 25.9745540328258,22.8900858169989 25.8067174057509,22.7217118261237 25.3589142385286,22.6661842333878 25.1910776114537,22.4978102425125 24.9671760278426,22.4978102425125 24.7432744442315,22.3294362516369 22.8960863794397,22.3294362516369 21.8885292531897,21.4338299171924 21.4407260859674,21.4338299171924 21.2168245023563,21.6022039080681 20.8249967310368,21.6022039080681 20.6010951474257,21.4338299171924 20.4332585203509,21.4338299171924 20.2093569367398,21.2654559263168 19.3697259981981,21.2099283335813 19.145824414587,21.0415543427056 18.9219228309758,21.0415543427056 18.8660369957065,20.9860267499702 z  M 106.792994925494,23.2698229028034 106.892586349885,23.3486362602346 107.097554815586,23.3486362602346 107.202878120516,23.2716141154722 107.210042971192,22.7681042342476 107.106869121464,22.6892908768168 106.90191856789,22.6892908768168 106.800177688297,22.7663130215788 106.793012837621,23.2698229028034  M 106.774563347132,24.597648854251 107.076723012247,24.8564790849052 107.182404559711,24.7633360261232 107.187778197718,24.4314243185779 107.394931942875,24.2684239657092 107.400305580881,23.9365122581639 107.094599314682,23.683234786783 106.889630848981,23.683234786783 106.787710848121,23.7710042075585 106.776963572108,24.6010521583218"  /></svg>
