<svg width="154.994522091064" height="209.506132643822" xmlns:dc="http://purl.org/dc/elements/1.1/" xmlns:cc="http://creativecommons.org/ns#" xmlns:rdf="http://www.w3.org/1999/02/22-rdf-syntax-ns#" xmlns:svg="http://www.w3.org/2000/svg" xmlns="http://www.w3.org/2000/svg" xmlns:xlink="http://www.w3.org/1999/xlink" xmlns:sodipodi="http://sodipodi.sourceforge.net/DTD/sodipodi-0.dtd" xmlns:inkscape="http://www.inkscape.org/namespaces/inkscape"><style>path{fill-opacity:1;display:inline;fill:#ffc8c8;stroke-width:1;stroke-miterlimit:4;stroke:#000000;stroke-opacity:1;stroke-dasharray:none;}</style>

<path id="Salisbury" d=" M 116.078791580418,136.87333791212 L 115.707458274019,137.244790045178 L 114.964791661221,138.061604492598 L 114.222125048422,138.952804427957 L 114.222125048422,140.215456496372 L 114.296391709702,141.106656431731 L 114.593458354821,141.70078972197 L 114.519191693541,142.294923012208 L 113.405191774344,142.294923012208 L 112.662525161545,142.591989657328 L 110.805858629549,142.591989657328 L 109.91465869419,142.889056302447 L 109.023458758832,142.814670814509 L 108.577858791153,142.36907084683 L 107.909458839634,141.849085391213 L 105.829992323798,141.774937556591 L 104.270392436921,141.70078972197 L 103.601992485402,141.180804266352 L 102.785059211324,141.180804266352 L 101.819592614686,141.477870911472 L 101.299725985727,140.957885455854 L 100.928392679327,140.809589786611 L 99.8143927601295,140.957885455854 L 98.1062595506928,140.957885455854 L 97.6606595830136,140.735204298673 L 96.6951929863755,140.660818810735 L 95.5811930671776,140.735204298673 L 94.838526454379,140.883737621233 L 94.4671931479797,140.735204298673 L 93.6502598739013,140.735204298673 L 92.9818599223825,140.141071008434 L 91.8678600031847,139.992537685875 L 90.8281267452666,139.844004363315 L 90.4567934388674,138.730123270775 L 90.0854601324681,137.690152359541 L 89.9369268099084,136.87333791212 L 89.7141268260688,135.982137976762 L 89.6398601647889,134.645338073725 L 89.0457268745501,133.977056948864 L 88.8971935519903,132.93708603763 L 88.8229268907105,132.417338235329 L 88.0802602779119,131.897590433028 L 87.7089269715126,131.229071654851 L 87.5603936489529,130.709323852551 L 87.7831936327925,129.743738429254 L 87.5603936489529,129.001071816456 L 86.5949270523147,127.961338558537 L 85.6294604556766,126.995753135241 L 85.6294604556766,126.6245386555 L 86.3721270684752,125.436272075022 L 85.2581271492773,124.470924305042 L 85.0353271654377,124.470924305042 L 84.8125271815981,124.767990950162 L 84.366927213919,125.65919088552 L 84.0698605687996,126.847457465998 L 83.327193956001,126.698686490122 L 82.0646607142434,126.327472010381 L 81.0991941176052,125.436272075022 L 80.0594608596872,124.173857659923 L 79.4653275694483,123.579724369684 L 78.8711942792095,124.173857659923 L 77.9057276825713,124.990672107343 L 77.4601277148922,125.287738752463 L 76.4203944569742,125.287738752463 L 75.974794489295,125.733338720142 L 75.2321278764964,125.807486554763 L 74.2666612798583,125.436272075022 L 73.4497280057798,125.436272075022 L 71.8158614576229,124.916286619405 L 70.9989281835445,124.470924305042 L 70.2562615707459,124.099472171985 L 69.9591949256265,124.916286619405 L 69.8106616030668,125.139205429903 L 69.142261651548,125.510419909644 L 68.6966616838689,125.881872042701 L 68.8451950064286,126.47600533294 L 69.2907949741078,126.698686490122 L 69.5135949579473,127.367205268299 L 69.3650616353876,127.58988642548 L 68.10252839363,127.886953070599 L 66.7657284905926,128.184019715719 L 65.8002618939544,128.184019715719 L 65.7259952326746,128.481086360838 L 65.3546619262753,128.481086360838 L 65.0575952811558,128.035724046476 L 64.463461990917,128.109871881097 L 64.0178620232378,128.629857336715 L 63.8693287006781,128.852538493896 L 63.943595361958,129.372286296197 L 64.8347952973163,129.446671784135 L 65.503195248835,129.892271751814 L 66.542928506753,129.892271751814 L 66.542928506753,131.154686166913 L 66.3201285229134,132.491723723267 L 66.3943951841933,133.605604815807 L 66.7657284905926,133.531219327869 L 67.3598617808314,132.862938203008 L 68.3253283774696,132.862938203008 L 68.9194616677085,133.085857013506 L 69.2907949741078,134.199738106046 L 69.662128280507,135.313619198585 L 71.6673281350632,135.388004686523 L 72.1871947640222,135.759456819581 L 72.3357280865819,136.947723400059 L 72.4842614091417,137.838923335417 L 72.2614614253021,139.398404395636 L 72.2614614253021,139.621323206134 L 70.9246615222646,140.141071008434 L 70.2562615707459,140.289604330994 L 69.5878616192272,140.883737621233 L 68.4738617000293,140.957885455854 L 67.1370617969919,141.180804266352 L 66.6914618293127,141.626404234031 L 65.5774619101148,141.626404234031 L 64.7605286360364,142.51760416939 L 64.3891953296371,143.408804104748 L 64.3891953296371,145.859722753642 L 64.0921286845177,146.750922689 L 63.943595361958,147.493351648482 L 63.943595361958,148.830389204836 L 63.943595361958,149.498670329696 L 63.6465287168385,150.761084744796 L 63.2751954104392,151.206922365791 L 63.943595361958,151.652284680154 L 64.983328619876,152.023736813212 L 65.3546619262753,152.172270135771 L 65.2803952649954,152.91493674857 L 64.983328619876,153.806136683928 L 64.6119953134767,154.474655462105 L 64.0921286845177,155.142936586966 L 63.8693287006781,155.811217711826 L 63.7207953781184,156.479736490003 L 63.0523954265997,157.296550937423 L 62.6810621202004,158.410669683279 L 62.6067954589205,159.07895080814 L 62.4582621363608,159.821855074255 L 63.2751954104392,159.821855074255 L 64.2406620070774,160.118921719374 L 65.3546619262753,159.970150743498 L 65.8745285552343,160.415988364494 L 66.2458618616336,160.415988364494 L 66.3201285229134,160.118921719374 L 66.9142618131523,160.118921719374 L 67.062795135712,160.267217388618 L 68.2510617161897,160.267217388618 L 68.8451950064286,159.821855074255 L 69.7363949417869,159.598936263757 L 70.8503948609848,159.747469586317 L 72.2614614253021,160.193069553996 L 72.8555947155409,160.341602876556 L 73.5982613283395,161.084269489354 L 74.6379945862575,161.084269489354 L 75.0835945539367,160.861350678856 L 75.7519945054554,160.638669521675 L 76.494661118254,161.084269489354 L 76.8659944246533,160.861350678856 L 76.8659944246533,160.044536231436 L 77.6086610374519,159.821855074255 L 78.2027943276908,159.747469586317 L 78.7969276179296,159.227721784016 L 79.4653275694483,158.930655138897 L 80.1337275209671,159.376017453259 L 79.8366608758476,159.673084098379 L 79.1682609243289,160.118921719374 L 79.3167942468886,160.861350678856 L 79.7623942145678,161.084269489354 L 80.7278608112059,161.529869457033 L 81.2477274401649,161.529869457033 L 81.2477274401649,161.826936102153 L 80.8021274724858,162.19838823521 L 80.7278608112059,162.569602714951 L 81.3962607627247,162.866669360071 L 82.287460698083,163.089588170569 L 83.0301273108815,163.46080265031 L 82.5102606819225,164.12908377517 L 82.2131940368031,164.42615042029 L 81.0249274563254,164.42615042029 L 80.8021274724858,164.797602553347 L 81.3219941014448,165.466121331524 L 80.9506607950455,165.985869133825 L 81.0249274563254,166.282935778944 L 81.1734607788851,166.654387912002 L 81.1734607788851,167.471202359422 L 80.6535941499261,168.733854427838 L 80.5050608273663,168.956535585019 L 79.613860892008,168.733854427838 L 78.8711942792095,169.030921072957 L 78.7226609566498,169.327987718077 L 78.57412763409,169.625054363196 L 78.57412763409,170.144802165497 L 79.093994263049,170.441868810616 L 79.7623942145678,170.813320943674 L 80.2079941822469,171.407454233913 L 80.5050608273663,171.927202036214 L 80.4307941660865,172.446949838514 L 80.0594608596872,172.966935294132 L 79.3910609081685,173.264001939251 L 78.1285276664109,173.412535261811 L 77.8314610212915,173.189854104629 L 77.534394376172,173.338149773873 L 77.0887944084929,173.635216418992 L 76.5689277795339,173.486920749749 L 76.0490611505749,173.115468616691 L 75.5291945216158,173.264001939251 L 75.1578612152166,173.486920749749 L 75.7519945054554,174.00666855205 L 75.974794489295,174.452268519729 L 76.0490611505749,174.897868487408 L 75.6034611828957,175.120549644589 L 74.7122612475374,175.863453910704 L 74.1923946185784,176.234668390445 L 73.0783946993805,176.531735035565 L 72.4099947478618,177.051720491182 L 71.5187948125035,177.422934970923 L 70.4047948933056,177.422934970923 L 69.8849282643466,176.902949515306 L 69.3650616353876,176.902949515306 L 68.3253283774696,177.794149450664 L 66.7657284905926,179.05680151908 L 66.2458618616336,179.502401486759 L 65.2061286037156,180.393601422117 L 63.6465287168385,180.987734712356 L 61.8641288461219,181.507720167974 L 59.9331956528456,182.324534615394 L 58.8934623949276,182.770134583073 L 58.9677290562075,183.512801195871 L 59.4133290238866,184.552534453789 L 59.7846623302859,185.369586554526 L 60.4530622818046,185.443734389148 L 60.7501289269241,185.889334356827 L 60.7501289269241,188.265867517782 L 60.7501289269241,189.825586231318 L 60.4530622818046,190.5680151908 L 60.230262297965,192.870400517134 L 60.3045289592449,194.207200420171 L 59.7846623302859,195.172785843467 L 60.0817289754053,195.544000323209 L 59.6361290077262,196.212281448069 L 59.3390623626067,197.029333548806 L 59.3390623626067,197.623466839045 L 59.8589289915658,197.772000161604 L 60.3787956205248,197.994681318786 L 61.0471955720435,197.549319004423 L 62.3097288138011,197.549319004423 L 62.6067954589205,197.549319004423 L 63.2009287491594,197.103481383427 L 63.6465287168385,196.806414738308 L 64.2406620070774,196.880800226246 L 64.6862619747565,197.103481383427 L 65.3546619262753,196.880800226246 L 66.0973285390739,196.806414738308 L 66.6914618293127,196.361052423945 L 66.9885284744321,195.766919133706 L 66.8399951518724,195.395467000649 L 67.3598617808314,194.875719198348 L 67.5083951033912,194.50426706529 L 68.10252839363,194.355733742731 L 68.9937283289883,194.058667097611 L 69.8106616030668,193.241614996875 L 70.4790615545855,192.721867194574 L 71.0731948448244,192.350415061516 L 71.7415947963431,192.573333872014 L 72.3357280865819,192.944548351755 L 72.4099947478618,193.018933839693 L 72.6327947317014,193.167467162253 L 72.9298613768208,193.68745261787 L 73.0783946993805,194.355733742731 L 73.5239946670597,194.94986703297 L 74.0438612960187,194.429881577352 L 74.7122612475374,193.613067129932 L 75.6777278441756,192.573333872014 L 76.8659944246533,191.088000646417 L 78.4998609728102,191.088000646417 L 79.6881275532879,190.345334033618 L 81.0991941176052,190.345334033618 L 81.6190607465642,190.5680151908 L 82.3617273593628,190.5680151908 L 82.8815939883218,190.345334033618 L 84.0698605687996,190.345334033618 L 84.5897271977586,189.825586231318 L 85.2581271492773,189.157067453141 L 85.7037271169564,189.157067453141 L 86.0007937620759,188.63731965084 L 86.0007937620759,190.642400678738 L 86.0007937620759,193.464533807372 L 86.2235937459154,194.50426706529 L 86.5949270523147,193.761600452492 L 87.4118603263932,192.573333872014 L 88.0802602779119,191.385067291536 L 88.6743935681508,190.27094854568 L 89.3427935196695,189.75120074338 L 89.5655935035091,188.934386295959 L 90.5310601001472,188.562934162902 L 91.7193266806249,187.894415384725 L 92.6847932772631,187.894415384725 L 92.9818599223825,188.934386295959 L 93.4274598900617,190.048267388499 L 94.0958598415804,191.162148481039 L 94.9127931156589,192.053348416397 L 94.9127931156589,192.573333872014 L 95.9525263735769,193.835748287113 L 96.5466596638157,193.093319327631 L 97.2150596153345,192.424800549454 L 97.8091929055733,192.424800549454 L 98.7746595022115,192.721867194574 L 100.111459405249,192.944548351755 L 101.076926001887,193.68745261787 L 102.339459243645,194.207200420171 L 103.527725824122,194.65280038785 L 105.087325710999,194.94986703297 L 106.127058968917,195.395467000649 L 106.275592291477,196.138133613447 L 106.943992242996,196.063985778826 L 108.949192097552,196.286666936007 L 110.657325306989,196.063985778826 L 111.771325226187,196.286666936007 L 112.365458516426,196.880800226246 L 112.959591806664,197.400548028547 L 113.256658451784,197.549319004423 L 113.925058403303,198.366133451843 L 114.816258338661,199.702933354881 L 115.855991596579,200.96534776998 L 117.118524838336,202.227999838396 L 118.678124725213,203.267733096314 L 119.643591321852,203.787718551931 L 120.831857902329,204.307466354232 L 121.574524515128,204.678918487289 L 121.945857821527,204.753066321911 L 122.317191127927,204.530147511413 L 123.208391063285,204.158933031672 L 124.173857659923,203.564799741433 L 125.065057595281,202.673599806075 L 125.139324256561,201.930933193276 L 125.7334575468,201.336799903037 L 126.253324175759,200.96534776998 L 126.773190804718,201.114118745856 L 127.218790772397,201.559481060219 L 127.887190723916,202.079466515836 L 128.184257369035,202.153614350458 L 128.332790691595,201.485333225597 L 128.704123997994,200.817052100737 L 129.223990626953,200.14853332256 L 129.223990626953,199.480014544383 L 129.669590594633,199.03465223002 L 129.743857255912,198.217600129283 L 129.966657239752,197.697614673666 L 130.560790529991,197.177866871365 L 131.15492382023,196.732266903686 L 131.15492382023,196.212281448069 L 131.377723804069,195.91521480295 L 130.93212383639,195.469852488587 L 130.189457223592,195.469852488587 L 130.040923901032,195.61814815783 L 129.669590594633,195.61814815783 L 129.075457304394,195.098400355529 L 128.481324014155,194.65280038785 L 128.481324014155,194.207200420171 L 128.778390659274,193.910133775052 L 128.778390659274,193.464533807372 L 128.184257369035,193.018933839693 L 127.738657401356,192.721867194574 L 127.738657401356,192.127733904335 L 127.367324094957,191.310919456915 L 127.070257449837,190.939467323857 L 126.995990788558,190.345334033618 L 127.441590756237,189.825586231318 L 127.887190723916,189.899734065939 L 128.629857336715,189.157067453141 L 129.298257288233,189.157067453141 L 129.595323933353,189.3056007757 L 130.115190562312,189.825586231318 L 130.635057191271,189.899734065939 L 131.08065715895,189.528519586198 L 130.85785717511,189.157067453141 L 130.337990546151,188.785615320083 L 129.223990626953,188.265867517782 L 130.115190562312,188.414400840342 L 130.263723884871,187.968800872663 L 130.412257207431,187.449053070362 L 130.635057191271,187.968800872663 L 130.93212383639,188.414400840342 L 131.674790449189,188.340253005721 L 132.343190400707,188.117334195223 L 132.343190400707,187.300282094486 L 132.120390416868,187.003215449367 L 131.377723804069,186.409082159128 L 131.08065715895,185.740801034267 L 131.00639049767,184.775453264287 L 131.600523787909,184.40400113123 L 131.823323771748,184.032548998172 L 131.526257126629,183.58718668381 L 131.08065715895,183.512801195871 L 130.486523868711,183.29012003869 L 129.743857255912,182.844282417694 L 129.223990626953,182.176001292834 L 128.555590675435,181.878934647715 L 128.407057352875,181.433334680035 L 127.218790772397,181.581868002595 L 126.550390820878,181.507720167974 L 126.476124159599,180.467749256739 L 126.030524191919,179.502401486759 L 126.179057514479,178.388282740903 L 126.253324175759,177.868534938602 L 126.401857498319,176.902949515306 L 126.773190804718,172.818401971572 L 127.070257449837,172.149883193395 L 127.070257449837,170.813320943674 L 126.773190804718,170.441868810616 L 126.995990788558,169.996268842937 L 127.070257449837,169.327987718077 L 126.476124159599,168.139721137599 L 125.58492422424,166.580002424064 L 125.65919088552,165.688802488705 L 126.401857498319,164.42615042029 L 127.070257449837,163.31226932775 L 127.070257449837,162.124002747272 L 126.550390820878,161.084269489354 L 126.476124159599,160.564284033737 L 126.847457465998,160.044536231436 L 127.367324094957,159.301869618638 L 127.144524111117,158.856269650959 L 126.476124159599,158.336521848658 L 125.51065756296,157.668003070481 L 124.990790934001,157.073869780242 L 123.728257692244,156.851188623061 L 122.242924466647,156.776803135122 L 121.128924547449,156.702417647184 L 121.277457870009,155.291469909525 L 121.945857821527,154.251736651607 L 122.020124482807,153.286388881627 L 121.723057837688,152.76640342601 L 121.723057837688,152.469336780891 L 122.020124482807,152.023736813212 L 122.317191127927,151.206922365791 L 122.539991111766,149.498670329696 L 122.391457789206,148.68161822896 L 122.020124482807,147.642122624358 L 121.425991192568,146.899218358243 L 120.906124563609,146.305085068004 L 120.38625793465,145.116818487526 L 120.014924628251,143.631485261929 L 119.495057999292,143.03735197169 L 120.014924628251,142.666137491949 L 120.237724612091,142.146152036332 L 120.014924628251,141.923470879151 L 120.014924628251,141.626404234031 L 120.089191289531,139.992537685875 L 119.717857983132,139.918389851253 L 119.346524676732,139.546937718195 L 118.158258096254,138.581352294899 L 117.192791499616,137.393085714421 L 116.078791580418,136.87333791212 z" />

<path id="Devizes" d=" M 133.531456981185,51.5408252749051 L 132.863057029666,51.6152107628432 L 132.863057029666,52.2837295410202 L 132.491723723267,52.5064106982015 L 132.046123755588,53.0261585005022 L 130.709323852551,53.3976106335598 L 130.635057191271,53.2490773110001 L 130.560790529991,53.3976106335598 L 130.040923901032,53.6202917907411 L 128.778390659274,53.5461439561195 L 128.035724046476,53.6202917907411 L 127.812924062636,54.1402772463584 L 127.218790772397,54.2888105689181 L 127.070257449837,53.9917439237987 L 126.476124159599,53.5461439561195 L 125.58492422424,53.843210601239 L 125.51065756296,54.4373438914778 L 125.362124240401,54.6602627019757 L 124.767990950162,54.7344105365973 L 123.876791014804,55.3285438268361 L 123.059857740725,55.922677117075 L 122.094391144087,56.1455959275728 L 121.277457870009,56.3682770847541 L 119.643591321852,56.8138770524333 L 117.415591483456,57.1109436975527 L 115.33612496762,57.2594770201124 L 113.553725096903,57.7792248224131 L 111.622791903627,58.002143632911 L 111.697058564907,59.6360101810679 L 111.919858548746,61.1213434066651 L 110.805858629549,61.3440245638463 L 108.874925436272,61.4184100517845 L 107.612392194515,61.6410912089658 L 106.869725581716,61.8640100194636 L 105.829992323798,61.8640100194636 L 103.379192501563,61.8640100194636 L 102.562259227484,62.1610766645831 L 102.413725904925,62.7552099548219 L 101.819592614686,62.6810621202004 L 100.928392679327,62.2352244992046 L 99.8143927601295,62.1610766645831 L 99.5173261150101,61.8640100194636 L 98.9974594860511,62.0125433420234 L 98.5518595183719,62.3096099871428 L 98.1805262119726,61.9381578540852 L 97.2893262766143,60.9728100841053 L 96.6209263250956,59.9330768261873 L 96.1010596961366,59.2645580480103 L 96.0267930348567,58.5221290885283 L 96.398126341256,58.2992102780304 L 95.878259712297,57.7792248224131 L 96.0267930348567,57.4821581772937 L 95.9525263735769,56.5909582419354 L 95.4326597446179,56.5909582419354 L 94.4671931479797,56.8138770524333 L 94.0958598415804,57.4080103426721 L 93.5759932126214,57.0367958629311 L 93.278926567502,57.1850915321743 L 92.9818599223825,57.7050769877916 L 92.3877266321437,58.0762914675326 L 91.7193266806249,58.002143632911 L 91.6450600193451,57.3338625080506 L 91.5707933580652,56.293891596816 L 91.3479933742257,55.7741437945153 L 90.9023934065465,55.0314771817167 L 90.6053267614271,54.8085583712188 L 90.3082601163077,55.1800105042764 L 89.9369268099084,56.1455959275728 L 89.3427935196695,56.3682770847541 L 88.6001269068709,56.6653437298736 L 88.3773269230313,57.1109436975527 L 88.3773269230313,57.8536103103513 L 88.0802602779119,58.2992102780304 L 87.8574602940723,58.8933435682693 L 88.0802602779119,59.1162623787672 L 87.7089269715126,59.2645580480103 L 87.7831936327925,59.7845435036276 L 88.3030602617515,60.2301434713068 L 88.3030602617515,60.6757434389859 L 87.7089269715126,61.1213434066651 L 86.7434603748744,61.3440245638463 L 85.3323938105571,61.3440245638463 L 84.9610605041578,62.0125433420234 L 85.0353271654377,62.7552099548219 L 84.7382605203183,63.0522765999414 L 83.84706058496,63.5722620555587 L 82.8815939883218,65.205890950399 L 82.8815939883218,65.874409728576 L 82.807327327042,66.542928506753 L 83.1043939721614,66.914142986494 L 82.5102606819225,67.4341284421113 L 81.9903940529635,67.8053429218523 L 82.6587940044822,68.99360950233 L 83.327193956001,69.5877427925689 L 83.4757272785607,69.8848094376883 L 83.2529272947211,70.2560239174293 L 82.807327327042,70.4047948933056 L 82.9558606496017,70.9989281835445 L 83.6985272624003,72.0384237881459 L 84.2183938913593,72.7813280542611 L 85.0353271654377,73.5237570137431 L 84.1441272300794,74.9349424047187 L 83.0301273108815,76.4944234649374 L 82.4359940206427,77.0885567551763 L 82.0646607142434,77.8314610212915 L 81.9903940529635,78.7226609566498 L 81.5447940852844,78.2026755010325 L 81.1734607788851,78.945342113831 L 80.3565275048066,78.8709566258929 L 79.3910609081685,79.9109275371275 L 78.9454609404893,81.2474897868484 L 75.7519945054554,81.9160085650254 L 73.1526613606604,82.658675177824 L 71.8158614576229,83.3269563026844 L 71.5187948125035,83.9210895929233 L 70.7761281997049,83.4757272785607 L 70.4047948933056,83.698408435742 L 69.3650616353876,83.8469417583017 L 69.9591949256265,84.2925417259808 L 70.1819949094661,85.1837416613391 L 69.9591949256265,85.8522604395161 L 69.2907949741078,86.6690748869363 L 69.2165283128279,88.0800226245953 L 69.142261651548,88.525860245591 L 68.0282617323502,88.8229268907105 L 67.2113284582717,88.6000080802126 L 66.9142618131523,88.3029414350932 L 66.0973285390739,88.0800226245953 L 65.0575952811558,88.1544081125335 L 64.3891953296371,87.7088081448543 L 63.4979953942788,86.9661415320557 L 62.1611954912414,86.7434603748744 L 60.4530622818046,85.6293416290183 L 59.1162623787672,84.5896083711003 L 58.5963957498082,84.2181562380427 L 57.9279957982894,83.8469417583017 L 57.7051958144499,83.1786606334413 L 57.4081291693304,82.7328230124455 L 56.6654625565318,82.658675177824 L 56.4426625726923,81.7674752424657 L 56.1455959275728,81.0991941176052 L 55.4771959760541,81.1733419522268 L 54.511729379416,81.3218752747865 L 53.8433294278972,81.6189419199059 L 53.1006628150987,81.6189419199059 L 52.2837295410202,81.2474897868484 L 51.2439962831022,81.4704085973462 L 50.6498629928633,82.8072085003837 L 51.1697296218223,83.1042751455031 L 51.6153295895015,82.8072085003837 L 51.6153295895015,83.9210895929233 L 51.3182629443821,84.9610605041578 L 50.6498629928633,85.109356173401 L 50.2042630251842,85.1837416613391 L 50.1299963639043,86.8917560441176 L 50.6498629928633,86.9661415320557 L 51.0211962992626,86.5205415643766 L 51.4667962669418,86.3720082418169 L 51.7638629120612,87.188822689237 L 51.9123962346209,87.9317269553522 L 51.8381295733411,89.7141268260688 L 52.4322628635799,90.3082601163077 L 52.8778628312591,90.7536224306702 L 52.8778628312591,91.4221412088472 L 53.3977294602181,91.7192078539667 L 53.3234627989382,92.0906599870242 L 53.0263961538188,92.4618744667652 L 53.0263961538188,92.9074744344444 L 52.3579962023001,93.278926567502 L 51.5410629282216,93.650141047243 L 50.278529686464,93.7242888818646 L 49.8329297187849,94.1701265028603 L 50.1299963639043,94.9125554623423 L 50.2042630251842,95.4325409179596 L 49.6843963962252,95.6554597284574 L 49.0159964447065,95.6554597284574 L 48.7931964608669,95.0613264382186 L 48.199063170628,95.8037553977006 L 47.5306632191093,96.5466596638157 L 46.5651966224711,96.5466596638157 L 45.9710633322323,97.2149407886762 L 45.2283967194337,97.2149407886762 L 44.6342634291948,97.8832219135366 L 44.3371967840754,98.8488073368331 L 44.8570634130344,99.2944073045122 L 45.1541300581538,99.4429406270719 L 45.4511967032733,99.0714884940143 L 45.7482633483927,98.8488073368331 L 46.119596654792,99.2202594698906 L 46.4166632999114,99.8143927601295 L 46.3423966386316,100.408526050368 L 46.0453299935121,100.705592695488 L 46.119596654792,101.002659340607 L 46.8622632675906,100.928273852669 L 47.5306632191093,101.002659340607 L 47.679196541669,101.225340497789 L 47.3078632352697,101.522407142908 L 47.3078632352697,102.042154945209 L 47.5306632191093,102.339221590328 L 47.9019965255086,102.487992566204 L 48.8674631221467,102.487992566204 L 50.2042630251842,102.190925921085 L 51.0211962992626,102.042154945209 L 52.5065295248598,101.893859275966 L 53.0263961538188,102.116540433147 L 53.7690627666174,102.636288235448 L 54.3631960568562,103.082125856443 L 54.3631960568562,104.047473626423 L 54.0661294117368,104.493073594102 L 54.3631960568562,104.86452572716 L 54.5859960406958,105.235740206901 L 54.2146627342965,105.606954686642 L 53.7690627666174,106.869606755058 L 53.8433294278972,107.389354557358 L 54.1403960730167,108.206406658095 L 53.3234627989382,108.206406658095 L 52.4322628635799,108.206406658095 L 51.8381295733411,107.909340012976 L 51.3182629443821,108.057873335535 L 52.6550628474195,109.840273206252 L 53.1749294763785,110.434406496491 L 53.9175960891771,111.548287589031 L 54.5859960406958,112.291191855146 L 54.0661294117368,112.588258500265 L 54.3631960568562,113.627754104867 L 54.5859960406958,114.370658370982 L 54.6602627019757,115.26185830634 L 54.3631960568562,116.747191531937 L 53.8433294278972,117.935458112415 L 53.3977294602181,118.752272559835 L 53.3234627989382,120.089072462873 L 53.3234627989382,122.465605623828 L 53.1006628150987,122.911205591507 L 53.3977294602181,123.282657724565 L 53.991862750457,123.505338881746 L 54.0661294117368,124.470924305042 L 54.9573293470951,125.213353264524 L 55.7742626211736,124.916286619405 L 56.7397292178117,124.322153329166 L 57.4081291693304,123.802405526865 L 58.150795782129,124.322153329166 L 58.8934623949276,124.619219974286 L 58.670662411088,125.287738752463 L 58.4478624272485,125.881872042701 L 58.3735957659686,126.6245386555 L 58.7449290723679,127.218671945739 L 59.0419957174873,127.441590756237 L 59.4875956851665,126.995753135241 L 60.0074623141255,126.550390820878 L 60.6015956043643,126.253324175759 L 61.0471955720435,126.030405365261 L 61.5670622010025,125.807486554763 L 62.0869288299615,126.030405365261 L 62.4582621363608,126.77307197806 L 62.7553287814802,127.738657401356 L 63.4979953942788,128.332790691595 L 63.8693287006781,128.778153005958 L 63.8693287006781,128.852538493896 L 64.0178620232378,128.629857336715 L 64.463461990917,128.109871881097 L 65.0575952811558,128.035724046476 L 65.3546619262753,128.481086360838 L 65.7259952326746,128.481086360838 L 65.8002618939544,128.184019715719 L 66.7657284905926,128.184019715719 L 68.10252839363,127.886953070599 L 69.3650616353876,127.58988642548 L 69.5135949579473,127.367205268299 L 69.2907949741078,126.698686490122 L 68.8451950064286,126.47600533294 L 68.6966616838689,125.881872042701 L 69.142261651548,125.510419909644 L 69.8106616030668,125.139205429903 L 69.9591949256265,124.916286619405 L 70.2562615707459,124.099472171985 L 70.9989281835445,124.470924305042 L 71.8158614576229,124.916286619405 L 73.4497280057798,125.436272075022 L 74.2666612798583,125.436272075022 L 75.2321278764964,125.807486554763 L 75.974794489295,125.733338720142 L 76.4203944569742,125.287738752463 L 77.4601277148922,125.287738752463 L 77.9057276825713,124.990672107343 L 78.8711942792095,124.173857659923 L 79.4653275694483,123.579724369684 L 80.0594608596872,124.173857659923 L 81.0991941176052,125.436272075022 L 82.0646607142434,126.327472010381 L 83.327193956001,126.698686490122 L 84.0698605687996,126.847457465998 L 84.366927213919,125.65919088552 L 84.8125271815981,124.767990950162 L 85.0353271654377,124.470924305042 L 85.2581271492773,124.470924305042 L 86.3721270684752,125.436272075022 L 85.6294604556766,126.6245386555 L 85.6294604556766,126.995753135241 L 86.5949270523147,127.961338558537 L 87.5603936489529,129.001071816456 L 87.7831936327925,129.743738429254 L 87.5603936489529,130.709323852551 L 87.7089269715126,131.229071654851 L 88.0802602779119,131.897590433028 L 88.8229268907105,132.417338235329 L 88.8971935519903,132.93708603763 L 89.0457268745501,133.977056948864 L 89.6398601647889,134.645338073725 L 89.7141268260688,135.982137976762 L 89.9369268099084,136.87333791212 L 90.0854601324681,137.690152359541 L 90.4567934388674,138.730123270775 L 90.8281267452666,139.844004363315 L 91.8678600031847,139.992537685875 L 92.9818599223825,140.141071008434 L 93.6502598739013,140.735204298673 L 94.4671931479797,140.735204298673 L 94.838526454379,140.883737621233 L 95.5811930671776,140.735204298673 L 96.6951929863755,140.660818810735 L 97.6606595830136,140.735204298673 L 98.1062595506928,140.957885455854 L 99.8143927601295,140.957885455854 L 100.928392679327,140.809589786611 L 101.299725985727,140.957885455854 L 101.819592614686,141.477870911472 L 102.785059211324,141.180804266352 L 103.601992485402,141.180804266352 L 104.270392436921,141.70078972197 L 105.829992323798,141.774937556591 L 107.909458839634,141.849085391213 L 108.577858791153,142.36907084683 L 109.023458758832,142.814670814509 L 109.91465869419,142.889056302447 L 110.805858629549,142.591989657328 L 112.662525161545,142.591989657328 L 113.405191774344,142.294923012208 L 114.519191693541,142.294923012208 L 114.593458354821,141.70078972197 L 114.296391709702,141.106656431731 L 114.222125048422,140.215456496372 L 114.222125048422,138.952804427957 L 114.964791661221,138.061604492598 L 115.707458274019,137.244790045178 L 116.078791580418,136.87333791212 L 116.004524919139,136.798952424182 L 116.004524919139,135.907752488824 L 116.375858225538,135.536538009083 L 116.524391548098,134.793871396284 L 116.598658209377,133.605604815807 L 117.118524838336,133.457071493247 L 118.900924709053,133.382923658625 L 119.346524676732,133.308538170687 L 119.346524676732,132.788790368387 L 120.014924628251,132.788790368387 L 121.203191208729,132.788790368387 L 122.020124482807,132.194657078148 L 122.837057756886,131.97173826765 L 123.951057676083,132.342952747391 L 125.139324256561,132.714404880448 L 125.95625753064,132.788790368387 L 126.253324175759,131.82320494509 L 126.921724127278,130.040805074374 L 127.590124078796,128.481086360838 L 128.184257369035,126.47600533294 L 129.446790610793,126.550390820878 L 129.743857255912,126.178938687821 L 129.669590594633,125.213353264524 L 130.337990546151,124.396538817104 L 130.412257207431,123.579724369684 L 131.00639049767,123.579724369684 L 131.377723804069,123.876791014804 L 131.600523787909,123.282657724565 L 133.754256965025,123.356805559186 L 134.125590271424,122.911205591507 L 135.091056868062,122.614138946388 L 135.610923497021,122.836820103569 L 136.27932344854,122.985591079445 L 137.467590029018,123.282657724565 L 137.913189996697,123.728020038927 L 138.581589948216,124.248005494545 L 139.472789883574,124.248005494545 L 140.586789802772,125.287738752463 L 141.032389770451,125.213353264524 L 141.62652306069,124.767990950162 L 142.146389689649,124.619219974286 L 142.591989657328,123.133886748688 L 143.186122947567,121.722939011029 L 143.111856286287,120.831739075671 L 142.369189673488,120.831739075671 L 141.997856367089,121.27733904335 L 141.32945641557,121.203191208729 L 141.47798973813,120.089072462873 L 141.997856367089,118.752272559835 L 141.997856367089,116.821339366559 L 141.849323044529,116.37573939888 L 141.106656431731,116.22720607632 L 140.883856447891,116.004287265822 L 141.180923093011,115.633072786081 L 141.923589705809,114.964791661221 L 142.369189673488,114.147739560484 L 143.334656270126,114.370658370982 L 143.705989576526,114.221887395105 L 144.300122866765,114.221887395105 L 144.300122866765,113.553606270245 L 143.928789560365,112.662406334887 L 144.300122866765,112.365339689767 L 144.819989495724,112.291191855146 L 144.745722834444,111.771206399528 L 144.448656189324,111.622673076969 L 143.631722915246,111.622673076969 L 143.483189592686,110.954154298792 L 143.483189592686,109.468821073195 L 144.003056221645,109.246139916013 L 143.557456253966,108.652006625774 L 143.186122947567,106.943992242996 L 142.369189673488,106.721073432498 L 142.517722996048,104.493073594102 L 142.814789641167,103.156273691065 L 143.557456253966,102.636288235448 L 143.186122947567,102.116540433147 L 143.260389608847,100.705592695488 L 145.117056140843,100.63120720755 L 146.231056060041,101.819473788027 L 147.196522656679,102.413607078266 L 148.161989253317,103.230421525686 L 148.533322559717,101.968007110587 L 149.721589140194,99.7400072721913 L 150.241455769153,98.5517406917136 L 150.092922446594,97.5861552684172 L 147.864922608198,96.2495930186963 L 147.939189269478,95.2096221074617 L 148.013455930758,93.9472076923624 L 148.533322559717,93.1301555916257 L 148.681855882276,92.7589411118847 L 148.607589220996,92.4618744667652 L 148.087722592037,92.6847932772631 L 147.419322640519,92.610407789325 L 147.122255995399,92.4618744667652 L 146.45385604388,91.9418890111479 L 145.562656108522,91.8677411765264 L 145.562656108522,90.6053267614271 L 145.117056140843,90.0111934711882 L 144.448656189324,90.0111934711882 L 143.854522899085,90.2338746283695 L 143.408922931406,90.1594891404313 L 143.408922931406,89.5653558501925 L 142.591989657328,88.897074725332 L 141.70078972197,88.4514747576529 L 141.55225639941,87.9317269553522 L 141.62652306069,87.5602748222946 L 140.735323125331,87.1146748546154 L 140.141189835093,86.9661415320557 L 139.844123189973,86.0005561087593 L 139.324256561014,85.9264082741377 L 138.581589948216,85.6293416290183 L 138.581589948216,84.8122895282816 L 138.952923254615,84.4410750485406 L 138.952923254615,82.8815939883218 L 138.952923254615,81.8416230770872 L 138.210256641816,82.287460698083 L 137.616123351577,82.287460698083 L 137.616123351577,81.2474897868484 L 136.947723400059,80.9504231417289 L 136.13079012598,80.5792086619879 L 136.13079012598,79.7621565612512 L 136.724923416219,78.945342113831 L 137.244790045178,78.8709566258929 L 137.616123351577,79.2424087589505 L 138.061723319257,79.2424087589505 L 138.135989980536,78.7968087912713 L 138.804389932055,78.7226609566498 L 139.027189915895,79.0197276017692 L 139.175723238454,78.7226609566498 L 139.621323206134,78.4997421461519 L 140.363989818932,78.4255943115303 L 140.661056464052,77.8314610212915 L 141.40372307685,77.534394376172 L 142.369189673488,77.7570755333533 L 142.666256318608,77.9797566905346 L 143.483189592686,77.9797566905346 L 143.186122947567,77.0144089205547 L 142.666256318608,76.7914901100569 L 142.591989657328,76.0490611505749 L 142.889056302447,75.6776090175173 L 143.260389608847,75.0090902393403 L 143.705989576526,74.117890303982 L 143.631722915246,72.4098759212035 L 143.557456253966,70.7760093730466 L 143.037589625007,70.4047948933056 L 142.889056302447,69.9589572723099 L 142.294923012208,69.7362761151286 L 141.70078972197,69.364823982071 L 140.735323125331,69.2165283128279 L 139.992656512533,68.6965428572106 L 139.547056544854,68.2509428895315 L 139.472789883574,67.3597429541732 L 138.581589948216,66.7656096639343 L 137.690390012857,65.874409728576 L 137.616123351577,64.3146910150407 L 136.650656754939,64.2405431804191 L 136.35359010982,62.9781287653198 L 136.0565234647,61.7154766969039 L 134.571190239103,60.7498912736075 L 134.571190239103,60.1557579833686 L 134.051323610144,59.710395669006 L 134.051323610144,59.1162623787672 L 134.051323610144,58.373358112652 L 134.199856932704,58.0762914675326 L 133.308656997346,57.1109436975527 L 133.382923658625,55.7741437945153 L 133.085857013506,55.3285438268361 L 133.085857013506,53.9917439237987 L 133.234390336066,53.7690627666174 L 133.234390336066,52.5064106982015 L 133.531456981185,52.1349585651439 L 133.531456981185,51.5408252749051 z"  />

<path id="South_Swindon" d=" M 116.078791580418,36.3162785391924 L 115.855991596579,36.4648118617521 L 115.558924951459,36.9104118294313 L 114.964791661221,36.9845596640528 L 114.519191693541,37.3560117971104 L 113.776525080743,38.1728262445306 L 113.405191774344,38.098678409909 L 113.256658451784,37.8757595994111 L 112.959591806664,37.8757595994111 L 112.811058484105,38.3215972204069 L 112.365458516426,38.6186638655263 L 111.697058564907,38.5442783775881 L 110.731591968269,38.7669595347694 L 109.766125371631,39.138411667827 L 109.766125371631,39.5840116355062 L 110.508791984429,40.178144925745 L 111.102925274668,40.8464260506055 L 111.177191935948,41.2922636716012 L 111.251458597228,42.1834636069595 L 110.805858629549,41.7376259859638 L 110.508791984429,41.8863969618401 L 110.434525323149,42.8517447318199 L 109.98892535547,42.7775968971984 L 109.98892535547,41.9605447964616 L 109.394792065231,41.9605447964616 L 108.429325468593,42.0346926310832 L 107.538125533235,41.8120114739019 L 106.424125614037,41.217878183663 L 105.161592372279,40.3266782483047 L 104.493192420761,40.0296116031853 L 104.493192420761,39.3610928250083 L 103.973325791802,39.2869449903867 L 103.527725824122,39.6581594701277 L 102.785059211324,39.8810782806256 L 101.745325953406,40.3266782483047 L 100.482792711648,41.0693448611033 L 98.9974594860511,41.9605447964616 L 98.0319928894129,42.6288259213221 L 96.8437263089352,43.6687968325567 L 96.1010596961366,43.5944113446185 L 96.0267930348567,42.2576114415811 L 95.5069264058977,41.6634781513422 L 95.4326597446179,41.2922636716012 L 95.1355930994984,40.7722782159839 L 94.7642597930991,40.6237448934242 L 95.1355930994984,39.8810782806256 L 95.1355930994984,39.3610928250083 L 95.2841264220582,38.6928117001479 L 94.1701265028603,37.6530784422298 L 93.8730598577408,37.2816263091723 L 93.278926567502,36.9845596640528 L 92.9818599223825,36.8362639948097 L 92.239193309584,37.2074784745507 L 91.7193266806249,37.4303972850486 L 91.6450600193451,37.5045451196701 L 91.3479933742257,37.3560117971104 L 91.0509267291062,37.3560117971104 L 91.0509267291062,38.1728262445306 L 90.7538600839868,38.8413450227076 L 90.8281267452666,39.6581594701277 L 90.3082601163077,39.7325449580659 L 89.8626601486285,40.2522927603666 L 90.2339934550278,40.8464260506055 L 90.5310601001472,41.0693448611033 L 90.6053267614271,41.8863969618401 L 90.0854601324681,41.9605447964616 L 89.1942601971098,41.6634781513422 L 88.6001269068709,41.5149448287825 L 88.0802602779119,40.9951970264818 L 88.0802602779119,41.7376259859638 L 87.9317269553522,42.2576114415811 L 87.3375936651133,42.5546780867005 L 88.3030602617515,42.8517447318199 L 88.9714602132702,43.3717301874372 L 89.5655935035091,43.7429446671782 L 89.9369268099084,44.1885446348574 L 89.7883934873486,44.559996767915 L 89.4913268422292,44.6341446025365 L 89.3427935196695,45.0053590822775 L 89.6398601647889,45.302425727397 L 89.8626601486285,45.7482633483927 L 89.7883934873486,46.1194778281337 L 89.2685268583896,45.970944505574 L 90.0111934711882,46.4906923078747 L 90.8281267452666,46.9365299288704 L 91.0509267291062,48.8672254688302 L 91.4222600355055,49.5357442470072 L 91.7935933419048,50.2784108598058 L 91.7935933419048,50.6496253395468 L 91.6450600193451,50.6496253395468 L 91.6450600193451,51.3181441177238 L 92.0906599870242,52.1349585651439 L 92.3877266321437,53.2490773110001 L 92.8333265998228,53.6202917907411 L 93.0561265836624,54.2888105689181 L 93.0561265836624,55.1800105042764 L 92.8333265998228,55.4770771493958 L 92.0906599870242,55.3285438268361 L 92.0163933257444,54.6602627019757 L 91.7935933419048,53.9173584358605 L 91.2737267129458,53.2490773110001 L 91.0509267291062,52.5807961861397 L 91.3479933742257,52.2093440530821 L 91.2737267129458,51.3925296056619 L 90.8281267452666,51.6152107628432 L 90.3082601163077,51.9122774079626 L 90.3825267775875,52.2837295410202 L 90.8281267452666,53.0261585005022 L 91.1994600516659,54.0661294117368 L 90.7538600839868,54.6602627019757 L 90.6053267614271,54.8085583712188 L 90.9023934065465,55.0314771817167 L 91.3479933742257,55.7741437945153 L 91.5707933580652,56.293891596816 L 91.6450600193451,57.3338625080506 L 91.7193266806249,58.002143632911 L 92.3877266321437,58.0762914675326 L 92.9818599223825,57.7050769877916 L 93.278926567502,57.1850915321743 L 93.5759932126214,57.0367958629311 L 94.0958598415804,57.4080103426721 L 94.4671931479797,56.8138770524333 L 95.4326597446179,56.5909582419354 L 95.9525263735769,56.5909582419354 L 96.0267930348567,57.4821581772937 L 95.878259712297,57.7792248224131 L 96.398126341256,58.2992102780304 L 96.0267930348567,58.5221290885283 L 96.1010596961366,59.2645580480103 L 96.6209263250956,59.9330768261873 L 97.2893262766143,60.9728100841053 L 98.1805262119726,61.9381578540852 L 98.5518595183719,62.3096099871428 L 98.9974594860511,62.0125433420234 L 99.5173261150101,61.8640100194636 L 99.8143927601295,62.1610766645831 L 100.928392679327,62.2352244992046 L 101.819592614686,62.6810621202004 L 102.413725904925,62.7552099548219 L 102.562259227484,62.1610766645831 L 103.379192501563,61.8640100194636 L 105.829992323798,61.8640100194636 L 106.869725581716,61.8640100194636 L 107.612392194515,61.6410912089658 L 108.874925436272,61.4184100517845 L 110.805858629549,61.3440245638463 L 111.919858548746,61.1213434066651 L 111.697058564907,59.6360101810679 L 111.622791903627,58.002143632911 L 113.553725096903,57.7792248224131 L 115.33612496762,57.2594770201124 L 117.415591483456,57.1109436975527 L 119.643591321852,56.8138770524333 L 121.277457870009,56.3682770847541 L 122.094391144087,56.1455959275728 L 123.059857740725,55.922677117075 L 123.876791014804,55.3285438268361 L 124.767990950162,54.7344105365973 L 125.362124240401,54.6602627019757 L 125.51065756296,54.4373438914778 L 125.58492422424,53.843210601239 L 126.476124159599,53.5461439561195 L 127.070257449837,53.9917439237987 L 127.218790772397,54.2888105689181 L 127.812924062636,54.1402772463584 L 128.035724046476,53.6202917907411 L 128.778390659274,53.5461439561195 L 130.040923901032,53.6202917907411 L 130.560790529991,53.3976106335598 L 130.635057191271,53.2490773110001 L 130.189457223592,51.7637440854029 L 129.818123917192,50.4269441823655 L 129.001190643114,49.2386776018877 L 128.629857336715,48.3474776665294 L 128.035724046476,47.6048110537309 L 127.367324094957,47.0848255981136 L 126.698924143438,45.6738778604545 L 125.95625753064,44.2629301227955 L 125.213590917841,43.9658634776761 L 124.693724288882,42.8517447318199 L 124.619457627602,42.4061447641408 L 124.099590998643,41.7376259859638 L 123.505457708404,40.7722782159839 L 123.505457708404,39.6581594701277 L 123.356924385845,39.2127971557652 L 122.391457789206,38.5442783775881 L 122.094391144087,37.9501450873493 L 121.574524515128,38.6928117001479 L 120.831857902329,38.6928117001479 L 120.60905791849,38.8413450227076 L 118.826658047773,39.806930446004 L 118.158258096254,39.8810782806256 L 117.935458112415,39.2869449903867 L 117.267058160896,38.7669595347694 L 116.598658209377,37.5786929542917 L 116.078791580418,36.4648118617521 L 116.078791580418,36.3162785391924 z"  />

<path id="North_Swindon" d=" M 114.816258338661,7.35228064004768 L 114.890524999941,8.02079941822469 L 114.370658370982,8.98614718820456 L 113.850791742023,8.98614718820456 L 112.811058484105,10.0258804461226 L 112.811058484105,11.6597469942795 L 112.662525161545,12.9221614093788 L 112.068391871306,12.9221614093788 L 110.805858629549,13.4421468649961 L 110.13745867803,14.0362801552349 L 107.909458839634,14.1104279898565 L 106.943992242996,14.8533322559717 L 106.052792307638,15.2986945703342 L 105.310125694839,15.3730800582724 L 105.01305904972,15.1503989010911 L 104.56745908204,15.0760134131529 L 104.270392436921,15.3730800582724 L 103.527725824122,15.2245467357127 L 103.304925840283,14.7045612800954 L 103.007859195163,14.1848134777946 L 102.116659259805,13.6650656754939 L 100.928392679327,13.5906801875558 L 99.8143927601295,14.2591989657328 L 99.7401260988496,14.1848134777946 L 99.5915927762899,14.4818801229141 L 99.2945261311705,15.1503989010911 L 98.8489261634913,15.2986945703342 L 98.1805262119726,15.3730800582724 L 98.7746595022115,16.1898945056925 L 98.7746595022115,17.0069466064293 L 98.8489261634913,17.8981465417876 L 99.1459928086108,19.0864131222653 L 99.4430594537302,20.1261463801833 L 99.7401260988496,21.5370941178423 L 99.7401260988496,23.1711983193158 L 97.957726228133,23.2453461539373 L 96.9922596314949,23.2453461539373 L 96.6209263250956,23.9880127667359 L 96.0267930348567,25.1762793472137 L 95.7297263897373,25.3248126697734 L 95.4326597446179,25.1018938592755 L 95.1355930994984,24.7306793795345 L 94.6899931318193,24.5077605690366 L 94.5414598092596,24.8792127020942 L 93.5759932126214,24.9535981900324 L 92.9818599223825,25.5477314802712 L 92.9818599223825,26.4389314156295 L 92.3877266321437,26.5130792502511 L 92.0906599870242,27.4042791856094 L 91.5707933580652,27.7013458307288 L 91.3479933742257,28.2954791209677 L 91.1251933903861,28.5925457660871 L 91.3479933742257,29.4837457014454 L 91.2737267129458,31.266145572162 L 91.6450600193451,32.2314933421419 L 92.3877266321437,32.3058788300801 L 92.759059938543,32.9000121203189 L 92.6847932772631,34.0882787007966 L 92.0906599870242,34.4597308338542 L 91.7935933419048,35.2021597933362 L 92.0906599870242,35.647997414332 L 92.9075932611027,35.9450640594514 L 93.798793196461,36.0933597286945 L 94.3929264866998,36.1677452166327 L 93.8730598577408,37.2816263091723 L 94.1701265028603,37.6530784422298 L 95.2841264220582,38.6928117001479 L 95.1355930994984,39.3610928250083 L 95.1355930994984,39.8810782806256 L 94.7642597930991,40.6237448934242 L 95.1355930994984,40.7722782159839 L 95.4326597446179,41.2922636716012 L 95.5069264058977,41.6634781513422 L 96.0267930348567,42.2576114415811 L 96.1010596961366,43.5944113446185 L 96.8437263089352,43.6687968325567 L 98.0319928894129,42.6288259213221 L 98.9974594860511,41.9605447964616 L 100.482792711648,41.0693448611033 L 101.745325953406,40.3266782483047 L 102.785059211324,39.8810782806256 L 103.527725824122,39.6581594701277 L 103.973325791802,39.2869449903867 L 104.493192420761,39.3610928250083 L 104.493192420761,40.0296116031853 L 105.161592372279,40.3266782483047 L 106.424125614037,41.217878183663 L 107.538125533235,41.8120114739019 L 108.429325468593,42.0346926310832 L 109.394792065231,41.9605447964616 L 109.98892535547,41.9605447964616 L 109.98892535547,42.7775968971984 L 110.434525323149,42.8517447318199 L 110.508791984429,41.8863969618401 L 110.805858629549,41.7376259859638 L 111.251458597228,42.1834636069595 L 111.177191935948,41.2922636716012 L 111.102925274668,40.8464260506055 L 110.508791984429,40.178144925745 L 109.766125371631,39.5840116355062 L 109.766125371631,39.138411667827 L 110.731591968269,38.7669595347694 L 111.697058564907,38.5442783775881 L 112.365458516426,38.6186638655263 L 112.811058484105,38.3215972204069 L 112.959591806664,37.8757595994111 L 113.256658451784,37.8757595994111 L 113.405191774344,38.098678409909 L 113.776525080743,38.1728262445306 L 114.519191693541,37.3560117971104 L 114.964791661221,36.9845596640528 L 115.558924951459,36.9104118294313 L 115.855991596579,36.4648118617521 L 116.078791580418,36.3162785391924 L 116.004524919139,35.7221452489535 L 116.969991515777,35.2021597933362 L 116.969991515777,34.7567974789737 L 116.969991515777,33.5685308984959 L 116.524391548098,32.9743976082571 L 116.598658209377,31.7861310277793 L 116.375858225538,31.4890643826599 L 116.004524919139,30.894931092421 L 116.153058241698,30.1520268263059 L 116.969991515777,29.4095978668239 L 117.415591483456,29.4837457014454 L 117.415591483456,28.2213312863461 L 118.158258096254,28.2213312863461 L 118.678124725213,28.6666936007087 L 119.940657966971,27.4042791856094 L 119.866391305691,26.8842937299921 L 119.420791338012,26.8101458953705 L 118.826658047773,26.1418647705101 L 118.900924709053,25.3989605043949 L 119.569324660572,24.8792127020942 L 119.569324660572,24.3594648997935 L 120.089191289531,23.9880127667359 L 120.831857902329,23.0224273434395 L 121.128924547449,22.7997461862582 L 121.054657886169,22.2799983839575 L 120.68332457977,21.9085462508999 L 120.53479125721,21.0173463155416 L 119.643591321852,20.9429608276035 L 118.678124725213,20.7946651583603 L 117.786924789855,20.1261463801833 L 117.712658128575,19.3834797673847 L 117.341324822176,18.7893464771459 L 116.969991515777,18.3437465094667 L 116.747191531937,17.8981465417876 L 115.781724935299,17.9722943764091 L 115.930258257859,17.3781610861703 L 116.301591564258,17.0810944410508 L 116.004524919139,15.6701467033918 L 115.930258257859,14.6304134454738 L 115.48465829018,14.3333468003544 L 115.26185830634,13.5906801875558 L 114.519191693541,13.2936135424363 L 114.222125048422,12.7738657401356 L 114.519191693541,12.5509469296378 L 114.519191693541,11.6597469942795 L 114.816258338661,11.2885325145385 L 115.4103916289,11.2885325145385 L 115.4103916289,10.991465869419 L 115.0390583225,10.6943992242996 L 114.816258338661,10.1744137686823 L 115.11332498378,9.80319928894129 L 115.558924951459,9.80319928894129 L 115.707458274019,8.98614718820456 L 116.375858225538,8.31786606334413 L 117.267058160896,8.31786606334413 L 117.267058160896,7.8720284423484 L 116.450124886818,7.64934728516711 L 115.707458274019,7.42666612798583 L 114.816258338661,7.35228064004768 z"  />

<path id="South_West_Wiltshire" d=" M 46.119596654792,100.853888364731 L 45.4511967032733,100.928273852669 L 44.8570634130344,101.002659340607 L 44.1886634615157,101.299725985727 L 43.8915968163962,101.002659340607 L 43.8173301551164,101.522407142908 L 43.5945301712768,101.745088300089 L 43.0003968810379,101.745088300089 L 42.7775968971984,101.299725985727 L 42.3319969295192,101.819473788027 L 42.1091969456796,102.042154945209 L 41.6635969780005,101.968007110587 L 41.5150636554408,101.596792630846 L 41.0694636877616,101.522407142908 L 40.5495970588026,101.745088300089 L 40.0297304298436,101.968007110587 L 39.5841304621645,102.042154945209 L 38.9899971719256,102.487992566204 L 38.3958638816867,102.710673723386 L 38.767197188086,102.859207045945 L 39.1385304944853,103.082125856443 L 39.1385304944853,103.527488170806 L 38.6929305268062,103.898940303863 L 38.5443972042464,104.418688106164 L 38.0245305752874,104.418688106164 L 37.4303972850486,104.121621461045 L 36.68773067225,104.493073594102 L 35.8707973981715,104.641606916662 L 35.3509307692125,105.161592372279 L 34.8310641402535,105.161592372279 L 34.3854641725744,104.715754751284 L 33.7170642210557,104.047473626423 L 33.5685308984959,103.676259146682 L 33.1229309308168,103.304807013625 L 32.7515976244175,102.785059211324 L 32.3059976567383,102.710673723386 L 32.1574643341786,102.116540433147 L 31.9346643503391,101.819473788027 L 31.6375977052196,101.44802165497 L 31.3405310601002,101.299725985727 L 31.0434644149808,101.44802165497 L 30.7463977698613,101.968007110587 L 30.3007978021822,102.339221590328 L 30.375064463462,102.710673723386 L 30.1522644796225,103.007740368505 L 29.855197834503,103.230421525686 L 29.335331205544,102.933354880567 L 29.1125312217044,103.156273691065 L 28.7411979153051,103.230421525686 L 28.5926645927454,103.601873658744 L 27.8499979799468,103.601873658744 L 27.5529313348274,103.082125856443 L 26.735998060749,102.265073755707 L 26.5874647381893,103.230421525686 L 26.1418647705101,103.453340336184 L 25.3991981577115,103.527488170806 L 25.2506648351518,103.156273691065 L 25.1021315125921,103.230421525686 L 24.8050648674727,103.601873658744 L 24.3594648997935,103.082125856443 L 24.5822648836331,103.527488170806 L 24.5079982223532,104.196006948983 L 24.2109315772338,103.973325791802 L 23.6167982869949,103.453340336184 L 23.0969316580359,102.859207045945 L 21.8343984162783,103.007740368505 L 21.8343984162783,103.601873658744 L 21.3887984485992,103.750406981304 L 20.7946651583603,104.047473626423 L 20.5718651745207,104.493073594102 L 20.2005318681214,104.270392436921 L 19.6806652391624,104.344540271543 L 19.903465223002,104.418688106164 L 19.9777318842819,105.384273529461 L 19.9777318842819,105.904021331761 L 20.423331851961,106.721073432498 L 20.1262652068416,107.315206722737 L 19.6063985778826,107.835192178354 L 19.4578652553229,108.057873335535 L 19.0122652876437,108.132258823474 L 18.6409319812444,107.909340012976 L 18.0467986910056,108.503473303215 L 19.0122652876437,109.320525403951 L 19.5321319166027,109.543206561133 L 19.5321319166027,110.062954363433 L 18.9379986263639,110.954154298792 L 19.0122652876437,112.291191855146 L 19.0122652876437,112.885325145385 L 19.9777318842819,112.291191855146 L 20.7946651583603,112.291191855146 L 21.1659984647596,111.84535423415 L 21.7601317549985,112.291191855146 L 21.3887984485992,112.588258500265 L 21.6115984324388,113.033620814628 L 22.2057317226776,113.108006302566 L 22.8741316741963,113.182391790504 L 23.4682649644352,114.221887395105 L 23.7653316095546,115.558924951459 L 24.2109315772338,116.004287265822 L 24.3594648997935,117.415472656798 L 24.7307982061928,118.306672592156 L 24.8050648674727,120.386139107992 L 24.2851982385137,121.203191208729 L 23.9881315933942,121.57440568847 L 23.9881315933942,121.871472333589 L 24.2851982385137,122.614138946388 L 24.6565315449129,123.133886748688 L 23.8395982708345,124.322153329166 L 23.3939983031554,124.767990950162 L 23.4682649644352,125.436272075022 L 23.0226649967561,125.95625753064 L 22.1314650613978,126.847457465998 L 21.982931738838,127.29281978036 L 21.982931738838,127.664271913418 L 21.7601317549985,128.406938526217 L 21.3887984485992,129.595205106694 L 20.94319848092,130.634938364612 L 20.8689318196402,131.748819457152 L 20.6461318358006,132.045886102271 L 20.6461318358006,132.417338235329 L 21.1659984647596,133.011471525568 L 20.6461318358006,133.977056948864 L 19.9777318842819,134.942404718844 L 19.3093319327631,136.130671299322 L 18.7151986425243,137.690152359541 L 18.1210653522854,138.358671137718 L 18.0467986910056,139.101337750516 L 17.4526654007667,139.695471040755 L 17.4526654007667,140.438137653554 L 17.0070654330875,140.660818810735 L 17.0070654330875,141.106656431731 L 16.3386654815688,141.923470879151 L 15.8930655138897,142.443218681452 L 15.8930655138897,143.557337427308 L 14.7790655946918,144.671456173164 L 13.5907990142141,145.785337265703 L 13.5907990142141,146.602151713124 L 13.1451990465349,147.196285003363 L 11.8826658047773,148.830389204836 L 11.5855991596579,149.647203652256 L 10.5458659017399,151.058151389915 L 10.0259992727809,151.80105565603 L 10.0259992727809,152.09812230115 L 10.2487992566204,152.543484615512 L 10.3230659179003,153.360536716249 L 9.72893262766143,153.954670006488 L 8.76346603102327,154.251736651607 L 8.09506607950455,154.771722107225 L 7.50093278926568,155.365855397463 L 8.09506607950455,156.257055332822 L 8.09506607950455,157.073869780242 L 7.42666612798583,157.519469747921 L 6.83253283774696,157.519469747921 L 6.01559956366852,158.11360303816 L 4.9758663057505,158.410669683279 L 4.75306632191093,158.856269650959 L 4.75306632191093,159.896002908877 L 4.9758663057505,160.638669521675 L 5.27293295086994,161.084269489354 L 5.27293295086994,161.678402779593 L 4.9758663057505,161.975469424713 L 4.9758663057505,163.534950484931 L 5.94133290238866,164.42615042029 L 6.38693287006781,164.797602553347 L 6.38693287006781,165.317350355648 L 7.12959948286639,166.134402456385 L 7.72373277310526,166.802683581245 L 8.83773269230313,167.174135714303 L 10.0259992727809,167.54558784736 L 10.7686658855794,168.213868972221 L 10.8429325468593,168.882150097081 L 10.7686658855794,169.327987718077 L 10.991465869419,169.179216742201 L 11.6598658209377,168.882150097081 L 12.4767990950162,169.105068907579 L 13.5907990142141,169.179216742201 L 14.7047989334119,169.179216742201 L 16.4871988041285,169.922121008316 L 17.6754653846063,170.219187653435 L 19.0122652876437,171.036002100855 L 19.903465223002,171.704520879032 L 20.7203984970805,172.149883193395 L 21.6858650937186,171.852816548275 L 23.2454649805956,171.555749903156 L 23.9138649321144,171.258683258037 L 24.6565315449129,171.258683258037 L 25.7705314641108,172.818401971572 L 26.8102647220288,173.932283064111 L 27.3301313509878,174.452268519729 L 27.4043980122677,174.972253975346 L 28.1470646250663,175.492001777647 L 28.7411979153051,175.714682934828 L 29.335331205544,176.531735035565 L 29.855197834503,177.422934970923 L 30.7463977698613,178.314134906281 L 31.1177310762606,178.982416031142 L 31.7118643664995,178.982416031142 L 32.4545309792981,179.576549321381 L 32.9743976082571,180.393601422117 L 33.2714642533765,181.284801357476 L 33.4942642372161,181.804786813093 L 33.6427975597758,182.250149127456 L 33.4199975759362,182.770134583073 L 33.4199975759362,183.29012003869 L 33.6427975597758,183.661334518431 L 33.6427975597758,184.92374893353 L 33.8655975436154,185.369586554526 L 34.5339974951341,185.814948868889 L 34.608264156414,186.260786489885 L 34.9795974628132,186.334934324506 L 35.5737307530521,186.632000969626 L 35.8707973981715,187.151986425243 L 35.7965307368917,187.671734227544 L 35.5737307530521,188.117334195223 L 35.8707973981715,188.711467485462 L 36.0193307207313,189.157067453141 L 36.68773067225,190.196800711059 L 37.5789306076083,191.162148481039 L 38.6929305268062,192.350415061516 L 39.5098638008846,193.093319327631 L 40.7723970426422,194.058667097611 L 41.9606636231199,194.94986703297 L 42.7775968971984,195.469852488587 L 43.9658634776761,195.91521480295 L 44.7827967517545,195.989600290888 L 45.0055967355941,196.138133613447 L 44.9313300743142,196.583733581127 L 44.7085300904747,197.474933516485 L 44.7085300904747,198.217600129283 L 44.9313300743142,198.885881254144 L 44.9313300743142,200.297066645119 L 45.079863396874,200.594133290239 L 45.7482633483927,201.411185390976 L 46.4166632999114,201.856547705338 L 46.9365299288704,202.525066483515 L 47.4563965578294,203.416266418873 L 47.9019965255086,204.084785197051 L 48.1247965093482,204.753066321911 L 48.5703964770273,204.753066321911 L 49.3873297511057,203.787718551931 L 49.9071963800647,203.638947576055 L 50.3527963477439,203.490651906812 L 50.7241296541432,203.638947576055 L 51.1697296218223,203.416266418873 L 51.4667962669418,203.119199773754 L 53.8433294278972,203.193585261692 L 54.3631960568562,202.525066483515 L 54.3631960568562,201.782399870717 L 54.7345293632555,200.96534776998 L 55.2543959922145,200.891199935358 L 55.4771959760541,200.66828112486 L 55.2543959922145,200.371214479741 L 55.2543959922145,199.925852165378 L 55.8485292824534,199.554400032321 L 56.3683959114124,199.257333387201 L 57.0367958629311,199.108800064642 L 57.7794624757297,198.885881254144 L 58.4478624272485,198.737585584901 L 58.5221290885283,198.366133451843 L 58.8934623949276,197.846385649542 L 59.3390623626067,197.623466839045 L 59.3390623626067,197.029333548806 L 59.6361290077262,196.212281448069 L 60.0817289754053,195.544000323209 L 59.7846623302859,195.172785843467 L 60.3045289592449,194.207200420171 L 60.230262297965,192.870400517134 L 60.4530622818046,190.5680151908 L 60.7501289269241,189.825586231318 L 60.7501289269241,188.265867517782 L 60.7501289269241,185.889334356827 L 60.4530622818046,185.443734389148 L 59.7846623302859,185.369586554526 L 59.4133290238866,184.552534453789 L 58.9677290562075,183.512801195871 L 58.8934623949276,182.770134583073 L 59.9331956528456,182.324534615394 L 61.8641288461219,181.507720167974 L 63.6465287168385,180.987734712356 L 65.2061286037156,180.393601422117 L 66.2458618616336,179.502401486759 L 66.7657284905926,179.05680151908 L 68.3253283774696,177.794149450664 L 69.3650616353876,176.902949515306 L 69.8849282643466,176.902949515306 L 70.4047948933056,177.422934970923 L 71.5187948125035,177.422934970923 L 72.4099947478618,177.051720491182 L 73.0783946993805,176.531735035565 L 74.1923946185784,176.234668390445 L 74.7122612475374,175.863453910704 L 75.6034611828957,175.120549644589 L 76.0490611505749,174.897868487408 L 75.974794489295,174.452268519729 L 75.7519945054554,174.00666855205 L 75.1578612152166,173.486920749749 L 75.5291945216158,173.264001939251 L 76.0490611505749,173.115468616691 L 76.5689277795339,173.486920749749 L 77.0887944084929,173.635216418992 L 77.534394376172,173.338149773873 L 77.8314610212915,173.189854104629 L 78.1285276664109,173.412535261811 L 79.3910609081685,173.264001939251 L 80.0594608596872,172.966935294132 L 80.4307941660865,172.446949838514 L 80.5050608273663,171.927202036214 L 80.2079941822469,171.407454233913 L 79.7623942145678,170.813320943674 L 79.093994263049,170.441868810616 L 78.57412763409,170.144802165497 L 78.57412763409,169.625054363196 L 78.7226609566498,169.327987718077 L 78.8711942792095,169.030921072957 L 79.613860892008,168.733854427838 L 80.5050608273663,168.956535585019 L 80.6535941499261,168.733854427838 L 81.1734607788851,167.471202359422 L 81.1734607788851,166.654387912002 L 81.0249274563254,166.282935778944 L 80.9506607950455,165.985869133825 L 81.3219941014448,165.466121331524 L 80.8021274724858,164.797602553347 L 81.0249274563254,164.42615042029 L 82.2131940368031,164.42615042029 L 82.5102606819225,164.12908377517 L 83.0301273108815,163.46080265031 L 82.287460698083,163.089588170569 L 81.3962607627247,162.866669360071 L 80.7278608112059,162.569602714951 L 80.8021274724858,162.19838823521 L 81.2477274401649,161.826936102153 L 81.2477274401649,161.529869457033 L 80.7278608112059,161.529869457033 L 79.7623942145678,161.084269489354 L 79.3167942468886,160.861350678856 L 79.1682609243289,160.118921719374 L 79.8366608758476,159.673084098379 L 80.1337275209671,159.376017453259 L 79.4653275694483,158.930655138897 L 78.7969276179296,159.227721784016 L 78.2027943276908,159.747469586317 L 77.6086610374519,159.821855074255 L 76.8659944246533,160.044536231436 L 76.8659944246533,160.861350678856 L 76.494661118254,161.084269489354 L 75.7519945054554,160.638669521675 L 75.0835945539367,160.861350678856 L 74.6379945862575,161.084269489354 L 73.5982613283395,161.084269489354 L 72.8555947155409,160.341602876556 L 72.2614614253021,160.193069553996 L 70.8503948609848,159.747469586317 L 69.7363949417869,159.598936263757 L 68.8451950064286,159.821855074255 L 68.2510617161897,160.267217388618 L 67.062795135712,160.267217388618 L 66.9142618131523,160.118921719374 L 66.3201285229134,160.118921719374 L 66.2458618616336,160.415988364494 L 65.8745285552343,160.415988364494 L 65.3546619262753,159.970150743498 L 64.2406620070774,160.118921719374 L 63.2751954104392,159.821855074255 L 62.4582621363608,159.821855074255 L 62.6067954589205,159.07895080814 L 62.6810621202004,158.410669683279 L 63.0523954265997,157.296550937423 L 63.7207953781184,156.479736490003 L 63.8693287006781,155.811217711826 L 64.0921286845177,155.142936586966 L 64.6119953134767,154.474655462105 L 64.983328619876,153.806136683928 L 65.2803952649954,152.91493674857 L 65.3546619262753,152.172270135771 L 64.983328619876,152.023736813212 L 63.943595361958,151.652284680154 L 63.2751954104392,151.206922365791 L 63.6465287168385,150.761084744796 L 63.943595361958,149.498670329696 L 63.943595361958,148.830389204836 L 63.943595361958,147.493351648482 L 64.0921286845177,146.750922689 L 64.3891953296371,145.859722753642 L 64.3891953296371,143.408804104748 L 64.7605286360364,142.51760416939 L 65.5774619101148,141.626404234031 L 66.6914618293127,141.626404234031 L 67.1370617969919,141.180804266352 L 68.4738617000293,140.957885455854 L 69.5878616192272,140.883737621233 L 70.2562615707459,140.289604330994 L 70.9246615222646,140.141071008434 L 72.2614614253021,139.621323206134 L 72.2614614253021,139.398404395636 L 72.4842614091417,137.838923335417 L 72.3357280865819,136.947723400059 L 72.1871947640222,135.759456819581 L 71.6673281350632,135.388004686523 L 69.662128280507,135.313619198585 L 69.2907949741078,134.199738106046 L 68.9194616677085,133.085857013506 L 68.3253283774696,132.862938203008 L 67.3598617808314,132.862938203008 L 66.7657284905926,133.531219327869 L 66.3943951841933,133.605604815807 L 66.3201285229134,132.491723723267 L 66.542928506753,131.154686166913 L 66.542928506753,129.892271751814 L 65.503195248835,129.892271751814 L 64.8347952973163,129.446671784135 L 63.943595361958,129.372286296197 L 63.8693287006781,128.778153005958 L 63.4979953942788,128.332790691595 L 62.7553287814802,127.738657401356 L 62.4582621363608,126.77307197806 L 62.0869288299615,126.030405365261 L 61.5670622010025,125.807486554763 L 61.0471955720435,126.030405365261 L 60.6015956043643,126.253324175759 L 60.0074623141255,126.550390820878 L 59.4875956851665,126.995753135241 L 59.0419957174873,127.441590756237 L 58.7449290723679,127.218671945739 L 58.3735957659686,126.6245386555 L 58.4478624272485,125.881872042701 L 58.670662411088,125.287738752463 L 58.8934623949276,124.619219974286 L 58.150795782129,124.322153329166 L 57.4081291693304,123.802405526865 L 56.7397292178117,124.322153329166 L 55.7742626211736,124.916286619405 L 54.9573293470951,125.213353264524 L 54.0661294117368,124.470924305042 L 53.991862750457,123.505338881746 L 53.3977294602181,123.282657724565 L 53.1006628150987,122.911205591507 L 53.3234627989382,122.465605623828 L 53.3234627989382,120.089072462873 L 53.3977294602181,118.752272559835 L 53.8433294278972,117.935458112415 L 54.3631960568562,116.747191531937 L 54.6602627019757,115.26185830634 L 54.5859960406958,114.370658370982 L 54.3631960568562,113.627754104867 L 54.0661294117368,112.588258500265 L 54.5859960406958,112.291191855146 L 53.9175960891771,111.548287589031 L 53.1749294763785,110.434406496491 L 52.6550628474195,109.840273206252 L 51.3182629443821,108.057873335535 L 51.8381295733411,107.909340012976 L 52.4322628635799,108.206406658095 L 53.3234627989382,108.206406658095 L 54.1403960730167,108.206406658095 L 53.8433294278972,107.389354557358 L 53.7690627666174,106.869606755058 L 54.2146627342965,105.606954686642 L 54.5859960406958,105.235740206901 L 54.3631960568562,104.86452572716 L 54.0661294117368,104.493073594102 L 54.3631960568562,104.047473626423 L 54.3631960568562,103.082125856443 L 53.7690627666174,102.636288235448 L 53.0263961538188,102.116540433147 L 52.5065295248598,101.893859275966 L 51.0211962992626,102.042154945209 L 50.2042630251842,102.190925921085 L 48.8674631221467,102.487992566204 L 47.9019965255086,102.487992566204 L 47.5306632191093,102.339221590328 L 47.3078632352697,102.042154945209 L 47.3078632352697,101.522407142908 L 47.679196541669,101.225340497789 L 47.5306632191093,101.002659340607 L 46.8622632675906,100.928273852669 L 46.119596654792,101.002659340607 L 46.119596654792,100.853888364731 z"  />

<path id="Chippenham" d=" M 54.2889293955764,81.4704085973462 L 54.1403960730167,81.1733419522268 L 53.6947961053375,80.9504231417289 L 53.1749294763785,80.7277419845476 L 52.0609295571806,80.2821420168685 L 50.8726629767029,79.6880087266296 L 50.2042630251842,79.0938754363908 L 49.6843963962252,78.945342113831 L 49.0902631059863,78.945342113831 L 49.0159964447065,78.3512088235922 L 48.9417297834266,77.905608855913 L 48.5703964770273,77.534394376172 L 48.4218631544676,77.0144089205547 L 48.6446631383072,76.5688089528756 L 49.0902631059863,76.3461277956943 L 49.6843963962252,75.3061568844597 L 50.0557297026245,74.3408091144798 L 50.3527963477439,73.4496091791215 L 51.3925296056619,73.4496091791215 L 51.6895962507813,73.3010758565618 L 51.6895962507813,73.0040092114424 L 51.0954629605425,72.706942566323 L 50.5755963315835,72.3354904332654 L 50.1299963639043,72.0384237881459 L 49.6843963962252,71.5186759858452 L 50.0557297026245,71.2216093407258 L 49.6843963962252,70.8501572076682 L 48.8674631221467,70.5530905625488 L 48.1247965093482,70.4047948933056 L 48.4961298157474,70.1077282481862 L 48.5703964770273,69.0677573369516 L 48.7931964608669,68.3994762120912 L 49.3130630898259,67.6568095992926 L 48.718929799587,67.8794907564739 L 48.1247965093482,67.3597429541732 L 47.679196541669,67.0626763090537 L 47.8277298642287,66.7656096639343 L 48.0505298480683,66.3941575308767 L 47.8277298642287,66.0229430511357 L 47.15932991271,65.6517285713947 L 46.7879966063107,65.2802764383371 L 46.4166632999114,65.205890950399 L 46.2681299773517,65.3546619262753 L 46.119596654792,65.8000242406378 L 45.8225300096725,65.7258764060163 L 45.4511967032733,65.5029575955184 L 45.7482633483927,65.0575952811558 L 45.079863396874,64.834676470658 L 44.0401301389559,64.7605286360364 L 43.8173301551164,64.2405431804191 L 43.1489302035977,64.2405431804191 L 42.4805302520789,64.6861431480983 L 42.3319969295192,65.3546619262753 L 42.1091969456796,65.7258764060163 L 41.5150636554408,66.3200096962551 L 41.2179970103213,66.6912241759961 L 40.6981303813623,66.6912241759961 L 40.1782637524033,67.285357466235 L 40.1782637524033,67.6568095992926 L 40.4010637362429,67.8794907564739 L 40.326797074963,68.4736240467127 L 40.1782637524033,68.9194616677085 L 40.1039970911235,69.8848094376883 L 40.1782637524033,69.8848094376883 L 39.9554637685637,70.7018615384251 L 39.806930446004,71.1472238527876 L 40.1782637524033,71.6672093084049 L 40.0297304298436,71.9642759535244 L 39.5841304621645,72.4098759212035 L 39.5098638008846,72.7813280542611 L 38.9157305106457,72.6325570783848 L 38.6186638655263,72.2613425986438 L 37.8017305914479,72.0384237881459 L 37.4303972850486,71.5930614737834 L 36.2421307045708,70.9245426956063 L 35.3509307692125,70.5530905625488 L 34.6825308176938,70.5530905625488 L 34.4597308338542,71.1472238527876 L 34.2369308500147,71.5186759858452 L 33.1971975920966,71.5186759858452 L 33.1971975920966,71.1472238527876 L 32.9001309469772,70.7760093730466 L 32.6030643018578,70.8501572076682 L 32.2317309954585,70.9989281835445 L 31.8603976890592,70.9989281835445 L 31.4890643826599,70.7760093730466 L 31.1177310762606,70.9989281835445 L 30.894931092421,71.5930614737834 L 30.6721311085815,72.1128092760841 L 30.5978644473016,73.2266903686237 L 30.3007978021822,73.6725279896194 L 29.6323978506634,73.746675824241 L 29.2610645442642,73.3754613445 L 28.9639978991447,73.6725279896194 L 30.1522644796225,74.4893424370395 L 30.1522644796225,74.5637279249777 L 30.375064463462,75.3805423723978 L 30.5235977860217,76.0490611505749 L 30.0037311570627,76.2717423077561 L 29.6323978506634,76.4202756303159 L 30.3007978021822,76.5688089528756 L 30.9691977537009,76.7173422754353 L 31.41479772138,76.9402610859332 L 31.4890643826599,77.3114755656742 L 31.41479772138,78.1285276664109 L 31.1177310762606,78.2026755010325 L 30.4493311247419,78.4997421461519 L 30.1522644796225,78.8709566258929 L 29.335331205544,79.0197276017692 L 29.4095978668239,79.6880087266296 L 29.5581311893836,80.1336086943088 L 29.335331205544,80.8762753071074 L 29.335331205544,81.5445564319678 L 29.5581311893836,82.2130752101448 L 30.0037311570627,82.4357563673261 L 30.0779978183426,83.4013417906225 L 30.7463977698613,83.9210895929233 L 31.3405310601002,84.2181562380427 L 31.0434644149808,84.5152228831621 L 29.7066645119433,84.5896083711003 L 25.7705314641108,84.9610605041578 L 23.1711983193158,85.109356173401 L 19.7549319004423,85.4808083064586 L 18.343865336125,85.4064228185204 L 18.1210653522854,85.3322749838989 L 17.2298654169271,85.5551937943967 L 16.4871988041285,85.7034894636399 L 15.8930655138897,85.8522604395161 L 15.9673321751695,87.0405270199939 L 15.74453219133,88.525860245591 L 16.3386654815688,89.3426746930112 L 16.6357321266883,90.3824079509292 L 16.9327987718077,91.6448223660285 L 16.6357321266883,92.4618744667652 L 16.1901321590091,93.5759932126214 L 15.4474655462105,94.4671931479797 L 14.9275989172515,94.4671931479797 L 14.3334656270126,93.7986743698027 L 13.8878656593335,93.7986743698027 L 13.5165323529342,94.8384076277207 L 13.5165323529342,95.8037553977006 L 12.551065756296,95.8037553977006 L 12.3282657724565,95.9525263735769 L 11.8826658047773,95.8781408856387 L 11.5855991596579,95.729607563079 L 11.4370658370982,96.1752075307582 L 11.1399991919787,96.5466596638157 L 10.47159924046,96.5466596638157 L 9.87746595022115,97.2149407886762 L 9.20906599870242,97.2149407886762 L 8.16933274078441,98.3290595345323 L 8.02079941822469,98.4773552037755 L 8.02079941822469,98.9973406593928 L 8.61493270846356,98.9973406593928 L 8.91199935358299,98.6261261796518 L 9.06053267614271,98.7002740142733 L 9.28333265998228,98.5517406917136 L 9.58039930510172,98.7744218488949 L 10.1745325953406,98.5517406917136 L 10.8429325468593,98.4032073691539 L 11.2885325145385,98.2546740465942 L 11.9569324660572,98.5517406917136 L 12.551065756296,99.2944073045122 L 13.2937323690946,100.037073917311 L 13.8135989980536,100.408526050368 L 14.2591989657328,99.8143927601295 L 14.6305322721321,100.185607239871 L 15.0018655785314,99.7400072721913 L 15.4474655462105,99.5914739496316 L 15.9673321751695,99.6656217842532 L 16.0415988364494,100.185607239871 L 16.1901321590091,100.33414056243 L 15.74453219133,100.556821719612 L 16.1158654977292,101.076807175229 L 15.3731988849307,101.225340497789 L 15.0761322398112,102.116540433147 L 15.5217322074904,102.487992566204 L 16.3386654815688,102.710673723386 L 17.0813320943674,102.933354880567 L 17.304132078207,103.304807013625 L 17.0813320943674,104.047473626423 L 16.6357321266883,104.641606916662 L 16.5614654654084,104.790140239222 L 16.9327987718077,104.790140239222 L 17.3783987394868,104.270392436921 L 18.4923986586847,104.121621461045 L 18.7151986425243,104.270392436921 L 19.2350652714833,104.196006948983 L 19.6063985778826,104.344540271543 L 19.6806652391624,104.344540271543 L 20.2005318681214,104.270392436921 L 20.5718651745207,104.493073594102 L 20.7946651583603,104.047473626423 L 21.3887984485992,103.750406981304 L 21.8343984162783,103.601873658744 L 21.8343984162783,103.007740368505 L 23.0969316580359,102.859207045945 L 23.6167982869949,103.453340336184 L 24.2109315772338,103.973325791802 L 24.5079982223532,104.196006948983 L 24.5822648836331,103.527488170806 L 24.3594648997935,103.082125856443 L 24.8050648674727,103.601873658744 L 25.1021315125921,103.230421525686 L 25.2506648351518,103.156273691065 L 25.3991981577115,103.527488170806 L 26.1418647705101,103.453340336184 L 26.5874647381893,103.230421525686 L 26.735998060749,102.265073755707 L 27.5529313348274,103.082125856443 L 27.8499979799468,103.601873658744 L 28.5926645927454,103.601873658744 L 28.7411979153051,103.230421525686 L 29.1125312217044,103.156273691065 L 29.335331205544,102.933354880567 L 29.855197834503,103.230421525686 L 30.1522644796225,103.007740368505 L 30.375064463462,102.710673723386 L 30.3007978021822,102.339221590328 L 30.7463977698613,101.968007110587 L 31.0434644149808,101.44802165497 L 31.3405310601002,101.299725985727 L 31.6375977052196,101.44802165497 L 31.9346643503391,101.819473788027 L 32.1574643341786,102.116540433147 L 32.3059976567383,102.710673723386 L 32.7515976244175,102.785059211324 L 33.1229309308168,103.304807013625 L 33.5685308984959,103.676259146682 L 33.7170642210557,104.047473626423 L 34.3854641725744,104.715754751284 L 34.8310641402535,105.161592372279 L 35.3509307692125,105.161592372279 L 35.8707973981715,104.641606916662 L 36.68773067225,104.493073594102 L 37.4303972850486,104.121621461045 L 38.0245305752874,104.418688106164 L 38.5443972042464,104.418688106164 L 38.6929305268062,103.898940303863 L 39.1385304944853,103.527488170806 L 39.1385304944853,103.082125856443 L 38.767197188086,102.859207045945 L 38.3958638816867,102.710673723386 L 38.9899971719256,102.487992566204 L 39.5841304621645,102.042154945209 L 40.0297304298436,101.968007110587 L 40.5495970588026,101.745088300089 L 41.0694636877616,101.522407142908 L 41.5150636554408,101.596792630846 L 41.6635969780005,101.968007110587 L 42.1091969456796,102.042154945209 L 42.3319969295192,101.819473788027 L 42.7775968971984,101.299725985727 L 43.0003968810379,101.745088300089 L 43.5945301712768,101.745088300089 L 43.8173301551164,101.522407142908 L 43.8915968163962,101.002659340607 L 44.1886634615157,101.299725985727 L 44.8570634130344,101.002659340607 L 45.4511967032733,100.928273852669 L 46.119596654792,100.853888364731 L 46.0453299935121,100.705592695488 L 46.3423966386316,100.408526050368 L 46.4166632999114,99.8143927601295 L 46.119596654792,99.2202594698906 L 45.7482633483927,98.8488073368331 L 45.4511967032733,99.0714884940143 L 45.1541300581538,99.4429406270719 L 44.8570634130344,99.2944073045122 L 44.3371967840754,98.8488073368331 L 44.6342634291948,97.8832219135366 L 45.2283967194337,97.2149407886762 L 45.9710633322323,97.2149407886762 L 46.5651966224711,96.5466596638157 L 47.5306632191093,96.5466596638157 L 48.199063170628,95.8037553977006 L 48.7931964608669,95.0613264382186 L 49.0159964447065,95.6554597284574 L 49.6843963962252,95.6554597284574 L 50.2042630251842,95.4325409179596 L 50.1299963639043,94.9125554623423 L 49.8329297187849,94.1701265028603 L 50.278529686464,93.7242888818646 L 51.5410629282216,93.650141047243 L 52.3579962023001,93.278926567502 L 53.0263961538188,92.9074744344444 L 53.0263961538188,92.4618744667652 L 53.3234627989382,92.0906599870242 L 53.3977294602181,91.7192078539667 L 52.8778628312591,91.4221412088472 L 52.8778628312591,90.7536224306702 L 52.4322628635799,90.3082601163077 L 51.8381295733411,89.7141268260688 L 51.9123962346209,87.9317269553522 L 51.7638629120612,87.188822689237 L 51.4667962669418,86.3720082418169 L 51.0211962992626,86.5205415643766 L 50.6498629928633,86.9661415320557 L 50.1299963639043,86.8917560441176 L 50.2042630251842,85.1837416613391 L 50.6498629928633,85.109356173401 L 51.3182629443821,84.9610605041578 L 51.6153295895015,83.9210895929233 L 51.6153295895015,82.8072085003837 L 51.1697296218223,83.1042751455031 L 50.6498629928633,82.8072085003837 L 51.2439962831022,81.4704085973462 L 52.2837295410202,81.2474897868484 L 53.1006628150987,81.6189419199059 L 53.8433294278972,81.6189419199059 L 54.2889293955764,81.4704085973462 z"  />

<path id="North_Wiltshire" d=" M 94.9127931156589,4.75306632191093 L 94.9127931156589,6.68376186187067 L 95.0613264382186,7.57496179722897 L 95.7297263897373,8.61493270846356 L 95.878259712297,9.80319928894129 L 95.0613264382186,10.8426948935427 L 94.31865982542,12.0309614740205 L 94.31865982542,12.4767990950162 L 94.5414598092596,12.7738657401356 L 95.1355930994984,13.4421468649961 L 95.358393083338,14.4818801229141 L 95.358393083338,15.2245467357127 L 94.6899931318193,15.4474655462105 L 93.278926567502,16.1898945056925 L 91.7935933419048,17.0069466064293 L 89.9369268099084,17.0069466064293 L 89.5655935035091,16.3386654815688 L 89.2685268583896,15.5957612154537 L 88.6743935681508,15.5957612154537 L 88.1545269391918,14.8533322559717 L 88.0802602779119,13.7392135101155 L 87.2633270038335,13.0709323852551 L 87.1890603425536,12.5509469296378 L 86.7434603748744,11.9568136393989 L 86.0007937620759,11.0656137040406 L 85.8522604395161,10.1002659340607 L 85.5551937943967,10.1002659340607 L 84.8125271815981,10.3973325791802 L 83.9955939075197,10.8426948935427 L 83.1786606334413,11.4368281837816 L 82.5102606819225,11.4368281837816 L 82.1389273755232,11.2141470266003 L 81.7675940691239,10.991465869419 L 81.6190607465642,11.36268034916 L 81.9161273916837,11.9568136393989 L 82.287460698083,12.9221614093788 L 82.807327327042,13.6650656754939 L 82.8815939883218,14.2591989657328 L 83.2529272947211,14.2591989657328 L 83.5499939398405,14.7789467680335 L 83.6242606011204,16.0415988364494 L 84.4411938751988,16.9327987718077 L 85.2581271492773,17.6752277312897 L 85.2581271492773,18.195213186907 L 84.7382605203183,18.195213186907 L 84.2926605526391,18.7151986425243 L 83.5499939398405,18.9378797997056 L 83.1786606334413,18.7151986425243 L 82.5102606819225,18.2693610215286 L 81.9903940529635,17.6010798966681 L 81.1734607788851,17.2298654169271 L 80.4307941660865,17.155479928989 L 80.2079941822469,16.9327987718077 L 79.9109275371275,17.2298654169271 L 78.9454609404893,17.2298654169271 L 78.2770609889706,16.9327987718077 L 77.8314610212915,16.2642799936307 L 76.9402610859332,15.6701467033918 L 76.1233278118547,14.8533322559717 L 75.3063945377763,14.1104279898565 L 74.935061231377,13.5162946996176 L 74.2666612798583,13.4421468649961 L 73.9695946347388,13.5906801875558 L 73.0783946993805,14.1848134777946 L 73.0041280381007,14.4818801229141 L 72.5585280704215,14.6304134454738 L 72.7070613929812,15.5957612154537 L 72.1129281027424,15.6701467033918 L 71.8158614576229,16.3386654815688 L 71.2217281673841,16.3386654815688 L 71.3702614899438,17.0069466064293 L 71.5930614737834,17.5269320620465 L 71.8901281189028,18.4922798320264 L 72.5585280704215,19.6805464125041 L 73.0041280381007,21.1658796381013 L 73.0783946993805,22.1312274080812 L 71.5187948125035,21.8341607629618 L 70.3305282320258,21.5370941178423 L 69.7363949417869,21.6114796057805 L 69.3650616353876,21.982931738838 L 68.7709283451487,21.8341607629618 L 68.8451950064286,20.645894182484 L 68.3253283774696,20.4975985132409 L 67.2855951195516,20.3488275373646 L 67.2855951195516,19.903465223002 L 66.6914618293127,19.3834797673847 L 66.3201285229134,18.8634943117674 L 66.023061877794,18.4922798320264 L 65.4289285875551,18.4181319974048 L 64.9090619585961,18.7893464771459 L 63.2751954104392,18.9378797997056 L 63.0523954265997,18.6408131545861 L 61.8641288461219,18.2693610215286 L 61.7155955235622,17.5269320620465 L 60.8243955882039,17.5269320620465 L 60.3045289592449,16.7840277959314 L 58.5963957498082,15.74453219133 L 57.3338625080506,14.3333468003544 L 56.5169292339721,13.7392135101155 L 56.2198625888527,13.2192280544982 L 55.9227959437333,12.9221614093788 L 55.4771959760541,12.9965468973169 L 55.1058626696548,13.5906801875558 L 54.5859960406958,14.3333468003544 L 52.8035961699792,16.6357321266883 L 49.1645297672662,21.1658796381013 L 42.4805302520789,30.5234789593635 L 40.0297304298436,34.4597308338542 L 39.5098638008846,34.0138932128585 L 39.1385304944853,33.6426787331175 L 37.9502639140076,33.5685308984959 L 37.5789306076083,33.1970787654384 L 36.8362639948097,32.9743976082571 L 35.8707973981715,32.3802643180182 L 35.647997414332,31.7861310277793 L 35.128130785373,32.0831976728988 L 35.0538641240931,32.3802643180182 L 35.2766641079327,32.6029454751995 L 34.5339974951341,33.7168265677391 L 33.7913308823355,33.9397453782369 L 33.4199975759362,33.1970787654384 L 32.3059976567383,32.8256266323808 L 30.9691977537009,32.7514787977592 L 31.0434644149808,32.1573455075203 L 31.3405310601002,31.4146788947218 L 31.0434644149808,31.1919977375405 L 30.375064463462,31.1176122496023 L 29.6323978506634,31.7861310277793 L 28.0727979637864,33.0485454428786 L 27.3301313509878,33.0485454428786 L 26.735998060749,33.2714642533765 L 25.3991981577115,33.8655975436154 L 25.2506648351518,34.8309453135952 L 24.8050648674727,35.8706785715133 L 24.7307982061928,36.8362639948097 L 23.7653316095546,36.6133451843118 L 23.7653316095546,36.2421307045708 L 23.0226649967561,36.2421307045708 L 22.8741316741963,36.6133451843118 L 22.2057317226776,36.390426373814 L 20.7946651583603,36.4648118617521 L 20.2005318681214,37.8016117647896 L 19.9777318842819,37.8757595994111 L 19.9777318842819,38.0245305752874 L 19.8291985617222,38.3215972204069 L 19.8291985617222,39.138411667827 L 20.7203984970805,39.2127971557652 L 21.2402651260395,39.3610928250083 L 21.982931738838,39.806930446004 L 21.3145317873193,40.4010637362429 L 21.0174651421999,41.1434926957249 L 20.7946651583603,42.4805302520789 L 20.7203984970805,43.8170925017998 L 20.8689318196402,44.1141591469192 L 20.94319848092,44.7826779250962 L 20.6461318358006,45.0053590822775 L 20.7946651583603,45.302425727397 L 21.1659984647596,45.8965590176358 L 21.6858650937186,46.4165444732531 L 21.7601317549985,46.7877589529941 L 21.463065109879,47.8277298642287 L 21.1659984647596,48.4218631544676 L 20.94319848092,48.718929799587 L 21.3887984485992,49.0159964447065 L 21.982931738838,49.3130630898259 L 21.982931738838,50.2042630251842 L 22.2799983839575,50.6496253395468 L 22.9483983354762,50.6496253395468 L 23.2454649805956,50.7240108274849 L 23.3197316418755,50.8725441500446 L 22.8741316741963,51.5408252749051 L 22.7255983516366,52.4320252102634 L 21.982931738838,52.8778628312591 L 21.3887984485992,53.3232251456217 L 20.4975985132409,53.3232251456217 L 19.3093319327631,53.6946772786792 L 17.7497320458861,54.5858772140375 L 17.1555987556473,55.0314771817167 L 16.6357321266883,55.3285438268361 L 16.0415988364494,55.6256104719555 L 15.9673321751695,56.5168104073138 L 15.0761322398112,56.8880248870548 L 14.3334656270126,57.3338625080506 L 13.8135989980536,57.2594770201124 L 13.0709323852551,57.63092915317 L 11.8826658047773,58.5962769231499 L 11.511332498378,58.8191957336477 L 12.2539991111766,59.6360101810679 L 12.6253324175759,60.1557579833686 L 13.2194657078148,60.7498912736075 L 13.3679990303745,61.1213434066651 L 13.8878656593335,61.3440245638463 L 14.3334656270126,61.5669433743442 L 14.6305322721321,61.8640100194636 L 15.0761322398112,61.9381578540852 L 15.2989322236508,61.6410912089658 L 15.9673321751695,61.3440245638463 L 16.4871988041285,61.5669433743442 L 16.9327987718077,61.5669433743442 L 16.9327987718077,62.3839954750809 L 17.0813320943674,62.7552099548219 L 17.0813320943674,63.7205577248018 L 17.2298654169271,63.9434765352997 L 16.784265449248,64.6117576601601 L 16.6357321266883,65.8000242406378 L 16.4871988041285,66.542928506753 L 16.5614654654084,66.7656096639343 L 16.3386654815688,66.914142986494 L 16.1901321590091,68.2509428895315 L 16.1901321590091,69.2165283128279 L 16.9327987718077,69.364823982071 L 17.3783987394868,69.6618906271905 L 17.823998707166,69.2165283128279 L 17.3783987394868,70.1077282481862 L 17.2298654169271,72.1128092760841 L 16.784265449248,74.5637279249777 L 16.4129321428487,76.0490611505749 L 16.1901321590091,77.6085422107936 L 17.0813320943674,77.905608855913 L 17.823998707166,78.4997421461519 L 18.2695986748451,79.0197276017692 L 18.5666653199646,79.8365420491893 L 18.863731965084,80.4306753394282 L 18.6409319812444,81.0248086296671 L 18.1953320135653,81.1733419522268 L 18.343865336125,81.7674752424657 L 17.823998707166,82.3616085327045 L 17.304132078207,82.5845273432024 L 16.8585321105278,83.029889657565 L 17.3783987394868,83.7727939236801 L 17.5269320620465,84.366927213919 L 17.7497320458861,84.8866750162197 L 18.343865336125,85.2581271492773 L 18.1210653522854,85.3322749838989 L 18.343865336125,85.4064228185204 L 19.7549319004423,85.4808083064586 L 23.1711983193158,85.109356173401 L 25.7705314641108,84.9610605041578 L 29.7066645119433,84.5896083711003 L 31.0434644149808,84.5152228831621 L 31.3405310601002,84.2181562380427 L 30.7463977698613,83.9210895929233 L 30.0779978183426,83.4013417906225 L 30.0037311570627,82.4357563673261 L 29.5581311893836,82.2130752101448 L 29.335331205544,81.5445564319678 L 29.335331205544,80.8762753071074 L 29.5581311893836,80.1336086943088 L 29.4095978668239,79.6880087266296 L 29.335331205544,79.0197276017692 L 30.1522644796225,78.8709566258929 L 30.4493311247419,78.4997421461519 L 31.1177310762606,78.2026755010325 L 31.41479772138,78.1285276664109 L 31.4890643826599,77.3114755656742 L 31.41479772138,76.9402610859332 L 30.9691977537009,76.7173422754353 L 30.3007978021822,76.5688089528756 L 29.6323978506634,76.4202756303159 L 30.0037311570627,76.2717423077561 L 30.5235977860217,76.0490611505749 L 30.375064463462,75.3805423723978 L 30.1522644796225,74.5637279249777 L 30.1522644796225,74.4893424370395 L 28.9639978991447,73.6725279896194 L 29.2610645442642,73.3754613445 L 29.6323978506634,73.746675824241 L 30.3007978021822,73.6725279896194 L 30.5978644473016,73.2266903686237 L 30.6721311085815,72.1128092760841 L 30.894931092421,71.5930614737834 L 31.1177310762606,70.9989281835445 L 31.4890643826599,70.7760093730466 L 31.8603976890592,70.9989281835445 L 32.2317309954585,70.9989281835445 L 32.6030643018578,70.8501572076682 L 32.9001309469772,70.7760093730466 L 33.1971975920966,71.1472238527876 L 33.1971975920966,71.5186759858452 L 34.2369308500147,71.5186759858452 L 34.4597308338542,71.1472238527876 L 34.6825308176938,70.5530905625488 L 35.3509307692125,70.5530905625488 L 36.2421307045708,70.9245426956063 L 37.4303972850486,71.5930614737834 L 37.8017305914479,72.0384237881459 L 38.6186638655263,72.2613425986438 L 38.9157305106457,72.6325570783848 L 39.5098638008846,72.7813280542611 L 39.5841304621645,72.4098759212035 L 40.0297304298436,71.9642759535244 L 40.1782637524033,71.6672093084049 L 39.806930446004,71.1472238527876 L 39.9554637685637,70.7018615384251 L 40.1782637524033,69.8848094376883 L 40.1039970911235,69.8848094376883 L 40.1782637524033,68.9194616677085 L 40.326797074963,68.4736240467127 L 40.4010637362429,67.8794907564739 L 40.1782637524033,67.6568095992926 L 40.1782637524033,67.285357466235 L 40.6981303813623,66.6912241759961 L 41.2179970103213,66.6912241759961 L 41.5150636554408,66.3200096962551 L 42.1091969456796,65.7258764060163 L 42.3319969295192,65.3546619262753 L 42.4805302520789,64.6861431480983 L 43.1489302035977,64.2405431804191 L 43.8173301551164,64.2405431804191 L 44.0401301389559,64.7605286360364 L 45.079863396874,64.834676470658 L 45.7482633483927,65.0575952811558 L 45.4511967032733,65.5029575955184 L 45.8225300096725,65.7258764060163 L 46.119596654792,65.8000242406378 L 46.2681299773517,65.3546619262753 L 46.4166632999114,65.205890950399 L 46.7879966063107,65.2802764383371 L 47.15932991271,65.6517285713947 L 47.8277298642287,66.0229430511357 L 48.0505298480683,66.3941575308767 L 47.8277298642287,66.7656096639343 L 47.679196541669,67.0626763090537 L 48.1247965093482,67.3597429541732 L 48.718929799587,67.8794907564739 L 49.3130630898259,67.6568095992926 L 48.7931964608669,68.3994762120912 L 48.5703964770273,69.0677573369516 L 48.4961298157474,70.1077282481862 L 48.1247965093482,70.4047948933056 L 48.8674631221467,70.5530905625488 L 49.6843963962252,70.8501572076682 L 50.0557297026245,71.2216093407258 L 49.6843963962252,71.5186759858452 L 50.1299963639043,72.0384237881459 L 50.5755963315835,72.3354904332654 L 51.0954629605425,72.706942566323 L 51.6895962507813,73.0040092114424 L 51.6895962507813,73.3010758565618 L 51.3925296056619,73.4496091791215 L 50.3527963477439,73.4496091791215 L 50.0557297026245,74.3408091144798 L 49.6843963962252,75.3061568844597 L 49.0902631059863,76.3461277956943 L 48.6446631383072,76.5688089528756 L 48.4218631544676,77.0144089205547 L 48.5703964770273,77.534394376172 L 48.9417297834266,77.905608855913 L 49.0159964447065,78.3512088235922 L 49.0902631059863,78.945342113831 L 49.6843963962252,78.945342113831 L 50.2042630251842,79.0938754363908 L 50.8726629767029,79.6880087266296 L 52.0609295571806,80.2821420168685 L 53.1749294763785,80.7277419845476 L 53.6947961053375,80.9504231417289 L 54.1403960730167,81.1733419522268 L 54.2889293955764,81.4704085973462 L 54.511729379416,81.3218752747865 L 55.4771959760541,81.1733419522268 L 56.1455959275728,81.0991941176052 L 56.4426625726923,81.7674752424657 L 56.6654625565318,82.658675177824 L 57.4081291693304,82.7328230124455 L 57.7051958144499,83.1786606334413 L 57.9279957982894,83.8469417583017 L 58.5963957498082,84.2181562380427 L 59.1162623787672,84.5896083711003 L 60.4530622818046,85.6293416290183 L 62.1611954912414,86.7434603748744 L 63.4979953942788,86.9661415320557 L 64.3891953296371,87.7088081448543 L 65.0575952811558,88.1544081125335 L 66.0973285390739,88.0800226245953 L 66.9142618131523,88.3029414350932 L 67.2113284582717,88.6000080802126 L 68.0282617323502,88.8229268907105 L 69.142261651548,88.525860245591 L 69.2165283128279,88.0800226245953 L 69.2907949741078,86.6690748869363 L 69.9591949256265,85.8522604395161 L 70.1819949094661,85.1837416613391 L 69.9591949256265,84.2925417259808 L 69.3650616353876,83.8469417583017 L 70.4047948933056,83.698408435742 L 70.7761281997049,83.4757272785607 L 71.5187948125035,83.9210895929233 L 71.8158614576229,83.3269563026844 L 73.1526613606604,82.658675177824 L 75.7519945054554,81.9160085650254 L 78.9454609404893,81.2474897868484 L 79.3910609081685,79.9109275371275 L 80.3565275048066,78.8709566258929 L 81.1734607788851,78.945342113831 L 81.5447940852844,78.2026755010325 L 81.9903940529635,78.7226609566498 L 82.0646607142434,77.8314610212915 L 82.4359940206427,77.0885567551763 L 83.0301273108815,76.4944234649374 L 84.1441272300794,74.9349424047187 L 85.0353271654377,73.5237570137431 L 84.2183938913593,72.7813280542611 L 83.6985272624003,72.0384237881459 L 82.9558606496017,70.9989281835445 L 82.807327327042,70.4047948933056 L 83.2529272947211,70.2560239174293 L 83.4757272785607,69.8848094376883 L 83.327193956001,69.5877427925689 L 82.6587940044822,68.99360950233 L 81.9903940529635,67.8053429218523 L 82.5102606819225,67.4341284421113 L 83.1043939721614,66.914142986494 L 82.807327327042,66.542928506753 L 82.8815939883218,65.874409728576 L 82.8815939883218,65.205890950399 L 83.84706058496,63.5722620555587 L 84.7382605203183,63.0522765999414 L 85.0353271654377,62.7552099548219 L 84.9610605041578,62.0125433420234 L 85.3323938105571,61.3440245638463 L 86.7434603748744,61.3440245638463 L 87.7089269715126,61.1213434066651 L 88.3030602617515,60.6757434389859 L 88.3030602617515,60.2301434713068 L 87.7831936327925,59.7845435036276 L 87.7089269715126,59.2645580480103 L 88.0802602779119,59.1162623787672 L 87.8574602940723,58.8933435682693 L 88.0802602779119,58.2992102780304 L 88.3773269230313,57.8536103103513 L 88.3773269230313,57.1109436975527 L 88.6001269068709,56.6653437298736 L 89.3427935196695,56.3682770847541 L 89.9369268099084,56.1455959275728 L 90.3082601163077,55.1800105042764 L 90.7538600839868,54.6602627019757 L 91.1994600516659,54.0661294117368 L 90.8281267452666,53.0261585005022 L 90.3825267775875,52.2837295410202 L 90.3082601163077,51.9122774079626 L 90.8281267452666,51.6152107628432 L 91.2737267129458,51.3925296056619 L 91.3479933742257,52.2093440530821 L 91.0509267291062,52.5807961861397 L 91.2737267129458,53.2490773110001 L 91.7935933419048,53.9173584358605 L 92.0163933257444,54.6602627019757 L 92.0906599870242,55.3285438268361 L 92.8333265998228,55.4770771493958 L 93.0561265836624,55.1800105042764 L 93.0561265836624,54.2888105689181 L 92.8333265998228,53.6202917907411 L 92.3877266321437,53.2490773110001 L 92.0906599870242,52.1349585651439 L 91.6450600193451,51.3181441177238 L 91.6450600193451,50.6496253395468 L 91.7935933419048,50.6496253395468 L 91.7935933419048,50.2784108598058 L 91.4222600355055,49.5357442470072 L 91.0509267291062,48.8672254688302 L 90.8281267452666,46.9365299288704 L 90.0111934711882,46.4906923078747 L 89.2685268583896,45.970944505574 L 89.7883934873486,46.1194778281337 L 89.8626601486285,45.7482633483927 L 89.6398601647889,45.302425727397 L 89.3427935196695,45.0053590822775 L 89.4913268422292,44.6341446025365 L 89.7883934873486,44.559996767915 L 89.9369268099084,44.1885446348574 L 89.5655935035091,43.7429446671782 L 88.9714602132702,43.3717301874372 L 88.3030602617515,42.8517447318199 L 87.3375936651133,42.5546780867005 L 87.9317269553522,42.2576114415811 L 88.0802602779119,41.7376259859638 L 88.0802602779119,40.9951970264818 L 88.6001269068709,41.5149448287825 L 89.1942601971098,41.6634781513422 L 90.0854601324681,41.9605447964616 L 90.6053267614271,41.8863969618401 L 90.5310601001472,41.0693448611033 L 90.2339934550278,40.8464260506055 L 89.8626601486285,40.2522927603666 L 90.3082601163077,39.7325449580659 L 90.8281267452666,39.6581594701277 L 90.7538600839868,38.8413450227076 L 91.0509267291062,38.1728262445306 L 91.0509267291062,37.3560117971104 L 91.3479933742257,37.3560117971104 L 91.6450600193451,37.5045451196701 L 91.7193266806249,37.4303972850486 L 92.239193309584,37.2074784745507 L 92.9818599223825,36.8362639948097 L 93.278926567502,36.9845596640528 L 93.8730598577408,37.2816263091723 L 94.3929264866998,36.1677452166327 L 93.798793196461,36.0933597286945 L 92.9075932611027,35.9450640594514 L 92.0906599870242,35.647997414332 L 91.7935933419048,35.2021597933362 L 92.0906599870242,34.4597308338542 L 92.6847932772631,34.0882787007966 L 92.759059938543,32.9000121203189 L 92.3877266321437,32.3058788300801 L 91.6450600193451,32.2314933421419 L 91.2737267129458,31.266145572162 L 91.3479933742257,29.4837457014454 L 91.1251933903861,28.5925457660871 L 91.3479933742257,28.2954791209677 L 91.5707933580652,27.7013458307288 L 92.0906599870242,27.4042791856094 L 92.3877266321437,26.5130792502511 L 92.9818599223825,26.4389314156295 L 92.9818599223825,25.5477314802712 L 93.5759932126214,24.9535981900324 L 94.5414598092596,24.8792127020942 L 94.6899931318193,24.5077605690366 L 95.1355930994984,24.7306793795345 L 95.4326597446179,25.1018938592755 L 95.7297263897373,25.3248126697734 L 96.0267930348567,25.1762793472137 L 96.6209263250956,23.9880127667359 L 96.9922596314949,23.2453461539373 L 97.957726228133,23.2453461539373 L 99.7401260988496,23.1711983193158 L 99.7401260988496,21.5370941178423 L 99.4430594537302,20.1261463801833 L 99.1459928086108,19.0864131222653 L 98.8489261634913,17.8981465417876 L 98.7746595022115,17.0069466064293 L 98.7746595022115,16.1898945056925 L 98.1805262119726,15.3730800582724 L 98.8489261634913,15.2986945703342 L 99.2945261311705,15.1503989010911 L 99.5915927762899,14.4818801229141 L 99.7401260988496,14.1848134777946 L 99.4430594537302,13.7392135101155 L 98.9231928247712,12.6994802521975 L 98.9974594860511,11.5112136717197 L 98.477592857092,11.4368281837816 L 98.1805262119726,10.8426948935427 L 97.8834595668532,9.87734712356286 L 97.5863929217337,8.68908054308513 L 97.1407929540546,8.09494725284626 L 96.6951929863755,7.12959948286639 L 96.0267930348567,6.0896285716318 L 96.398126341256,5.94133290238866 L 96.8437263089352,5.56988076933108 L 96.2495930186963,5.1984286362735 L 96.0267930348567,4.75306632191093 L 94.9127931156589,4.75306632191093 z" /></svg>
